<svg version="1.1" id="Laag_1" xmlns="http://www.w3.org/2000/svg" x="0" y="0" viewBox="0 0 100 100" xml:space="preserve"><style></style><switch><g><circle cx="50" cy="50" r="50" fill="#e1e1e1"/><path d="M30.8 46.8c0-2.1.6-3.8 1.9-5.1s2.8-2.2 4.7-2.4 3.7.1 5.3 1.1c1.5 0 3.2-.4 5.1-1.1V44c-.6.2-1.2.4-1.9.6.2.7.4 1.3.4 2 0 1.9-.6 3.6-1.7 5s-2.7 2.3-4.6 2.7c-.6.1-1.1.3-1.4.7s-.5.8-.5 1.4.4 1.1 1.1 1.5c.4.2 1.3.6 2.5.9 1.9.4 3.2.9 3.9 1.4 1.2.9 1.9 2.2 1.9 3.8 0 4.8-2.8 7.1-8.4 7.1-2.4 0-4.3-.4-5.8-1.3-1.9-1.1-2.8-2.7-2.8-4.9 0-2.6 1.4-4.3 4.2-5.2v-.1c-.7-.4-1.2-1.1-1.4-2s-.2-1.7 0-2.6.7-1.4 1.3-1.6v-.1c-1.1-.4-2-1.2-2.8-2.5s-1-2.7-1-4zM39 62.1c-2.5.1-3.8.9-3.8 2.5s1.3 2.4 4 2.4c2.4 0 3.6-.8 3.6-2.4s-1.2-2.5-3.8-2.5zM38.7 50c1.9 0 2.8-1.1 2.8-3.2 0-1.1-.3-1.9-.8-2.5s-1.2-.9-2-.9-1.5.3-2 .9-.8 1.5-.8 2.5c-.1 2.1.8 3.2 2.8 3.2zm17.1-17.5c0-.9-.3-1.8-.9-2.4s-1.3-1-2.2-1-1.7.3-2.3 1-.9 1.5-.9 2.4.3 1.7.9 2.4 1.4 1 2.2 1 1.6-.3 2.2-1 1-1.6 1-2.4zm-.6 6.9H50c.1.7.2 4 .2 10.1s-.1 9.5-.2 10.3h5.2c-.1-.9-.1-4.3-.1-10.4s0-9.3.1-10zm14.3 15.2c-.8.6-1.7.8-2.7.8-1.4 0-2.1-1-2.1-3.1v-8.5l4.8.1v-4.5h-4.8v-.6c0-1.4 0-2.5.1-3.3h-5.2c.1.6.1 1.6.1 3.1v.8h-2.2v4.5c.8-.1 1.3-.2 1.8-.1h.5V52.1c0 2.5.3 4.3.9 5.5.8 1.6 2.4 2.4 4.7 2.4 1.7 0 3.1-.3 4.2-.9v-4.5z" fill="#293a7d"/></g></switch></svg>