<svg version="1.1" id="Laag_1" xmlns="http://www.w3.org/2000/svg" x="0" y="0" viewBox="0 0 100 100" xml:space="preserve"><style></style><switch><g><circle cx="50" cy="50" r="50" fill="#e1e1e1"/><path d="M30.5 37.6c-1-1-1.5-2.2-1.5-3.6s.5-2.6 1.5-3.6 2.2-1.5 3.6-1.5 2.6.5 3.6 1.5 1.5 2.2 1.5 3.6-.5 2.6-1.5 3.6-2.2 1.5-3.6 1.5-2.6-.5-3.6-1.5zM29.7 71V43h8.7v28h-8.7zm32.6 0V57.3c0-2.2-.2-3.9-.6-4.9-.7-1.7-2-2.5-4-2.5s-3.4.8-4.2 2.2c-.6 1.1-.9 2.8-.9 5V71H44V43h8.3v3.8h.1c.6-1.2 1.6-2.3 3-3.1 1.5-1 3.2-1.5 5.2-1.5 4.1 0 6.9 1.3 8.5 3.8 1.2 2.1 1.9 5.2 1.9 9.6V71h-8.7z" fill="#293a7d"/></g></switch></svg>