<svg version="1.1" id="Laag_1" xmlns="http://www.w3.org/2000/svg" x="0" y="0" viewBox="0 0 100 100" xml:space="preserve"><style></style><switch><g><circle cx="50" cy="50" r="50" fill="#e1e1e1"/><path d="M69.5 32c1.2 0 2.3.4 3.2 1.3s1.3 1.9 1.3 3.2v27c0 1.2-.4 2.3-1.3 3.2S70.8 68 69.5 68h-39c-1.2 0-2.3-.4-3.2-1.3S26 64.8 26 63.5v-27c0-1.2.4-2.3 1.3-3.2s1.9-1.3 3.2-1.3h39zm0 4.5h-39v3.8c2.2 1.8 6.4 5.1 12.7 9.9l.8.8c1.2 1.1 2.2 1.8 3 2.2 1.2.8 2.2 1.2 3 1.2s1.8-.4 3-1.2c.8-.4 1.8-1.2 3-2.2l.8-.8c6.2-4.8 10.5-8.1 12.7-9.9v-3.8zm-39 27h39V46.1l-10.9 8.6c-1.6 1.3-2.8 2.2-3.8 2.8-1.7 1-3.3 1.5-4.8 1.5s-3.1-.5-4.9-1.5c-.9-.6-2.2-1.5-3.8-2.8l-10.8-8.6v17.4z" fill="#293a7d"/></g></switch></svg>