<?xml version="1.0"?>
<svg xmlns="http://www.w3.org/2000/svg" xmlns:xlink="http://www.w3.org/1999/xlink" version="1.1" id="Layer_1" x="0px" y="0px" viewBox="0 0 284.471 284.471" style="enable-background:new 0 0 284.471 284.471;" xml:space="preserve" width="512px" height="512px" class=""><g><g>
	<g>
		<path style="fill:#8C8C91" d="M238.811,72.941c3.647-21.882,0-37.382-11.853-51.059C214.193,7.294,189.575,0,159.487,0H71.046    c-6.383,0-11.853,4.559-12.765,10.941L21.81,244.353c-0.912,4.559,2.735,9.118,7.294,9.118H83.81l-3.647,23.706    c-0.912,3.647,2.735,7.294,6.382,7.294h45.588c5.471,0,10.029-3.647,10.941-9.118v-2.735l9.118-54.706l0.912-2.735    c0.912-5.471,5.471-9.118,10.941-9.118h7.294c44.676,0,79.324-18.235,89.353-70.206c4.559-21.882,1.824-40.118-9.118-52.882    C247.928,78.412,243.369,75.676,238.811,72.941L238.811,72.941" data-original="#26A6D1" class="" data-old_color="#8D8D92"/>
		<path style="fill:#293A7D" d="M238.811,72.941c3.647-21.882,0-37.382-11.853-51.059C214.193,7.294,189.575,0,159.487,0H71.046    c-6.383,0-11.853,4.559-12.765,10.941L21.81,244.353c-0.912,4.559,2.735,9.118,7.294,9.118H83.81l13.676-86.618v2.735    c0.912-6.382,6.382-10.941,12.765-10.941h25.529c51.059,0,91.176-20.971,102.118-80.235    C237.899,76.588,238.811,74.765,238.811,72.941" data-original="#324D5B" class="active-path" data-old_color="#293a7d"/>
		<path style="fill:#293A7D" d="M112.075,72.941c0.912-3.647,2.735-6.382,6.382-8.206c1.824-0.912,2.735-0.912,4.559-0.912h69.294    c8.206,0,15.5,0.912,22.794,1.824c1.824,0,3.647,0.912,5.471,0.912c1.824,0,3.647,0.912,5.471,1.824    c0.912,0,1.824,0.912,2.735,0.912c3.647,0.912,6.382,2.735,10.029,3.647c3.647-21.882,0-37.382-11.853-51.059    C214.193,7.294,189.575,0,159.487,0H71.046c-6.383,0-11.853,4.559-12.765,10.941L21.81,244.353    c-0.912,4.559,2.735,9.118,7.294,9.118H83.81l13.676-86.618L112.075,72.941z" data-original="#324D5B" class="active-path" data-old_color="#293a7d"/>
	</g>
</g></g> </svg>
