<svg version="1.1" id="Laag_1" xmlns="http://www.w3.org/2000/svg" x="0" y="0" viewBox="0 0 100 100" xml:space="preserve"><style></style><switch><g><path id="XMLID_106_" d="M99.7 44.9c3.1 31.6-23.2 58-54.9 54.9C21.5 97.4 2.6 78.5.3 55.1-2.8 23.5 23.5-2.9 55.1.3c23.4 2.3 42.3 21.2 44.6 44.6z" fill-rule="evenodd" clip-rule="evenodd" fill="#e1e1e1"/><g id="XMLID_102_"><g id="XMLID_103_"><path id="XMLID_104_" d="M41.2 69.2c17.8 0 27.5-14.7 27.5-27.5v-1.2c1.9-1.4 3.5-3.1 4.8-5-1.7.8-3.6 1.3-5.5 1.5 2-1.2 3.5-3.1 4.2-5.3-1.9 1.1-3.9 1.9-6.1 2.3-2.1-2.3-5.3-3.5-8.8-2.9-4.4.8-7.8 4.7-7.9 9.2 0 .9.1 1.7.2 2.5-8-.4-15.1-4.2-19.9-10.1-.8 1.4-1.3 3.1-1.3 4.9 0 3.4 1.7 6.3 4.3 8-1.6 0-3.1-.5-4.4-1.2v.1c0 4.7 3.3 8.6 7.7 9.5-.8.2-1.7.3-2.5.3-.6 0-1.2-.1-1.8-.2 1.2 3.8 4.8 6.6 9 6.7-3.3 2.6-7.5 4.1-12 4.1-.8 0-1.5 0-2.3-.1 4.3 2.8 9.4 4.4 14.8 4.4" fill="#293a7d"/></g></g></g></switch></svg>