<?xml version="1.0" encoding="UTF-8"?>
<svg width="300px" height="100px" viewBox="0 0 300 100" version="1.1" xmlns="http://www.w3.org/2000/svg" xmlns:xlink="http://www.w3.org/1999/xlink">
    <!-- Generator: Sketch 52 (66869) - http://www.bohemiancoding.com/sketch -->
    <title>Artboard</title>
    <desc>Created with Sketch.</desc>
    <g id="Artboard" stroke="none" stroke-width="1" fill="none" fill-rule="evenodd">
        <g id="accenture" transform="translate(0.000000, 10.000000)" fill="#293A7D">
            <polygon id="Path" points="174.726829 9.125 191.979268 15.9363636 174.726829 22.3795455 174.726829 31.5840909 204.27622 19.6181818 204.27622 12.2545455 174.726829 0.28863636"></polygon>
            <path d="M16.3347561,43.3659091 C8.07560976,43.3659091 2.01890244,47.0477273 1.46829268,54.7795455 L10.645122,54.7795455 L10.645122,54.5954545 C10.8286585,52.0181818 13.2146341,50.1772727 15.7841463,50.3613636 C19.2713415,50.3613636 20.9231707,52.3863636 20.9231707,55.8840909 L20.9231707,57.5409091 L16.7018293,57.5409091 C7.70853659,57.5409091 0.367073171,60.3022727 0.367073171,68.9545455 L0.367073171,69.3227273 C0.367073171,76.3181818 5.50609756,79.4477273 11.7463415,79.4477273 C15.6006098,79.6318182 19.0878049,77.7909091 21.2902439,74.8454545 L21.2902439,78.8954545 L30.6506098,78.8954545 L30.6506098,55.7 C30.4670732,46.8636364 24.4103659,43.3659091 16.3347561,43.3659091 Z M14.3158537,72.6363636 C11.0121951,72.6363636 9.54390244,70.9795455 9.54390244,68.5863636 L9.54390244,68.2181818 C9.54390244,65.0886364 11.929878,63.8 16.7018293,63.8 L20.5560976,63.8 L20.5560976,67.1136364 C20.7396341,70.7954545 17.6195122,72.6363636 14.3158537,72.6363636 Z" id="Shape" fill-rule="nonzero"></path>
            <path d="M52.675,72.2681818 C48.0865854,72.2681818 45.7006098,69.1386364 45.7006098,62.1431818 L45.7006098,61.0386364 C45.7006098,54.2272727 48.4536585,50.9136364 52.675,50.9136364 C55.9786585,50.9136364 57.8140244,53.1227273 58.3646341,56.4363636 L67.5414634,56.4363636 C66.8073171,47.4159091 60.2,43.3659091 52.4914634,43.3659091 C43.3146341,43.3659091 35.9731707,49.625 35.9731707,61.4068182 L35.9731707,61.775 C35.9731707,73.5568182 42.947561,79.4477273 52.4914634,79.4477273 C61.8518293,79.4477273 67.1743902,73.7409091 67.9085366,66.0090909 L59.0987805,66.0090909 C58.3646341,69.875 55.9786585,72.2681818 52.675,72.2681818 Z" id="Path"></path>
            <path d="M88.4646341,72.2681818 C83.8762195,72.2681818 81.4902439,69.1386364 81.4902439,62.1431818 L81.4902439,61.0386364 C81.4902439,54.2272727 84.2432927,50.9136364 88.4646341,50.9136364 C91.7682927,50.9136364 93.6036585,53.1227273 94.1542683,56.4363636 L103.331098,56.4363636 C102.596951,47.4159091 95.9896341,43.3659091 88.2810976,43.3659091 C79.1042683,43.3659091 71.7628049,49.625 71.7628049,61.4068182 L71.7628049,61.775 C71.7628049,73.5568182 78.7371951,79.4477273 88.2810976,79.4477273 C97.6414634,79.4477273 102.964024,73.7409091 103.514634,66.0090909 L94.8884146,66.0090909 C94.3378049,69.875 91.7682927,72.2681818 88.4646341,72.2681818 Z" id="Path"></path>
            <path d="M124.621341,72.4522727 C120.4,72.4522727 117.830488,70.0590909 117.463415,63.8 L139.854878,63.8 L139.854878,59.75 C139.854878,48.3363636 132.696951,43.3659091 124.070732,43.3659091 C114.710366,43.3659091 107.552439,49.8090909 107.552439,61.4068182 L107.552439,62.1431818 C107.552439,73.7409091 114.343293,79.6318182 124.254268,79.6318182 C133.247561,79.6318182 138.753659,74.6613636 139.671341,68.0340909 L130.678049,68.0340909 C130.310976,70.7954545 127.557927,72.8204545 124.621341,72.4522727 Z M124.070732,49.9931818 C127.925,49.9931818 130.310976,52.2022727 130.494512,57.3568182 L117.646951,57.3568182 C118.381098,51.8340909 121.134146,50.1772727 124.070732,49.9931818 Z" id="Shape" fill-rule="nonzero"></path>
            <polygon id="Path" points="117.646951 57.3568182 117.646951 57.3568182 117.463415 57.3568182"></polygon>
            <path d="M165.917073,43.3659091 C161.512195,43.1818182 157.47439,45.3909091 155.455488,49.2568182 L155.455488,44.1022727 L145.911585,44.1022727 L145.911585,78.7113636 L155.455488,78.7113636 L155.455488,57.5409091 C155.455488,57.1727273 155.455488,56.9886364 155.455488,56.6204545 C155.639024,53.4909091 158.392073,50.9136364 161.512195,51.0977273 C164.99939,51.0977273 166.65122,52.9386364 166.65122,56.9886364 L166.65122,78.7113636 L176.378659,78.7113636 L176.378659,55.5159091 C176.378659,47.0477273 172.157317,43.3659091 165.917073,43.3659091 Z" id="Path"></path>
            <path d="M194.365244,67.6659091 L194.365244,51.2818182 L200.972561,51.2818182 L200.972561,44.1022727 L194.365244,44.1022727 L194.365244,33.6090909 L184.821341,37.6590909 L184.821341,44.1022727 L180.6,44.1022727 L180.6,51.2818182 L184.637805,51.2818182 L184.637805,68.7704545 C184.637805,75.7659091 188.125,79.2636364 195.65,79.2636364 C197.485366,79.2636364 199.320732,79.0795455 201.156098,78.5272727 L201.156098,70.9795455 C200.054878,71.3477273 198.953659,71.5318182 197.852439,71.5318182 C195.65,71.5318182 194.365244,70.2431818 194.365244,67.6659091 Z" id="Path"></path>
            <path d="M227.585366,65.6409091 C227.585366,66.0090909 227.585366,66.1931818 227.585366,66.5613636 C227.401829,69.6909091 224.64878,72.2681818 221.528659,72.0840909 C218.041463,72.0840909 216.573171,70.2431818 216.573171,66.1931818 L216.573171,44.1022727 L206.845732,44.1022727 L206.845732,67.4818182 C206.845732,75.5818182 211.434146,79.4477273 217.67439,79.4477273 C221.895732,79.6318182 225.75,77.4227273 227.768902,73.5568182 L227.768902,78.7113636 L237.496341,78.7113636 L237.496341,44.1022727 L227.768902,44.1022727 L227.585366,65.6409091 Z" id="Path"></path>
            <path d="M254.014634,50.3613636 L254.014634,43.9181818 L244.470732,43.9181818 L244.470732,78.5272727 L254.014634,78.5272727 L254.014634,60.6704545 C254.014634,54.9636364 257.868902,52.9386364 264.47622,52.9386364 L264.47622,43.3659091 C259.704268,43.3659091 255.482927,46.1272727 254.014634,50.3613636 Z" id="Path"></path>
            <path d="M299.715244,59.5659091 C299.715244,48.1522727 292.557317,43.3659091 283.931098,43.3659091 C274.570732,43.3659091 267.412805,49.8090909 267.412805,61.4068182 L267.412805,62.1431818 C267.412805,73.7409091 274.203659,79.6318182 284.114634,79.6318182 C293.107927,79.6318182 298.430488,74.6613636 299.531707,68.0340909 L290.538415,68.0340909 C289.804268,70.9795455 287.05122,72.8204545 284.114634,72.6363636 C279.893293,72.6363636 277.32378,70.2431818 276.956707,63.9840909 L299.348171,63.9840909 L299.348171,59.5659091 L299.715244,59.5659091 Z M277.32378,57.3568182 C278.057927,51.65 280.810976,49.9931818 283.931098,49.9931818 C287.785366,49.9931818 290.171341,52.2022727 290.354878,57.3568182 L277.32378,57.3568182 Z" id="Shape" fill-rule="nonzero"></path>
        </g>
    </g>
</svg>