<?xml version="1.0" encoding="UTF-8"?>
<svg width="300px" height="100px" viewBox="0 0 300 100" version="1.1" xmlns="http://www.w3.org/2000/svg" xmlns:xlink="http://www.w3.org/1999/xlink">
    <!-- Generator: Sketch 52 (66869) - http://www.bohemiancoding.com/sketch -->
    <title>Artboard</title>
    <desc>Created with Sketch.</desc>
    <g id="Artboard" stroke="none" stroke-width="1" fill="none" fill-rule="evenodd">
        <g id="atlasian" transform="translate(3.000000, 32.000000)" fill="#293A7D" fill-rule="nonzero">
            <path d="M10.7292593,17.1723529 C10.5109452,16.8874965 10.1588879,16.7371991 9.80122193,16.7761628 C9.44355593,16.8151265 9.13244134,17.0376691 8.98111111,17.3627941 L0.114722222,35.0194118 C-0.0503804263,35.3471586 -0.0328855796,35.7367647 0.160933363,36.0485229 C0.354752305,36.3602811 0.697123576,36.5495204 1.06527778,36.5483824 L13.4115741,36.5483824 C13.8162566,36.5590456 14.1890844,36.3306922 14.3621296,35.9661765 C17.0171296,30.4705882 15.4055556,22.1455882 10.7292593,17.1723529 Z M17.2356481,1.08823529 C12.7240718,7.97726731 12.1945874,16.7254518 15.8425926,24.1044118 L21.824537,35.9661765 C22.0048511,36.3241293 22.3730106,36.5496233 22.7750926,36.5483824 L35.1213889,36.5483824 C35.4866234,36.5438986 35.8237997,36.3524059 36.0136815,36.0416224 C36.2035632,35.7308388 36.2193865,35.3445695 36.0555556,35.0194118 L19.0384259,1.08823529 C18.8721,0.742866892 18.5216157,0.523144283 18.137037,0.523144283 C17.7524584,0.523144283 17.4019741,0.742866892 17.2356481,1.08823529 Z" id="Shape"></path>
            <path d="M162.053333,15.2679412 C162.053333,19.6208824 164.091019,23.1141176 172.056019,24.6430882 C176.808796,25.6333824 177.803056,26.4005882 177.803056,27.9785294 C177.803056,29.5564706 176.808796,30.5032353 173.432685,30.5032353 C169.386032,30.4304285 165.420379,29.361187 161.889444,27.3908824 L161.889444,34.5188235 C164.287685,35.6886765 167.456204,37 173.361667,37 C181.692685,37 184.997778,33.3054412 184.997778,27.8044118 L162.053333,15.2679412 Z M184.997778,27.8044118 C184.997778,22.6189706 182.238981,20.1867647 174.448796,18.5163235 C170.149444,17.5695588 169.106019,16.6227941 169.106019,15.2516176 C169.106019,13.5376471 170.646574,12.8194118 173.476389,12.8194118 C176.918056,12.8194118 180.310556,13.8586765 183.528241,15.3005882 L183.528241,8.50455882 C180.443535,7.10581502 177.083659,6.41235061 173.694907,6.475 C165.997593,6.475 162.015093,9.81044118 162.015093,15.2679412 L184.997778,27.8044118 Z M269.061852,6.92661765 L269.061852,36.5483824 L275.398889,36.5483824 L275.398889,13.9620588 L278.070278,19.9582353 L287.035,36.5483824 L295,36.5483824 L295,6.92661765 L288.662963,6.92661765 L288.662963,26.0469118 L286.264722,20.4969118 L279.064537,6.92661765 L269.061852,6.92661765 Z M221.829074,6.92661765 L228.756111,6.92661765 L228.756111,36.5483824 L221.829074,36.5483824 L221.829074,6.92661765 Z M213.836759,27.8044118 C213.836759,22.6189706 211.077963,20.1867647 203.287778,18.5163235 C198.988426,17.5695588 197.945,16.6227941 197.945,15.2516176 C197.945,13.5376471 199.485556,12.8194118 202.31537,12.8194118 C205.757037,12.8194118 209.149537,13.8586765 212.367222,15.3005882 L212.367222,8.50455882 C209.282517,7.10581502 205.92264,6.41235061 202.533889,6.475 C194.836574,6.475 190.854074,9.81044118 190.854074,15.2679412 C190.854074,19.6208824 192.891759,23.1141176 200.856759,24.6430882 C205.609537,25.6333824 206.603796,26.4005882 206.603796,27.9785294 C206.603796,29.5564706 205.609537,30.5032353 202.233426,30.5032353 C198.186773,30.4304285 194.221119,29.361187 190.690185,27.3908824 L190.690185,34.5188235 C193.088426,35.6886765 196.256944,37 202.162407,37 C210.493426,37 213.798519,33.3054412 213.798519,27.8044118 L213.836759,27.8044118 Z M108.254074,6.92661765 L108.254074,36.5483824 L122.490556,36.5483824 L124.73037,30.1495588 L115.224815,30.1495588 L115.224815,6.92661765 L108.254074,6.92661765 Z M80.1252778,6.92661765 L80.1252778,13.3308824 L87.8225926,13.3308824 L87.8225926,36.5483824 L94.7933333,36.5483824 L94.7933333,13.3308824 L103.031481,13.3308824 L103.031481,6.92661765 L80.1252778,6.92661765 Z M70.0187963,6.92661765 L60.8847222,6.92661765 L50.5050926,36.5483824 L58.4537037,36.5483824 L59.9068519,31.5588235 C63.5337378,32.6226659 67.3916326,32.6226659 71.0185185,31.5588235 L72.4880556,36.5483824 L80.4093519,36.5483824 L70.0187963,6.92661765 Z M65.4517593,26.2210294 C64.1574964,26.2228146 62.8696756,26.0395739 61.6276852,25.6769118 L65.4517593,12.7432353 L69.2758333,25.6769118 C68.0338429,26.0395739 66.7460221,26.2228146 65.4517593,26.2210294 Z M147.030185,6.92661765 L137.896111,6.92661765 L127.516481,36.5483824 L135.437778,36.5483824 L136.918241,31.5588235 C140.538309,32.6183973 144.387987,32.6183973 148.008056,31.5588235 L149.477593,36.5483824 L157.398889,36.5483824 L147.030185,6.92661765 Z M142.463148,26.2210294 C141.168885,26.2228146 139.881065,26.0395739 138.639074,25.6769118 L142.463148,12.7432353 L146.287222,25.6769118 C145.045232,26.0395739 143.757411,26.2228146 142.463148,26.2210294 Z M253.710926,6.92661765 L244.576852,6.92661765 L234.197222,36.5483824 L242.118519,36.5483824 L243.598981,31.5588235 C247.21905,32.6183973 251.068728,32.6183973 254.688796,31.5588235 L256.158333,36.5483824 L264.07963,36.5483824 L253.710926,6.92661765 Z M249.143889,26.2210294 C247.849626,26.2228146 246.561805,26.0395739 245.319815,25.6769118 L249.143889,12.7432353 L252.967963,25.6769118 C251.725973,26.0395739 250.438152,26.2228146 249.143889,26.2210294 Z" id="Shape"></path>
        </g>
    </g>
</svg>