<?xml version="1.0" encoding="UTF-8"?>
<svg width="300px" height="100px" viewBox="0 0 300 100" version="1.1" xmlns="http://www.w3.org/2000/svg" xmlns:xlink="http://www.w3.org/1999/xlink">
    <!-- Generator: Sketch 52 (66869) - http://www.bohemiancoding.com/sketch -->
    <title>Artboard</title>
    <desc>Created with Sketch.</desc>
    <g id="Artboard" stroke="none" stroke-width="1" fill="none" fill-rule="evenodd">
        <g id="backbase" transform="translate(2.000000, 34.000000)" fill="#293A7D" fill-rule="nonzero">
            <path d="M34.98,2.64 L12.21,2.64 L15.51,8.58 L32.34,8.58 C32.67,8.58 33.66,8.91 33.66,10.23 L33.66,22.77 C33.66,24.09 32.67,24.42 32.34,24.42 L13.2,24.42 L13.2,19.14 L29.04,19.14 L29.04,13.53 L12.87,13.53 L6.6,2.64 L0,2.64 L7.26,16.17 L7.26,30.36 L35.31,30.36 C37.95,30.36 39.27,28.05 39.27,23.43 L39.27,8.91 C39.27,4.62 37.95,2.64 34.98,2.64 Z M230.67,13.2 L230.67,10.23 C230.67,8.91 229.68,8.58 229.35,8.58 L214.17,8.58 C213.84,8.58 212.85,8.91 212.85,10.23 L212.85,13.2 L230.67,13.2 Z M230.67,19.14 L212.52,19.14 L212.52,30.36 L206.91,30.36 L206.91,8.25 C206.91,4.29 208.89,2.64 212.19,2.64 L231.33,2.64 C234.63,2.64 236.28,4.62 236.28,8.58 L236.28,30.36 L230.67,30.36 L230.67,19.14 Z M198.99,11.55 C198.99,12.87 198,13.2 197.67,13.2 L181.5,13.2 L181.5,8.58 L197.34,8.58 C197.67,8.58 198.66,8.91 198.66,10.23 L198.66,11.55 L198.99,11.55 Z M198.99,22.77 C198.99,24.09 198,24.42 197.67,24.42 L181.83,24.42 L181.83,19.47 L197.67,19.47 C198,19.47 198.99,19.8 198.99,21.12 L198.99,22.77 Z M204.6,8.25 C204.6,4.29 202.95,2.64 200.31,2.64 L175.89,2.64 L175.89,30.36 L200.31,30.36 C203.28,30.36 204.6,29.04 204.6,25.08 L204.6,20.13 C204.6,18.48 204.27,17.49 203.94,16.5 C204.6,15.51 204.6,14.52 204.6,12.87 L204.6,8.25 Z M76.89,11.55 C76.89,12.87 75.9,13.2 75.57,13.2 L59.73,13.2 L59.73,8.58 L75.57,8.58 C75.9,8.58 76.89,8.91 76.89,10.23 L76.89,11.55 Z M76.89,22.77 C76.89,24.09 75.9,24.42 75.57,24.42 L59.73,24.42 L59.73,19.47 L75.57,19.47 C75.9,19.47 76.89,19.8 76.89,21.12 L76.89,22.77 Z M82.83,8.25 C82.83,4.29 81.18,2.64 78.54,2.64 L54.12,2.64 L54.12,30.36 L78.54,30.36 C81.51,30.36 82.83,29.04 82.83,25.08 L82.83,20.13 C82.83,18.48 82.5,17.49 82.17,16.5 C82.83,15.51 82.83,14.52 82.83,12.87 L82.83,8.25 Z M122.76,19.8 L122.76,22.77 C122.76,24.09 123.75,24.42 124.08,24.42 L144.21,24.42 L144.21,30.36 L121.44,30.36 C118.47,30.36 117.15,28.05 117.15,23.43 L117.15,8.91 C117.15,4.95 118.47,2.97 121.44,2.97 L144.21,2.97 L144.21,8.91 L124.08,8.91 C123.75,8.91 122.76,9.24 122.76,10.56 L122.76,19.8 Z M260.37,24.42 C260.7,24.42 261.69,24.09 261.69,22.77 L261.69,20.79 C261.69,19.47 260.7,19.14 260.37,19.14 L242.55,19.14 C239.91,19.14 238.59,17.16 238.59,12.87 L238.59,8.58 C238.59,4.62 239.91,2.64 242.55,2.64 L267.63,2.64 L264.33,8.58 L245.52,8.58 C245.19,8.58 244.2,8.91 244.2,10.23 L244.2,11.88 C244.2,13.2 245.19,13.53 245.52,13.53 L263.01,13.53 C265.98,13.53 267.3,15.51 267.3,19.8 L267.3,23.76 C267.3,28.38 265.98,31.02 263.01,31.02 L237.27,31.02 L240.57,25.08 L260.37,24.42 Z M269.28,30.36 L269.28,2.64 L297,2.64 L297,8.58 L274.89,8.58 L274.89,13.2 L297,13.2 L297,19.14 L274.89,19.14 L274.89,24.09 L297,24.09 L297,30.03 L269.28,30.03 L269.28,30.36 Z M152.13,19.14 L152.13,30.36 L146.52,30.36 L146.52,2.64 L152.13,2.64 L152.13,13.2 L162.03,13.2 L167.97,2.64 L174.57,2.64 L167.31,16.17 L174.57,30.36 L167.97,30.36 L161.7,19.14 L152.13,19.14 Z M108.57,13.2 L108.57,10.23 C108.57,8.91 107.58,8.58 107.25,8.58 L92.07,8.58 C91.74,8.58 90.75,8.91 90.75,10.23 L90.75,13.2 L108.57,13.2 Z M108.9,19.14 L90.75,19.14 L90.75,30.36 L85.14,30.36 L85.14,8.25 C85.14,4.29 87.12,2.64 90.42,2.64 L109.56,2.64 C112.86,2.64 114.51,4.62 114.51,8.58 L114.51,30.36 L108.9,30.36 L108.9,19.14 Z" id="Shape"></path>
        </g>
    </g>
</svg>