<svg version="1.1" id="Laag_1" xmlns="http://www.w3.org/2000/svg" x="0" y="0" viewBox="0 45 100 10" xml:space="preserve"><style>.st0{fill:#293a7d}</style><switch><g><path class="st0" d="M15.6 45.8H8.7l1 1.8h5.1c.1 0 .4.1.4.5v3.8c0 .4-.3.5-.4.5H9v-1.6h4.8v-1.7H8.9L7 45.8H5l2.2 4.1v4.3h8.5c.8 0 1.2-.7 1.2-2.1v-4.4c0-1.3-.4-1.9-1.3-1.9zM74.9 49v-.9c0-.4-.3-.5-.4-.5h-4.6c-.1 0-.4.1-.4.5v.9h5.4zm0 1.8h-5.5v3.4h-1.7v-6.7c0-1.2.6-1.7 1.6-1.7h5.8c1 0 1.5.6 1.5 1.8v6.6h-1.7v-3.4zm-9.6-2.3c0 .4-.3.5-.4.5H60v-1.4h4.8c.1 0 .4.1.4.5v.4zm0 3.4c0 .4-.3.5-.4.5h-4.8v-1.5h4.8c.1 0 .4.1.4.5v.5zm1.7-4.4c0-1.2-.5-1.7-1.3-1.7h-7.4v8.4h7.4c.9 0 1.3-.4 1.3-1.6v-1.5c0-.5-.1-.8-.2-1.1.2-.3.2-.6.2-1.1v-1.4zm-38.7 1c0 .4-.3.5-.4.5h-4.8v-1.4h4.8c.1 0 .4.1.4.5v.4zm0 3.4c0 .4-.3.5-.4.5h-4.8v-1.5h4.8c.1 0 .4.1.4.5v.5zm1.8-4.4c0-1.2-.5-1.7-1.3-1.7h-7.4v8.4h7.4c.9 0 1.3-.4 1.3-1.6v-1.5c0-.5-.1-.8-.2-1.1.2-.3.2-.6.2-1.1v-1.4zM42.2 51v.9c0 .4.3.5.4.5h6.1v1.8h-6.9c-.9 0-1.3-.7-1.3-2.1v-4.4c0-1.2.4-1.8 1.3-1.8h6.9v1.8h-6.1c-.1 0-.4.1-.4.5V51zm41.7 1.4c.1 0 .4-.1.4-.5v-.6c0-.4-.3-.5-.4-.5h-5.4c-.8 0-1.2-.6-1.2-1.9v-1.3c0-1.2.4-1.8 1.2-1.8h7.6l-1 1.8h-5.7c-.1 0-.4.1-.4.5v.5c0 .4.3.5.4.5h5.3c.9 0 1.3.6 1.3 1.9v1.2c0 1.4-.4 2.2-1.3 2.2h-7.8l1-1.8 6-.2zm2.7 1.8v-8.4H95v1.8h-6.7V49H95v1.8h-6.7v1.5H95v1.8h-8.4zm-35.5-3.4v3.4h-1.7v-8.4h1.7V49h3l1.8-3.2h2l-2.2 4.1 2.2 4.3h-2L54 50.8h-2.9zM37.9 49v-.9c0-.4-.3-.5-.4-.5h-4.6c-.1 0-.4.1-.4.5v.9h5.4zm.1 1.8h-5.5v3.4h-1.7v-6.7c0-1.2.6-1.7 1.6-1.7h5.8c1 0 1.5.6 1.5 1.8v6.6H38v-3.4z"/></g></switch></svg>