<?xml version="1.0" encoding="UTF-8"?>
<svg width="300px" height="100px" viewBox="0 0 300 100" version="1.1" xmlns="http://www.w3.org/2000/svg" xmlns:xlink="http://www.w3.org/1999/xlink">
    <!-- Generator: Sketch 52 (66869) - http://www.bohemiancoding.com/sketch -->
    <title>Artboard</title>
    <desc>Created with Sketch.</desc>
    <g id="Artboard" stroke="none" stroke-width="1" fill="none" fill-rule="evenodd">
        <g id="bijenkorf" transform="translate(2.000000, 7.000000)" fill="#293A7D">
            <polygon id="Path" points="151.617778 44.6538462 160.168889 35.0615385 167.404444 35.0615385 158.524444 44.3230769 168.391111 60.2 160.826667 60.2 154.248889 48.6230769 151.617778 51.2692308 151.617778 60.2 145.368889 60.2 145.368889 25.8 151.617778 25.8"></polygon>
            <path d="M189.111111,49.2846154 C188.124444,55.9 183.848889,60.8615385 176.942222,60.8615385 C169.377778,60.8615385 164.444444,55.2384615 164.444444,47.6307692 C164.444444,40.0230769 169.377778,34.4 176.942222,34.4 C183.191111,34.4 187.795556,38.7 189.111111,44.6538462 C189.44,46.9692308 189.111111,48.2923077 189.111111,49.2846154 Z M170.364444,47.6307692 C170.364444,50.9384615 171.351111,56.2307692 176.613333,56.2307692 C181.875556,56.2307692 182.862222,50.6076923 182.862222,47.6307692 C182.862222,43.9923077 181.875556,39.0307692 176.613333,39.0307692 C171.68,39.0307692 170.364444,44.3230769 170.364444,47.6307692 C170.364444,47.6307692 170.364444,44.3230769 170.364444,47.6307692 Z M189.768889,35.0615385 L195.688889,35.0615385 L195.688889,38.3692308 C197.662222,34.7307692 201.28,34.4 203.253333,34.7307692 L203.253333,39.6923077 L201.937778,39.6923077 C197.991111,39.6923077 195.688889,43 195.688889,46.3076923 L195.688889,59.8692308 L189.768889,59.8692308 L189.768889,35.0615385 Z M217.066667,30.4307692 C213.448889,30.4307692 212.462222,31.4230769 212.791111,34.7307692 L217.395556,34.7307692 L217.395556,39.0307692 L213.12,39.0307692 L213.12,59.8692308 L206.871111,59.8692308 L206.871111,39.0307692 L203.911111,39.0307692 L203.911111,34.7307692 L207.2,34.7307692 C206.871111,28.1153846 209.831111,25.4692308 215.751111,25.4692308 L217.724444,25.4692308 L217.724444,30.4307692 L217.066667,30.4307692 Z M80.5777778,35.0615385 L86.4977778,35.0615385 L86.4977778,59.8692308 L80.5777778,59.8692308 L80.5777778,35.0615385 Z M80.9066667,25.8 L86.4977778,25.8 L86.4977778,31.4230769 L80.9066667,31.4230769 L80.9066667,25.8 Z M96.6933333,63.1769231 C96.6933333,66.4846154 95.0488889,68.4692308 91.76,68.4692308 L86.4977778,68.4692308 L86.4977778,63.5076923 C89.7866667,63.5076923 90.4444444,62.1846154 90.4444444,61.1923077 L90.4444444,35.0615385 L96.3644444,35.0615385 L96.3644444,63.1769231 L96.6933333,63.1769231 Z M90.7733333,25.8 L96.3644444,25.8 L96.3644444,31.4230769 L90.7733333,31.4230769 L90.7733333,25.8 Z" id="Shape" fill-rule="nonzero"></path>
            <path d="M128.595556,38.0384615 C129.253333,37.3769231 131.884444,34.4 135.173333,34.4 C140.764444,34.4 143.724444,37.7076923 143.724444,43.6615385 L143.724444,59.8692308 L137.804444,59.8692308 L137.804444,44.9846154 C137.804444,42.3384615 136.817778,39.6923077 133.528889,39.6923077 C131.226667,39.6923077 128.595556,41.3461538 128.595556,44.9846154 L128.595556,59.8692308 L122.675556,59.8692308 L122.675556,35.0615385 L128.924444,35.0615385 L128.924444,38.0384615 L128.595556,38.0384615 Z M17.76,47.9615385 C17.76,44.6538462 16.4444444,39.6923077 12.1688889,39.6923077 C7.23555556,39.6923077 6.24888889,44.3230769 6.24888889,47.9615385 C6.24888889,51.6 7.56444444,56.2307692 12.1688889,56.2307692 C16.4444444,56.2307692 17.76,51.2692308 17.76,47.9615385 C17.76,47.9615385 17.76,51.2692308 17.76,47.9615385 Z M23.68,55.5692308 L23.68,60.2 L17.4311111,60.2 L17.4311111,57.5538462 C16.4444444,59.2076923 14.1422222,60.8615385 10.5244444,60.8615385 C3.94666667,60.8615385 0,54.2461538 0,48.2923077 C0,39.3615385 4.60444444,34.7307692 10.1955556,34.7307692 C14.4711111,34.7307692 16.7733333,37.0461538 17.4311111,38.0384615 L17.4311111,26.1307692 L23.3511111,26.1307692 L23.3511111,55.5692308 L23.68,55.5692308 Z M30.5866667,49.2846154 C30.2577778,52.9230769 33.2177778,55.9 36.8355556,55.9 C39.1377778,55.9 40.7822222,54.9076923 41.7688889,52.9230769 L48.0177778,52.9230769 C47.6888889,53.9153846 46.0444444,60.8615385 36.5066667,60.8615385 C29.9288889,60.8615385 24.6666667,54.9076923 24.6666667,47.9615385 C24.6666667,40.6846154 28.6133333,34.4 36.5066667,34.4 C41.44,34.4 44.7288889,37.0461538 46.7022222,41.3461538 C47.36,42.6692308 48.0177778,44.6538462 48.0177778,46.3076923 C48.3466667,47.6307692 48.3466667,48.6230769 48.3466667,49.2846154 L30.5866667,49.2846154 Z M41.7688889,45.3153846 C41.7688889,42.3384615 39.7955556,39.6923077 36.5066667,39.6923077 C32.2311111,39.6923077 30.9155556,43 30.9155556,45.3153846 L41.7688889,45.3153846 Z M59.5288889,40.0230769 L66.4355556,40.0230769 C70.0533333,40.0230769 72.3555556,38.7 72.3555556,35.7230769 C72.3555556,32.7461538 70.3822222,31.4230769 66.4355556,31.4230769 L59.5288889,31.4230769 L59.5288889,40.0230769 Z M53.28,26.1307692 L65.4488889,26.1307692 C71.6977778,25.8 78.2755556,27.4538462 78.2755556,34.7307692 C78.2755556,38.7 75.9733333,40.6846154 72.6844444,42.0076923 C76.6311111,43 79.5911111,45.9769231 79.5911111,50.9384615 C79.5911111,55.9 76.6311111,60.8615385 66.1066667,59.8692308 L53.6088889,59.8692308 L53.6088889,26.1307692 L53.28,26.1307692 Z M59.5288889,54.9076923 L66.7644444,54.9076923 C70.0533333,54.9076923 73.0133333,53.5846154 73.0133333,49.9461538 C73.0133333,45.9769231 69.7244444,44.9846154 66.7644444,44.9846154 L59.5288889,44.9846154 L59.5288889,54.9076923 Z M103.6,49.2846154 C103.271111,52.9230769 106.231111,55.9 109.848889,55.9 C112.151111,55.9 113.795556,54.9076923 114.782222,52.9230769 L121.031111,52.9230769 C120.702222,53.9153846 119.057778,60.8615385 109.52,60.8615385 C102.942222,60.8615385 97.68,54.9076923 97.68,47.9615385 C97.68,40.6846154 101.626667,34.4 109.52,34.4 C114.453333,34.4 117.742222,37.0461538 119.715556,41.3461538 C120.373333,42.6692308 121.031111,44.6538462 121.031111,46.3076923 C121.36,47.6307692 121.36,48.6230769 121.36,49.2846154 L103.6,49.2846154 Z M115.111111,45.3153846 C115.111111,42.3384615 113.137778,39.6923077 109.848889,39.6923077 C105.573333,39.6923077 104.257778,43 104.257778,45.3153846 L115.111111,45.3153846 Z M225.946667,21.8307692 L261.137778,0.661538462 L296,21.8307692 L296,64.1692308 L261.137778,85.0076923 L225.946667,63.8384615 L225.946667,21.8307692 Z M231.866667,60.5307692 L257.848889,76.0769231 L257.848889,59.5384615 L235.155556,59.5384615 L235.155556,43.9923077 L245.022222,43.9923077 L245.022222,29.7692308 C245.022222,21.1692308 252.257778,14.8846154 257.848889,13.8923077 L257.848889,9.92307692 L231.866667,25.4692308 L231.866667,60.5307692 Z M290.08,25.4692308 L264.097778,9.92307692 L264.097778,19.8461538 L261.795556,19.8461538 C255.217778,19.8461538 251.271111,24.8076923 251.271111,30.1 L251.271111,50.2769231 L241.404444,50.2769231 L241.404444,53.2538462 L264.097778,53.2538462 L264.097778,76.0769231 L290.08,60.5307692 L290.08,25.4692308 Z" id="Shape" fill-rule="nonzero"></path>
        </g>
    </g>
</svg>