<svg version="1.1" id="Laag_1" xmlns="http://www.w3.org/2000/svg" x="0" y="0" viewBox="0 0 100 100" xml:space="preserve"><style>.st0{fill:#293a7d}</style><switch><g><path class="st0" d="M82.6 46.1s.1 0 0 0h1.2c.4 0 .8.3.9.7v.2c0 .1 0 .1.1 0 .2-.2.5-.5.7-.6.4-.2.8-.4 1.2-.5h.9c.8.1 1.4.5 1.7 1.2.1.2.1.2.2 0 .3-.4.7-.7 1.2-1 .3-.1.6-.2 1-.3h1c.9.1 1.6.6 1.9 1.5.1.4.2.7.2 1.1v5.7h-1.2c-.3 0-.6-.1-.8-.3-.2-.2-.2-.4-.2-.7v-3.7c0-.3 0-.6-.1-.9-.1-.4-.3-.6-.7-.6-.7 0-1.2.3-1.5.8-.2.3-.3.7-.4 1-.1.3-.1.6-.1.9V54c0 .1 0 .1-.1.1h-2c-.1 0-.1 0-.1-.1v-4.7c0-.3 0-.6-.2-.9-.2-.4-.5-.6-1-.5-.5 0-.8.3-1.1.6-.1.5-.3.8-.3 1.2-.1.4-.1.7-.1 1.1v3.3c0 .1 0 .1-.1.1h-2c-.1 0-.1 0-.1-.1v-3-.1-4.8c-.1 0-.1 0-.1-.1M41.9 42.6c.2.1.3.1.5.2.5.3.8.9.7 1.4-.1.6-.5 1-1.1 1.1-.8.2-1.5-.3-1.6-1.1-.1-.7.4-1.4 1.1-1.6h.4zM39.9 54.3h-2.2c-.4 0-.7-.2-.9-.6-.2-.4-.4-.8-.6-1.1-.3-.5-.5-1-.8-1.4-.1-.1-.2-.2-.3-.2h-.3c-.2 0-.1 0-.1.1V54.3c0 .1 0 .1-.1.1h-2.2c-.1 0-.1 0-.1-.1V54 43.2c0-.2 0-.1.1-.1h1.3c.5 0 .8.3.9.7v5c0 .1 0 .1.2.1h.4c.2 0 .4-.1.5-.3l1.5-2.4c0-.1.1-.1.1-.1h2.6c-.1.1-.1.2-.2.3-.7 1-1.3 2-2 3-.1.2-.2.3-.4.4 0 0-.1 0 0 .1.3.3.5.7.7 1.1.5 1 1.1 2 1.7 3 .1 0 .1.1.2.3M46.6 47l.4-.4c.6-.5 1.2-.7 2-.7.5 0 1 0 1.5.2.8.3 1.2.8 1.5 1.6.1.4.2.8.2 1.3V54.2c0 .2 0 .1-.1.1h-1.2c-.6 0-1-.4-1-1v-1.8-2c0-.2 0-.4-.1-.6-.1-.4-.4-.7-.9-.7-.9 0-1.7.5-2 1.6-.1.3-.1.5-.1.8v3.7c0 .1 0 .1-.1.1h-2.1c-.1 0-.1 0-.1-.1v-7.1-.8s0-.1.1-.1h1.3c.2-.2.6.1.7.7 0-.1 0 0 0 0M72.5 48.2v.6c0 .1 0 .1-.1.1h-1.1c-.4 0-.7-.2-.8-.6 0-.2-.2-.2-.3-.3-.8-.3-1.7 0-2.3.6-.2.3-.4.6-.5.9-.1.4-.1.8 0 1.2.1.7.5 1.2 1.2 1.5.5.2 1 .3 1.5.2.5-.1 1-.3 1.4-.6.2-.1.4-.3.5-.4 0 0 .1-.1.1 0l.9 1.5v.1c-.3.3-.6.6-1 .8-.4.2-.8.4-1.3.5-.6.2-1.3.2-1.9.1-.7-.1-1.3-.3-1.9-.7-.7-.5-1.3-1.1-1.6-2-.2-.5-.3-1.1-.3-1.7 0-1.1.4-2.1 1.2-2.9.5-.5 1-.8 1.7-1 .5-.1.9-.2 1.4-.2.7 0 1.3.1 1.9.3.4.2.8.5 1.1.9.1.2.2.4.2.7v.4zM40.6 50.2v-4s0-.1.1-.1H42c.6 0 .9.4 1 1v7.1c0 .1 0 .1-.1.1h-2.1c-.1 0-.1 0-.1-.1-.1-1.4-.1-2.7-.1-4M63.2 54.3c-.7 0-1.4-.6-1.4-1.4 0-.8.6-1.4 1.4-1.4.8 0 1.4.6 1.4 1.4 0 .8-.6 1.5-1.4 1.4M60.9 53.8v-.2-7.4c0-.1 0-.1-.2-.1h-1 1.1c.1 0 .1 0 .1.1v7.5c.1 0 0 .1 0 .1M82.6 46.1V46.1M10.3 51.8c-.3.3-.7.5-1.1.5H7.3c-.1 0-.1 0-.1-.1V51v-1.1c0-.5.3-.7.7-.7h1.2c.5 0 1 .2 1.3.7.3.5.3 1.4-.1 1.9m-3.1-5.4v-.9c0-.4.2-.7.7-.7h1.3c.5.1.9.4 1 .9.1.5 0 .9-.3 1.3-.2.3-.6.4-1 .4H7.2c-.1 0-.1 0-.1-.1.1-.2.1-.5.1-.9m4.3 2c-.1 0-.2-.1-.2-.1.1 0 .1-.1.2-.1.2-.2.4-.3.5-.5.4-.6.6-1.2.6-1.9-.1-1-.5-1.8-1.4-2.3-.6-.3-1.3-.5-2-.5H6.4c-.4 0-.7.2-.9.5-.1.2-.2.4-.3.5v10.3h4c.6 0 1.1-.1 1.6-.3.8-.3 1.4-.7 1.8-1.4.4-.7.5-1.5.3-2.3-.3-.9-.7-1.5-1.4-1.9"/><path class="st0" d="M58.5 51.1c-.2.6-.7 1-1.4 1-.8 0-1.4-.4-1.6-1.2-.2-.7-.2-1.4 0-2 .2-.6.7-.9 1.3-.9.3 0 .7 0 1 .2.4.2.6.6.7 1 .1.3.1.5.1.8 0 .3 0 .7-.1 1.1m2.3-5h-1.1c-.4 0-.7.2-.9.6-.2-.1-.3-.3-.5-.4-.7-.4-1.5-.5-2.3-.4-1.4.2-2.3 1-2.8 2.3-.4 1.1-.4 2.1-.1 3.2.2.7.6 1.4 1.2 1.9.7.6 1.6.9 2.6.8.6 0 1.2-.2 1.7-.6h.1v.4c-.1.6-.3 1-.9 1.2-.6.3-1.2.2-1.8.2-.3 0-.7-.2-1-.3-.4-.1-.7 0-.9.4v.1c-.1.3-.3.7-.4 1 0 .1 0 .1.1.1.6.3 1.3.5 1.9.6.2 0 .4.1.6.1h1c.3 0 .6-.1.8-.1.7-.2 1.4-.5 1.9-1 .7-.7 1-1.5 1-2.4v-.1-7.5-.1h-.2M79.4 50.1c0 .6-.1 1.1-.4 1.5-.3.4-.6.6-1.1.7-.4.1-.9.1-1.3-.1s-.7-.5-.9-.9c-.2-.4-.3-.8-.3-1.2 0-.6.2-1.2.7-1.7.4-.4 1-.6 1.5-.5.8.1 1.4.6 1.6 1.3.2.3.3.6.2.9m2.2-1.1c-.1-.3-.2-.7-.4-1-.4-.7-.9-1.2-1.6-1.6-.5-.3-1.1-.5-1.7-.5h-1.2c-.4.1-.9.2-1.3.4-.7.3-1.2.8-1.7 1.4-.5.7-.7 1.5-.7 2.4v.6c.1.5.2.9.4 1.3.3.6.8 1.1 1.3 1.5.6.4 1.3.7 2.1.7.7.1 1.5 0 2.2-.3.7-.3 1.3-.7 1.7-1.3.3-.4.6-.9.7-1.3.1-.3.1-.6.2-1 .2-.3.2-.8 0-1.3M29.1 50.2c0 .6-.1 1.1-.5 1.5-.4.5-1 .7-1.6.7-.9 0-1.6-.7-1.8-1.6-.1-.7-.1-1.4.3-2 .4-.7 1.1-1 1.9-.9.9.1 1.4.7 1.6 1.5.1.2.1.5.1.8m0-3.8c-1.1-.5-2.3-.6-3.5-.2-1.2.4-2.1 1.2-2.5 2.4-.3.8-.4 1.7-.2 2.6.2 1 .7 1.8 1.5 2.5.8.6 1.7.8 2.7.9.4 0 .7 0 1.1-.1 1.3-.3 2.2-1 2.8-2.2.5-.9.6-1.9.3-2.9-.3-1.5-1-2.5-2.2-3M19.5 51.4c-.3.6-.8.9-1.5 1-1.1.1-1.9-.6-2.1-1.6v-.2-.4c0-.6.1-1.1.5-1.6.5-.5 1.1-.7 1.8-.7.8.1 1.3.6 1.6 1.3.2.8.1 1.5-.3 2.2m.4-5c-1-.5-2.1-.6-3.2-.3-1.3.3-2.3 1.1-2.8 2.3-.4.8-.4 1.7-.3 2.5.1 1 .6 1.8 1.3 2.4.8.8 1.8 1.1 3 1.1.4 0 .9 0 1.3-.2 1.2-.3 2.1-1.1 2.6-2.2.4-.9.5-1.8.3-2.8-.3-1.3-1-2.2-2.2-2.8"/></g></switch></svg>