<?xml version="1.0" encoding="UTF-8"?>
<svg width="300px" height="100px" viewBox="0 0 300 100" version="1.1" xmlns="http://www.w3.org/2000/svg" xmlns:xlink="http://www.w3.org/1999/xlink">
    <!-- Generator: Sketch 52 (66869) - http://www.bohemiancoding.com/sketch -->
    <title>Artboard</title>
    <desc>Created with Sketch.</desc>
    <g id="Artboard" stroke="none" stroke-width="1" fill="none" fill-rule="evenodd">
        <g id="booking" transform="translate(2.000000, 25.000000)" fill="#293A7D" fill-rule="nonzero">
            <path d="M256.08,12.58125 C256.08,12.58125 256.41,12.58125 256.08,12.58125 L260.04,12.58125 C261.36,12.58125 262.68,13.575 263.01,14.9 L263.01,15.5625 C263.01,15.89375 263.01,15.89375 263.34,15.5625 C264,14.9 264.99,13.90625 265.65,13.575 C266.97,12.9125 268.29,12.25 269.61,11.91875 L272.58,11.91875 C275.22,12.25 277.2,13.575 278.19,15.89375 C278.52,16.55625 278.52,16.55625 278.85,15.89375 C279.84,14.56875 281.16,13.575 282.81,12.58125 C283.8,12.25 284.79,11.91875 286.11,11.5875 L289.41,11.5875 C292.38,11.91875 294.69,13.575 295.68,16.55625 C296.01,17.88125 296.34,18.875 296.34,20.2 L296.34,39.08125 L292.38,39.08125 C291.39,39.08125 290.4,38.75 289.74,38.0875 C289.08,37.425 289.08,36.7625 289.08,35.76875 L289.08,23.5125 C289.08,22.51875 289.08,21.525 288.75,20.53125 C288.42,19.20625 287.76,18.54375 286.44,18.54375 C284.13,18.54375 282.48,19.5375 281.49,21.19375 C280.83,22.1875 280.5,23.5125 280.17,24.50625 C279.84,25.5 279.84,26.49375 279.84,27.4875 L279.84,38.75 C279.84,39.08125 279.84,39.08125 279.51,39.08125 L272.91,39.08125 C272.58,39.08125 272.58,39.08125 272.58,38.75 L272.58,23.18125 C272.58,22.1875 272.58,21.19375 271.92,20.2 C271.26,18.875 270.27,18.2125 268.62,18.54375 C266.97,18.54375 265.98,19.5375 264.99,20.53125 C264.66,22.1875 264,23.18125 264,24.50625 C263.67,25.83125 263.67,26.825 263.67,28.15 L263.67,39.08125 C263.67,39.4125 263.67,39.4125 263.34,39.4125 L256.74,39.4125 C256.41,39.4125 256.41,39.4125 256.41,39.08125 L256.41,29.14375 L256.41,28.8125 L256.41,12.9125 C256.08,12.9125 256.08,12.9125 256.08,12.58125 Z M121.77,0.9875 C122.43,1.31875 122.76,1.31875 123.42,1.65 C125.07,2.64375 126.06,4.63125 125.73,6.2875 C125.4,8.275 124.08,9.6 122.1,9.93125 C119.46,10.59375 117.15,8.9375 116.82,6.2875 C116.49,3.96875 118.14,1.65 120.45,0.9875 L121.77,0.9875 Z M115.17,39.74375 L107.91,39.74375 C106.59,39.74375 105.6,39.08125 104.94,37.75625 C104.28,36.43125 103.62,35.10625 102.96,34.1125 C101.97,32.45625 101.31,30.8 100.32,29.475 C99.99,29.14375 99.66,28.8125 99.33,28.8125 L98.34,28.8125 C97.68,28.8125 98.01,28.8125 98.01,29.14375 L98.01,39.74375 C98.01,40.075 98.01,40.075 97.68,40.075 L90.42,40.075 C90.09,40.075 90.09,40.075 90.09,39.74375 L90.09,38.75 L90.09,2.975 C90.09,2.3125 90.09,2.64375 90.42,2.64375 L94.71,2.64375 C96.36,2.64375 97.35,3.6375 97.68,4.9625 L97.68,21.525 C97.68,21.85625 97.68,21.85625 98.34,21.85625 L99.66,21.85625 C100.32,21.85625 100.98,21.525 101.31,20.8625 L106.26,12.9125 C106.26,12.58125 106.59,12.58125 106.59,12.58125 L115.17,12.58125 C114.84,12.9125 114.84,13.24375 114.51,13.575 C112.2,16.8875 110.22,20.2 107.91,23.5125 C107.58,24.175 107.25,24.50625 106.59,24.8375 C106.59,24.8375 106.26,24.8375 106.59,25.16875 C107.58,26.1625 108.24,27.4875 108.9,28.8125 C110.55,32.125 112.53,35.4375 114.51,38.75 C114.84,38.75 114.84,39.08125 115.17,39.74375 Z M137.28,15.5625 L138.6,14.2375 C140.58,12.58125 142.56,11.91875 145.2,11.91875 C146.85,11.91875 148.5,11.91875 150.15,12.58125 C152.79,13.575 154.11,15.23125 155.1,17.88125 C155.43,19.20625 155.76,20.53125 155.76,22.1875 L155.76,39.4125 C155.76,40.075 155.76,39.74375 155.43,39.74375 L151.47,39.74375 C149.49,39.74375 148.17,38.41875 148.17,36.43125 L148.17,30.46875 L148.17,23.84375 C148.17,23.18125 148.17,22.51875 147.84,21.85625 C147.51,20.53125 146.52,19.5375 144.87,19.5375 C141.9,19.5375 139.26,21.19375 138.27,24.8375 C137.94,25.83125 137.94,26.49375 137.94,27.4875 L137.94,39.74375 C137.94,40.075 137.94,40.075 137.61,40.075 L130.68,40.075 C130.35,40.075 130.35,40.075 130.35,39.74375 L130.35,16.225 L130.35,13.575 C130.35,13.575 130.35,13.24375 130.68,13.24375 L134.97,13.24375 C135.63,12.58125 136.95,13.575 137.28,15.5625 C137.28,15.23125 137.28,15.5625 137.28,15.5625 Z M222.75,19.5375 L222.75,21.525 C222.75,21.85625 222.75,21.85625 222.42,21.85625 L218.79,21.85625 C217.47,21.85625 216.48,21.19375 216.15,19.86875 C216.15,19.20625 215.49,19.20625 215.16,18.875 C212.52,17.88125 209.55,18.875 207.57,20.8625 C206.91,21.85625 206.25,22.85 205.92,23.84375 C205.59,25.16875 205.59,26.49375 205.92,27.81875 C206.25,30.1375 207.57,31.79375 209.88,32.7875 C211.53,33.45 213.18,33.78125 214.83,33.45 C216.48,33.11875 218.13,32.45625 219.45,31.4625 C220.11,31.13125 220.77,30.46875 221.1,30.1375 C221.1,30.1375 221.43,29.80625 221.43,30.1375 L224.4,35.10625 L224.4,35.4375 C223.41,36.43125 222.42,37.425 221.1,38.0875 C219.78,38.75 218.46,39.4125 216.81,39.74375 C214.83,40.40625 212.52,40.40625 210.54,40.075 C208.23,39.74375 206.25,39.08125 204.27,37.75625 C201.96,36.1 199.98,34.1125 198.99,31.13125 C198.33,29.475 198,27.4875 198,25.5 C198,21.85625 199.32,18.54375 201.96,15.89375 C203.61,14.2375 205.26,13.24375 207.57,12.58125 C209.22,12.25 210.54,11.91875 212.19,11.91875 C214.5,11.91875 216.48,12.25 218.46,12.9125 C219.78,13.575 221.1,14.56875 222.09,15.89375 C222.42,16.55625 222.75,17.21875 222.75,18.2125 L222.75,19.5375 Z M117.48,26.1625 L117.48,12.9125 C117.48,12.9125 117.48,12.58125 117.81,12.58125 L122.1,12.58125 C124.08,12.58125 125.07,13.90625 125.4,15.89375 L125.4,39.4125 C125.4,39.74375 125.4,39.74375 125.07,39.74375 L118.14,39.74375 C117.81,39.74375 117.81,39.74375 117.81,39.4125 C117.48,34.775 117.48,30.46875 117.48,26.1625 Z M192.06,39.74375 C189.75,39.74375 187.44,37.75625 187.44,35.10625 C187.44,32.45625 189.42,30.46875 192.06,30.46875 C194.7,30.46875 196.68,32.45625 196.68,35.10625 C196.68,37.75625 194.7,40.075 192.06,39.74375 Z M184.47,38.0875 L184.47,37.425 L184.47,12.9125 C184.47,12.58125 184.47,12.58125 183.81,12.58125 L180.51,12.58125 L184.14,12.58125 C184.47,12.58125 184.47,12.58125 184.47,12.9125 L184.47,37.75625 C184.8,37.75625 184.47,38.0875 184.47,38.0875 Z M17.49,31.4625 C16.5,32.45625 15.18,33.11875 13.86,33.11875 L7.59,33.11875 C7.26,33.11875 7.26,33.11875 7.26,32.7875 L7.26,28.8125 L7.26,25.16875 C7.26,23.5125 8.25,22.85 9.57,22.85 L13.53,22.85 C15.18,22.85 16.83,23.5125 17.82,25.16875 C18.81,26.825 18.81,29.80625 17.49,31.4625 Z M7.26,13.575 L7.26,10.59375 C7.26,9.26875 7.92,8.275 9.57,8.275 L13.86,8.275 C15.51,8.60625 16.83,9.6 17.16,11.25625 C17.49,12.9125 17.16,14.2375 16.17,15.5625 C15.51,16.55625 14.19,16.8875 12.87,16.8875 L7.26,16.8875 C6.93,16.8875 6.93,16.8875 6.93,16.55625 C7.26,15.89375 7.26,14.9 7.26,13.575 Z M21.45,20.2 C21.12,20.2 20.79,19.86875 20.79,19.86875 C21.12,19.86875 21.12,19.5375 21.45,19.5375 C22.11,18.875 22.77,18.54375 23.1,17.88125 C24.42,15.89375 25.08,13.90625 25.08,11.5875 C24.75,8.275 23.43,5.625 20.46,3.96875 C18.48,2.975 16.17,2.3125 13.86,2.3125 L4.62,2.3125 C3.3,2.3125 2.31,2.975 1.65,3.96875 C1.32,4.63125 0.99,5.29375 0.66,5.625 L0.66,39.74375 L13.86,39.74375 C15.84,39.74375 17.49,39.4125 19.14,38.75 C21.78,37.75625 23.76,36.43125 25.08,34.1125 C26.4,31.79375 26.73,29.14375 26.07,26.49375 C25.08,23.5125 23.76,21.525 21.45,20.2 Z" id="Shape"></path>
            <path d="M176.55,29.14375 C175.89,31.13125 174.24,32.45625 171.93,32.45625 C169.29,32.45625 167.31,31.13125 166.65,28.48125 C165.99,26.1625 165.99,23.84375 166.65,21.85625 C167.31,19.86875 168.96,18.875 170.94,18.875 C171.93,18.875 173.25,18.875 174.24,19.5375 C175.56,20.2 176.22,21.525 176.55,22.85 C176.88,23.84375 176.88,24.50625 176.88,25.5 C176.88,26.49375 176.88,27.81875 176.55,29.14375 M184.14,12.58125 L180.51,12.58125 C179.19,12.58125 178.2,13.24375 177.54,14.56875 C176.88,14.2375 176.55,13.575 175.89,13.24375 C173.58,11.91875 170.94,11.5875 168.3,11.91875 C163.68,12.58125 160.71,15.23125 159.06,19.5375 C157.74,23.18125 157.74,26.49375 158.73,30.1375 C159.39,32.45625 160.71,34.775 162.69,36.43125 C165,38.41875 167.97,39.4125 171.27,39.08125 C173.25,39.08125 175.23,38.41875 176.88,37.09375 L177.21,37.09375 L177.21,38.41875 C176.88,40.40625 176.22,41.73125 174.24,42.39375 C172.26,43.3875 170.28,43.05625 168.3,43.05625 C167.31,43.05625 165.99,42.39375 165,42.0625 C163.68,41.73125 162.69,42.0625 162.03,43.3875 L162.03,43.71875 C161.7,44.7125 161.04,46.0375 160.71,47.03125 C160.71,47.3625 160.71,47.3625 161.04,47.3625 C163.02,48.35625 165.33,49.01875 167.31,49.35 C167.97,49.35 168.63,49.68125 169.29,49.68125 L172.59,49.68125 C173.58,49.68125 174.57,49.35 175.23,49.35 C177.54,48.6875 179.85,47.69375 181.5,46.0375 C183.81,43.71875 184.8,41.06875 184.8,38.0875 L184.8,37.75625 L184.8,12.9125 L184.8,12.58125 L184.14,12.58125 M245.52,25.83125 C245.52,27.81875 245.19,29.475 244.2,30.8 C243.21,32.125 242.22,32.7875 240.57,33.11875 C239.25,33.45 237.6,33.45 236.28,32.7875 C234.96,32.125 233.97,31.13125 233.31,29.80625 C232.65,28.48125 232.32,27.15625 232.32,25.83125 C232.32,23.84375 232.98,21.85625 234.63,20.2 C235.95,18.875 237.93,18.2125 239.58,18.54375 C242.22,18.875 244.2,20.53125 244.86,22.85 C245.52,23.84375 245.85,24.8375 245.52,25.83125 M252.78,22.1875 C252.45,21.19375 252.12,19.86875 251.46,18.875 C250.14,16.55625 248.49,14.9 246.18,13.575 C244.53,12.58125 242.55,11.91875 240.57,11.91875 L236.61,11.91875 C235.29,12.25 233.64,12.58125 232.32,13.24375 C230.01,14.2375 228.36,15.89375 226.71,17.88125 C225.06,20.2 224.4,22.85 224.4,25.83125 L224.4,27.81875 C224.73,29.475 225.06,30.8 225.72,32.125 C226.71,34.1125 228.36,35.76875 230.01,37.09375 C231.99,38.41875 234.3,39.4125 236.94,39.4125 C239.25,39.74375 241.89,39.4125 244.2,38.41875 C246.51,37.425 248.49,36.1 249.81,34.1125 C250.8,32.7875 251.79,31.13125 252.12,29.80625 C252.45,28.8125 252.45,27.81875 252.78,26.49375 C253.44,25.5 253.44,23.84375 252.78,22.1875 M79.53,26.1625 C79.53,28.15 79.2,29.80625 77.88,31.13125 C76.56,32.7875 74.58,33.45 72.6,33.45 C69.63,33.45 67.32,31.13125 66.66,28.15 C66.33,25.83125 66.33,23.5125 67.65,21.525 C68.97,19.20625 71.28,18.2125 73.92,18.54375 C76.89,18.875 78.54,20.8625 79.2,23.5125 C79.53,24.175 79.53,25.16875 79.53,26.1625 M79.53,13.575 C75.9,11.91875 71.94,11.5875 67.98,12.9125 C64.02,14.2375 61.05,16.8875 59.73,20.8625 C58.74,23.5125 58.41,26.49375 59.07,29.475 C59.73,32.7875 61.38,35.4375 64.02,37.75625 C66.66,39.74375 69.63,40.40625 72.93,40.7375 C74.25,40.7375 75.24,40.7375 76.56,40.40625 C80.85,39.4125 83.82,37.09375 85.8,33.11875 C87.45,30.1375 87.78,26.825 86.79,23.5125 C85.8,18.54375 83.49,15.23125 79.53,13.575 M47.85,30.1375 C46.86,32.125 45.21,33.11875 42.9,33.45 C39.27,33.78125 36.63,31.4625 35.97,28.15 L35.97,27.4875 L35.97,26.1625 C35.97,24.175 36.3,22.51875 37.62,20.8625 C39.27,19.20625 41.25,18.54375 43.56,18.54375 C46.2,18.875 47.85,20.53125 48.84,22.85 C49.5,25.5 49.17,27.81875 47.85,30.1375 M49.17,13.575 C45.87,11.91875 42.24,11.5875 38.61,12.58125 C34.32,13.575 31.02,16.225 29.37,20.2 C28.05,22.85 28.05,25.83125 28.38,28.48125 C28.71,31.79375 30.36,34.44375 32.67,36.43125 C35.31,39.08125 38.61,40.075 42.57,40.075 C43.89,40.075 45.54,40.075 46.86,39.4125 C50.82,38.41875 53.79,35.76875 55.44,32.125 C56.76,29.14375 57.09,26.1625 56.43,22.85 C55.44,18.54375 53.13,15.5625 49.17,13.575" id="Shape"></path>
        </g>
    </g>
</svg>