<?xml version="1.0" encoding="UTF-8"?>
<svg width="300px" height="100px" viewBox="0 0 300 100" version="1.1" xmlns="http://www.w3.org/2000/svg" xmlns:xlink="http://www.w3.org/1999/xlink">
    <!-- Generator: Sketch 52 (66869) - http://www.bohemiancoding.com/sketch -->
    <title>Artboard</title>
    <desc>Created with Sketch.</desc>
    <g id="Artboard" stroke="none" stroke-width="1" fill="none" fill-rule="evenodd">
        <g id="doen" transform="translate(90.000000, 0.000000)" fill="#293A7D" fill-rule="nonzero">
            <path d="M46.9345794,95.4426966 L44.0119626,95.4426966 L44.0119626,92.5123596 L46.9345794,92.5123596 L46.9345794,95.4426966 Z M76.1736449,95.4578652 L73.248785,95.4578652 L73.248785,92.5280899 L76.1736449,92.5280899 L76.1736449,95.4578652 Z M47.9029907,92.5303371 L49.1540187,92.5303371 L49.1540187,94.7994382 L50.944486,94.7994382 L50.944486,95.4539326 L47.9029907,95.4539326 L47.9029907,92.5303371 Z M52.5543925,93.9960674 C52.5543925,94.5432584 52.9340187,94.8814607 53.5357009,94.8814607 C54.1373832,94.8814607 54.4900935,94.5129213 54.4900935,93.9882022 C54.4900935,93.4848315 54.1295327,93.1033708 53.528972,93.1033708 C52.9345794,93.1033708 52.5543925,93.458427 52.5543925,93.9966292 L52.5543925,93.9960674 Z M55.8095327,93.9629213 C55.8095327,94.902809 54.9100935,95.5022472 53.4728972,95.5022472 C52.0295327,95.5022472 51.2338318,94.8219101 51.2338318,94.0089888 C51.2338318,93.1595506 52.1265421,92.4825843 53.5497196,92.4825843 C55.0485981,92.4825843 55.8095327,93.1792135 55.8095327,93.9623596 L55.8095327,93.9629213 Z M57.1783178,93.1853933 L55.988972,93.1853933 L55.988972,92.5303371 L59.6388785,92.5303371 L59.6388785,93.1859551 L58.4299065,93.1859551 L58.4299065,95.4539326 L57.1783178,95.4539326 L57.1783178,93.1853933 Z M62.9983178,94.2752809 L61.3261682,94.2752809 L61.3261682,94.8117978 L63.1968224,94.8117978 L63.1968224,95.4544944 L60.0740187,95.4544944 L60.0740187,92.5297753 L63.1020561,92.5297753 L63.1020561,93.1691011 L61.3261682,93.1691011 L61.3261682,93.6398876 L62.9983178,93.6398876 L62.9983178,94.2752809 Z M65.1257944,93.7966292 L65.451028,93.7966292 C65.9203738,93.7966292 66.191215,93.6494382 66.191215,93.4320225 C66.191215,93.2101124 65.9624299,93.0904494 65.5474766,93.0865169 C65.3125234,93.0865169 65.1880374,93.094382 65.1257944,93.1033708 L65.1257944,93.7966292 Z M63.8893458,92.5685393 C64.2403738,92.5348315 64.7730841,92.508427 65.395514,92.508427 C66.1065421,92.508427 66.6190654,92.5685393 66.9717757,92.7337079 C67.268972,92.8769663 67.435514,93.0865169 67.435514,93.3730337 C67.435514,93.7359551 66.9986916,93.9966292 66.6336449,94.0792135 L66.6336449,94.0960674 C66.9426168,94.1786517 67.1091589,94.3657303 67.2280374,94.6179775 C67.3715888,94.9168539 67.5241121,95.341573 67.6138318,95.4539326 L66.3353271,95.4539326 C66.2657944,95.3685393 66.1485981,95.141573 66.0117757,94.7820225 C65.8861682,94.4314607 65.7128972,94.3561798 65.3271028,94.3561798 L65.1257944,94.3561798 L65.1257944,95.4539326 L63.8893458,95.4539326 L63.8893458,92.5685393 Z M69.4026168,95.4539326 L68.1521495,95.4539326 L68.1521495,92.5303371 L69.4026168,92.5303371 L69.4026168,95.4539326 Z M71.153271,92.5303371 L72.4037383,92.5303371 L72.4037383,94.3348315 C72.4037383,95.1848315 71.7543925,95.502809 70.6340187,95.502809 C70.3783178,95.502809 70.0385047,95.4803371 69.8041121,95.4320225 L69.9442991,94.8039326 C70.1240167,94.8345877 70.305924,94.8505579 70.4882243,94.8516854 C70.8891589,94.8516854 71.153271,94.738764 71.153271,94.3348315 L71.153271,92.5303371 Z M76.1674766,85.2044944 L73.2431776,85.2044944 L73.2431776,82.2758427 L76.1674766,82.2758427 L76.1674766,85.2044944 Z M46.9345794,85.2044944 L44.0119626,85.2044944 L44.0119626,82.2758427 L46.9345794,82.2758427 L46.9345794,85.2044944 Z M47.5861682,85.2162921 L47.5861682,82.2893258 L48.6241121,82.2893258 L49.1102804,83.1370787 C49.2986916,83.4629213 49.4814953,83.861236 49.6295327,84.2432584 L49.6429907,84.2432584 C49.5908411,83.8095506 49.5869159,83.452809 49.5869159,83.0539326 L49.5869159,82.288764 L50.3517757,82.288764 L50.3517757,85.2157303 L49.446729,85.2157303 L48.911215,84.2483146 C48.7038575,83.8799354 48.514293,83.5017837 48.3431776,83.1151685 L48.3252336,83.1151685 C48.3482243,83.5578652 48.3521495,83.9831461 48.3521495,84.4258427 L48.3521495,85.2162921 L47.5861682,85.2162921 Z M52.5011215,83.9050562 L52.3429907,83.3882022 C52.2914019,83.2235955 52.2302804,83.0106742 52.1770093,82.8404494 L52.1691589,82.8404494 C52.1198131,83.0106742 52.0760748,83.2235955 52.0278505,83.3910112 L51.8893458,83.9050562 L52.5011215,83.9050562 Z M51.768785,84.5033708 L51.5820561,85.2157303 L50.711215,85.2157303 L51.6442991,82.2893258 L52.7725234,82.2893258 L53.764486,85.2162921 L52.8465421,85.2162921 L52.6278505,84.5033708 L51.768785,84.5033708 Z M54.3908411,82.9578652 L53.5609346,82.9578652 L53.5609346,82.2893258 L56.0674766,82.2893258 L56.0674766,82.9578652 L55.2173832,82.9578652 L55.2173832,85.2162921 L54.3908411,85.2162921 L54.3908411,82.9578652 Z M57.2837383,85.2162921 L56.457757,85.2162921 L56.457757,82.2893258 L57.2837383,82.2893258 L57.2837383,85.2162921 Z M59.3366355,84.6348315 C59.7880374,84.6348315 60.0543925,84.2601124 60.0543925,83.7578652 C60.0543925,83.2522472 59.7728972,82.8713483 59.3321495,82.8713483 C58.8902804,82.8713483 58.6104673,83.252809 58.6104673,83.7578652 C58.6104673,84.2601124 58.8902804,84.6342697 59.3321495,84.6342697 L59.3366355,84.6348315 Z M59.2928972,85.2685393 C58.3216822,85.2685393 57.7295327,84.6224719 57.7295327,83.7786517 C57.7295327,82.8853933 58.3771963,82.2376404 59.344486,82.2376404 C60.3426168,82.2376404 60.9342056,82.8752809 60.9342056,83.7353933 C60.9342056,84.6219101 60.3078505,85.2685393 59.2968224,85.2685393 L59.2928972,85.2685393 Z M61.38,85.2162921 L61.38,82.2893258 L62.4173832,82.2893258 L62.9029907,83.1370787 C63.0908411,83.4629213 63.2742056,83.861236 63.4228037,84.2432584 L63.4368224,84.2432584 C63.3846729,83.8095506 63.3801869,83.452809 63.3801869,83.0539326 L63.3801869,82.288764 L64.1456075,82.288764 L64.1456075,85.2157303 L63.2394393,85.2157303 L62.7050467,84.2483146 C62.4972904,83.880239 62.3078985,83.5020583 62.1375701,83.1151685 L62.1207477,83.1151685 C62.1420561,83.5578652 62.1448598,83.9831461 62.1448598,84.4258427 L62.1448598,85.2162921 L61.38,85.2162921 Z M66.2949533,83.9050562 L66.1368224,83.3882022 C66.0841121,83.2235955 66.0224299,83.0106742 65.9702804,82.8404494 L65.9613084,82.8404494 C65.9142056,83.0106742 65.871028,83.2235955 65.8211215,83.3910112 L65.6826168,83.9050562 L66.2949533,83.9050562 Z M65.5626168,84.5033708 L65.3758879,85.2157303 L64.5050467,85.2157303 L65.4370093,82.2893258 L66.5663551,82.2893258 L67.5588785,85.2162921 L66.6403738,85.2162921 L66.4216822,84.5033708 L65.5626168,84.5033708 Z M67.9609346,82.2893258 L68.7880374,82.2893258 L68.7880374,84.5308989 L70.0620561,84.5308989 L70.0620561,85.2162921 L67.9609346,85.2162921 L67.9609346,82.2893258 Z M72.4917757,84.0573034 L71.2917757,84.0573034 L71.2917757,84.5561798 L72.6314019,84.5561798 L72.6314019,85.2162921 L70.4641121,85.2162921 L70.4641121,82.2893258 L72.5657944,82.2893258 L72.5657944,82.9494382 L71.2923364,82.9494382 L71.2923364,83.397191 L72.4917757,83.397191 L72.4917757,84.0573034 Z M45.2596262,88.6292135 C45.3297196,88.6376404 45.4121495,88.644382 45.5450467,88.644382 C46.0401869,88.644382 46.3457944,88.3578652 46.3457944,87.8960674 C46.3457944,87.4994382 46.1097196,87.2275281 45.6364486,87.2275281 C45.4469159,87.2275281 45.3213084,87.2438202 45.2596262,87.2601124 L45.2596262,88.6292135 Z M44.0114019,86.258427 C44.3534579,86.1949438 44.8474766,86.147191 45.5669159,86.147191 C46.2420561,86.147191 46.7231776,86.2814607 47.0506542,86.5674157 C47.3725234,86.838764 47.586729,87.3174157 47.586729,87.8640449 C47.586729,88.4061798 47.4274766,88.8837079 47.1353271,89.1853933 C46.751215,89.5764045 46.2005607,89.7426966 45.5669159,89.7426966 C45.4469159,89.7426966 45.3364486,89.7342697 45.2596262,89.7258427 L45.2596262,91.5477528 L44.0114019,91.5477528 L44.0114019,86.258427 Z M49.0642991,88.8764045 C49.0642991,89.8792135 49.4495327,90.4994382 50.0551402,90.4994382 C50.6607477,90.4994382 51.0162617,89.8219101 51.0162617,88.8595506 C51.0162617,87.9365169 50.6551402,87.2359551 50.0461682,87.2359551 C49.4495327,87.2359551 49.0642991,87.8893258 49.0642991,88.8764045 Z M52.3497196,88.8123596 C52.3497196,90.5382022 51.4424299,91.6365169 49.9923364,91.6365169 C48.535514,91.6365169 47.7342056,90.3876404 47.7342056,88.9 C47.7342056,87.3398876 48.6330841,86.0983146 50.0691589,86.0983146 C51.5814953,86.0983146 52.3497196,87.3792135 52.3497196,88.8123596 Z M52.8224299,90.1162921 C53.1078505,90.2842697 53.5760748,90.4505618 54.0431776,90.4505618 C54.4749533,90.4505618 54.6841121,90.2842697 54.6841121,90.0129213 C54.6841121,89.7505618 54.475514,89.6 53.9439252,89.3921348 C53.1499065,89.0735955 52.6261682,88.5741573 52.6261682,87.7775281 C52.6261682,86.8308989 53.3237383,86.0988764 54.5102804,86.0988764 C55.0743925,86.0988764 55.4714019,86.2191011 55.7842991,86.3775281 L55.5190654,87.5235955 C55.2036894,87.3553672 54.8518708,87.2673925 54.4945794,87.2674157 C54.1121495,87.2674157 53.9035514,87.4286517 53.9035514,87.6662921 C53.9035514,87.9365169 54.1536449,88.047191 54.7469159,88.302809 C55.5902804,88.6533708 55.9727103,89.1702247 55.9727103,89.9179775 C55.9727103,90.8398876 55.3390654,91.6359551 53.9646729,91.6359551 C53.4011215,91.6359551 52.8499065,91.4606742 52.5846729,91.3022472 L52.8224299,90.1162921 Z M57.2831776,87.3870787 L56.0842991,87.3870787 L56.0842991,86.1865169 L59.7656075,86.1865169 L59.7656075,87.3870787 L58.5448598,87.3870787 L58.5448598,91.5483146 L57.2831776,91.5483146 L57.2831776,87.3870787 Z M63.3757009,91.4134831 C63.1940187,91.508427 62.7560748,91.6365169 62.1897196,91.6365169 C60.4334579,91.6365169 59.6596262,90.3803371 59.6596262,88.9550562 C59.6596262,87.061236 60.8719626,86.0988764 62.2749533,86.0988764 C62.8188785,86.0988764 63.2585047,86.2185393 63.4519626,86.3376404 L63.2080374,87.4668539 C62.9350081,87.340104 62.6375502,87.2749013 62.3366355,87.2758427 C61.6127103,87.2758427 60.9846729,87.7623596 60.9846729,88.8589888 C60.9846729,89.8382022 61.4921495,90.4426966 62.3585047,90.4426966 C62.6652336,90.4426966 63.0061682,90.3713483 63.2024299,90.2842697 L63.3757009,91.4134831 Z" id="Shape"></path>
            <path d="M64.6788785,88.8764045 C64.6788785,89.8792135 65.0618692,90.4994382 65.6680374,90.4994382 C66.2758879,90.4994382 66.6308411,89.8219101 66.6308411,88.8595506 C66.6308411,87.9365169 66.2685981,87.2359551 65.6613084,87.2359551 C65.0613084,87.2359551 64.6788785,87.8893258 64.6788785,88.8764045 Z M67.9631776,88.8123596 C67.9631776,90.5382022 67.0564486,91.6365169 65.6057944,91.6365169 C64.1495327,91.6365169 63.3482243,90.3876404 63.3482243,88.9 C63.3482243,87.3398876 64.2465421,86.0983146 65.6820561,86.0983146 C67.1960748,86.0983146 67.9631776,87.3792135 67.9631776,88.8123596 Z M69.6157009,90.4741573 C69.6768224,90.4910112 69.7951402,90.4910112 69.8792523,90.4910112 C70.6951402,90.5067416 71.2934579,89.9910112 71.2934579,88.7808989 C71.2934579,87.738764 70.7506542,87.244382 69.9975701,87.244382 C69.7951402,87.244382 69.6768224,87.2601124 69.6157009,87.2758427 L69.6157009,90.4741573 Z M68.3517757,86.258427 C68.757757,86.1865169 69.2938318,86.147191 69.851215,86.147191 C70.7506542,86.147191 71.3158879,86.3134831 71.7824299,86.6808989 C72.2983178,87.0853933 72.6330841,87.7539326 72.6330841,88.7393258 C72.6330841,89.8303371 72.2702804,90.5382022 71.8104673,90.9438202 C71.2934579,91.4044944 70.5274766,91.6123596 69.6056075,91.6123596 C69.0011215,91.6123596 68.5973832,91.5651685 68.3517757,91.5168539 L68.3517757,86.258427 Z M75.971215,89.3853933 L74.2850467,89.3853933 L74.2850467,90.3707865 L76.1736449,90.3707865 L76.1736449,91.5477528 L73.022243,91.5477528 L73.022243,86.1865169 L76.0760748,86.1865169 L76.0760748,87.3550562 L74.2850467,87.3550562 L74.2850467,88.2224719 L75.971215,88.2224719 L75.971215,89.3853933 Z M87.4104673,84.8848315 C86.9747664,84.894382 86.7224299,84.9724719 86.5872897,85.1078652 C86.4706542,85.2247191 86.4420561,85.3691011 86.4420561,85.5348315 C86.4420561,85.7876404 86.52,86.0786517 86.52,86.3207865 C86.52,86.4376404 86.4420561,86.7280899 86.4420561,86.941573 C86.4420561,87.0870787 86.4813084,87.194382 86.5968224,87.194382 C87.4104673,87.194382 88.2717757,86.65 88.2717757,85.7674157 C88.2717757,85.2926966 87.8562617,84.8848315 87.4104673,84.8848315 Z M87.5170093,82.061236 C86.82,82.061236 86.3938318,82.7308989 86.3938318,83.2252809 C86.3938318,83.2848315 86.4527103,83.5848315 86.4527103,83.6623596 C86.4527103,83.8275281 86.4229907,84.0219101 86.4229907,84.1960674 C86.4229907,84.3904494 86.4611215,84.5353933 86.6259813,84.5353933 C87.1390654,84.5353933 88.368785,83.8949438 88.368785,82.9252809 C88.368785,82.4016854 88.0205607,82.061236 87.5175701,82.061236 L87.5170093,82.061236 Z M87.8949533,84.5258427 C88.4080374,84.6623596 88.8050467,85.0792135 88.8050467,85.7674157 C88.8050467,87.1646067 87.5557009,87.6016854 86.4128972,87.8348315 C86.2872897,87.8629213 86.1605607,87.8735955 86.0551402,87.8735955 C85.4742056,87.8735955 85.1153271,87.5342697 85.1153271,86.9320225 C85.1153271,86.8353933 85.1831776,86.3398876 85.1831776,86.2337079 C85.1831776,86.1174157 85.1736449,85.9910112 85.1450467,85.8460674 C85.1114703,85.6830723 85.0951184,85.5169881 85.0962617,85.3505618 C85.0962617,85.1185393 85.1248598,84.9331461 85.1248598,84.7196629 C85.1248598,84.3904494 85.0379439,84.2837079 85.0379439,83.9926966 C85.0379439,83.8949438 85.1153271,83.4297753 85.1153271,83.3230337 C85.1153271,82.9837079 84.9611215,82.8567416 84.9611215,82.6735955 C84.9611215,82.6342697 84.9796262,82.4308989 84.9796262,82.3814607 C84.9796262,81.9640449 84.8057944,81.8196629 84.8057944,81.4792135 C84.8057944,81.3140449 84.8439252,81.0522472 85.0665421,81.0522472 C85.4545794,81.0522472 85.8409346,81.1589888 86.0551402,81.5185393 C86.2872897,81.3241573 86.4813084,81.188764 86.693271,81.091573 C86.9063551,81.0039326 87.1390654,80.9657303 87.4396262,80.9657303 C88.4657944,80.9657303 89.0461682,81.7123596 89.0461682,82.6921348 C89.0461682,83.3910112 88.5431776,84.2157303 87.8949533,84.5258427 Z M89.9405607,86.652809 C89.9405607,86.9280899 90.1457944,87.0808989 90.4059813,87.0808989 C90.6504673,87.0808989 90.8635514,86.9662921 91.0171963,86.7977528 C91.1702804,86.6303371 91.1702804,86.4988764 91.1702804,86.2932584 L91.1702804,85.841573 C91.1702804,85.7033708 91.1702804,85.6494382 91.1394393,85.6494382 C91.0940187,85.6494382 91.0401869,85.6808989 90.9639252,85.7185393 C90.7957009,85.802809 90.6117757,85.9039326 90.4362617,85.9949438 C90.1839252,86.1393258 89.9405607,86.3235955 89.9405607,86.6449438 L89.9405607,86.652809 Z M91.1702804,84.7775281 C91.1702804,84.4561798 91.1545794,84.1651685 90.7424299,84.1651685 C90.3297196,84.1651685 90.131215,84.4022472 89.9629907,84.7617978 C89.8940187,84.9005618 89.8261682,85.0224719 89.6736449,85.0831461 C89.588972,85.1140449 89.4431776,85.1674157 89.344486,85.1674157 C89.2452336,85.1674157 89.1914019,85.1224719 89.1914019,85.0224719 C89.1914019,84.6089888 89.9170093,83.9516854 90.9409346,83.9516854 C91.2011215,83.9516854 91.56,83.9966292 91.7652336,84.1724719 C91.9188785,84.302809 91.9188785,84.4252809 91.9188785,84.7775281 L91.9188785,86.4921348 C91.9188785,86.7067416 91.9334579,87.0505618 92.1700935,87.0505618 C92.2533469,87.0509655 92.3333034,87.0179925 92.3921495,86.9589888 C92.4459813,86.9050562 92.4841121,86.8595506 92.522243,86.8595506 C92.5609346,86.8595506 92.5749533,86.9134831 92.5749533,86.9747191 C92.5749533,87.1505618 92.1028037,87.4797753 91.7585047,87.4797753 C91.4826168,87.4797753 91.3682243,87.2337079 91.2616822,87.0735955 C91.2241121,87.0202247 91.1927103,86.9747191 91.1618692,86.9747191 C91.1237383,86.9747191 90.9639252,87.1275281 90.7575701,87.2573034 C90.535514,87.3955056 90.2534579,87.5179775 89.9405607,87.5179775 C89.5278505,87.5179775 89.1846729,87.2651685 89.1846729,86.8674157 C89.1846729,86.3314607 89.7953271,86.0404494 90.2915888,85.7955056 C90.4900935,85.711236 90.6813084,85.6196629 90.8876636,85.5202247 C91.1702804,85.3904494 91.1702804,85.3741573 91.1702804,85.1224719 L91.1702804,84.7775281 Z M93.3269159,85.2061798 C93.3269159,84.7848315 93.2960748,84.7011236 93.0442991,84.6938202 C92.8990654,84.6853933 92.8385047,84.6780899 92.8385047,84.6005618 C92.8385047,84.494382 92.9528972,84.4870787 93.0521495,84.4646067 C93.2506542,84.4179775 93.6476636,84.2342697 93.8315888,84.0432584 C93.8842991,83.9893258 93.9235514,83.9280899 93.9919626,83.9280899 C94.0676636,83.9280899 94.0676636,83.997191 94.0676636,84.0724719 L94.0676636,84.4022472 C94.0676636,84.494382 94.0676636,84.5398876 94.0985047,84.5398876 C94.128785,84.5398876 94.2897196,84.3949438 94.4803738,84.2578652 C94.686729,84.0966292 94.9766355,83.9511236 95.3209346,83.9511236 C95.6338318,83.9511236 95.9624299,84.058427 96.191215,84.3264045 C96.4138318,84.5865169 96.4435514,84.9005618 96.4435514,85.3365169 L96.4435514,86.6376404 C96.4435514,87.0044944 96.4519626,87.211236 96.7794393,87.2264045 C96.8714019,87.2342697 96.9930841,87.2421348 96.9930841,87.3488764 C96.9930841,87.4252809 96.9325234,87.4488764 96.8871028,87.4488764 C96.6499065,87.4488764 96.2983178,87.4179775 96.0476636,87.4179775 C95.7863551,87.4179775 95.5418692,87.4488764 95.3366355,87.4488764 C95.2743925,87.4488764 95.2138318,87.4337079 95.2138318,87.3488764 C95.2138318,87.2494382 95.3203738,87.2421348 95.4050467,87.2264045 C95.6943925,87.211236 95.6943925,87.0202247 95.6943925,86.6376404 L95.6943925,85.4044944 C95.6943925,85.1910112 95.6943925,84.9157303 95.58,84.7235955 C95.451028,84.5252809 95.2211215,84.4022472 94.9469159,84.4022472 C94.68,84.4022472 94.4506542,84.5089888 94.2813084,84.6853933 C94.0900935,84.8848315 94.0749533,85.0455056 94.0749533,85.305618 L94.0749533,86.6370787 C94.0749533,87.0202247 94.0749533,87.211236 94.373271,87.2264045 C94.442243,87.2342697 94.5639252,87.2421348 94.5639252,87.341573 C94.5639252,87.4106742 94.511215,87.4483146 94.442243,87.4483146 C94.2285981,87.4483146 93.9308411,87.4179775 93.6628037,87.4179775 C93.3656075,87.4179775 93.1211215,87.4488764 92.8990654,87.4488764 C92.8525234,87.4488764 92.7773832,87.4337079 92.7773832,87.3573034 C92.7773832,87.2421348 92.8917757,87.2342697 92.991028,87.2264045 C93.3269159,87.211236 93.3269159,87.0202247 93.3269159,86.5455056 L93.3269159,85.2061798 Z M97.7562617,83.0702247 C97.7562617,82.6735955 97.6485981,82.6651685 97.3906542,82.65 C97.2824299,82.6342697 97.2213084,82.6196629 97.2213084,82.5432584 C97.2213084,82.4741573 97.2897196,82.4432584 97.3816822,82.4353933 C97.6570093,82.4044944 97.9934579,82.3213483 98.2379439,82.1825843 C98.291215,82.1455056 98.3669159,82.0988764 98.4213084,82.0988764 C98.4964486,82.0988764 98.5054206,82.1370787 98.5054206,82.2589888 L98.5054206,85.4589888 C98.5054206,85.5421348 98.5054206,85.6353933 98.5502804,85.6353933 C98.5968224,85.6353933 98.6803738,85.5578652 98.7499065,85.497191 C99.0476636,85.2601124 99.3454206,85.0224719 99.6437383,84.7859551 C99.7581308,84.6938202 99.9493458,84.5398876 99.9493458,84.4179775 C99.9493458,84.2876404 99.7968224,84.2803371 99.6891589,84.2646067 C99.6050467,84.2646067 99.4143925,84.2719101 99.4143925,84.1348315 C99.4143925,84.0426966 99.4833645,84.0426966 99.5971963,84.0426966 C99.7968224,84.058427 100.032336,84.0657303 100.268411,84.0657303 C100.53757,84.0657303 100.811215,84.058427 101.01757,84.0426966 C101.155514,84.0426966 101.208224,84.0426966 101.208224,84.1421348 C101.208224,84.2421348 101.117383,84.2494382 101.01757,84.2578652 C100.682243,84.2719101 100.498879,84.4179775 100.231402,84.6095506 C100.063738,84.7393258 99.8646729,84.8926966 99.6891589,85.0224719 C99.6358879,85.0679775 99.5136449,85.1516854 99.5136449,85.2219101 C99.5136449,85.2831461 99.5814953,85.344382 99.6358879,85.4207865 C99.9869159,85.8792135 100.337944,86.3466292 100.682243,86.8061798 C100.895888,87.0966292 101.025981,87.2196629 101.178505,87.2196629 C101.277757,87.2264045 101.415701,87.2421348 101.415701,87.341573 C101.415701,87.4337079 101.339439,87.4483146 101.270467,87.4483146 C100.995701,87.4483146 100.720374,87.4179775 100.445047,87.4179775 C100.178131,87.4179775 99.8949533,87.4488764 99.6207477,87.4488764 C99.5674766,87.4488764 99.5057944,87.4410112 99.5057944,87.3488764 C99.5057944,87.2567416 99.6128972,87.2421348 99.6807477,87.2342697 C99.7727103,87.2264045 99.8798131,87.211236 99.8798131,87.0966292 C99.8798131,87.0123596 99.773271,86.8747191 99.72,86.7988764 C99.5203738,86.5219101 99.3229907,86.247191 99.1239252,85.9724719 C99.0246729,85.8410112 98.9405607,85.7106742 98.8715888,85.7106742 C98.8026168,85.7106742 98.5054206,85.9033708 98.5054206,86.0859551 L98.5054206,86.8511236 C98.5054206,87.1275281 98.6276636,87.2196629 98.7717757,87.2264045 C98.8485981,87.2342697 99.0016822,87.2494382 99.0016822,87.341573 C99.0016822,87.4258427 98.9405607,87.4483146 98.8637383,87.4483146 C98.6198131,87.4483146 98.3596262,87.4179775 98.1229907,87.4179775 C97.8560748,87.4179775 97.5807477,87.4488764 97.313271,87.4488764 C97.2515888,87.4488764 97.1842991,87.4337079 97.1842991,87.3573034 C97.1842991,87.2342697 97.3054206,87.2342697 97.4052336,87.2264045 C97.7338318,87.2196629 97.7562617,87.0657303 97.7562617,86.7213483 L97.7562617,83.0702247 Z M104.251402,87.955618 C103.737757,87.955618 103.14785,87.752809 102.885981,87.2966292 C102.702617,86.9764045 102.68243,86.8882022 102.381869,86.6842697 C101.946729,86.3938202 102.11215,85.9275281 101.75271,85.5691011 C101.665234,85.4741654 101.617115,85.3494244 101.618131,85.2202247 C101.618131,85.1432584 101.637196,85.0747191 101.665794,85.0162921 C101.700298,84.9610246 101.717305,84.8965915 101.714579,84.8314607 C101.714579,84.7151685 101.676449,84.6089888 101.676449,84.4926966 C101.694953,83.9005618 101.889533,83.5230337 102.199065,83.0376404 C102.84729,82.0185393 103.699626,81.5820225 104.803738,81.1735955 C104.91028,81.1353933 104.987664,81.1162921 105.054953,81.1162921 C105.171589,81.1162921 105.228785,81.1646067 105.228785,81.2331461 C105.228785,81.3101124 105.14243,81.4174157 104.968037,81.494382 C104.628785,81.6308989 104.115701,81.9117978 103.960935,81.9983146 C103.157383,82.4747191 103.080561,83.144382 103.080561,83.9207865 C103.080561,84.9679775 103.099065,85.0646067 103.54486,85.6949438 C103.892523,86.1803371 104.368037,86.8882022 104.881682,86.8882022 C105.249533,86.8882022 105.617383,86.3646067 105.627477,85.7533708 C105.636449,85.0264045 104.261495,85.2202247 104.251402,84.6960674 C104.24243,84.3567416 105.045421,84.1140449 105.655514,84.1140449 C105.984112,84.1140449 106.265607,84.1724719 106.265607,84.938764 C106.265607,87.0539326 105.325794,87.955618 104.251402,87.955618 Z M107.464486,83.3539326 C107.346437,83.3554514 107.232763,83.3092165 107.149178,83.2256857 C107.065592,83.142155 107.019156,83.028386 107.020374,82.9101124 C107.020374,82.6876404 107.173458,82.458427 107.486916,82.458427 C107.722991,82.458427 107.921495,82.65 107.921495,82.8949438 C107.921495,83.1623596 107.730841,83.3544944 107.471776,83.3544944 L107.464486,83.3539326 Z M107.097196,85.2140449 C107.097196,84.7617978 107.065794,84.6786517 106.79215,84.6702247 C106.631776,84.6629213 106.577944,84.6629213 106.577944,84.5780899 C106.577944,84.4713483 106.685607,84.4646067 106.798879,84.4410112 C107.065794,84.3870787 107.417944,84.1882022 107.617009,84.0275281 C107.68486,83.9657303 107.716262,83.9280899 107.776822,83.9280899 C107.845234,83.9280899 107.853084,83.9747191 107.853084,84.058427 C107.853084,84.1730337 107.845234,84.2876404 107.845234,84.4179775 L107.845234,86.6370787 C107.845234,87.0359551 107.853084,87.211236 108.181682,87.2342697 C108.272523,87.2421348 108.394766,87.2421348 108.394766,87.3488764 C108.394766,87.4264045 108.334766,87.4488764 108.289346,87.4488764 C108.05215,87.4488764 107.762243,87.4179775 107.502056,87.4179775 C107.112336,87.4179775 106.884112,87.4488764 106.654206,87.4488764 C106.592523,87.4488764 106.524673,87.4337079 106.524673,87.3573034 C106.524673,87.2342697 106.646355,87.2342697 106.745047,87.2264045 C107.097196,87.2196629 107.097196,87.0657303 107.097196,86.6067416 L107.097196,85.2140449 Z M109.221308,85.2522472 C109.221308,84.8005618 109.19215,84.708427 108.931963,84.6938202 C108.771028,84.6780899 108.717196,84.6780899 108.717196,84.6011236 C108.717196,84.494382 108.801308,84.4870787 108.962243,84.4483146 C109.168037,84.4016854 109.518505,84.2191011 109.688411,84.0589888 C109.779813,83.9747191 109.811215,83.9275281 109.879065,83.9275281 C109.971028,83.9275281 109.971028,83.9966292 109.971028,84.0814607 L109.971028,84.4410112 C109.971028,84.5477528 109.971028,84.5870787 110.009159,84.5870787 C110.04729,84.5870787 110.138131,84.4410112 110.267664,84.3179775 C110.414579,84.1724719 110.635514,83.9893258 110.933271,83.9893258 C111.208037,83.9893258 111.422243,84.1657303 111.422243,84.4252809 C111.425724,84.5298141 111.385764,84.6311097 111.311892,84.7050137 C111.23802,84.7789177 111.136856,84.8188065 111.032523,84.8151685 C110.88785,84.8151685 110.803178,84.738764 110.726355,84.6550562 C110.650093,84.5707865 110.574953,84.5022472 110.475701,84.5022472 C110.314206,84.5022472 110.199813,84.6477528 110.11514,84.7696629 C109.971028,84.9921348 109.971028,85.1758427 109.971028,85.4662921 L109.971028,86.6370787 C109.971028,87.0123596 109.978318,87.2191011 110.359626,87.2269663 C110.46729,87.2342697 110.635514,87.2342697 110.635514,87.3488764 C110.635514,87.4258427 110.565981,87.4483146 110.46729,87.4483146 C110.254206,87.4483146 109.941308,87.4174157 109.603738,87.4174157 C109.260561,87.4174157 108.992523,87.4483146 108.778318,87.4483146 C108.717196,87.4483146 108.649346,87.4331461 108.649346,87.3567416 C108.649346,87.2342697 108.771028,87.2342697 108.86972,87.2264045 C109.221308,87.2191011 109.221308,87.0280899 109.221308,86.5455056 L109.221308,85.2522472 Z M113.37757,87.3033708 C114.109907,87.3033708 114.477757,86.4 114.477757,85.7955056 C114.477757,85 114.087477,84.1662921 113.32486,84.1662921 C112.621121,84.1662921 112.185421,84.8157303 112.185421,85.6353933 C112.185421,86.461236 112.636822,87.3033708 113.368598,87.3033708 L113.37757,87.3033708 Z M113.32486,87.5174157 C112.231402,87.5174157 111.391402,86.7297753 111.391402,85.7191011 C111.391402,84.8539326 112.086729,83.9511236 113.32486,83.9511236 C114.66,83.9511236 115.280187,84.9005618 115.280187,85.7033708 C115.280187,86.7073034 114.454766,87.5179775 113.331589,87.5179775 L113.32486,87.5174157 Z M95.1785047,94.2651685 C95.1785047,94.0808989 95.051215,93.8876404 95.051215,93.7123596 C95.051215,93.3247191 95.1201869,92.9359551 95.1201869,92.5483146 C95.1201869,92.2078652 95.042243,91.7910112 95.042243,91.452809 C95.042243,91.1707865 95.1201869,90.8882022 95.1302804,90.5977528 C95.1392523,90.4910112 95.1392523,90.3741573 95.1392523,90.2674157 C95.1392523,90.0831461 95.0719626,89.558427 95.0719626,89.3449438 C95.0719626,89.1022472 95.1302804,89.0730337 95.3719626,88.9179775 C95.5272897,88.8303371 95.9820561,88.6904494 96.1570093,88.6904494 C96.4463551,88.6904494 96.5629907,89.1022472 96.5629907,89.3348315 C96.5629907,89.7039326 96.475514,89.6853933 96.475514,90.0539326 C96.475514,90.1421348 96.5147664,90.2191011 96.5147664,90.3067416 C96.5147664,90.4617978 96.426729,90.5977528 96.426729,90.752809 C96.426729,90.8977528 96.4951402,91.0342697 96.4951402,91.1797753 C96.4543824,91.524681 96.4350928,91.8717941 96.4373832,92.2191011 C96.4373832,92.8191011 96.475514,93.4314607 96.4850467,93.8191011 C96.4850467,93.9550562 96.4463551,94.0808989 96.4463551,94.2162921 C96.4463551,94.7691011 98.7499065,94.3426966 98.7499065,94.7797753 C98.7499065,95.1578652 97.5986916,95.1775281 97.2891589,95.1775281 C96.7474766,95.1775281 96.0499065,95.294382 95.5071028,95.294382 C95.1493458,95.294382 95.0041121,95.1960674 95.0041121,94.847191 C95.0041121,94.6140449 95.1678505,94.4786517 95.1779439,94.2853933 L95.1785047,94.2651685 Z M100.618879,94.7926966 C101.351215,94.7926966 101.717944,93.8893258 101.717944,93.2848315 C101.717944,92.4893258 101.328224,91.655618 100.565047,91.655618 C99.8613084,91.655618 99.4261682,92.3061798 99.4261682,93.1247191 C99.4261682,93.9505618 99.8775701,94.7932584 100.610467,94.7932584 L100.618879,94.7926966 Z M100.565047,95.0078652 C99.473271,95.0078652 98.6321495,94.2185393 98.6321495,93.208427 C98.6321495,92.3432584 99.3269159,91.4410112 100.565047,91.4410112 C101.900748,91.4410112 102.519813,92.3898876 102.519813,93.1938202 C102.519813,94.1960674 101.694393,95.0078652 100.572336,95.0078652 L100.565047,95.0078652 Z M103.993458,93.8061798 C103.993458,94.1803371 104.039439,94.6089888 104.414019,94.6089888 C104.559813,94.6089888 104.680935,94.5483146 104.765047,94.4870787 C104.879439,94.4179775 104.934393,94.3646067 104.972523,94.3646067 C105.025234,94.3646067 105.046542,94.4106742 105.046542,94.4410112 C105.046542,94.5938202 104.597944,95.0073034 104.054579,95.0073034 C103.802243,95.0073034 103.580748,94.9230337 103.443364,94.7707865 C103.25271,94.5550562 103.24486,94.3494382 103.24486,93.8589888 L103.24486,91.961236 C103.24486,91.8241573 103.214019,91.808427 103.131028,91.808427 L102.924112,91.808427 C102.83215,91.808427 102.755888,91.7926966 102.755888,91.708427 C102.755888,91.6247191 102.809159,91.6016854 102.901121,91.5634831 C103.253271,91.3713483 103.543178,91.1955056 103.756822,90.7280899 C103.794393,90.6365169 103.825234,90.5910112 103.902617,90.5910112 C103.985607,90.5910112 103.993458,90.6516854 103.993458,90.705618 L103.993458,91.3404494 C103.993458,91.4404494 104.001308,91.5016854 104.115701,91.5101124 C104.328785,91.5101124 104.673084,91.494382 104.89514,91.494382 C104.979252,91.494382 104.979252,91.5477528 104.979252,91.6398876 C104.979252,91.808427 104.956822,91.8314607 104.85028,91.8314607 C104.673084,91.8314607 104.45215,91.8157303 104.268224,91.8157303 C104.03271,91.8157303 103.993458,91.8157303 103.993458,92.0140449 L103.993458,93.8061798 Z M105.986916,92.5196629 C105.986916,92.6117978 106.040187,92.6342697 106.223551,92.6342697 C106.400187,92.6342697 106.591402,92.6342697 106.774766,92.6275281 C106.98785,92.6275281 107.36243,92.6044944 107.545234,92.5353933 C107.683738,92.497191 107.781869,92.4123596 107.781869,92.2438202 C107.781869,92.0988764 107.659626,91.6314607 107.026542,91.6314607 C106.360935,91.6314607 105.987477,92.2370787 105.987477,92.5123596 L105.986916,92.5196629 Z M106.231963,92.8792135 C105.971776,92.8792135 105.934766,92.8792135 105.934766,93.094382 C105.934766,93.8820225 106.452897,94.5786517 107.309159,94.5786517 C107.697196,94.5786517 107.965234,94.4410112 108.14972,94.2955056 C108.278692,94.188764 108.347664,94.111236 108.394206,94.111236 C108.446916,94.111236 108.478318,94.1494382 108.478318,94.1955056 C108.478318,94.2876404 108.271402,94.4865169 108.18,94.5640449 C107.843551,94.8544944 107.454393,95.0073034 106.926168,95.0073034 C105.834953,95.0073034 105.123925,94.1730337 105.123925,93.247191 C105.123925,92.0224719 106.201121,91.4410112 107.094393,91.4410112 C108.042056,91.4410112 108.531589,92.0606742 108.531589,92.6808989 C108.531589,92.8258427 108.478318,92.8792135 108.377383,92.8792135 L106.231963,92.8792135 Z M109.286916,92.741573 C109.286916,92.2904494 109.257757,92.1983146 108.997009,92.1825843 C108.836075,92.1679775 108.782243,92.1679775 108.782243,92.091573 C108.782243,91.9848315 108.866355,91.9769663 109.026729,91.938764 C109.234206,91.8921348 109.584673,91.708427 109.752897,91.5477528 C109.845421,91.4634831 109.87514,91.4174157 109.943551,91.4174157 C110.036075,91.4174157 110.036075,91.4870787 110.036075,91.5707865 L110.036075,91.9303371 C110.036075,92.0370787 110.036075,92.0758427 110.073645,92.0758427 C110.112897,92.0758427 110.204299,91.9303371 110.334393,91.8073034 C110.478505,91.6623596 110.701682,91.4786517 110.998879,91.4786517 C111.273645,91.4786517 111.486729,91.655618 111.486729,91.9146067 C111.490351,92.019183 111.450553,92.1205869 111.376807,92.1946843 C111.30306,92.2687818 111.201961,92.308946 111.09757,92.305618 C110.953458,92.305618 110.868785,92.2292135 110.791963,92.144382 C110.715701,92.0606742 110.640561,91.991573 110.539626,91.991573 C110.379813,91.991573 110.265421,92.1376404 110.180748,92.2589888 C110.036075,92.4808989 110.036075,92.6651685 110.036075,92.9567416 L110.036075,94.1275281 C110.036075,94.502809 110.043364,94.708427 110.424673,94.7162921 C110.532336,94.7235955 110.701682,94.7235955 110.701682,94.8382022 C110.701682,94.9151685 110.631028,94.938764 110.532336,94.938764 C110.318131,94.938764 110.005234,94.9073034 109.669907,94.9073034 C109.325607,94.9073034 109.058131,94.938764 108.843364,94.938764 C108.781682,94.938764 108.714393,94.9230337 108.714393,94.8466292 C108.714393,94.7235955 108.836075,94.7235955 108.936449,94.7162921 C109.286916,94.708427 109.286916,94.5168539 109.286916,94.0353933 L109.286916,92.741573 Z M112.54486,90.8432584 C112.426857,90.8446222 112.313274,90.7983374 112.229722,90.7148406 C112.14617,90.6313438 112.099685,90.5176653 112.100748,90.3994382 C112.100748,90.1769663 112.254393,89.9477528 112.56729,89.9477528 C112.805047,89.9477528 113.002991,90.1393258 113.002991,90.3842697 C113.002991,90.6516854 112.811776,90.8432584 112.55215,90.8432584 L112.54486,90.8432584 Z M112.17757,92.7033708 C112.17757,92.2522472 112.146729,92.1679775 111.873084,92.1601124 C111.71271,92.152809 111.657757,92.152809 111.657757,92.0679775 C111.657757,91.961236 111.765421,91.9533708 111.879252,91.9303371 C112.146729,91.8769663 112.498318,91.6775281 112.697383,91.5168539 C112.765234,91.4550562 112.796075,91.4174157 112.857196,91.4174157 C112.926168,91.4174157 112.934019,91.4646067 112.934019,91.5477528 C112.934019,91.6623596 112.926168,91.7775281 112.926168,91.9073034 L112.926168,94.1275281 C112.926168,94.5252809 112.934019,94.7011236 113.262617,94.7241573 C113.35514,94.7308989 113.475701,94.7308989 113.475701,94.8382022 C113.475701,94.9151685 113.414019,94.938764 113.369159,94.938764 C113.132523,94.938764 112.843178,94.9073034 112.582991,94.9073034 C112.19271,94.9073034 111.964486,94.938764 111.73514,94.938764 C111.674579,94.938764 111.605047,94.9230337 111.605047,94.8466292 C111.605047,94.7241573 111.726168,94.7241573 111.825981,94.7162921 C112.17757,94.708427 112.17757,94.555618 112.17757,94.0966292 L112.17757,92.7033708 Z M114.524299,90.8432584 C114.280906,90.8402289 114.084332,90.6432874 114.081308,90.3994382 C114.081308,90.1769663 114.219252,89.9477528 114.531028,89.9477528 C114.776075,89.9477528 114.974019,90.1235955 114.974019,90.3842697 C114.974019,90.6595506 114.776075,90.8432584 114.531028,90.8432584 L114.524299,90.8432584 Z M114.905607,94.9005618 C114.905607,95.3129213 114.875327,95.6651685 114.576449,96.0022472 C114.339252,96.3235955 113.683178,96.7752809 113.553084,96.7752809 C113.507103,96.7752809 113.461682,96.744382 113.461682,96.6910112 C113.461682,96.6219101 113.500935,96.5910112 113.605794,96.5224719 C113.996075,96.2162921 114.157009,95.9792135 114.157009,95.3662921 L114.157009,92.641573 C114.157009,92.2522472 114.12729,92.1679775 113.85028,92.152809 C113.721308,92.144382 113.645047,92.144382 113.645047,92.0606742 C113.645047,91.961236 113.75271,91.9455056 113.881682,91.9151685 C114.118318,91.8696629 114.470467,91.6780899 114.61514,91.5398876 C114.713832,91.4646067 114.753645,91.4174157 114.820935,91.4174157 C114.905047,91.4174157 114.905047,91.4713483 114.905047,91.5634831 L114.905607,94.9005618 Z M10.2779439,82.6011236 C10.1142056,82.6011236 9.7917757,82.7073034 9.32971963,82.7073034 C8.80485981,82.7073034 8.4717757,82.6005618 8.27831776,82.6005618 C8.15663551,82.6005618 8.1482243,82.6668539 8.1482243,82.755618 L8.1482243,83.0629213 C8.1482243,83.1455056 8.18130841,83.1752809 8.23794393,83.1848315 C8.82785047,83.2814607 8.86037383,83.3634831 8.86037383,83.4926966 C8.86037383,83.6219101 8.83626168,83.7280899 8.58560748,84.2786517 L7.48598131,86.7174157 L6.28878505,83.9623596 C6.19121495,83.7280899 6.10205607,83.5101124 6.10205607,83.411236 C6.10205607,83.2567416 6.1671028,83.2258427 6.50635514,83.1848315 C6.59551402,83.1752809 6.62691589,83.1348315 6.62691589,83.0224719 L6.62691589,82.747191 C6.62691589,82.6741573 6.59551402,82.6011236 6.5153271,82.6011236 C6.27196262,82.6011236 5.81102804,82.7073034 5.19588785,82.7073034 C4.61439252,82.7073034 4.20056075,82.6005618 3.97401869,82.6005618 C3.89439252,82.6005618 3.84504673,82.6247191 3.84504673,82.6825843 L3.84504673,83.0629213 C3.84504673,83.1207865 3.87757009,83.1752809 3.95046729,83.1848315 C4.30598131,83.2252809 4.35420561,83.2988764 4.53364486,83.6949438 L6.61962617,88.3393258 C6.66897196,88.444382 6.72616822,88.5505618 6.82149533,88.5505618 L7.36429907,88.5505618 C7.47028037,88.5505618 7.51794393,88.411236 7.56728972,88.3146067 L9.71831776,83.6061798 C9.82485981,83.3792135 9.87925234,83.2657303 10.2128972,83.1848315 C10.3093458,83.161236 10.3979439,83.1348315 10.3979439,83.0382022 L10.3979439,82.755618 C10.3979439,82.6741573 10.373271,82.6005618 10.2779439,82.6005618 L10.2779439,82.6011236 Z M36.1020561,84.6735955 C35.7280374,84.6735955 35.4684112,84.6016854 35.3865421,84.6016854 C35.3472897,84.6016854 35.3388785,84.6185393 35.3388785,84.6455056 L35.3388785,84.9101124 C35.3388785,84.9494382 35.3478505,84.9882022 35.4140187,84.9983146 C35.7235514,85.0488764 35.8390654,85.0926966 35.8390654,85.3241573 L35.8390654,87.2578652 L33.4951402,84.6848315 C33.4525234,84.6230337 33.4239252,84.6016854 33.3583178,84.6016854 L32.828972,84.6016854 C32.768972,84.6016854 32.7583178,84.6455056 32.7583178,84.6848315 L32.7583178,87.8207865 C32.7583178,88.1196629 32.706729,88.1640449 32.348972,88.2247191 C32.3175701,88.2292135 32.3052336,88.2691011 32.3052336,88.3061798 L32.3052336,88.5061798 C32.3052336,88.5893258 32.333271,88.6207865 32.4257944,88.6207865 C32.5418692,88.6207865 32.7902804,88.5505618 33.0285981,88.5505618 C33.3190654,88.5505618 33.533271,88.6207865 33.6734579,88.6207865 C33.7648598,88.6207865 33.8001869,88.5775281 33.8001869,88.5061798 L33.8001869,88.3235955 C33.8001869,88.2808989 33.7878505,88.2342697 33.7104673,88.2247191 C33.3695327,88.1741573 33.2865421,88.1196629 33.2865421,87.8207865 L33.2865421,85.9932584 L35.5957009,88.5061798 C35.6736449,88.5932584 35.7123364,88.6207865 35.8502804,88.6207865 L36.2921495,88.6207865 C36.357757,88.6207865 36.3684112,88.5893258 36.3684112,88.5162921 L36.3684112,85.4185393 C36.3684112,85.1039326 36.4278505,85.044382 36.7261682,84.9983146 C36.8041121,84.9882022 36.8192523,84.9331461 36.8192523,84.8780899 L36.8192523,84.6848315 C36.8192523,84.6292135 36.7816822,84.6016854 36.7373832,84.6016854 C36.6813084,84.6016854 36.4065421,84.6735955 36.1020561,84.6735955 Z M28.7854206,84.6893258 L28.7854206,84.9005618 C28.7854206,84.9882022 28.8246729,85.011236 29.0069159,85.0331461 C29.2003738,85.0539326 29.2446729,85.1646067 29.2446729,85.3797753 L29.2446729,87.8095506 C29.2446729,88.0202247 29.2054206,88.1511236 29.0792523,88.1797753 L28.8745794,88.2247191 C28.8039252,88.241573 28.7848598,88.2561798 28.7848598,88.3235955 L28.7848598,88.5505618 C28.7848598,88.5994382 28.8100935,88.6207865 28.8353271,88.6207865 C29.0562617,88.6207865 29.4426168,88.5505618 30.1923364,88.5505618 C30.8708411,88.5505618 31.5930841,88.5898876 31.9183178,88.6207865 C31.9721495,88.2808989 32.104486,87.8207865 32.104486,87.7258427 C32.104486,87.6724719 32.0831776,87.65 32.0102804,87.65 L31.7130841,87.65 C31.6474766,87.65 31.6143925,87.6657303 31.5583178,87.8477528 C31.4770093,88.1140449 31.4035514,88.1578652 31.1848598,88.1578652 C30.3241121,88.1578652 30.2585047,88.1252809 30.2585047,87.644382 L30.2585047,86.7955056 L31.0300935,86.7955056 C31.14,86.7955056 31.2173832,86.8207865 31.2280374,86.9162921 C31.2560748,87.1421348 31.2947664,87.1589888 31.3441121,87.1589888 L31.6592523,87.1589888 C31.7304673,87.1589888 31.7573832,87.1196629 31.7573832,87.0522472 C31.7573832,86.9601124 31.7254206,86.8162921 31.7254206,86.5955056 C31.7254206,86.3747191 31.7573832,86.2191011 31.7573832,86.1039326 C31.7573832,86.0151685 31.7192523,85.9994382 31.6592523,85.9994382 L31.3491589,85.9994382 C31.2891589,85.9994382 31.2728972,86.044382 31.26,86.0926966 C31.2072897,86.3466292 31.1899065,86.3640449 31.0626168,86.3640449 L30.2585047,86.3640449 L30.2585047,85.1039326 L30.8988785,85.1039326 C31.0626168,85.1039326 31.1175701,85.1213483 31.2235514,85.4966292 C31.2386916,85.5567416 31.3003738,85.5780899 31.3491589,85.5780899 L31.6205607,85.5780899 C31.6973832,85.5780899 31.7192523,85.5353933 31.7192523,85.4679775 C31.7192523,85.3702247 31.6637383,85.0269663 31.6592523,84.6404494 L31.608785,84.6404494 C31.5151402,84.6404494 31.3934579,84.6460674 31.2235514,84.6573034 C31.0463551,84.6623596 30.8220561,84.6735955 30.5170093,84.6735955 L30.231028,84.6735955 C29.8553271,84.6735955 29.5581308,84.6578652 29.3265421,84.6359551 C29.1011215,84.6191011 28.9463551,84.6016854 28.862243,84.6016854 C28.7971963,84.6016854 28.7854206,84.6185393 28.7854206,84.6893258 Z M24.2657944,84.6893258 L24.2657944,84.9005618 C24.2657944,84.9882022 24.3050467,85.011236 24.4872897,85.0331461 C24.6807477,85.0539326 24.7228037,85.1646067 24.7228037,85.3797753 L24.7228037,87.7432584 C24.7228037,88.0983146 24.7171963,88.191573 24.431215,88.2247191 C24.2814953,88.241573 24.2657944,88.2640449 24.2657944,88.3235955 L24.2657944,88.5505618 C24.2657944,88.5994382 24.2876636,88.6207865 24.3162617,88.6207865 C24.4603738,88.6207865 24.7171963,88.5505618 25.1635514,88.5505618 C25.7523364,88.5505618 26.0338318,88.6207865 26.4813084,88.6207865 C27.7598131,88.6207865 28.7074766,87.8651685 28.7074766,86.5219101 C28.7074766,84.9820225 27.3302804,84.6404494 26.6573832,84.6404494 C26.3988785,84.6404494 26.1885981,84.6460674 25.9856075,84.6573034 C25.7871028,84.6623596 25.5953271,84.6735955 25.3783178,84.6735955 C25.1091589,84.6735955 24.8764486,84.6578652 24.7059813,84.6359551 C24.5299065,84.6191011 24.408785,84.6016854 24.3426168,84.6016854 C24.2775701,84.6016854 24.2657944,84.6016854 24.2657944,84.6893258 Z M25.7371963,87.644382 L25.7371963,85.2477528 C25.7371963,85.1320225 25.7484112,85.0713483 26.1728972,85.0713483 C27.1592523,85.0713483 27.5949533,85.6786517 27.5949533,86.6230337 C27.5949533,87.4129213 27.2416822,88.191573 26.4274766,88.191573 C25.8919626,88.191573 25.7371963,88.0359551 25.7371963,87.644382 Z M23.3461682,84.6735955 C22.9715888,84.6735955 22.7125234,84.6016854 22.628972,84.6016854 C22.5897196,84.6016854 22.5785047,84.6185393 22.5785047,84.6455056 L22.5785047,84.9101124 C22.5785047,84.9494382 22.5897196,84.9882022 22.6558879,84.9983146 C22.9642991,85.0488764 23.0798131,85.0926966 23.0798131,85.3241573 L23.0798131,87.2578652 L20.7392523,84.6848315 C20.6943925,84.6230337 20.6674766,84.6016854 20.6013084,84.6016854 L20.0719626,84.6016854 C20.0102804,84.6016854 19.9990654,84.6455056 19.9990654,84.6848315 L19.9990654,87.8207865 C19.9990654,88.1196629 19.9502804,88.1640449 19.5914019,88.2247191 C19.5583178,88.2292135 19.5471028,88.2691011 19.5471028,88.3061798 L19.5471028,88.5061798 C19.5471028,88.5893258 19.5751402,88.6207865 19.6699065,88.6207865 C19.7859813,88.6207865 20.033271,88.5505618 20.2699065,88.5505618 C20.5626168,88.5505618 20.7762617,88.6207865 20.9142056,88.6207865 C21.008972,88.6207865 21.0409346,88.5775281 21.0409346,88.5061798 L21.0409346,88.3235955 C21.0409346,88.2808989 21.0297196,88.2342697 20.9523364,88.2247191 C20.6114019,88.1741573 20.5284112,88.1196629 20.5284112,87.8207865 L20.5284112,85.9932584 L22.8375701,88.5061798 C22.915514,88.5932584 22.9542056,88.6207865 23.0921495,88.6207865 L23.5323364,88.6207865 C23.5990654,88.6207865 23.6091589,88.5893258 23.6091589,88.5162921 L23.6091589,85.4185393 C23.6091589,85.1039326 23.6708411,85.044382 23.9691589,84.9983146 C24.0465421,84.9882022 24.0616822,84.9331461 24.0616822,84.8780899 L24.0616822,84.6848315 C24.0616822,84.6292135 24.0224299,84.6016854 23.9792523,84.6016854 C23.9231776,84.6016854 23.6484112,84.6735955 23.3456075,84.6735955 L23.3461682,84.6735955 Z M16.1573832,84.6893258 L16.1573832,84.9005618 C16.1573832,84.9882022 16.1966355,85.011236 16.3788785,85.0331461 C16.5706542,85.0539326 16.615514,85.1646067 16.615514,85.3797753 L16.615514,87.8095506 C16.615514,88.0202247 16.5751402,88.1511236 16.448972,88.1797753 L16.2448598,88.2247191 C16.1753271,88.241573 16.1573832,88.2561798 16.1573832,88.3235955 L16.1573832,88.5505618 C16.1573832,88.5994382 16.1798131,88.6207865 16.206729,88.6207865 C16.4271028,88.6207865 16.8128972,88.5505618 17.5631776,88.5505618 C18.2411215,88.5505618 18.9633645,88.5898876 19.2880374,88.6207865 C19.3424299,88.2808989 19.4753271,87.8207865 19.4753271,87.7258427 C19.4753271,87.6724719 19.4523364,87.65 19.3811215,87.65 L19.0839252,87.65 C19.017757,87.65 18.9852336,87.6657303 18.9291589,87.8477528 C18.8461682,88.1140449 18.775514,88.1578652 18.5551402,88.1578652 C17.6943925,88.1578652 17.628785,88.1252809 17.628785,87.644382 L17.628785,86.7955056 L18.4003738,86.7955056 C18.5108411,86.7955056 18.5882243,86.8207865 18.6,86.9162921 C18.6269159,87.1421348 18.6656075,87.1589888 18.7160748,87.1589888 L19.0284112,87.1589888 C19.1001869,87.1589888 19.128785,87.1196629 19.128785,87.0522472 C19.128785,86.9601124 19.0940187,86.8162921 19.0940187,86.5955056 C19.0940187,86.3747191 19.128785,86.2191011 19.128785,86.1039326 C19.128785,86.0151685 19.0895327,85.9994382 19.0278505,85.9994382 L18.7205607,85.9994382 C18.66,85.9994382 18.6420561,86.044382 18.6308411,86.0926966 C18.5770093,86.3466292 18.5613084,86.3640449 18.4334579,86.3640449 L17.628785,86.3640449 L17.628785,85.1039326 L18.2685981,85.1039326 C18.4334579,85.1039326 18.4884112,85.1213483 18.5927103,85.4966292 C18.6095327,85.5567416 18.6700935,85.5780899 18.7205607,85.5780899 L18.9897196,85.5780899 C19.0671028,85.5780899 19.0895327,85.5353933 19.0895327,85.4679775 C19.0895327,85.3702247 19.0345794,85.0269663 19.0278505,84.6404494 L18.9785047,84.6404494 C18.8865421,84.6404494 18.7642991,84.6460674 18.5927103,84.6573034 C18.417757,84.6623596 18.191215,84.6735955 17.888972,84.6735955 L17.6018692,84.6735955 C17.2261682,84.6735955 16.928972,84.6578652 16.6973832,84.6359551 C16.4714019,84.6191011 16.3183178,84.6016854 16.2336449,84.6016854 C16.1680374,84.6016854 16.1573832,84.6185393 16.1573832,84.6893258 Z M14.8256075,84.6735955 C14.4229907,84.6735955 14.1145794,84.6016854 14.0102804,84.6016854 C13.9166355,84.6016854 13.8936449,84.6117978 13.8936449,84.7185393 L13.8936449,84.8719101 C13.8936449,84.9449438 13.9160748,84.9882022 13.9598131,84.9983146 C14.2637383,85.0758427 14.3181308,85.1039326 14.3181308,85.4016854 L14.3181308,87.8207865 C14.3181308,88.1196629 14.2637383,88.1466292 13.9598131,88.2247191 C13.9166355,88.2342697 13.8936449,88.2808989 13.8936449,88.3511236 L13.8936449,88.5061798 C13.8936449,88.6106742 13.9160748,88.6207865 14.0102804,88.6207865 C14.1370093,88.6207865 14.4616822,88.5505618 14.8256075,88.5505618 C15.1945794,88.5505618 15.4928972,88.6207865 15.6414953,88.6207865 C15.7368224,88.6207865 15.7575701,88.6106742 15.7575701,88.5061798 L15.7575701,88.3511236 C15.7575701,88.2808989 15.7362617,88.2342697 15.6914019,88.2247191 C15.3897196,88.1466292 15.3336449,88.1196629 15.3336449,87.8207865 L15.3336449,85.4016854 C15.3336449,85.1039326 15.3897196,85.0758427 15.6914019,84.9983146 C15.7362617,84.9882022 15.7575701,84.944382 15.7575701,84.8719101 L15.7575701,84.7185393 C15.7575701,84.6117978 15.7362617,84.6016854 15.6633645,84.6016854 C15.531028,84.6016854 15.1996262,84.6735955 14.8256075,84.6735955 Z M9.50411215,84.6893258 L9.50411215,84.9005618 C9.50411215,84.9882022 9.54224299,85.011236 9.72448598,85.0331461 C9.91682243,85.0539326 9.96056075,85.1646067 9.96056075,85.3797753 L9.96056075,87.8207865 C9.96056075,88.1196629 9.90616822,88.1466292 9.60392523,88.2247191 C9.55906542,88.2342697 9.53663551,88.2808989 9.53663551,88.3511236 L9.53663551,88.5061798 C9.53663551,88.6106742 9.55906542,88.6207865 9.65271028,88.6207865 C9.77831776,88.6207865 10.1041121,88.5505618 10.4685981,88.5505618 C10.8386916,88.5505618 11.1347664,88.6207865 11.2856075,88.6207865 C11.3775701,88.6207865 11.4,88.6106742 11.4,88.5061798 L11.4,88.3511236 C11.4,88.2808989 11.3775701,88.2342697 11.3343925,88.2247191 C11.0304673,88.1466292 10.975514,88.1196629 10.975514,87.8207865 L10.975514,86.9039326 L11.1796262,86.9039326 L11.9130841,87.9320225 C12.2764486,88.4382022 12.7104673,88.7370787 13.3171963,88.7370787 C13.4719626,88.7370787 13.7321495,88.7331461 13.7321495,88.5662921 C13.7321495,88.4067416 13.566729,88.4286517 13.3071028,88.091573 L12.1934579,86.6561798 C12.6016822,86.4893258 12.9157009,86.0926966 12.9157009,85.644382 C12.9157009,85.1646067 12.6342056,84.6404494 11.6035514,84.6404494 C11.3557009,84.6404494 11.1734579,84.6460674 11.0203738,84.6573034 C10.871215,84.6623596 10.7495327,84.6735955 10.6166355,84.6735955 C10.3463551,84.6735955 10.1153271,84.6578652 9.94485981,84.6359551 C9.76878505,84.6191011 9.64654206,84.6016854 9.58149533,84.6016854 C9.51420561,84.6016854 9.5046729,84.6185393 9.5046729,84.6893258 L9.50411215,84.6893258 Z M10.9760748,85.2196629 C10.9760748,85.1213483 11.0859813,85.0713483 11.2121495,85.0713483 C11.646729,85.0713483 11.8357009,85.3589888 11.8357009,85.7724719 C11.8357009,86.2966292 11.6153271,86.4735955 11.1078505,86.4735955 L10.9760748,86.4735955 L10.9760748,85.2196629 Z M21.1861682,89.0073034 C20.9899065,89.0073034 21.0740187,89.1325843 20.8390654,89.1325843 L18.0336449,89.1325843 C17.9091589,89.1325843 17.8968224,89.0073034 17.7633645,89.0073034 L17.5334579,89.0073034 C17.4773832,89.0073034 17.4381308,89.0185393 17.4314019,89.0533708 C17.4213084,89.1095506 17.2418692,89.8651685 17.2418692,89.9455056 C17.2418692,90.0016854 17.286729,90.0247191 17.3315888,90.0247191 L17.5839252,90.0247191 C17.6736449,90.0247191 17.7465421,89.9966292 17.7796262,89.9050562 C17.8699065,89.6651685 17.9209346,89.6382022 18.0785047,89.6432584 L18.8579439,89.6432584 L18.8579439,92.3820225 C18.8579439,92.6719101 18.835514,92.7910112 18.4542056,92.8202247 C18.3807477,92.8241573 18.3583178,92.858427 18.3583178,92.9269663 L18.3583178,93.1146067 C18.3583178,93.1775281 18.3751402,93.2286517 18.4211215,93.2286517 C18.5388785,93.2286517 18.8742056,93.1544944 19.3743925,93.1544944 C19.8745794,93.1544944 20.2115888,93.2286517 20.3293458,93.2286517 C20.3742056,93.2286517 20.3904673,93.1775281 20.3904673,93.1146067 L20.3904673,92.9264045 C20.3904673,92.858427 20.3697196,92.8241573 20.2951402,92.8202247 C19.9138318,92.7910112 19.8914019,92.6719101 19.8914019,92.3820225 L19.8914019,89.6432584 L20.586729,89.6432584 C20.8211215,89.6432584 20.8609346,89.8073034 20.884486,89.9280899 C20.8957009,89.9859551 20.9461682,90.0247191 21.002243,90.0247191 L21.244486,90.0247191 C21.2938318,90.0247191 21.3330841,89.9853933 21.355514,89.8983146 C21.3773832,89.802809 21.5069159,89.1264045 21.5069159,89.0747191 C21.5069159,89.0297753 21.473271,89.0073034 21.4272897,89.0073034 L21.1861682,89.0073034 Z M12.7525234,91.161236 C12.7525234,92.5230337 13.7338318,93.2623596 15.0538318,93.2623596 C16.3727103,93.2623596 17.3551402,92.4089888 17.3551402,91.161236 C17.3551402,89.7960674 16.3727103,89.0578652 15.0538318,89.0578652 C13.7343925,89.0578652 12.7525234,89.9095506 12.7525234,91.161236 Z M13.9194393,91.161236 C13.9194393,90.4337079 14.2233645,89.5707865 15.0538318,89.5707865 C15.895514,89.5707865 16.1871028,90.3129213 16.1871028,91.1606742 C16.1871028,91.8876404 15.8837383,92.7511236 15.0538318,92.7511236 C14.2121495,92.7511236 13.9194393,92.0050562 13.9194393,91.161236 Z M11.0074766,89.1780899 C10.3654206,89.1780899 9.90280374,89.0702247 9.63925234,89.0702247 C9.54224299,89.0702247 9.52485981,89.0949438 9.52485981,89.2039326 L9.52485981,89.5213483 C9.52485981,89.6539326 9.58149533,89.6882022 9.85401869,89.7213483 C10.142243,89.7544944 10.208972,89.9207865 10.208972,90.247191 L10.208972,93.9146067 C10.208972,94.2308989 10.1500935,94.4314607 9.96056075,94.4735955 L9.65663551,94.5393258 C9.54897196,94.5657303 9.52485981,94.5898876 9.52485981,94.6910112 L9.52485981,95.0308989 C9.52485981,95.1073034 9.55626168,95.1398876 9.59775701,95.1398876 C9.92915888,95.1398876 10.504486,95.0308989 11.6259813,95.0308989 C12.6375701,95.0308989 13.386729,95.0966292 14.1291589,95.1398876 C14.2121495,94.6224719 14.4414953,93.897191 14.4414953,93.8050562 C14.4414953,93.6735955 14.3433645,93.6067416 14.2603738,93.6067416 L13.8734579,93.6067416 C13.7242991,93.6067416 13.6760748,93.6634831 13.5942056,93.897191 C13.4697196,94.255618 13.328972,94.3904494 13.1063551,94.3904494 L12.4071028,94.3904494 C11.8872897,94.3904494 11.7246729,94.2404494 11.7246729,93.6634831 L11.7246729,90.297191 C11.7246729,89.8882022 11.8648598,89.7460674 12.0611215,89.7213483 C12.4071028,89.6786517 12.4323364,89.6634831 12.4323364,89.5460674 L12.4323364,89.2455056 C12.4323364,89.0876404 12.3981308,89.0702247 12.2764486,89.0702247 C12.0947664,89.0702247 11.7246729,89.1780899 11.0074766,89.1780899 Z M30.7082243,89.1668539 C30.297757,89.1668539 29.9837383,89.0938202 29.8783178,89.0938202 C29.7818692,89.0938202 29.7605607,89.1050562 29.7605607,89.2129213 L29.7605607,89.3707865 C29.7605607,89.4455056 29.7818692,89.4898876 29.8278505,89.5011236 C30.1362617,89.5803371 30.191215,89.6106742 30.191215,89.9168539 L30.191215,92.4044944 C30.191215,92.7106742 30.1362617,92.7393258 29.8278505,92.8202247 C29.7818692,92.8314607 29.7605607,92.8758427 29.7605607,92.9494382 L29.7605607,93.108427 C29.7605607,93.2162921 29.7818692,93.2286517 29.8783178,93.2286517 C30.0072897,93.2286517 30.3370093,93.1544944 30.7082243,93.1544944 C31.0839252,93.1544944 31.386729,93.2286517 31.5392523,93.2286517 C31.6340187,93.2286517 31.6564486,93.2162921 31.6564486,93.108427 L31.6564486,92.9488764 C31.6564486,92.8758427 31.6340187,92.8314607 31.5885981,92.8202247 C31.2801869,92.7393258 31.2252336,92.7106742 31.2252336,92.4044944 L31.2252336,89.9168539 C31.2252336,89.6106742 31.2801869,89.5803371 31.5885981,89.5011236 C31.6334579,89.4898876 31.6558879,89.4455056 31.6558879,89.3707865 L31.6558879,89.2129213 C31.6558879,89.1050562 31.6334579,89.0938202 31.5616822,89.0938202 C31.4259813,89.0938202 31.0895327,89.1668539 30.7082243,89.1668539 Z M25.2297196,89.1842697 L25.2297196,89.4 C25.2297196,89.4898876 25.2700935,89.5129213 25.4528972,89.5365169 C25.6491589,89.5595506 25.6951402,89.6724719 25.6951402,89.8938202 L25.6951402,92.4044944 C25.6951402,92.7106742 25.6385047,92.7393258 25.3306542,92.8202247 C25.2869159,92.8314607 25.262243,92.8758427 25.262243,92.9494382 L25.262243,93.108427 C25.262243,93.2162921 25.2869159,93.2286517 25.38,93.2286517 C25.508972,93.2286517 25.8398131,93.1544944 26.2121495,93.1544944 C26.5872897,93.1544944 26.8900935,93.2286517 27.0420561,93.2286517 C27.1385047,93.2286517 27.1592523,93.2162921 27.1592523,93.108427 L27.1592523,92.9488764 C27.1592523,92.8758427 27.1385047,92.8314607 27.0936449,92.8202247 C26.7841121,92.7393258 26.7280374,92.7106742 26.7280374,92.4044944 L26.7280374,91.461236 L26.935514,91.461236 L27.6824299,92.5185393 C28.0525234,93.0398876 28.495514,93.3477528 29.1134579,93.3477528 C29.2715888,93.3477528 29.5340187,93.341573 29.5340187,93.1702247 C29.5340187,93.0067416 29.3657944,93.0286517 29.102243,92.6814607 L27.9684112,91.2050562 C28.382243,91.0359551 28.7041121,90.6264045 28.7041121,90.1668539 C28.7041121,89.6724719 28.4175701,89.1325843 27.3672897,89.1325843 C27.1149533,89.1325843 26.9299065,89.1382022 26.7728972,89.1494382 C26.6214953,89.1550562 26.4981308,89.1668539 26.3624299,89.1668539 C26.0871028,89.1668539 25.853271,89.15 25.6783178,89.1264045 C25.4988785,89.1095506 25.375514,89.0938202 25.3082243,89.0938202 C25.2409346,89.0938202 25.2297196,89.1095506 25.2297196,89.1842697 Z M26.7280374,89.7303371 C26.7280374,89.6264045 26.8390654,89.5752809 26.9685981,89.5752809 C27.413271,89.5752809 27.6039252,89.8730337 27.6039252,90.297191 C27.6039252,90.8376404 27.3790654,91.0185393 26.8631776,91.0185393 L26.7280374,91.0185393 L26.7280374,89.7303371 Z M21.664486,89.1842697 L21.664486,89.4 C21.664486,89.4898876 21.7037383,89.5129213 21.8899065,89.5365169 C22.0850467,89.5595506 22.131028,89.6724719 22.131028,89.8938202 L22.131028,92.391573 C22.131028,92.6089888 22.0906542,92.7455056 21.9639252,92.7735955 L21.7542056,92.8202247 C21.6824299,92.8359551 21.664486,92.8533708 21.664486,92.9219101 L21.664486,93.1544944 C21.664486,93.2067416 21.6869159,93.2286517 21.7149533,93.2286517 C21.9403738,93.2286517 22.3328972,93.1544944 23.0966355,93.1544944 C23.7863551,93.1544944 24.5231776,93.1932584 24.8540187,93.2286517 C24.9095327,92.8758427 25.0435514,92.4044944 25.0435514,92.308427 C25.0435514,92.2511236 25.0211215,92.2286517 24.9482243,92.2286517 L24.6465421,92.2286517 C24.5775701,92.2286517 24.5439252,92.2449438 24.4884112,92.4320225 C24.4054206,92.7050562 24.3325234,92.7511236 24.1065421,92.7511236 C23.231215,92.7511236 23.1628037,92.7162921 23.1628037,92.2241573 L23.1628037,91.3477528 L23.948972,91.3477528 C24.0611215,91.3477528 24.1396262,91.3758427 24.1508411,91.4724719 C24.1805607,91.7061798 24.2181308,91.7219101 24.2685981,91.7219101 L24.5882243,91.7219101 C24.6628037,91.7219101 24.6902804,91.6825843 24.6902804,91.6151685 C24.6902804,91.5185393 24.6560748,91.3707865 24.6560748,91.1438202 C24.6560748,90.9168539 24.6902804,90.7573034 24.6902804,90.6376404 C24.6902804,90.5460674 24.6521495,90.5303371 24.588785,90.5303371 L24.2764486,90.5303371 C24.2147664,90.5303371 24.1957009,90.5747191 24.1856075,90.6258427 C24.1284112,90.8876404 24.1127103,90.9050562 23.9826168,90.9050562 L23.1628037,90.9050562 L23.1628037,89.6106742 L23.815514,89.6106742 C23.9826168,89.6106742 24.0392523,89.6264045 24.1452336,90.0134831 C24.1642991,90.0764045 24.2237383,90.0977528 24.2764486,90.0977528 L24.551215,90.0977528 C24.6285981,90.0977528 24.6521495,90.0516854 24.6521495,89.9853933 C24.6521495,89.8825843 24.595514,89.5303371 24.588785,89.1325843 L24.5383178,89.1325843 C24.4435514,89.1325843 24.3190654,89.1382022 24.1457944,89.1494382 C23.9663551,89.1550562 23.7370093,89.1668539 23.4291589,89.1668539 L23.1347664,89.1668539 C22.7545794,89.1668539 22.4506542,89.15 22.2140187,89.1264045 C21.9841121,89.1095506 21.8282243,89.0938202 21.7441121,89.0938202 C21.6768224,89.0938202 21.664486,89.1095506 21.664486,89.1842697 Z M33.0656075,89.1724719 C32.6321495,89.1724719 32.2457944,89.0994382 32.1504673,89.0994382 C32.095514,89.0994382 32.0663551,89.1511236 32.0663551,89.208427 L32.0663551,89.4016854 C32.0663551,89.4696629 32.0831776,89.497191 32.2065421,89.508427 C32.4588785,89.5320225 32.5485981,89.6398876 32.5485981,89.8949438 L32.5485981,92.6623596 C32.5485981,93.5983146 32.4757009,93.7797753 32.0439252,93.7797753 C31.9480374,93.7797753 31.8583178,93.7640449 31.7635514,93.7460674 L31.7635514,94.3949438 L31.8925234,94.3949438 C32.2682243,94.3949438 33.5814953,93.9848315 33.5814953,92.1601124 L33.5814953,89.9219101 C33.5814953,89.6162921 33.6375701,89.5882022 33.9459813,89.508427 C33.9919626,89.497191 34.013271,89.4522472 34.013271,89.3780899 L34.013271,89.2185393 C34.013271,89.1106742 33.9919626,89.0994382 33.895514,89.0994382 C33.7171963,89.0994382 33.4525234,89.1724719 33.0656075,89.1724719 Z" id="Shape"></path>
            <path d="M80.6013084,78.6286517 L119.060748,78.6286517 L119.060748,99.1123596 L80.6018692,99.1123596 L80.6013084,78.6286517 Z M1.12429907,78.6286517 L39.5848598,78.6286517 L39.5848598,99.1123596 L1.12429907,99.1123596 L1.12429907,78.6286517 Z M79.853271,99.1123596 L40.3334579,99.1123596 L40.3334579,78.6286517 L79.853271,78.6286517 L79.853271,99.1123596 Z M119.060748,77.8792135 L1.12429907,77.8792135 L1.12429907,1.12640449 L119.060748,1.12640449 L119.060748,77.8792135 Z M119.434766,0.37752809 L0.750841121,0.37752809 C0.544276302,0.37752809 0.37682243,0.545295546 0.37682243,0.752247191 L0.37682243,99.4870787 C0.37682243,99.6938202 0.544485981,99.861236 0.750841121,99.861236 L119.434766,99.861236 C119.642243,99.861236 119.808785,99.6938202 119.808785,99.4870787 L119.808785,0.752247191 C119.808934,0.65281978 119.769577,0.55742168 119.699402,0.487115804 C119.629228,0.416809929 119.534008,0.377378687 119.434766,0.37752809 Z" id="Shape"></path>
            <path d="M16.8224299,71.1157303 L7.24485981,71.1157303 C6.06280374,71.1157303 4.99906542,70.05 4.99906542,68.8657303 L4.99906542,32.4432584 C4.99906542,31.2578652 6.06280374,30.1921348 7.24429907,30.1921348 L16.8224299,30.1921348 C23.0299065,30.1921348 27.9947664,35.2264045 27.9947664,41.3853933 L27.9947664,59.8629213 C27.9947664,66.0820225 23.0293458,71.1157303 16.8224299,71.1157303 Z M23.5603738,41.444382 C23.5603738,37.7134831 20.6052336,34.6926966 16.8801869,34.6926966 L9.49121495,34.6926966 L9.49121495,66.6146067 L16.8218692,66.6146067 C20.5446729,66.6146067 23.5603738,63.594382 23.5603738,59.8634831 L23.5603738,41.444382 Z M46.377757,71.4707865 L45.786729,71.4707865 C39.5792523,71.4707865 34.5549533,66.4370787 34.5549533,60.2191011 L34.5549533,41.0297753 C34.5549533,34.8123596 39.5792523,29.8365169 45.786729,29.8365169 L46.377757,29.8365169 C52.5841121,29.8365169 57.5495327,34.8707865 57.5495327,41.0297753 L57.5495327,60.2191011 C57.5495327,66.4370787 52.5841121,71.4707865 46.377757,71.4707865 Z M53.0573832,41.088764 C53.0573832,37.3578652 50.1011215,34.3376404 46.377757,34.3376404 L45.786729,34.3376404 C42.062243,34.3376404 39.0476636,37.3578652 39.0476636,41.0297753 L39.0476636,60.2191011 C39.0476636,63.9494382 42.062243,66.9707865 45.786729,66.9707865 L46.377757,66.9707865 C50.1011215,66.9707865 53.0573832,63.9494382 53.0573832,60.2191011 L53.0573832,41.088764 Z M84.5652336,71.1157303 L66.0628037,71.1157303 C64.8796262,71.1157303 63.8158879,70.05 63.8158879,68.8657303 L63.8158879,32.4432584 C63.8158879,31.2578652 64.8796262,30.1921348 66.0628037,30.1921348 L84.5652336,30.1921348 C86.102243,30.1921348 86.811028,31.3174157 86.811028,32.4432584 C86.811028,33.5679775 86.102243,34.6926966 84.5652336,34.6926966 L68.3091589,34.6926966 L68.3091589,47.7230337 L79.5981308,47.7230337 C81.0762617,47.7230337 81.8456075,48.8477528 81.8456075,49.9735955 C81.8456075,51.0983146 81.0762617,52.2235955 79.5981308,52.2235955 L68.3085981,52.2235955 L68.3085981,66.6146067 L84.5646729,66.6146067 C86.102243,66.6146067 86.811028,67.7398876 86.811028,68.8657303 C86.811028,69.9904494 86.102243,71.1157303 84.5652336,71.1157303 Z M112.642991,71.4707865 C111.755888,71.4707865 110.456075,71.4707865 109.570093,69.4573034 L96.6829907,40.2595506 L96.6829907,69.2202247 C96.6829907,70.7016854 95.5598131,71.4707865 94.4360748,71.4707865 C93.3134579,71.4707865 92.1908411,70.7011236 92.1908411,69.2207865 L92.1908411,32.1460674 C92.1908411,30.5466292 93.4906542,29.8359551 94.851028,29.8359551 C96.1514019,29.8359551 97.1562617,30.1325843 97.8650467,31.7320225 L110.69271,61.0466292 L110.69271,32.0882022 C110.69271,30.6078652 111.874766,29.8370787 112.998505,29.8370787 C114.121682,29.8370787 115.185981,30.6078652 115.185981,32.0882022 L115.185981,68.805618 C115.185981,70.761236 113.944486,71.4713483 112.643551,71.4713483 L112.642991,71.4707865 Z M10.3205607,24.0786517 L10.1052336,24.0786517 C7.62448598,24.0786517 5.33775701,22.4870787 5.33775701,19.6168539 C5.33775701,19.0140449 5.79420561,18.7235955 6.2528972,18.7235955 C6.70934579,18.7235955 7.16691589,19.0140449 7.16691589,19.6410112 C7.16691589,21.3533708 8.56317757,22.2460674 10.128785,22.2460674 L10.3693458,22.2460674 C12.246729,22.2460674 13.0900935,21.2803371 13.0900935,19.5679775 C13.0900935,17.5904494 11.7173832,17.0353933 10.2246729,16.2151685 C7.91439252,14.9606742 5.57831776,14.3095506 5.57831776,11.2466292 C5.57831776,8.90730337 7.57682243,7.12191011 10.1052336,7.12191011 L10.3452336,7.12191011 C12.6566355,7.12191011 14.7274766,8.76292135 14.7274766,10.9814607 C14.7274766,11.5848315 14.3181308,11.8735955 13.86,11.8735955 C13.4265421,11.8735955 12.9695327,11.5848315 12.8966355,11.0050562 C12.7766355,9.82359551 11.7661682,8.95561798 10.2970093,8.95561798 L10.08,8.95561798 C8.10616822,8.95561798 7.43158879,10.402809 7.43158879,11.2466292 C7.43158879,12.9831461 8.92485981,13.5623596 10.2252336,14.2370787 C12.6319626,15.5162921 14.9198131,16.3117978 14.9198131,19.5921348 C14.9198131,22.3421348 13.2095327,24.0780899 10.3205607,24.0780899 L10.3205607,24.0786517 Z M26.4504673,9.1 L23.8020561,9.1 L23.8020561,23.1617978 C23.8020561,23.7651685 23.3450467,24.0780899 22.8880374,24.0780899 C22.431028,24.0780899 21.9734579,23.7651685 21.9734579,23.1623596 L21.9734579,9.1 L19.3250467,9.1 C18.722243,9.1 18.4093458,8.64157303 18.4093458,8.18314607 C18.4093458,7.7252809 18.722243,7.26741573 19.3250467,7.26741573 L26.4504673,7.26741573 C27.0527103,7.26741573 27.3661682,7.7252809 27.3661682,8.18314607 C27.3661682,8.64157303 27.0527103,9.1 26.4504673,9.1 Z M32.9742056,24.0786517 C32.5166355,24.0786517 32.0590654,23.7651685 32.0590654,23.1623596 L32.0590654,8.03876404 C32.0590654,7.43539326 32.5166355,7.12191011 32.9742056,7.12191011 C33.4317757,7.12191011 33.8893458,7.43539326 33.8893458,8.03876404 L33.8893458,23.1623596 C33.8893458,23.7651685 33.4317757,24.0780899 32.9742056,24.0780899 L32.9742056,24.0786517 Z M44.8429907,24.0786517 L44.6018692,24.0786517 C43.3885815,24.0790992 42.224875,23.5963412 41.3670562,22.7367052 C40.5092373,21.8770693 40.0276671,20.7110652 40.0284112,19.4955056 L40.0284112,11.6808989 C40.0284112,9.14775281 42.0740187,7.12191011 44.6018692,7.12191011 L44.8429907,7.12191011 C47.1213554,7.1118588 49.0556037,8.79230708 49.3682243,11.0533708 L49.3682243,11.1994382 C49.3682243,11.7780899 48.9353271,12.0910112 48.477757,12.0910112 C48.0684112,12.0910112 47.6837383,11.8258427 47.5637383,11.2955056 C47.2985047,9.99269663 46.2151402,8.95561798 44.8424299,8.95561798 L44.6013084,8.95561798 C43.0850467,8.95561798 41.8570093,10.1859551 41.8570093,11.6814607 L41.8570093,19.4960674 C41.8567117,20.2255041 42.1458059,20.9251507 42.6606315,21.4409404 C43.1754571,21.9567301 43.8737959,22.2463656 44.6018692,22.2460674 L44.8429907,22.2460674 C46.2151402,22.2460674 47.2990654,21.2078652 47.5631776,19.9061798 C47.6837383,19.35 48.0936449,19.1095506 48.4771963,19.1095506 C48.9353271,19.1095506 49.3682243,19.4241573 49.3682243,20.002809 L49.3682243,20.1713483 C49.031215,22.3657303 47.1297196,24.0780899 44.8429907,24.0780899 L44.8429907,24.0786517 Z M62.8738318,24.0786517 C62.4162617,24.0786517 61.9586916,23.7893258 61.9586916,23.1623596 L61.9586916,16.2393258 L56.2542056,16.2393258 L56.2542056,23.1629213 C56.2542056,23.7657303 55.7966355,24.0786517 55.3401869,24.0786517 C54.8820561,24.0786517 54.424486,23.7657303 54.424486,23.1629213 L54.424486,8.03932584 C54.424486,7.43595506 54.8820561,7.12247191 55.3396262,7.12247191 C55.7966355,7.12247191 56.2536449,7.43595506 56.2536449,8.03932584 L56.2536449,14.4067416 L61.9592523,14.4067416 L61.9592523,8.03932584 C61.9592523,7.43595506 62.4168224,7.12247191 62.8743925,7.12247191 C63.3319626,7.12247191 63.7906542,7.43595506 63.7906542,8.03932584 L63.7906542,23.1629213 C63.7906542,23.7898876 63.3319626,24.0786517 62.8743925,24.0786517 L62.8738318,24.0786517 Z M76.2824299,9.1 L73.6340187,9.1 L73.6340187,23.1617978 C73.6340187,23.7651685 73.1775701,24.0780899 72.72,24.0780899 C72.2613084,24.0780899 71.8048598,23.7651685 71.8048598,23.1623596 L71.8048598,9.1 L69.1570093,9.1 C68.5547664,9.1 68.2413084,8.64157303 68.2413084,8.18314607 C68.2413084,7.7252809 68.5547664,7.26741573 69.1570093,7.26741573 L76.2824299,7.26741573 C76.8852336,7.26741573 77.1981308,7.7252809 77.1981308,8.18314607 C77.1981308,8.64157303 76.8852336,9.1 76.2824299,9.1 Z M82.7831776,24.0786517 C82.3250467,24.0786517 81.8674766,23.7651685 81.8674766,23.1623596 L81.8674766,8.03876404 C81.8674766,7.43539326 82.3250467,7.12191011 82.7826168,7.12191011 C83.2396262,7.12191011 83.697757,7.43539326 83.697757,8.03876404 L83.697757,23.1623596 C83.697757,23.7651685 83.2396262,24.0780899 82.7826168,24.0780899 L82.7831776,24.0786517 Z M98.526729,24.0786517 C98.1661682,24.0786517 97.6351402,24.0786517 97.2745794,23.258427 L92.0265421,11.3674157 L92.0265421,23.1629213 C92.0265421,23.7657303 91.568972,24.0786517 91.1114019,24.0786517 C90.6543925,24.0786517 90.1962617,23.7657303 90.1962617,23.1629213 L90.1962617,8.06179775 C90.1962617,7.41123596 90.7256075,7.12134831 91.2801869,7.12134831 C91.8095327,7.12134831 92.2188785,7.24157303 92.5082243,7.89438202 L97.7327103,19.8325843 L97.7327103,8.03820225 C97.7327103,7.43483146 98.213271,7.12134831 98.6702804,7.12134831 C99.1278505,7.12134831 99.5618692,7.43483146 99.5618692,8.03820225 L99.5618692,22.9921348 C99.5618692,23.788764 99.0560748,24.0775281 98.526729,24.0775281 L98.526729,24.0786517 Z M110.274953,24.0786517 L110.033832,24.0786517 C108.820441,24.079099 107.656619,23.5963768 106.798623,22.7367732 C105.940626,21.8771696 105.458806,20.7111686 105.459252,19.4955056 L105.459252,11.7050562 C105.454761,10.4881564 105.935282,9.31979889 106.794157,8.45931489 C107.653033,7.5988309 108.819207,7.11741025 110.033832,7.12191011 L110.274953,7.12191011 C112.609907,7.12191011 114.536636,8.78595506 114.848411,11.0533708 L114.848411,11.1994382 C114.848411,11.7780899 114.391402,12.0910112 113.933271,12.0910112 C113.523925,12.0910112 113.115701,11.8494382 113.018692,11.3185393 C112.753458,9.99269663 111.838318,8.95561798 110.274953,8.95561798 L110.033832,8.95561798 C108.515327,8.95561798 107.288411,10.1859551 107.288411,11.6814607 L107.288411,19.4960674 C107.288113,20.2256015 107.577285,20.9253333 108.092231,21.4411392 C108.607178,21.9569451 109.305661,22.2465148 110.033832,22.2460674 L110.274953,22.2460674 C111.790678,22.245447 113.019001,21.0140694 113.018692,19.4955056 L113.018692,16.6741573 L110.490841,16.6741573 C109.888037,16.6741573 109.576822,16.2157303 109.576822,15.758427 C109.576822,15.2988764 109.888037,14.8404494 110.490841,14.8404494 L113.933271,14.8404494 C114.415514,14.8404494 114.848411,15.2752809 114.848411,15.758427 L114.848411,19.4960674 C114.849007,20.7115297 114.367371,21.8773894 113.509568,22.7369038 C112.651765,23.5964182 111.488144,24.0790991 110.274953,24.0786517 Z" id="Shape"></path>
        </g>
    </g>
</svg>