<svg height="150" viewBox="0 0 214 178" width="214" xmlns="http://www.w3.org/2000/svg"><g fill="#293a7d" transform="matrix(1 0 0 -1 0 178.42533)"><path d="m83.6999977 8.53733287h-5.2119999v5.21599983h5.2119999z"/><path d="m135.842663 8.5106662h-5.216v5.2133332h5.216z"/><path d="m85.4274643 13.7214661h2.2306666v-4.03866659h3.1933332v-1.16533331h-5.4239998z"/><g transform="translate(.666666 .666666)"><path d="m93.0550643 10.4454664c0-.9733333.6773334-1.57599996 1.7506667-1.57599996s1.7013333.65599999 1.7013333 1.59066666c0 .8959999-.6426667 1.5746666-1.7133333 1.5746666-1.0613333 0-1.7386667-.632-1.7386667-1.5893333m5.8053332.06c0-1.67333329-1.6039999-2.74133326-4.1666665-2.74133326-2.5746666 0-3.9933333 1.21199997-3.9933333 2.65866656 0 1.512 1.592 2.7173333 4.1306666 2.7173333 2.6719999 0 4.0293332-1.2413333 4.0293332-2.6346666"/><path d="m101.301197 11.888133h-2.1213328v1.1666667h6.5093328v-1.1666667h-2.156v-4.0373332h-2.232z"/><path d="m111.680131 9.94866642h-2.981334v-.95466664h3.336v-1.14399998h-5.569333v5.2053332h5.4v-1.1373333h-3.166667v-.8386666h2.981334z"/><path d="m115.474397 10.8002664h.58c.837333 0 1.32.2626667 1.32.6493333 0 .3946667-.408.608-1.148.6146667-.418667 0-.641333-.0133334-.752-.0293334zm-2.205333 2.1866666c.626666.06 1.576.1066667 2.686666.1066667 1.268 0 2.181334-.1066667 2.810667-.4013334.529333-.2546666.826667-.6279999.826667-1.1373333 0-.6466666-.778667-1.1093333-1.429334-1.2573333v-.0293333c.550667-.148.848-.47999998 1.058667-.9293333.257333-.53199999.529333-1.28799997.689333-1.48799996h-2.28c-.124.15199999-.333333.55599998-.577333 1.19599997-.224.62399998-.533333.75733331-1.221333.75733331h-.358667v-1.95333328h-2.205333z"/><path d="m123.10133 7.85066647h-2.229333v5.20399983h2.229333z"/><path d="m126.223064 13.0547997h2.230666v-3.21199995c0-1.51333329-1.158667-2.07866661-3.156-2.07866661-.456 0-1.062666.04-1.48.12533333l.249334 1.11866664c.269333-.04533333.616-.08533333.970666-.08533333.714667 0 1.185334.20133333 1.185334.91999997z"/><path d="m135.16533 26.094666h-5.214667v5.2133332h5.214667z"/><path d="m83.0333313 26.094666h-5.2119999v5.2133332h5.2119999z"/><path d="m84.1957312 26.0737327v5.2106665h1.8506666l.8666667-1.5093333c.336-.58.6626666-1.2893333.9266666-1.9693333h.024c-.0933333.772-.1013333 1.4066667-.1013333 2.1173333v1.3613333h1.3653333v-5.2106665h-1.6146666l-.9546667 1.7226666c-.3333333.604-.7079999 1.308-1.0133333 2.0173333h-.032c.0413334-.788.048-1.5453333.048-2.3333333v-1.4066666z"/><path d="m92.9599977 28.4075993-.2813334.92c-.0919999.2933333-.2013333.672-.2959999.9746666h-.0146667c-.088-.3026666-.1653333-.6813333-.252-.98l-.2466667-.9146666zm-1.3053333-1.0653333-.3333333-1.268h-1.5533333l1.6639999 5.2093332h2.012l1.7693333-5.2093332h-1.6373333l-.3893334 1.268z"/><path d="m96.3298643 30.0931992h-1.48v1.1906667h4.4706666v-1.1906667h-1.516v-4.0199999h-1.4746666z"/><path d="m101.489331 26.0733327h-1.473334v5.2106665h1.473334z"/><path d="m105.150131 27.1087993c.805333 0 1.28.6666667 1.28 1.5613333 0 .8986667-.501334 1.5773333-1.288 1.5773333-.788 0-1.286667-.6786666-1.286667-1.5773333 0-.8946666.498667-1.5613333 1.286667-1.5613333zm-.077334-1.1279999c-1.732 0-2.788 1.1506666-2.788 2.6519999 0 1.5906666 1.154667 2.7426666 2.88 2.7426666 1.78 0 2.834667-1.1346667 2.834667-2.6653333 0-1.5786666-1.117333-2.7293332-2.92-2.7293332z"/><path d="m108.794664 26.0737327v5.2106665h1.849333l.866667-1.5093333c.334667-.58.661333-1.2893333.926667-1.9693333h.025333c-.093333.772-.101333 1.4066667-.101333 2.1173333v1.3613333h1.365333v-5.2106665h-1.616l-.953333 1.7226666c-.334667.604-.708 1.308-1.012 2.0173333h-.030667c.038667-.788.044-1.5453333.044-2.3333333v-1.4066666z"/><path d="m117.559064 28.4075993-.281334.92c-.094666.2933333-.204.672-.297333.9746666h-.016c-.084-.3026666-.161333-.6813333-.250667-.98l-.246666-.9146666zm-1.305334-1.0653333-.333333-1.268h-1.553333l1.662666 5.2093332h2.013334l1.769333-5.2093332h-1.637333l-.389334 1.268z"/><path d="m120.530397 31.2839992h1.474667v-3.9906665h2.272v-1.22h-3.746667z"/><path d="m128.609863 28.1367993h-2.138666v-.888h2.388v-1.1746666h-3.865333v5.2093332h3.747999v-1.1746667h-2.270666v-.7973333h2.138666z"/><path d="m80.045998 19.9994662c.1253333-.016.272-.028.5093333-.028.8826667 0 1.428.5093333 1.428 1.3319999 0 .7066667-.4213333 1.1893333-1.2653333 1.1893333-.3373333 0-.5613333-.028-.672-.0573333zm-2.2253333 4.2199999c.6093333.112 1.4906667.1973333 2.7733333.1973333 1.204 0 2.0626666-.2386667 2.6466666-.748.5733333-.4826666.956-1.3346666.956-2.3079999 0-.9653333-.284-1.8146667-.8053334-2.352-.6853333-.696-1.6666666-.992-2.7973332-.992-.2133333 0-.4106667.0146667-.548.0293334v-3.2426666h-2.2253333z"/><path d="m86.8311978 19.5593328c0-1.7853332.6866667-2.8893332 1.7666667-2.8893332 1.0813333 0 1.7146666 1.2053333 1.7146666 2.9186666 0 1.6426666-.644 2.8893332-1.7293333 2.8893332-1.0653333 0-1.752-1.1626666-1.752-2.9186666m5.8586665.1133334c0-3.0719999-1.6173332-5.0266666-4.2039998-5.0266666-2.5973333 0-4.0266666 2.2226666-4.0266666 4.8706666 0 2.7773332 1.6026666 4.9866665 4.1639999 4.9866665 2.6973333 0 4.0666665-2.2799999 4.0666665-4.8306665"/><path d="m93.532931 17.3515996c.5093333-.2986667 1.344-.5946667 2.1773333-.5946667.7706666 0 1.1426666.296 1.1426666.7786667 0 .4666666-.372.7346666-1.3186666 1.1053333-1.4173333.5666666-2.3506666 1.4559999-2.3506666 2.8733332 0 1.6853333 1.2439999 2.988 3.3599999 2.988 1.0053333 0 1.7133333-.2133334 2.2719999-.496l-.4733333-2.04c-.3573333.1866667-.98.456-1.8266666.456-.6826667 0-1.0546667-.2866667-1.0546667-.7093333 0-.4813333.4466667-.6786667 1.504-1.1333333 1.504-.624 2.1866666-1.544 2.1866666-2.8746666 0-1.6413333-1.1306666-3.0586666-3.5813332-3.0586666-1.0053333 0-1.988.312-2.4613333.5946667z"/><path d="m101.488664 22.2097328h-2.1386665v2.1373333h6.5653335v-2.1373333h-2.177334v-7.4066665h-2.249333z"/><path d="m112.353331 15.0430663c-.324-.1693333-1.105334-.3973333-2.114667-.3973333-3.132 0-4.512 2.2359999-4.512 4.7733332 0 3.3706666 2.161333 5.0839999 4.664 5.0839999.969333 0 1.753333-.2133334 2.098667-.4253334l-.434667-2.0106666c-.373333.1693333-.881333.34-1.554667.34-1.290666 0-2.410666-.8653333-2.410666-2.8173333 0-1.7426666.905333-2.8186666 2.449333-2.8186666.548 0 1.156.1266667 1.505333.2813334z"/><path d="m114.677464 19.5593328c0-1.7853332.682666-2.8893332 1.764-2.8893332 1.084 0 1.717333 1.2053333 1.717333 2.9186666 0 1.6426666-.646667 2.8893332-1.729333 2.8893332-1.069334 0-1.752-1.1626666-1.752-2.9186666m5.857333.1133334c0-3.0719999-1.617333-5.0266666-4.204-5.0266666-2.597333 0-4.026666 2.2226666-4.026666 4.8706666 0 2.7773332 1.602666 4.9866665 4.162666 4.9866665 2.698667 0 4.068-2.2799999 4.068-4.8306665"/><path d="m123.48093 16.7142662c.109334-.0293333.32-.0293333.470667-.0293333 1.454667-.028 2.521333.8906667 2.521333 3.0439999 0 1.8546667-.968 2.7346666-2.310666 2.7346666-.361334 0-.572-.028-.681334-.056zm-2.253333 7.5039999c.724.128 1.68.1986666 2.673333.1986666 1.604 0 2.612-.296 3.444-.9493333.921333-.7213333 1.517333-1.9106666 1.517333-3.6653332 0-1.9413333-.646666-3.2013333-1.466666-3.9239999-.922667-.82-2.288-1.1893333-3.932-1.1893333-1.078667 0-1.798667.084-2.236.1693333z"/><path d="m134.815463 18.6530662h-3.006666v-1.7546666h3.368v-2.0946666h-5.62v9.5426664h5.445333v-2.08h-3.193333v-1.5439999h3.006666z"/><path d="m155.215329 26.6641327c-.777333-.0173334-1.226666-.156-1.468-.3973334-.208-.208-.258666-.4653333-.258666-.7599999 0-.4493334.138666-.968.138666-1.3986667 0-.208-.138666-.7253333-.138666-1.1053333 0-.2586666.069333-.4493333.276-.4493333 1.450666 0 2.986666.968 2.986666 2.5386666 0 .8453333-.741333 1.572-1.536 1.572m.190667 5.0253332c-1.244 0-2.004-1.192-2.004-2.072 0-.1053333.105333-.64.105333-.7773333 0-.2946666-.053333-.64-.053333-.9506666 0-.3453334.068-.604.362667-.604.914666 0 3.108 1.14 3.108 2.8666666 0 .932-.621334 1.5373333-1.518667 1.5373333m.673333-4.3866666c.914667-.2426666 1.622667-.9853333 1.622667-2.2106666 0-2.4866666-2.228-3.2639999-4.265333-3.6786666-.224-.0506666-.450667-.0693333-.638667-.0693333-1.036 0-1.676.604-1.676 1.676 0 .172.121334 1.0533333.121334 1.2426666 0 .2066667-.017334.432-.068.6906666-.070667.3466667-.086667.6226667-.086667.8813334 0 .4133333.050667.7426666.050667 1.1226666 0 .5866666-.154667.776-.154667 1.2946666 0 .1733334.137333 1.0013333.137333 1.192 0 .604-.274666.8293333-.274666 1.156 0 .0693333.033333.432.033333.5186666 0 .744-.310667 1.0013333-.310667 1.6066666 0 .2946667.068.76.465334.76.692 0 1.381333-.1893333 1.762666-.8293333.414667.3453333.76.5866667 1.138667.76.38.156.794666.224 1.330666.224 1.829334 0 2.865334-1.3293333 2.865334-3.0733333 0-1.2439999-.897334-2.7119999-2.053334-3.2639999"/><path d="m159.726929 23.5170661c0-.4906667.366667-.7626667.830667-.7626667.436 0 .816.204 1.089333.504.273334.2986667.273334.532.273334.8986667v.8039999c0 .2453334 0 .3413334-.054667.3413334-.081333 0-.177333-.056-.313333-.1226667-.3-.1506667-.628-.3293333-.941334-.492-.449333-.2573333-.884-.5853333-.884-1.1573333zm2.193334 3.3373332c0 .572-.028 1.0893333-.762667 1.0893333-.736 0-1.090667-.4213333-1.390667-1.0613333-.122666-.2466666-.244-.464-.516-.572-.150666-.0546666-.410666-.1506666-.586666-.1506666-.177334 0-.273334.0813333-.273334.2586666 0 .736 1.294667 1.9066667 3.12 1.9066667.464 0 1.104-.0813334 1.470667-.3933334.273333-.232.273333-.4506666.273333-1.0773333v-3.0519999c0-.3813333.026667-.9933333.448-.9933333.164 0 .301334.068.396.1626667.096.096.164.1773333.232.1773333.069334 0 .094667-.096.094667-.2053333 0-.3133334-.842667-.8986667-1.456-.8986667-.492 0-.696.4373333-.886667.7226667-.066666.0946666-.122666.176-.177333.176-.068 0-.353333-.272-.721333-.5026667-.396-.2466667-.898667-.464-1.457334-.464-.736 0-1.348.4493333-1.348 1.1573333 0 .9546667 1.089334 1.472 1.974667 1.908.353333.1506666.694667.3133333 1.062667.4906666.504.2306667.504.2586667.504.708z"/><path d="m165.765996 26.091866c0 .7493333-.054667.8986667-.504.912-.258667.0146667-.366667.028-.366667.1653333 0 .1893333.204.2026667.381334.2426667.353333.0826666 1.061333.4093333 1.389333.7506666.094666.0946667.164.204.286666.204.134667 0 .134667-.1226666.134667-.2573333v-.5866667c0-.164 0-.2453333.054667-.2453333.054666 0 .341333.2586667.681333.5026667.368.2866666.885333.5453333 1.498667.5453333.558666 0 1.144-.1906667 1.552-.668.397333-.4626666.450666-1.0213333.450666-1.7973333v-2.3159999c0-.6533333.014667-1.0213333.598667-1.048.164-.0146667.381333-.028.381333-.2186667 0-.136-.108-.1773333-.189333-.1773333-.422667 0-1.049333.0546667-1.497333.0546667-.465334 0-.901334-.0546667-1.268-.0546667-.110667 0-.218667.0266667-.218667.1773333 0 .1773334.190667.1906667.341333.2186667.516.0266667.516.3666667.516 1.048v2.1946666c0 .38 0 .8706666-.204 1.212-.230666.3533333-.64.5719999-1.129333.5719999-.476 0-.885333-.1906666-1.186667-.5039999-.341333-.3546667-.368-.6413334-.368-1.104v-2.3706666c0-.6813333 0-1.0213333.532-1.048.122667-.0146667.34-.028.34-.2053333 0-.1226667-.094666-.1906667-.217333-.1906667-.381333 0-.912.0546667-1.389333.0546667-.530667 0-.966667-.0546667-1.362667-.0546667-.082666 0-.217333.0266667-.217333.1626667 0 .2053333.204.2186666.381333.2333333.598667.0266667.598667.3666667.598667 1.212z"/><path d="m173.665729 29.8933326c0 .7066666-.192.7213333-.652.748-.193333.028-.302667.0546666-.302667.1906666 0 .1226667.122667.1773334.286667.192.490667.0546667 1.090667.2026667 1.526667.4493333.094666.0666667.230666.1493334.326666.1493334.134667 0 .150667-.068.150667-.2853334v-5.6959998c0-.148 0-.3133333.08-.3133333.082667 0 .232.1373333.356.2453333.530667.4226667 1.061333.8453333 1.593333 1.2666666.204.164.545334.4373334.545334.6546667 0 .232-.272.2453333-.464.2733333-.149334 0-.490667-.0133333-.490667.2306667 0 .164.124.164.326667.164.356-.028.776-.0413334 1.197333-.0413334.478667 0 .968.0133334 1.336.0413334.245333 0 .34 0 .34-.1773334 0-.1773333-.162667-.1906666-.34-.2053333-.598667-.0253333-.925333-.2853333-1.402667-.6266666-.298666-.2306667-.653333-.504-.966666-.7346667-.094667-.0813333-.313334-.2306667-.313334-.3546667 0-.1093333.121334-.2186666.218667-.3546666.625333-.816 1.252-1.648 1.865333-2.4653333.381334-.5173333.613334-.736.885334-.736.177333-.012.422666-.04.422666-.2173333 0-.164-.136-.1906667-.258666-.1906667-.490667 0-.981334.0546667-1.472.0546667-.476 0-.981334-.0546667-1.470667-.0546667-.094667 0-.204.0133334-.204.1773334s.190667.1906666.312.204c.164.0146666.354667.0413333.354667.2453333 0 .1506667-.190667.3946667-.285334.5306667-.356.4919999-.708.9813333-1.062666 1.4706666-.177334.2333333-.326667.4653333-.450667.4653333-.122667 0-.652-.3426667-.652-.668v-1.3613333c0-.492.217333-.656.474667-.668.137333-.0146666.410666-.0413333.410666-.2053333 0-.1493333-.109333-.1906667-.246666-.1906667-.434667 0-.898667.0546667-1.321334.0546667-.476 0-.966666-.0546667-1.444-.0546667-.109333 0-.230666.0266667-.230666.1626667 0 .2186667.217333.2186667.394666.2333333.586667.012.626667.2853334.626667.8986667z"/><path d="m185.247862 21.1973328c-.916 0-1.968.3613333-2.434667 1.1733333-.326666.5706667-.362666.7266667-.898666 1.0893333-.776.5173333-.481334 1.348-1.122667 1.9853333-.154667.1546667-.24.3973333-.24.6213333 0 .1373333.034667.2586667.085333.3626667.070667.1026666.086667.2253333.086667.3293333 0 .2066667-.068.396-.068.6026666.033333 1.0546667.38 1.7266667.932 2.5906667 1.156 1.8133332 2.676 2.5906666 4.645333 3.3173332.190667.068.328.1026667.448.1026667.208 0 .310667-.0866667.310667-.208 0-.1373334-.154667-.328-.465333-.4653334-.605334-.2426666-1.52-.7426666-1.796-.8973333-1.433334-.8479999-1.570667-2.0399999-1.570667-3.4213332 0-1.864.033333-2.036.828-3.1586666.621333-.864 1.468-2.1239999 2.384-2.1239999.656 0 1.312.9319999 1.330667 2.0199999.016 1.2946666-2.436.9493333-2.454667 1.8826666-.016.604 1.416 1.036 2.504 1.036.586667 0 1.088-.104 1.088-1.468 0-3.7653332-1.676-5.3706665-3.592-5.3706665"/><path d="m190.978262 29.3881326c-.396 0-.792.2986667-.792.7906666 0 .396.273333.804.832.804.421333 0 .774667-.3413333.774667-.7773333 0-.476-.34-.8173333-.801334-.8173333zm-.654667-3.3106666c0 .8053333-.056.9533333-.544.968-.286666.0133333-.382666.0133333-.382666.164 0 .1906666.192.2026666.394666.244.476.096 1.104.4493333 1.458667.736.121333.1093333.177333.1773333.285333.1773333.121334 0 .136-.0826667.136-.232 0-.204-.014666-.408-.014666-.64v-3.9506666c0-.7093333.014666-1.0213333.6-1.0626666.162666-.0133333.381333-.0133333.381333-.204 0-.1373333-.108-.1773333-.189333-.1773333-.422667 0-.94.0546666-1.404.0546666-.694667 0-1.101334-.0546666-1.512-.0546666-.109334 0-.230667.0266666-.230667.1626666 0 .2186667.217333.2186667.393333.2333334.628.012.628.2853333.628 1.1026666z"/><path d="m194.111062 26.009866c0 .804-.052.968-.516.9933333-.286667.028-.382667.028-.382667.1653334 0 .1893333.150667.2026666.437333.2719999.366667.0826667.992.408 1.294667.6933334.162667.1506666.218667.2333333.34.2333333.164 0 .164-.1226667.164-.2733333v-.64c0-.1906667 0-.26.068-.26s.230667.26.461333.4786666c.261334.2586667.656.5853334 1.186667.5853334.490667 0 .872-.3146667.872-.776 0-.4226667-.313333-.6946667-.694667-.6946667-.258666 0-.409333.136-.546666.2853334-.136.1506666-.270667.2719999-.446667.2719999-.288 0-.492-.2586666-.642667-.4759999-.257333-.396-.257333-.7226667-.257333-1.24v-2.084c0-.6679999.013333-1.0359999.693333-1.0493333.192-.0133333.492-.0133333.492-.2173333 0-.1373333-.124-.1773333-.3-.1773333-.381333 0-.938666.0546666-1.54.0546666-.612 0-1.090666-.0546666-1.471999-.0546666-.109334 0-.230667.0266666-.230667.1626666 0 .2186667.217333.2186667.393333.232.626667.0133334.626667.3533334.626667 1.212z"/><path d="m201.523862 22.3587994c1.305333 0 1.961333 1.608 1.961333 2.684 0 1.4159999-.696 2.8999999-2.056 2.8999999-1.254667 0-2.032-1.156-2.032-2.6146666 0-1.4706666.805333-2.9693333 2.110667-2.9693333zm-.094667-.3813333c-1.950667 0-3.448 1.4026666-3.448 3.2013333 0 1.5399999 1.24 3.1466666 3.448 3.1466666 2.381333 0 3.486667-1.6893333 3.486667-3.1186666 0-1.7866667-1.472-3.2293333-3.474667-3.2293333z"/><path d="m169.068129 9.96693308c0 .32800002-.226667.67200002-.226667.98400002 0 .6893333.122667 1.3813333.122667 2.0719999 0 .6053333-.138667 1.348-.138667 1.9506666 0 .5013333.138667 1.004.157334 1.5213333.016.1906667.016.3973333.016.588 0 .328-.121334 1.2613333-.121334 1.6413333 0 .432.105334.484.536.7613333.277334.1546667 1.088.404 1.4.404.516 0 .724-.7333333.724-1.1466666 0-.6573334-.156-.624-.156-1.28 0-.1573333.070667-.2946667.070667-.4493333 0-.2773334-.157333-.5186667-.157333-.7946667 0-.2586666.121333-.5013333.121333-.76-.068-.5186666-.102667-1.1746666-.102667-1.8493332 0-1.0693333.068-2.1586667.085334-2.8493333 0-.2413333-.069334-.4653333-.069334-.7066667 0-.98399993 4.108-.22533328 4.108-1.00266659 0-.67333332-2.053333-.70799999-2.605333-.70799999-.965333 0-2.209333-.20799999-3.177333-.20799999-.638667 0-.897334.17466666-.897334.79599998 0 .41466666.292.65599998.310667.99999998z"/><path d="m178.769996 9.02746644c1.306666 0 1.959999 1.60799996 1.959999 2.68399996 0 1.4159999-.694666 2.8999999-2.055999 2.8999999-1.254667 0-2.030667-1.1573333-2.030667-2.6146666 0-1.4706666.805333-2.96933326 2.112-2.96933326zm-.096-.38266666c-1.946667 0-3.446667 1.40533332-3.446667 3.20266662 0 1.5399999 1.238667 3.1466666 3.446667 3.1466666 2.382666 0 3.486666-1.6893333 3.486666-3.12 0-1.7839999-1.472-3.22933322-3.473333-3.22933322z"/><path d="m184.788129 10.7839997c0-.6666666.082666-1.42933327.749333-1.42933327.26 0 .477333.108.626667.21733333.204.12266666.302666.21733333.369333.21733333.094667 0 .133333-.08133333.133333-.136 0-.27199999-.801333-1.00799997-1.769333-1.00799997-.450667 0-.845333.15066666-1.090667.42133332-.338666.38399999-.353333.75066665-.353333 1.62266666v3.3786665c0 .244-.054667.272-.202667.272h-.369333c-.164 0-.3.028-.3.1773334 0 .1493333.094667.1906666.258667.2586666.628.3413334 1.145333.6546667 1.526666 1.4866667.066667.1626666.121334.244.258667.244.149333 0 .162667-.108.162667-.204v-1.1306667c0-.1773333.014666-.2866666.218666-.3013333.38 0 .993334.028 1.389334.028.150666 0 .150666-.0946667.150666-.2586667 0-.3-.041333-.3413333-.230666-.3413333-.316 0-.710667.028-1.037334.028-.42 0-.490666 0-.490666-.3533333z"/><path d="m188.344129 13.073733c0-.164.094666-.204.421333-.204.314667 0 .656 0 .982667.012.38 0 1.048.0413333 1.374666.164.246667.068.421334.2186667.421334.5186667 0 .2586666-.217334 1.0893333-1.346667 1.0893333-1.186667 0-1.853333-1.0773333-1.853333-1.5666667zm.436-.64c-.464 0-.530667 0-.530667-.3826666 0-1.4026667.925333-2.64266664 2.452-2.64266664.692 0 1.170667.24533333 1.498667.50399999.230666.19066665.353333.32799995.436.32799995.094666 0 .150666-.068.150666-.1506666 0-.16266668-.369333-.51733334-.532-.65466667-.601333-.51733332-1.294666-.78933331-2.236-.78933331-1.946666 0-3.214666 1.48533328-3.214666 3.13333328 0 2.1786666 1.921333 3.2146666 3.514666 3.2146666 1.689334 0 2.562667-1.1026667 2.562667-2.2066667 0-.2586666-.094667-.3533333-.274667-.3533333z"/><path d="m194.228262 12.678533c0 .8026667-.052.9666667-.517334.9946667-.286666.0266666-.382666.0266666-.382666.1626666 0 .1906667.150666.204.436.272.369333.0826667.994666.4093333 1.294666.696.165334.1493333.218667.232.341334.232.164 0 .164-.124.164-.2733333v-.64c0-.1906667 0-.2586667.066666-.2586667.070667 0 .233334.2586667.465334.4773333.257333.2586667.654666.5853334 1.185333.5853334.489333 0 .870667-.3146667.870667-.776 0-.4226667-.312-.696-.694667-.696-.257333 0-.408.136-.545333.2866667-.136.1493333-.270667.2719999-.449334.2719999-.285333 0-.489333-.2586666-.64-.4759999-.258666-.3946667-.258666-.7226667-.258666-1.2413333v-2.084c0-.66799997.013333-1.03466663.693333-1.04799996.192-.01333334.493333-.01333334.493333-.21733333 0-.13733333-.125333-.17866666-.301333-.17866666-.382667 0-.94.056-1.538667.056-.613333 0-1.090666-.056-1.473333-.056-.109333 0-.230666.028-.230666.16399999 0 .21866666.217333.21866666.395999.232.625334.01333333.625334.35466666.625334 1.21199996z"/><path d="m200.038128 16.0573329c-.396 0-.792.3013334-.792.7906667 0 .396.274667.804.832.804.424 0 .777334-.3413334.777334-.7773334 0-.4759999-.341334-.8173333-.804-.8173333zm-.654666-3.3106666c0 .8026667-.054667.9533334-.542667.9666667-.286667.0133333-.384.0133333-.384.164 0 .1906666.192.204.394667.2453333.477333.0946667 1.104.4493333 1.458666.736.121334.1093333.176.1773333.285334.1773333.122666 0 .137333-.084.137333-.232 0-.204-.014667-.4093333-.014667-.64v-3.9519999c0-.70799994.014667-1.02133326.6-1.0626666.165334-.012.38-.012.38-.20266666 0-.13733333-.109333-.17866666-.189333-.17866666-.422667 0-.938667.056-1.402667.056-.696 0-1.102666-.056-1.512-.056-.108 0-.232.028-.232.164 0 .21733332.216.21733332.394667.23199999.626667.01333333.626667.28533333.626667 1.10266663z"/><path d="m203.568128 16.0573329c-.410666 0-.790666.3413334-.790666.7906667 0 .396.246666.804.802666.804.437334 0 .790667-.3133334.790667-.7773334 0-.4906666-.353333-.8173333-.790667-.8173333zm.68-7.22133312c0-.73466665-.053333-1.3613333-.586666-1.96133329-.422667-.57199998-1.593334-1.37599996-1.825334-1.37599996-.081333 0-.162666.05466666-.162666.14933333 0 .124.069333.17866666.257333.29999999.696.54533332.982667.96799998.982667 2.05866662v4.84933323c0 .6933333-.053334.844-.546667.8706666-.230667.0146667-.366667.0146667-.366667.164 0 .1773333.192.2053333.422667.2586667.421333.0813333 1.049333.4226666 1.308.668.176.1346666.246667.2186666.366667.2186666.150666 0 .150666-.096.150666-.26z"/><path d="m17.6618662 30.7293326c-.292 0-.8666666-.1893334-1.6906666-.1893334-.936 0-1.5293333.1893334-1.8746666.1893334-.2173333 0-.232-.1173334-.232-.276v-.5466667c0-.1466666.0586667-.2.16-.2173333 1.052-.172 1.1106666-.3173333 1.1106666-.548 0-.2293333-.044-.4186667-.4906666-1.3986666l-1.9613333-4.3413333-2.1346666 4.9039999c-.1746667.4173333-.3333334.8053333-.3333334.9813333 0 .2746667.116.3306667.7213334.4026667.1586666.0173333.2146666.0893333.2146666.2893333v.4906667c0 .1293333-.056.26-.1986666.26-.4346667 0-1.25600001-.1893334-2.35333331-.1893334-1.03733331 0-1.77466663.1893334-2.17866662.1893334-.14266666 0-.23066666-.0426667-.23066666-.1453334v-.6773333c0-.1026666.05866667-.2.188-.2173333.63466665-.072.71999998-.2026667 1.03999997-.908l3.71999992-8.2666664c.088-.1866667.1906667-.376.3613333-.376h.9666667c.1893333 0 .2746666.248.3626666.42l3.8359999 8.3813331c.1893333.404.2866667.6053333.8813333.7493333.172.0426667.3306667.0893333.3306667.2613333v.5026667c0 .1453333-.044.276-.2146667.276zm46.0533322-3.6893333c-.6666666 0-1.1306666.128-1.276.128-.0693333 0-.0853333-.0306666-.0853333-.0786666v-.4706667c0-.0693333.016-.1386667.1346667-.1573333.552-.0893334.7573333-.168.7573333-.58v-3.4413333l-4.1786666 4.5799999c-.0773333.1093334-.128.148-.2453333.148h-.944c-.1066666 0-.1253333-.0786666-.1253333-.148v-5.5826665c0-.532-.092-.6106667-.7306667-.7186667-.056-.008-.0773333-.0786666-.0773333-.1453333v-.356c0-.148.0493333-.204.2146667-.204.2066666 0 .6493333.1253334 1.0746666.1253334.5186667 0 .9013333-.1253334 1.1506666-.1253334.1626667 0 .2253334.0773334.2253334.204v.3253334c0 .076-.0213334.1586666-.1586667.1759999-.6093333.0906667-.7573333.1866667-.7573333.7186667v3.2533332l4.1186666-4.4733332c.1386666-.1546666.208-.204.4533333-.204h.788c.1173333 0 .136.056.136.1866667v5.5133332c0 .56.1066666.6666666.6386666.748.1386667.0186666.1653333.116.1653333.2146666v.344c0 .0986667-.0666666.148-.1453333.148-.1 0-.5906666-.128-1.1333333-.128zm-13.0479997-.028v-.376c0-.156.0693334-.1973333.3946667-.236.3453333-.0373333.424-.2346666.424-.6173333v-4.3253332c0-.3746667-.0693334-.608-.2946667-.6586667l-.3653333-.08c-.1253333-.0306666-.1586667-.0559999-.1586667-.1759999v-.404c0-.0866667.044-.1253334.0893334-.1253334.3933333 0 1.0826666.1253334 2.4199999.1253334 1.2093333 0 2.4973333-.0693334 3.0773333-.1253334.096.6053334.332 1.424.332 1.5933333 0 .0946667-.0373334.1346667-.168.1346667h-.5293334c-.1173333 0-.176-.028-.276-.352-.1453333-.4733333-.276-.552-.6666666-.552-1.5346666 0-1.652.0586667-1.652.9146667v1.5106666h1.376c.196 0 .3346667-.0453333.3533333-.2146667.0506667-.4026666.1186667-.432.2066667-.432h.5626666c.1266667 0 .1746667.0693334.1746667.1893334 0 .164-.0573333.42-.0573333.8133333s.0573333.6693333.0573333.8746666c0 .1586667-.068.1866667-.1746667.1866667h-.5533333c-.1066666 0-.136-.08-.1586666-.1666667-.0946667-.452-.1253334-.4826666-.352-.4826666h-1.4346667v2.2426666h1.1426667c.292 0 .3906666-.0306667.5786666-.6986667.0266667-.1066666.1373334-.1453333.224-.1453333h.484c.1373333 0 .176.076.176.196 0 .1746667-.0986667.7853333-.1066667 1.4733333h-.0906666c-.1666667 0-.384-.0093333-.6866667-.0306667-.316-.008-.716-.028-1.2599999-.028h-.5106667c-.6693333 0-1.1986666.028-1.612.0666667-.4026666.0306667-.6786666.0613333-.8279999.0613333-.116 0-.1373334-.0306666-.1373334-.156zm-8.0599998 0v-.376c0-.156.0693334-.1973333.3946667-.236.3453333-.0373333.4213333-.2346666.4213333-.6173333v-4.2066665c0-.632-.0106667-.7986667-.5213333-.8573334-.2666667-.0306666-.2946667-.0693333-.2946667-.1759999v-.404c0-.0866667.0386667-.1253334.0893334-.1253334.2573333 0 .7159999.1253334 1.5119999.1253334 1.0506667 0 1.552-.1253334 2.3493333-.1253334 2.2813333 0 3.9706666 1.3453333 3.9706666 3.7359999 0 2.7413333-2.456 3.3493333-3.6559999 3.3493333-.4613334 0-.836-.0093333-1.1986667-.0306667-.3533333-.008-.696-.028-1.0826666-.028-.48 0-.8946667.028-1.1986667.0666667-.3146666.0306667-.5293333.0613333-.6479999.0613333-.116 0-.1373334 0-.1373334-.156zm2.624-5.2599998v4.2653332c0 .2066666.02.3146666.7773333.3146666 1.7586666 0 2.5359999-1.0813333 2.5359999-2.7626666 0-1.4053333-.6293333-2.7919999-2.0826666-2.7919999-.9546666 0-1.2306666.2773333-1.2306666.9746667zm-4.2639999 5.2879998c-.668 0-1.1306667.128-1.2786667.128-.0693333 0-.0906666-.0306666-.0906666-.0786666v-.4706667c0-.0693333.0213333-.1386667.1386666-.1573333.5493334-.0893334.756-.168.756-.58v-3.4413333l-4.1746665 4.5799999c-.0786667.1093334-.128.148-.2453334.148h-.9439999c-.1093334 0-.1306667-.0786666-.1306667-.148v-5.5826665c0-.532-.0866667-.6106667-.7266667-.7186667-.0586666-.008-.0786666-.0786666-.0786666-.1453333v-.356c0-.148.0493333-.204.2186666-.204.2066667 0 .648.1253334 1.0693333.1253334.5226667 0 .904-.1253334 1.1493334-.1253334.1693333 0 .2266666.0773334.2266666.204v.3253334c0 .076-.02.1586666-.1586667.1759999-.6079999.0906667-.7559999.1866667-.7559999.7186667v3.2533332l4.1186665-4.4733332c.1386667-.1546666.208-.204.4533334-.204h.7853333c.1186666 0 .1373333.056.1373333.1866667v5.5133332c0 .56.1093333.6666666.6413333.748.1386667.0186666.1653333.116.1653333.2146666v.344c0 .0986667-.0693333.148-.1466666.148-.1 0-.5906667-.128-1.1293333-.128zm-12.8199997-.028v-.376c0-.156.0693333-.1973333.3946667-.236.3426666-.0373333.4226666-.2346666.4226666-.6173333v-4.3253332c0-.3746667-.072-.608-.2973333-.6586667l-.364-.08c-.124-.0306666-.156-.0559999-.156-.1759999v-.404c0-.0866667.04-.1253334.088-.1253334.3933333 0 1.0813333.1253334 2.4186666.1253334 1.2093333 0 2.4973333-.0693334 3.0759999-.1253334.0973334.6053334.3346667 1.424.3346667 1.5933333 0 .0946667-.0413334.1346667-.168.1346667h-.5306667c-.1173333 0-.176-.028-.276-.352-.148-.4733333-.2733333-.552-.6666666-.552-1.5346666 0-1.652.0586667-1.652.9146667v1.5106666h1.376c.1973333 0 .3346667-.0453333.356-.2146667.048-.4026666.1173333-.432.2066666-.432h.5573334c.128 0 .1786666.0693334.1786666.1893334 0 .164-.0613333.42-.0613333.8133333s.0613333.6693333.0613333.8746666c0 .1586667-.0693333.1866667-.1786666.1866667h-.5493334c-.1079999 0-.1386666-.08-.1586666-.1666667-.0973333-.452-.1253333-.4826666-.3533333-.4826666h-1.4346667v2.2426666h1.1413333c.2933334 0 .392-.0306667.5773334-.6986667.0306666-.1066666.1386666-.1453333.2279999-.1453333h.48c.1386667 0 .1786667.076.1786667.196 0 .1746667-.0986667.7853333-.1093333 1.4733333h-.0893334c-.164 0-.3813333-.0093333-.6879999-.0306667-.312-.008-.716-.028-1.2546667-.028h-.512c-.6706666 0-1.1999999.028-1.6133333.0666667-.4026666.0306667-.6759999.0613333-.8266666.0613333-.1173333 0-.136-.0306666-.136-.156zm-2.3746666.028c-.7186667 0-1.268.128-1.4546666.128-.1666667 0-.208-.0186666-.208-.208v-.2733333c0-.1293333.0413333-.2066667.1186666-.2253333.5413333-.1373334.6386667-.188.6386667-.7173333v-4.3066666c0-.532-.0973334-.58-.6386667-.7186667-.0773333-.0173333-.1186666-.0999999-.1186666-.2253333v-.276c0-.1853333.0413333-.204.208-.204.2266666 0 .8053333.1253334 1.4546666.1253334.6573333 0 1.1893333-.1253334 1.4546666-.1253334.1693333 0 .2066667.0186667.2066667.204v.276c0 .1253334-.0373334.208-.1173333.2253333-.5386667.1386667-.6386667.1866667-.6386667.7186667v4.3066666c0 .5293333.1.5799999.6386667.7173333.0799999.0186666.1173333.096.1173333.2253333v.2733333c0 .1893334-.0373334.208-.168.208-.236 0-.8266667-.128-1.4933333-.128zm-9.4893331-.028v-.376c0-.156.0666667-.1973333.392-.236.3426666-.0373333.4213333-.2346666.4213333-.6173333v-4.3453332c0-.532-.0973333-.58-.636-.7186667-.08-.0173333-.12-.0999999-.12-.2253333v-.276c0-.1853333.04-.204.2066667-.204.224 0 .8053333.1253334 1.4546666.1253334.66 0 1.188-.1253334 1.4573333-.1253334.164 0 .204.0186667.204.204v.276c0 .1253334-.04.208-.1173333.2253333-.5413333.1386667-.6386667.1866667-.6386667.7186667v1.632h.3626667l1.308-1.8293333c.6479999-.9013333 1.4226666-1.4333333 2.5039999-1.4333333.276 0 .74.0066666.74.304 0 .284-.2946667.2453333-.7573333.8453333l-1.9866667 2.5546666c.728.2973333 1.288 1.0026666 1.288 1.8013333 0 .8533333-.5013333 1.7866666-2.3399999 1.7866666-.4413334 0-.7666667-.0093333-1.04-.0306667-.2653333-.008-.4826667-.028-.7186667-.028-.4826666 0-.8946666.028-1.1986666.0666667-.3146667.0306667-.532.0613333-.648.0613333-.12 0-.1373333-.0306666-.1373333-.156zm2.6239999-.944c0 .1746667.196.264.4213334.264.7746666 0 1.1119999-.5119999 1.1119999-1.2479999 0-.9333333-.3933333-1.248-1.2986666-1.248h-.2346667zm18.2079996-6.7426664c-.3506667 0-.2-.2226667-.6186667-.2226667h-5.0039999c-.2226666 0-.2439999.2226667-.4826666.2226667h-.4093333c-.1 0-.1693334-.02-.1826667-.0813334-.0173333-.1-.3373333-1.4453333-.3373333-1.5879999 0-.1.08-.1413334.16-.1413334h.4493333c.1613333 0 .2906667.0506667.3493333.2133334.1613334.4266666.252.4746666.5333333.4653333h1.3906667v-4.8746666c0-.516-.0413334-.7279999-.7213333-.7799999-.1306667-.0066667-.1706667-.068-.1706667-.1893334v-.3346666c0-.112.0293333-.2026667.112-.2026667.2093333 0 .808.132 1.7.132.8919999 0 1.4933332-.132 1.7026666-.132.08 0 .1093333.0906667.1093333.2026667v.3346666c0 .1213334-.0373333.1826667-.1706667.1893334-.6799999.052-.7186666.2639999-.7186666.7799999v4.8746666h1.24c.4173333 0 .488-.292.5306666-.5066667.02-.1026666.1093333-.172.2093333-.172h.432c.088 0 .1586667.0693334.1986667.2253334.0386667.1693333.2693333 1.3733333.2693333 1.4653333 0 .08-.0586666.12-.1413333.12zm-15.0399997-3.8333333c0-2.4239999 1.7506667-3.7399999 4.1039999-3.7399999 2.352 0 4.1039999 1.5186666 4.1039999 3.7399999 0 2.4293333-1.7519999 3.7439999-4.1039999 3.7439999-2.3533332 0-4.1039999-1.5159999-4.1039999-3.7439999zm2.0813333 0c0 1.2946666.5413333 2.8306666 2.0226666 2.8306666 1.5013333 0 2.0213333-1.3213333 2.0213333-2.8306666 0-1.2933333-.5413333-2.8306666-2.0213333-2.8306666-1.5013333 0-2.0226666 1.328-2.0226666 2.8306666zm-5.1933332 3.5293333c-1.1453333 0-1.9693333.192-2.4399999.192-.1733333 0-.204-.044-.204-.2373334v-.5653333c0-.236.1013333-.2973333.5866666-.356.5146667-.0586666.6333334-.3546666.6333334-.936v-6.5279998c0-.5626667-.1053334-.91999998-.4426667-.99466664l-.5426666-.11733333c-.192-.04666667-.2346667-.08933333-.2346667-.26933333v-.60533332c0-.13599999.056-.19466666.1306667-.19466666.5906666 0 1.6159999.19466666 3.6159999.19466666 1.8039999 0 3.1413332-.11733333 4.4639999-.19466666.1479999.92133331.5573333 2.21199998.5573333 2.37599998 0 .2346666-.1746667.3533333-.3226667.3533333h-.6893333c-.2666667 0-.3533333-.1013333-.4986667-.5173333-.2226666-.63733335-.4733333-.87733334-.8706666-.87733334h-1.2466666c-.9266667 0-1.2173333.26666664-1.2173333 1.29333334v5.9919998c0 .728.2506666.9813333.6013333 1.0253333.616.076.6613333.1026667.6613333.312v.5346667c0 .2813333-.0613333.312-.2786667.312-.324 0-.9839999-.192-2.2626666-.192zm35.1333325.02c-.732 0-1.292.1306666-1.48.1306666-.172 0-.2093333-.02-.2093333-.212v-.2813333c0-.1333333.0373333-.212.1186667-.232.5506666-.1413333.6479999-.1946667.6479999-.74v-4.4279999c0-.5453333-.0973333-.596-.6479999-.7399999-.0813334-.02-.1186667-.0986667-.1186667-.2293334v-.284c0-.192.0373333-.2133333.2093333-.2133333.2293333 0 .8173333.132 1.48.132.6693333 0 1.2106666-.132 1.4813333-.132.1693333 0 .2093333.0213333.2093333.2133333v.284c0 .1306667-.04.2093334-.1213333.2293334-.5493333.1439999-.648.1946666-.648.7399999v4.4279999c0 .5453333.0986667.5986667.648.74.0813333.02.1213333.0986667.1213333.232v.2813333c0 .192-.04.212-.1693333.212-.2413334 0-.8413333-.1306666-1.5213333-.1306666zm-9.7706664-.0306667v-.384c0-.16.072-.2013333.3986666-.2426667.3506667-.0413333.432-.2426666.432-.6359999v-4.4693333c0-.5453333-.1013333-.596-.6506666-.7399999-.0773334-.02-.1213334-.0986667-.1213334-.2293334v-.284c0-.192.044-.2133333.2093334-.2133333.2306666 0 .8213333.132 1.4839999.132.6693333 0 1.2093333-.132 1.48-.132.172 0 .2093333.0213333.2093333.2133333v.284c0 .1306667-.0373333.2093334-.1173333.2293334-.552.1439999-.652.1946666-.652.7399999v1.6786667h.3706666l1.332-1.8813333c.66-.928 1.4506666-1.476 2.552-1.476.2813333 0 .7493333.0106667.7493333.316 0 .2906667-.2986667.252-.7693333.8693333l-2.0226667 2.6279999c.7386667.3013334 1.312 1.0306667 1.312 1.848 0 .88-.5106667 1.8413333-2.3839999 1.8413333-.4493334 0-.78-.0106667-1.06-.0306667-.2693333-.0093333-.4893333-.0306666-.732-.0306666-.4906666 0-.908.0306666-1.2186666.072-.3213334.0306666-.5413333.0586666-.66.0586666-.12 0-.1413333-.028-.1413333-.1613333zm2.6719999-.972c0 .1853333.1986667.276.4293333.276.7933333 0 1.1333333-.5293333 1.1333333-1.2853333 0-.9613333-.4013333-1.284-1.3213333-1.284h-.2413333zm-9.0293331.972v-.384c0-.16.0693333-.2013333.4013333-.2426667.348-.0413333.4306667-.2426666.4306667-.6359999v-4.4466666c0-.3866667-.072-.6293333-.2986667-.68l-.3733333-.0826666c-.128-.028-.16-.0586667-.16-.1813334v-.4133333c0-.0933333.04-.132.0906666-.132.4013334 0 1.1013334.132 2.4626667.132 1.2306666 0 2.5439999-.0693333 3.1346665-.132.0986667.628.3373334 1.4666666.3373334 1.6373333 0 .1026667-.0386667.1426667-.1693334.1426667h-.5386666c-.1226667 0-.1826667-.0293334-.2813333-.3626667-.148-.4853333-.2786667-.568-.6813334-.568-1.5613333 0-1.6826666.0626667-1.6826666.9386667v1.5599999h1.4013333c.2013333 0 .3413333-.0506666.3613333-.2226666.052-.416.12-.444.2093334-.444h.5706666c.132 0 .1813333.0706666.1813333.1906666 0 .172-.0613333.4346667-.0613333.8386667s.0613333.688.0613333.9013333c0 .1626667-.0679999.1906667-.1813333.1906667h-.5573333c-.1093333 0-.144-.0786667-.1613333-.1706667-.1026667-.4653333-.1306667-.496-.3626667-.496h-1.4613333v2.3039999h1.164c.2973333 0 .3986666-.028.588-.7173333.0333333-.112.14-.1493333.2333333-.1493333h.4906667c.1373333 0 .18.0813333.18.1986667 0 .184-.1013334.8106666-.1133334 1.5186666h-.0893333c-.1693333 0-.392-.0106667-.7013333-.0306667-.3186667-.0093333-.728-.0306666-1.2773333-.0306666h-.5253333c-.6773334 0-1.22.0306666-1.6413333.072-.4093334.0306666-.688.0586666-.8386667.0586666-.12 0-.1413333-.028-.1413333-.1613333zm20.3319995.0213333c-.7733333 0-1.4626667.1293334-1.632.1293334-.0986666 0-.1506666-.092-.1506666-.1933334v-.344c0-.1213333.0306666-.1706666.2506666-.1906666.4493333-.0413334.6106667-.2333334.6106667-.688v-4.9253332c0-1.6666666-.1306667-1.9893333-.9-1.9893333-.172 0-.332.028-.5013333.06v-1.15466664h.2306666c.6693333 0 3.012.72933334 3.012 3.97733324v3.9839999c0 .544.1.5946666.6493333.736.0826666.02.12.1.12.232v.284c0 .192-.0373334.212-.2093334.212-.3186666 0-.7906666-.1293334-1.4799999-.1293334z"/><path d="m143.071996 37.7999991h68.586665v-36.46133247h-68.586665zm-141.73332937 0h68.58799827v-36.46133247h-68.58799827zm140.39999637-36.46133247h-70.4773314v36.46133247h70.4773314zm69.919998 37.79466577h-210.31999437v136.6199966h210.31999437zm.666667 137.9533296h-211.65332802c-.36799999 0-.66666665-.298666-.66666665-.666666v-175.74799602c0-.36799999.29866666-.66666665.66666665-.66666665h211.65332802c.369333 0 .666667.29866666.666667.66666665v175.74799602c0 .368-.297334.666666-.666667.666666z"/><path d="m29.3323993 51.1726654h-17.0799996c-2.1066666 0-4.00399991 1.8973333-4.00399991 4.0053332v64.8319984c0 2.109333 1.89733331 4.006667 4.00399991 4.006667h17.0799996c11.069333 0 19.9239995-8.961334 19.9239995-19.924v-32.8906658c0-11.069333-8.8546665-20.0293328-19.9239995-20.0293328zm12.017333 52.8146656c0 6.641333-5.2706665 12.018666-11.913333 12.018666h-13.177333v-56.8213318h13.073333c6.6386665 0 12.017333 5.3759999 12.017333 12.017333z"/><path d="m82.0407979 50.5403987h-1.0546666c-11.069333 0-20.0293328 8.9599998-20.0293328 20.0279995v34.1573328c0 11.066666 8.9599998 19.923999 20.0293328 19.923999h1.0546666c11.0679998 0 19.9226661-8.961333 19.9226661-19.923999v-34.1573328c0-11.0679997-8.8546663-20.0279995-19.9226661-20.0279995zm11.9119998 54.0799983c0 6.641334-5.2719999 12.017333-11.9119998 12.017333h-1.0546666c-6.6413332 0-12.017333-5.375999-12.017333-11.911999v-34.1573328c0-6.6399998 5.3759998-12.017333 12.017333-12.017333h1.0546666c6.6399999 0 11.9119998 5.3773332 11.9119998 12.017333z"/><path d="m150.141063 51.1726654h-32.995999c-2.109334 0-4.006667 1.8973333-4.006667 4.0053332v64.8319984c0 2.109333 1.897333 4.006667 4.006667 4.006667h32.995999c2.741333 0 4.005333-2.002667 4.005333-4.006667 0-2.002667-1.264-4.004-4.005333-4.004h-28.990666v-23.194666h20.133333c2.636 0 4.008-2.0013333 4.008-4.0053332 0-2.0026666-1.372-4.0053333-4.008-4.0053333h-20.133333v-25.6159993h28.990666c2.741333 0 4.005333-2.0026666 4.005333-4.0066666 0-2.0026666-1.264-4.0053332-4.005333-4.0053332"/><path d="m200.213995 50.5403987c-1.582667 0-3.9 0-5.481333 3.5839999l-22.981333 51.9719984v-51.550665c0-2.636-2.002667-4.0053333-4.006667-4.0053333-2.002666 0-4.003999 1.3693333-4.003999 4.0053333v65.991998c0 2.846667 2.317333 4.112 4.743999 4.112 2.318667 0 4.110667-.528 5.374667-3.374666l22.875999-52.1813324v51.5493324c0 2.634666 2.108 4.006666 4.112 4.006666 2.002667 0 3.901334-1.372 3.901334-4.006666v-65.357332c0-3.4813333-2.214667-4.7453333-4.534667-4.7453333"/><path d="m17.7386662 134.899197h-.384c-4.4239999 0-8.50266642 2.832-8.50266642 7.941333 0 1.073333.81466664 1.589333 1.63199992 1.589333.8146667 0 1.6306667-.516 1.6306667-1.632 0-3.048 2.4893332-4.637333 5.2813332-4.637333h.4293333c3.3479999 0 4.8519999 1.718667 4.8519999 4.766666 0 3.52-2.448 4.508-5.1093332 5.968-4.1213333 2.233334-8.2866665 3.392-8.2866665 8.844 0 4.164 3.5639999 7.342667 8.0733331 7.342667h.428c4.1213333 0 7.8146665-2.921334 7.8146665-6.870667 0-1.073333-.7306667-1.588-1.5466666-1.588-.7733333 0-1.588.514667-1.7186667 1.546667-.2133333 2.102666-2.0159999 3.648-4.6359998 3.648h-.3866667c-3.5199999 0-4.7226665-2.576-4.7226665-4.078667 0-3.090667 2.6626666-4.121333 4.9813332-5.322666 4.2919999-2.277334 8.3719998-3.693334 8.3719998-9.532 0-4.894667-3.0493333-7.985333-8.2013332-7.985333"/><path d="m46.5030655 161.560663h-4.7226665v-25.030666c0-1.073334-.8146667-1.630667-1.6306667-1.630667s-1.6306666.557333-1.6306666 1.630667v25.030666h-4.7226665c-1.0746667 0-1.6333333.816-1.6333333 1.632 0 .814666.5586666 1.629333 1.6333333 1.629333h12.7066663c1.0746666 0 1.6333333-.814667 1.6333333-1.629333 0-.816-.5586667-1.632-1.6333333-1.632"/><path d="m58.1371985 134.899197c-.8159999 0-1.6319999.557333-1.6319999 1.630666v26.92c0 1.073333.816 1.632 1.6319999 1.632.816 0 1.632-.558667 1.632-1.632v-26.92c0-1.073333-.816-1.630666-1.632-1.630666"/><path d="m79.3025314 134.899197h-.4293334c-4.5079999 0-8.1559998 3.649333-8.1559998 8.157333v13.909333c0 4.509333 3.6479999 8.116 8.1559998 8.116h.4293334c4.1213332 0 7.5146664-3.006667 8.0706664-6.998667v-.258667c0-1.030666-.772-1.588-1.5879999-1.588-.7293334 0-1.416.472-1.6306667 1.416-.472 2.318667-2.4039999 4.165334-4.8519998 4.165334h-.4293334c-2.7053332 0-4.8946665-2.190667-4.8946665-4.852v-13.909333c0-2.705334 2.1893333-4.896 4.8946665-4.896h.4293334c2.4479999 0 4.3799998 1.848 4.8519998 4.165333.2146667.989333.9453333 1.417333 1.6306667 1.417333.8159999 0 1.5879999-.558666 1.5879999-1.589333v-.3c-.6013333-3.906666-3.9919999-6.954666-8.0706664-6.954666"/><path d="m111.458797 134.899197c-.816 0-1.632.514666-1.632 1.630666v12.322667h-10.1746662v-12.322667c0-1.073333-.8159999-1.630666-1.6306666-1.630666-.816 0-1.6319999.557333-1.6319999 1.630666v26.92c0 1.073333.8159999 1.632 1.6319999 1.632.8146667 0 1.6306666-.558667 1.6306666-1.632v-11.334667h10.1746662v11.334667c0 1.073333.816 1.632 1.632 1.632s1.633334-.558667 1.633334-1.632v-26.92c0-1.116-.817334-1.630666-1.633334-1.630666"/><path d="m135.370263 161.560663h-4.722666v-25.030666c0-1.073334-.814667-1.630667-1.630667-1.630667-.817333 0-1.632.557333-1.632 1.630667v25.030666h-4.721333c-1.074667 0-1.633333.816-1.633333 1.632 0 .814666.558666 1.629333 1.633333 1.629333h12.706666c1.074667 0 1.633334-.814667 1.633334-1.629333 0-.816-.558667-1.632-1.633334-1.632"/><path d="m146.962663 134.899197c-.816 0-1.632.557333-1.632 1.630666v26.92c0 1.073333.816 1.632 1.632 1.632.814667 0 1.632-.558667 1.632-1.632v-26.92c0-1.073333-.817333-1.630666-1.632-1.630666"/><path d="m175.039462 134.899197c-.642666 0-1.589333 0-2.233333 1.46l-9.358666 21.165332v-20.994666c0-1.073333-.816-1.630666-1.632-1.630666-.814667 0-1.632.557333-1.632 1.630666v26.877333c0 1.158667.944 1.674667 1.933333 1.674667.944 0 1.673333-.214667 2.189333-1.376l9.317333-21.249333v20.993333c0 1.073333.857334 1.632 1.672 1.632.816 0 1.590667-.558667 1.590667-1.632v-26.618666c0-1.417334-.902667-1.932-1.846667-1.932"/><path d="m195.989995 134.899197h-.429333c-4.508 0-8.158667 3.649333-8.158667 8.157333v13.866666c0 4.552 3.650667 8.158667 8.158667 8.158667h.429333c4.164 0 7.6-2.962667 8.156-6.998667v-.258667c0-1.030666-.814667-1.588-1.632-1.588-.729333 0-1.457333.429334-1.630667 1.374667-.473333 2.36-2.105333 4.206667-4.893333 4.206667h-.429333c-2.708 0-4.896-2.190667-4.896-4.852v-13.909333c0-2.705334 2.188-4.896 4.896-4.896h.429333c2.701333 0 4.893333 2.190666 4.893333 4.896v5.022666h-4.508c-1.074666 0-1.630666.816-1.630666 1.630667 0 .817333.556 1.633333 1.630666 1.633333h6.138667c.86 0 1.632-.773333 1.632-1.633333v-6.653333c0-4.508-3.649333-8.157333-8.156-8.157333"/></g></g></svg>