<svg height="150" viewBox="0 0 214 178" width="214" xmlns="http://www.w3.org/2000/svg"><g fill="#293a7d"><path d="M83.7 169.888h-5.212v-5.216H83.7zM135.843 169.915h-5.216V164.7h5.216zM85.427 164.704h2.231v4.039h3.193v1.165h-5.424zM93.722 167.313c0 .974.677 1.576 1.75 1.576s1.702-.656 1.702-1.59c0-.896-.643-1.575-1.714-1.575-1.06 0-1.738.632-1.738 1.59m5.805-.06c0 1.673-1.604 2.74-4.167 2.74-2.574 0-3.993-1.211-3.993-2.658 0-1.512 1.592-2.717 4.13-2.717 2.673 0 4.03 1.24 4.03 2.634M101.968 165.87h-2.121v-1.166h6.509v1.167H104.2v4.037h-2.232zM112.347 167.81h-2.982v.955h3.336v1.144h-5.569v-5.206h5.4v1.138h-3.167v.838h2.982zM116.141 166.958h.58c.837 0 1.32-.262 1.32-.649 0-.395-.408-.608-1.148-.615-.419 0-.641.014-.752.03zm-2.205-2.186c.626-.06 1.576-.107 2.686-.107 1.268 0 2.182.107 2.811.401.53.255.827.628.827 1.138 0 .646-.779 1.11-1.43 1.257v.03c.551.147.848.48 1.06.929.256.532.528 1.288.688 1.488h-2.28c-.124-.152-.333-.556-.577-1.196-.224-.624-.533-.758-1.221-.758h-.359v1.954h-2.205zM123.768 169.908h-2.23v-5.204h2.23zM126.89 164.704h2.23v3.212c0 1.513-1.158 2.079-3.156 2.079-.456 0-1.062-.04-1.48-.126l.25-1.118a6 6 0 0 0 .97.085c.715 0 1.186-.201 1.186-.92zM135.832 151.664h-5.215v-5.213h5.215zM83.7 151.664h-5.212v-5.213H83.7zM84.862 151.685v-5.21h1.851l.867 1.509c.336.58.662 1.289.926 1.969h.024c-.093-.772-.1-1.407-.1-2.117v-1.362h1.364v5.21H88.18l-.955-1.722a23.493 23.493 0 0 1-1.013-2.017h-.032c.041.788.048 1.545.048 2.333v1.407zM93.627 149.351l-.282-.92c-.092-.293-.201-.672-.296-.975h-.014c-.088.303-.166.682-.252.98l-.247.915zm-1.306 1.065l-.333 1.268h-1.553l1.664-5.209h2.012l1.769 5.21h-1.637l-.39-1.269zM96.997 147.665h-1.48v-1.19h4.47v1.19h-1.516v4.02h-1.474zM102.156 151.685h-1.473v-5.21h1.473zM105.817 150.65c.805 0 1.28-.667 1.28-1.561 0-.9-.502-1.578-1.288-1.578-.788 0-1.287.679-1.287 1.578 0 .894.499 1.56 1.287 1.56zm-.078 1.128c-1.732 0-2.788-1.15-2.788-2.652 0-1.59 1.155-2.743 2.88-2.743 1.78 0 2.835 1.135 2.835 2.666 0 1.578-1.117 2.729-2.92 2.729zM109.461 151.685v-5.21h1.85l.866 1.509c.335.58.662 1.289.927 1.969h.025c-.093-.772-.101-1.407-.101-2.117v-1.362h1.365v5.21h-1.616l-.953-1.722a22.745 22.745 0 0 1-1.012-2.017h-.03c.038.788.043 1.545.043 2.333v1.407zM118.226 149.351l-.282-.92c-.094-.293-.204-.672-.297-.975h-.016c-.084.303-.161.682-.25.98l-.247.915zm-1.306 1.065l-.333 1.268h-1.553l1.662-5.209h2.014l1.77 5.21h-1.638l-.39-1.269zM121.197 146.475h1.475v3.99h2.272v1.22h-3.747zM129.277 149.622h-2.14v.888h2.389v1.175h-3.865v-5.21h3.748v1.175h-2.271v.797h2.139zM80.713 157.76c.125.015.272.027.509.027.883 0 1.428-.51 1.428-1.332 0-.706-.421-1.19-1.265-1.19-.338 0-.562.029-.672.058zm-2.226-4.22c.61-.113 1.491-.198 2.774-.198 1.204 0 2.062.239 2.646.748.574.483.956 1.335.956 2.308 0 .965-.284 1.815-.805 2.352-.685.696-1.667.992-2.797.992-.214 0-.411-.015-.548-.03v3.243h-2.226zM87.498 158.2c0 1.785.687 2.889 1.767 2.889 1.08 0 1.714-1.206 1.714-2.919 0-1.643-.644-2.89-1.73-2.89-1.064 0-1.751 1.163-1.751 2.92m5.859-.114c0 3.072-1.618 5.027-4.204 5.027-2.598 0-4.027-2.223-4.027-4.871 0-2.777 1.603-4.987 4.164-4.987 2.697 0 4.067 2.28 4.067 4.831M94.2 160.407c.509.299 1.344.595 2.177.595.77 0 1.143-.296 1.143-.779 0-.467-.372-.735-1.32-1.105-1.416-.567-2.35-1.456-2.35-2.874 0-1.685 1.244-2.988 3.36-2.988 1.006 0 1.714.214 2.272.496l-.473 2.04a3.887 3.887 0 0 0-1.827-.456c-.682 0-1.054.287-1.054.71 0 .481.446.678 1.504 1.133 1.504.624 2.186 1.544 2.186 2.875 0 1.641-1.13 3.058-3.581 3.058-1.005 0-1.988-.312-2.461-.594zM102.155 155.549h-2.138v-2.137h6.565v2.137h-2.177v7.407h-2.25zM113.02 162.716c-.324.169-1.105.397-2.115.397-3.132 0-4.512-2.236-4.512-4.773 0-3.371 2.162-5.084 4.664-5.084.97 0 1.754.213 2.099.425l-.435 2.01a3.669 3.669 0 0 0-1.554-.34c-1.291 0-2.411.866-2.411 2.818 0 1.743.905 2.819 2.45 2.819.547 0 1.155-.127 1.505-.282z"/><path d="M115.344 158.2c0 1.785.683 2.889 1.764 2.889 1.084 0 1.717-1.206 1.717-2.919 0-1.643-.646-2.89-1.729-2.89-1.07 0-1.752 1.163-1.752 2.92m5.857-.114c0 3.072-1.617 5.027-4.204 5.027-2.597 0-4.026-2.223-4.026-4.871 0-2.777 1.602-4.987 4.162-4.987 2.7 0 4.068 2.28 4.068 4.831M124.148 161.044c.109.03.32.03.47.03 1.455.028 2.522-.89 2.522-3.044 0-1.855-.968-2.735-2.311-2.735-.361 0-.572.028-.681.056zm-2.254-7.504c.724-.128 1.68-.198 2.674-.198 1.604 0 2.612.296 3.444.95.92.72 1.517 1.91 1.517 3.664 0 1.942-.647 3.202-1.467 3.924-.922.82-2.288 1.19-3.932 1.19-1.078 0-1.798-.084-2.236-.17zM135.482 159.106h-3.007v1.754h3.368v2.095h-5.62v-9.543h5.446v2.08h-3.194v1.544h3.007zM155.882 151.095c-.777.017-1.227.156-1.468.397-.208.208-.259.465-.259.76 0 .45.139.968.139 1.399 0 .208-.139.725-.139 1.105 0 .259.07.45.276.45 1.451 0 2.987-.969 2.987-2.54 0-.845-.741-1.571-1.536-1.571m.19-5.026c-1.243 0-2.003 1.192-2.003 2.072 0 .106.105.64.105.778 0 .294-.053.64-.053.95 0 .346.068.604.362.604.915 0 3.108-1.14 3.108-2.866 0-.932-.621-1.538-1.518-1.538m.673 4.387c.915.243 1.623.985 1.623 2.21 0 2.487-2.228 3.265-4.266 3.68-.224.05-.45.069-.638.069-1.036 0-1.676-.604-1.676-1.676 0-.172.121-1.054.121-1.243 0-.207-.017-.432-.068-.69a4.22 4.22 0 0 1-.087-.882c0-.413.051-.743.051-1.123 0-.586-.155-.776-.155-1.294 0-.174.138-1.002.138-1.192 0-.604-.275-.83-.275-1.156 0-.07.033-.432.033-.52 0-.743-.31-1-.31-1.606 0-.294.068-.76.465-.76.692 0 1.381.19 1.763.83.414-.346.76-.587 1.138-.76.38-.156.795-.224 1.331-.224 1.83 0 2.865 1.329 2.865 3.073 0 1.244-.897 2.712-2.053 3.264M160.394 154.242c0 .49.366.762.83.762.436 0 .816-.204 1.09-.504.273-.298.273-.532.273-.898v-.804c0-.246 0-.342-.055-.342-.081 0-.177.056-.313.123-.3.15-.628.33-.941.492-.45.257-.884.585-.884 1.157zm2.193-3.338c0-.572-.028-1.09-.763-1.09-.736 0-1.09.422-1.39 1.062-.123.247-.244.464-.516.572-.151.055-.411.15-.587.15-.177 0-.273-.08-.273-.258 0-.736 1.294-1.906 3.12-1.906.464 0 1.104.08 1.47.393.274.232.274.45.274 1.077v3.052c0 .382.026.994.448.994a.556.556 0 0 0 .396-.163c.096-.096.164-.177.232-.177.069 0 .094.096.094.205 0 .313-.842.899-1.456.899-.492 0-.696-.438-.886-.723-.067-.095-.123-.176-.178-.176-.068 0-.353.272-.721.503-.396.246-.899.464-1.457.464-.736 0-1.348-.45-1.348-1.158 0-.954 1.089-1.472 1.974-1.908.354-.15.695-.313 1.063-.49.504-.231.504-.26.504-.708zM166.433 151.667c0-.75-.055-.899-.504-.912-.259-.015-.367-.028-.367-.166 0-.189.204-.202.381-.242.354-.083 1.062-.41 1.39-.75.094-.096.164-.205.286-.205.135 0 .135.123.135.257v.587c0 .164 0 .245.055.245.054 0 .341-.258.681-.502.368-.287.885-.546 1.499-.546.558 0 1.144.191 1.552.668.397.463.45 1.022.45 1.798v2.316c0 .653.015 1.021.599 1.048.164.014.381.028.381.218 0 .136-.108.178-.189.178-.423 0-1.05-.055-1.497-.055-.466 0-.902.055-1.268.055-.111 0-.219-.027-.219-.178 0-.177.19-.19.341-.218.516-.027.516-.367.516-1.048v-2.195c0-.38 0-.87-.204-1.212-.23-.353-.64-.572-1.129-.572-.476 0-.885.19-1.187.504-.341.355-.368.641-.368 1.104v2.37c0 .682 0 1.022.532 1.049.123.014.34.028.34.205 0 .123-.094.19-.217.19-.381 0-.912-.054-1.39-.054-.53 0-.966.055-1.362.055-.083 0-.217-.027-.217-.163 0-.205.204-.219.381-.233.599-.027.599-.367.599-1.212zM174.332 147.865c0-.706-.192-.721-.652-.748-.193-.028-.302-.054-.302-.19 0-.123.122-.178.286-.192.491-.055 1.091-.203 1.527-.45.095-.066.23-.149.327-.149.134 0 .15.068.15.285v5.696c0 .148 0 .314.08.314.083 0 .232-.138.356-.246.531-.422 1.062-.845 1.594-1.266.204-.164.545-.438.545-.655 0-.232-.272-.245-.464-.273-.15 0-.49.013-.49-.231 0-.164.123-.164.326-.164.356.028.776.041 1.197.041.48 0 .968-.013 1.336-.041.246 0 .34 0 .34.177 0 .178-.162.191-.34.206-.598.025-.925.285-1.402.626-.299.231-.654.504-.967.735-.095.081-.313.23-.313.355 0 .109.121.218.218.354.626.816 1.252 1.648 1.866 2.466.381.517.613.736.885.736.177.012.423.04.423.217 0 .164-.136.19-.259.19-.49 0-.981-.054-1.472-.054-.476 0-.981.055-1.47.055-.095 0-.205-.014-.205-.178s.191-.19.312-.204c.164-.014.355-.041.355-.245 0-.15-.19-.395-.285-.53-.356-.493-.708-.982-1.063-1.471-.177-.234-.327-.466-.45-.466s-.653.343-.653.668v1.362c0 .492.218.656.475.668.137.014.41.041.41.205 0 .15-.109.19-.246.19-.435 0-.899-.054-1.321-.054-.476 0-.967.055-1.444.055-.11 0-.23-.027-.23-.163 0-.219.216-.219.394-.233.586-.012.626-.286.626-.899zM185.915 156.561c-.916 0-1.968-.361-2.435-1.173-.327-.57-.363-.727-.899-1.09-.776-.517-.481-1.347-1.122-1.985a.905.905 0 0 1-.24-.621c0-.137.034-.259.085-.363a.575.575 0 0 0 .087-.329c0-.207-.068-.396-.068-.603.033-1.054.38-1.726.932-2.59 1.156-1.814 2.676-2.591 4.645-3.318.19-.068.328-.102.448-.102.208 0 .31.086.31.208 0 .137-.154.328-.465.465-.605.243-1.52.743-1.796.897-1.433.848-1.57 2.04-1.57 3.422 0 1.864.033 2.036.828 3.158.62.864 1.468 2.124 2.384 2.124.656 0 1.312-.932 1.33-2.02.016-1.294-2.436-.949-2.454-1.882-.016-.604 1.416-1.036 2.504-1.036.586 0 1.088.104 1.088 1.468 0 3.765-1.676 5.37-3.592 5.37M191.645 148.37a.782.782 0 0 1-.792-.79c0-.396.273-.804.832-.804.421 0 .775.341.775.777 0 .476-.34.818-.802.818zm-.655 3.311c0-.805-.056-.953-.544-.968-.286-.013-.382-.013-.382-.164 0-.19.192-.202.394-.244.476-.096 1.104-.45 1.459-.736.121-.11.177-.177.285-.177.122 0 .136.083.136.232 0 .204-.014.408-.014.64v3.95c0 .71.014 1.022.6 1.063.162.014.38.014.38.204 0 .138-.107.178-.188.178-.423 0-.94-.055-1.404-.055-.695 0-1.102.055-1.512.055-.11 0-.231-.027-.231-.163 0-.219.217-.219.393-.233.628-.012.628-.286.628-1.103zM194.778 151.749c0-.804-.052-.968-.516-.994-.287-.028-.383-.028-.383-.165 0-.19.15-.203.437-.272.367-.083.992-.408 1.295-.693.163-.15.219-.234.34-.234.164 0 .164.123.164.274v.64c0 .19 0 .26.068.26s.23-.26.461-.479c.262-.259.656-.585 1.187-.585.49 0 .872.314.872.776a.672.672 0 0 1-.695.694c-.258 0-.409-.136-.546-.285-.136-.15-.27-.272-.447-.272-.288 0-.492.259-.643.476-.257.396-.257.723-.257 1.24v2.084c0 .668.013 1.036.693 1.05.192.013.492.013.492.217 0 .137-.124.177-.3.177-.38 0-.938-.055-1.54-.055-.612 0-1.09.055-1.472.055-.109 0-.23-.027-.23-.163 0-.218.217-.218.393-.232.627-.013.627-.353.627-1.212zM202.19 155.4c1.306 0 1.962-1.608 1.962-2.684 0-1.416-.696-2.9-2.056-2.9-1.255 0-2.032 1.156-2.032 2.615 0 1.47.805 2.969 2.11 2.969zm-.094.381c-1.95 0-3.448-1.402-3.448-3.201 0-1.54 1.24-3.147 3.448-3.147 2.381 0 3.487 1.69 3.487 3.119 0 1.787-1.472 3.23-3.475 3.23zM169.735 167.792c0-.328-.227-.672-.227-.984 0-.69.123-1.382.123-2.072 0-.606-.139-1.348-.139-1.95 0-.502.139-1.005.157-1.522.016-.19.016-.398.016-.588 0-.328-.12-1.262-.12-1.642 0-.432.104-.484.535-.76.277-.156 1.088-.405 1.4-.405.516 0 .724.733.724 1.147 0 .657-.156.624-.156 1.28 0 .157.07.294.07.45 0 .276-.157.518-.157.794 0 .258.122.501.122.76a14.898 14.898 0 0 0-.103 1.85c0 1.068.068 2.158.085 2.848 0 .242-.069.466-.069.707 0 .984 4.108.225 4.108 1.003 0 .673-2.053.708-2.605.708-.966 0-2.21.208-3.178.208-.638 0-.897-.175-.897-.796 0-.415.292-.656.31-1zM179.437 168.731c1.306 0 1.96-1.608 1.96-2.684 0-1.416-.695-2.9-2.056-2.9-1.255 0-2.031 1.158-2.031 2.615 0 1.47.805 2.97 2.112 2.97zm-.096.383c-1.947 0-3.447-1.405-3.447-3.203 0-1.54 1.239-3.146 3.447-3.146 2.382 0 3.486 1.689 3.486 3.12 0 1.784-1.472 3.229-3.473 3.229zM185.455 166.975c0 .666.082 1.429.75 1.429.26 0 .476-.108.626-.217.204-.123.302-.218.37-.218.094 0 .132.082.132.136 0 .272-.8 1.008-1.769 1.008-.45 0-.845-.15-1.09-.421-.34-.384-.354-.75-.354-1.623v-3.378c0-.244-.055-.272-.203-.272h-.369c-.164 0-.3-.028-.3-.178 0-.149.095-.19.259-.258.628-.342 1.145-.655 1.526-1.487.067-.163.122-.244.26-.244.148 0 .162.108.162.204v1.13c0 .178.014.287.218.302.38 0 .994-.028 1.39-.028.15 0 .15.095.15.259 0 .3-.04.341-.23.341-.316 0-.71-.028-1.038-.028-.42 0-.49 0-.49.353zM189.01 164.685c0 .164.095.204.422.204.315 0 .656 0 .983-.012.38 0 1.048-.041 1.374-.164.247-.068.422-.219.422-.519 0-.258-.218-1.09-1.347-1.09-1.187 0-1.853 1.078-1.853 1.568zm.437.64c-.464 0-.53 0-.53.383 0 1.402.924 2.642 2.451 2.642.692 0 1.17-.245 1.499-.504.23-.19.353-.328.436-.328.094 0 .15.068.15.15 0 .164-.369.518-.532.656-.6.517-1.294.789-2.236.789-1.946 0-3.214-1.485-3.214-3.133 0-2.18 1.921-3.215 3.514-3.215 1.69 0 2.563 1.103 2.563 2.207 0 .258-.095.353-.275.353zM194.895 165.08c0-.803-.052-.967-.517-.995-.287-.026-.383-.026-.383-.162 0-.19.15-.204.436-.272.37-.083.995-.41 1.295-.696.165-.15.218-.232.34-.232.165 0 .165.124.165.273v.64c0 .19 0 .259.067.259.07 0 .233-.259.465-.478.257-.258.655-.585 1.185-.585.49 0 .87.315.87.776a.673.673 0 0 1-.694.696c-.257 0-.408-.136-.545-.287-.136-.149-.27-.272-.45-.272-.285 0-.489.26-.64.476-.258.395-.258.723-.258 1.242v2.084c0 .668.013 1.034.693 1.048.192.013.494.013.494.217 0 .137-.126.179-.302.179-.382 0-.94-.056-1.538-.056-.614 0-1.091.056-1.474.056-.11 0-.23-.028-.23-.164 0-.219.217-.219.396-.232.625-.014.625-.355.625-1.212zM200.705 161.701a.783.783 0 0 1-.792-.79c0-.396.274-.804.832-.804.424 0 .777.341.777.777 0 .476-.341.817-.804.817zm-.655 3.311c0-.803-.055-.953-.543-.967-.286-.013-.384-.013-.384-.164 0-.19.192-.204.395-.245.477-.095 1.104-.45 1.459-.736.121-.11.176-.177.285-.177.123 0 .137.084.137.232 0 .204-.014.409-.014.64v3.952c0 .708.014 1.021.6 1.062.165.012.38.012.38.203 0 .137-.11.179-.19.179-.422 0-.938-.056-1.402-.056-.696 0-1.103.056-1.512.056-.108 0-.232-.028-.232-.164 0-.218.216-.218.394-.232.627-.014.627-.286.627-1.103zM204.235 161.701a.8.8 0 0 1-.79-.79c0-.396.246-.804.802-.804.437 0 .79.313.79.777 0 .49-.353.817-.79.817zm.68 7.222c0 .734-.054 1.361-.587 1.961-.423.572-1.593 1.376-1.825 1.376-.082 0-.163-.055-.163-.15 0-.123.07-.178.257-.3.696-.545.983-.967.983-2.058v-4.85c0-.693-.053-.843-.547-.87-.23-.015-.366-.015-.366-.164 0-.177.192-.205.422-.259.422-.081 1.05-.422 1.308-.668.176-.134.247-.218.367-.218.15 0 .15.096.15.26zM18.329 147.03c-.292 0-.867.189-1.691.189-.936 0-1.53-.19-1.875-.19-.217 0-.232.118-.232.276v.547c0 .147.059.2.16.217 1.052.172 1.11.318 1.11.548 0 .23-.043.419-.49 1.399l-1.961 4.341-2.135-4.904c-.174-.417-.333-.805-.333-.981 0-.275.116-.33.721-.403.159-.017.215-.089.215-.289v-.49c0-.13-.056-.26-.199-.26-.434 0-1.256.189-2.353.189-1.037 0-1.775-.19-2.179-.19-.142 0-.23.043-.23.146v.677c0 .103.058.2.188.217.634.072.72.203 1.04.908l3.72 8.267c.088.187.19.376.36.376h.968c.189 0 .274-.248.362-.42l3.836-8.381c.19-.404.287-.606.882-.75.172-.042.33-.089.33-.261v-.503c0-.145-.044-.276-.214-.276zm46.053 3.689c-.667 0-1.13-.128-1.276-.128-.07 0-.085.03-.085.078v.471c0 .07.016.139.134.157.552.09.758.168.758.58v3.442l-4.18-4.58c-.076-.11-.127-.148-.244-.148h-.944c-.107 0-.126.078-.126.148v5.582c0 .532-.092.611-.73.719-.056.008-.078.079-.078.145v.356c0 .148.05.204.215.204.207 0 .65-.125 1.075-.125.518 0 .9.125 1.15.125.163 0 .226-.077.226-.204v-.325c0-.076-.022-.159-.16-.176-.608-.09-.756-.187-.756-.719v-3.253l4.118 4.473c.139.155.208.204.454.204h.788c.117 0 .136-.056.136-.186v-5.514c0-.56.106-.666.638-.748.139-.018.166-.116.166-.214v-.344c0-.099-.067-.148-.146-.148-.1 0-.59.128-1.133.128zm-13.048.028v.376c0 .156.07.197.395.236.345.037.424.234.424.617v4.325c0 .375-.07.608-.295.659l-.365.08c-.126.03-.16.056-.16.176v.404c0 .087.045.125.09.125.394 0 1.083-.125 2.42-.125 1.21 0 2.498.07 3.078.125.096-.605.332-1.424.332-1.593 0-.095-.038-.135-.168-.135h-.53c-.117 0-.176.028-.276.352-.145.474-.276.552-.666.552-1.535 0-1.652-.058-1.652-.914v-1.511h1.376c.196 0 .334.045.353.215.05.402.119.432.207.432h.562c.127 0 .175-.07.175-.19 0-.164-.057-.42-.057-.813s.057-.67.057-.875c0-.158-.068-.186-.175-.186h-.553c-.107 0-.136.08-.159.166-.094.452-.125.483-.352.483h-1.434v-2.243h1.142c.292 0 .39.031.579.699.027.107.137.145.224.145h.484c.137 0 .176-.076.176-.196 0-.174-.099-.785-.107-1.473h-.09c-.167 0-.384.01-.687.03-.316.009-.716.029-1.26.029h-.51c-.67 0-1.2-.028-1.613-.067-.402-.03-.678-.061-.828-.061-.116 0-.137.03-.137.156zm-8.06 0v.376c0 .156.07.197.395.236.345.037.42.234.42.617v4.207c0 .632-.01.798-.52.857-.267.03-.295.07-.295.176v.404c0 .087.039.125.09.125.257 0 .715-.125 1.511-.125 1.05 0 1.552.125 2.35.125 2.28 0 3.97-1.345 3.97-3.736 0-2.741-2.456-3.349-3.656-3.349-.461 0-.836.01-1.198.03-.354.009-.696.029-1.083.029-.48 0-.895-.028-1.199-.067-.314-.03-.53-.061-.648-.061-.116 0-.137 0-.137.156zm2.624 5.26v-4.266c0-.206.02-.314.777-.314 1.759 0 2.536 1.081 2.536 2.762 0 1.406-.63 2.792-2.082 2.792-.955 0-1.231-.277-1.231-.974zm-4.264-5.288c-.668 0-1.13-.128-1.279-.128-.07 0-.09.03-.09.078v.471c0 .07.02.139.138.157.55.09.756.168.756.58v3.442l-4.174-4.58c-.08-.11-.128-.148-.246-.148h-.944c-.11 0-.13.078-.13.148v5.582c0 .532-.087.611-.727.719-.059.008-.079.079-.079.145v.356c0 .148.05.204.219.204.207 0 .648-.125 1.07-.125.522 0 .903.125 1.149.125.169 0 .226-.077.226-.204v-.325c0-.076-.02-.159-.158-.176-.608-.09-.756-.187-.756-.719v-3.253l4.118 4.473c.139.155.208.204.454.204h.785c.119 0 .137-.056.137-.186v-5.514c0-.56.11-.666.642-.748.138-.018.165-.116.165-.214v-.344c0-.099-.07-.148-.147-.148-.1 0-.59.128-1.13.128zm-12.82.028v.376c0 .156.07.197.395.236.342.037.422.234.422.617v4.325c0 .375-.072.608-.297.659l-.364.08c-.124.03-.156.056-.156.176v.404c0 .087.04.125.088.125.393 0 1.081-.125 2.419-.125 1.209 0 2.497.07 3.076.125.097-.605.334-1.424.334-1.593 0-.095-.041-.135-.168-.135h-.53c-.118 0-.176.028-.276.352-.148.474-.274.552-.667.552-1.535 0-1.652-.058-1.652-.914v-1.511h1.376c.197 0 .335.045.356.215.048.402.117.432.207.432h.557c.128 0 .179-.07.179-.19 0-.164-.062-.42-.062-.813s.062-.67.062-.875c0-.158-.07-.186-.18-.186h-.548c-.108 0-.14.08-.16.166-.096.452-.124.483-.352.483h-1.435v-2.243h1.141c.294 0 .392.031.578.699.03.107.138.145.228.145h.48c.138 0 .178-.076.178-.196 0-.174-.098-.785-.11-1.473h-.088c-.164 0-.382.01-.688.03-.312.009-.716.029-1.255.029h-.512c-.67 0-1.2-.028-1.613-.067-.403-.03-.676-.061-.827-.061-.117 0-.136.03-.136.156zm-2.375-.028c-.718 0-1.268-.128-1.454-.128-.167 0-.208.018-.208.208v.273c0 .13.04.207.118.225.542.138.639.188.639.718v4.306c0 .532-.097.58-.639.719-.077.017-.118.1-.118.225v.276c0 .186.04.204.208.204.226 0 .805-.125 1.454-.125.658 0 1.19.125 1.455.125.17 0 .207-.018.207-.204v-.276c0-.125-.038-.208-.118-.225-.538-.139-.638-.187-.638-.719v-4.306c0-.53.1-.58.638-.718.08-.018.118-.096.118-.225v-.273c0-.19-.038-.208-.168-.208-.236 0-.827.128-1.494.128zm-9.49.028v.376c0 .156.068.197.393.236.343.037.421.234.421.617v4.345c0 .532-.097.58-.636.719-.08.017-.12.1-.12.225v.276c0 .186.04.204.207.204.224 0 .805-.125 1.455-.125.66 0 1.188.125 1.457.125.164 0 .204-.018.204-.204v-.276c0-.125-.04-.208-.117-.225-.542-.139-.64-.187-.64-.719v-1.632h.364l1.308 1.83c.648.901 1.422 1.433 2.504 1.433.276 0 .74-.007.74-.304 0-.284-.295-.245-.758-.845l-1.986-2.555c.728-.297 1.288-1.003 1.288-1.801 0-.854-.502-1.787-2.34-1.787-.442 0-.767.01-1.04.03-.266.009-.483.029-.72.029-.482 0-.894-.028-1.198-.067-.314-.03-.532-.061-.648-.061-.12 0-.137.03-.137.156zm2.625.944c0-.175.196-.264.421-.264.775 0 1.112.512 1.112 1.248 0 .933-.393 1.248-1.298 1.248h-.235zm18.208 6.742c-.35 0-.2.223-.619.223H32.16c-.222 0-.244-.223-.482-.223h-.41c-.1 0-.17.02-.182.082-.018.1-.338 1.445-.338 1.588 0 .1.08.141.16.141h.45c.16 0 .29-.05.349-.213.161-.427.252-.475.533-.466h1.39v4.875c0 .516-.04.728-.72.78-.131.007-.171.068-.171.19v.334c0 .112.03.203.112.203.21 0 .808-.132 1.7-.132.892 0 1.493.132 1.703.132.08 0 .109-.091.109-.203v-.335c0-.121-.037-.182-.17-.189-.68-.052-.72-.264-.72-.78v-4.875h1.24c.418 0 .489.292.531.507.02.103.11.172.21.172h.432c.088 0 .158-.07.198-.225.039-.17.27-1.374.27-1.466 0-.08-.06-.12-.142-.12zm-15.04 3.834c0 2.424 1.75 3.74 4.104 3.74 2.352 0 4.104-1.519 4.104-3.74 0-2.43-1.752-3.744-4.104-3.744-2.353 0-4.104 1.516-4.104 3.744zm2.081 0c0-1.295.542-2.831 2.023-2.831 1.501 0 2.021 1.321 2.021 2.83 0 1.294-.541 2.831-2.021 2.831-1.501 0-2.023-1.328-2.023-2.83zm-5.193-3.53c-1.145 0-1.97-.192-2.44-.192-.173 0-.204.044-.204.238v.565c0 .236.101.297.587.356.514.059.633.355.633.936v6.528c0 .563-.105.92-.443.995l-.542.117c-.192.047-.235.09-.235.27v.605c0 .136.056.194.13.194.591 0 1.617-.194 3.617-.194 1.804 0 3.14.117 4.464.194.148-.921.557-2.212.557-2.376 0-.234-.175-.353-.323-.353h-.69c-.266 0-.352.101-.498.517-.222.638-.473.878-.87.878h-1.247c-.927 0-1.217-.267-1.217-1.294v-5.992c0-.728.25-.981.6-1.025.617-.076.662-.103.662-.312v-.535c0-.281-.061-.312-.278-.312-.324 0-.984.192-2.263.192zm35.133-.02c-.732 0-1.292-.13-1.48-.13-.172 0-.21.02-.21.212v.281c0 .133.038.212.12.232.55.141.648.195.648.74v4.428c0 .545-.098.596-.648.74-.082.02-.12.099-.12.23v.283c0 .192.038.214.21.214.23 0 .818-.132 1.48-.132.67 0 1.21.132 1.482.132.169 0 .209-.022.209-.214v-.284c0-.13-.04-.209-.121-.229-.55-.144-.648-.195-.648-.74v-4.428c0-.545.098-.599.648-.74.08-.02.12-.099.12-.232v-.281c0-.192-.04-.212-.168-.212-.242 0-.842.13-1.522.13zm-9.77.031v.384c0 .16.072.201.398.243.35.041.432.242.432.636v4.469c0 .545-.101.596-.65.74-.078.02-.122.099-.122.23v.283c0 .192.044.214.21.214.23 0 .82-.132 1.484-.132.669 0 1.209.132 1.48.132.172 0 .209-.022.209-.214v-.284c0-.13-.037-.209-.117-.229-.552-.144-.652-.195-.652-.74v-1.679h.37l1.332 1.882c.66.928 1.45 1.476 2.552 1.476.282 0 .75-.011.75-.316 0-.291-.3-.252-.77-.87l-2.022-2.628c.738-.301 1.312-1.03 1.312-1.848 0-.88-.511-1.841-2.384-1.841-.45 0-.78.01-1.06.03-.27.01-.49.031-.732.031-.491 0-.908-.03-1.22-.072-.32-.03-.54-.058-.66-.058s-.14.028-.14.161zm2.672.972c0-.185.198-.276.429-.276.793 0 1.133.53 1.133 1.285 0 .962-.401 1.284-1.321 1.284h-.241zm-9.03-.972v.384c0 .16.07.201.402.243.348.041.43.242.43.636v4.446c0 .387-.072.63-.298.68l-.374.083c-.128.028-.16.059-.16.181v.414c0 .093.04.132.09.132.402 0 1.102-.132 2.464-.132 1.23 0 2.544.069 3.134.132.099-.628.338-1.467.338-1.638 0-.102-.04-.142-.17-.142h-.538c-.123 0-.183.029-.282.362-.148.486-.278.568-.681.568-1.561 0-1.683-.062-1.683-.938v-1.56h1.402c.2 0 .34.05.36.222.053.416.12.444.21.444h.57c.133 0 .182-.07.182-.19 0-.172-.061-.435-.061-.839s.061-.688.061-.901c0-.163-.068-.191-.181-.191h-.557c-.11 0-.144.079-.162.17-.102.466-.13.497-.362.497h-1.462v-2.304h1.164c.298 0 .399.028.588.717.034.112.14.15.234.15h.49c.138 0 .18-.082.18-.2 0-.183-.101-.81-.113-1.518h-.09c-.169 0-.391.01-.7.03-.32.01-.729.031-1.278.031h-.525c-.678 0-1.22-.03-1.642-.072-.41-.03-.688-.058-.838-.058-.12 0-.142.028-.142.161zm20.332-.021c-.773 0-1.462-.13-1.632-.13-.098 0-.15.092-.15.194v.344c0 .121.03.17.25.19.45.042.61.234.61.688v4.926c0 1.666-.13 1.989-.9 1.989-.171 0-.331-.028-.5-.06v1.155h.23c.67 0 3.012-.73 3.012-3.978v-3.984c0-.544.1-.594.65-.736.082-.02.12-.1.12-.232v-.284c0-.192-.038-.212-.21-.212-.318 0-.79.13-1.48.13z"/><path d="M143.739 139.959h68.586v36.461H143.74zm-141.734 0h68.588v36.461H2.005zm140.4 36.461H71.928v-36.461h70.477zm69.92-37.795H2.005V2.005h210.32zM212.992.672H1.339a.667.667 0 0 0-.667.667v175.748c0 .368.299.666.667.666h211.653c.37 0 .667-.298.667-.666V1.339a.666.666 0 0 0-.667-.667z"/><path d="M30 126.586H12.92c-2.108 0-4.005-1.897-4.005-4.005V57.749c0-2.11 1.897-4.007 4.004-4.007H30c11.07 0 19.924 8.961 19.924 19.924v32.89c0 11.07-8.855 20.03-19.924 20.03zm12.016-52.815c0-6.641-5.27-12.018-11.913-12.018H16.926v56.821h13.073c6.639 0 12.017-5.376 12.017-12.017zM82.707 127.218h-1.054c-11.07 0-20.03-8.96-20.03-20.028V73.033c0-11.067 8.96-19.924 20.03-19.924h1.054c11.068 0 19.923 8.961 19.923 19.924v34.157c0 11.068-8.855 20.028-19.923 20.028zm11.912-54.08c0-6.641-5.272-12.017-11.912-12.017h-1.054c-6.642 0-12.018 5.376-12.018 11.912v34.157c0 6.64 5.376 12.018 12.018 12.018h1.054c6.64 0 11.912-5.378 11.912-12.018zM150.808 126.586h-32.996c-2.11 0-4.007-1.897-4.007-4.005V57.749c0-2.11 1.897-4.007 4.007-4.007h32.996c2.741 0 4.005 2.003 4.005 4.007 0 2.002-1.264 4.004-4.005 4.004h-28.99v23.194h20.132c2.636 0 4.008 2.002 4.008 4.006 0 2.002-1.372 4.005-4.008 4.005h-20.133v25.616h28.99c2.742 0 4.006 2.003 4.006 4.007 0 2.002-1.264 4.005-4.005 4.005M200.88 127.218c-1.582 0-3.9 0-5.48-3.584l-22.982-51.972v51.55c0 2.637-2.003 4.006-4.007 4.006-2.002 0-4.004-1.37-4.004-4.005V57.22c0-2.847 2.318-4.112 4.744-4.112 2.319 0 4.111.528 5.375 3.375l22.876 52.18V57.117c0-2.635 2.108-4.007 4.112-4.007 2.003 0 3.901 1.372 3.901 4.007v65.357c0 3.481-2.214 4.745-4.534 4.745M18.405 42.86h-.384c-4.424 0-8.502-2.833-8.502-7.942 0-1.073.814-1.59 1.632-1.59.814 0 1.63.517 1.63 1.633 0 3.048 2.49 4.637 5.282 4.637h.429c3.348 0 4.852-1.719 4.852-4.767 0-3.52-2.448-4.508-5.11-5.968-4.12-2.233-8.286-3.392-8.286-8.844 0-4.164 3.564-7.342 8.073-7.342h.428c4.122 0 7.815 2.921 7.815 6.87 0 1.074-.73 1.588-1.547 1.588-.773 0-1.588-.514-1.718-1.546-.214-2.103-2.016-3.648-4.636-3.648h-.387c-3.52 0-4.723 2.576-4.723 4.078 0 3.091 2.663 4.122 4.982 5.323 4.292 2.277 8.372 3.693 8.372 9.532 0 4.895-3.05 7.985-8.202 7.985M47.17 16.198h-4.723v25.03c0 1.074-.815 1.631-1.63 1.631s-1.631-.557-1.631-1.63V16.198h-4.723c-1.075 0-1.633-.816-1.633-1.632 0-.815.558-1.63 1.633-1.63H47.17c1.074 0 1.633.815 1.633 1.63 0 .816-.559 1.632-1.633 1.632M58.804 42.86c-.816 0-1.632-.558-1.632-1.631v-26.92c0-1.074.816-1.632 1.632-1.632s1.632.558 1.632 1.632v26.92c0 1.073-.816 1.63-1.632 1.63M79.97 42.86h-.43a8.153 8.153 0 0 1-8.156-8.158v-13.91c0-4.509 3.648-8.115 8.156-8.115h.43a8.111 8.111 0 0 1 8.07 6.998v.26c0 1.03-.772 1.587-1.588 1.587-.73 0-1.416-.472-1.63-1.416-.473-2.319-2.405-4.165-4.853-4.165h-.43c-2.704 0-4.894 2.19-4.894 4.852v13.91a4.893 4.893 0 0 0 4.895 4.895h.43c2.447 0 4.38-1.848 4.851-4.165.215-.99.946-1.418 1.63-1.418.817 0 1.589.56 1.589 1.59v.3c-.601 3.906-3.992 6.954-8.07 6.954M112.125 42.86c-.816 0-1.632-.515-1.632-1.631V28.906H100.32V41.23c0 1.073-.816 1.63-1.63 1.63-.817 0-1.633-.557-1.633-1.63v-26.92c0-1.074.816-1.632 1.632-1.632.815 0 1.63.558 1.63 1.632v11.334h10.175V14.31c0-1.074.816-1.632 1.632-1.632s1.634.558 1.634 1.632v26.92c0 1.116-.818 1.63-1.634 1.63M136.037 16.198h-4.723v25.03c0 1.074-.814 1.631-1.63 1.631-.818 0-1.632-.557-1.632-1.63V16.198h-4.722c-1.074 0-1.633-.816-1.633-1.632 0-.815.559-1.63 1.633-1.63h12.707c1.075 0 1.633.815 1.633 1.63 0 .816-.558 1.632-1.633 1.632M147.63 42.86c-.817 0-1.633-.558-1.633-1.631v-26.92c0-1.074.816-1.632 1.632-1.632.815 0 1.632.558 1.632 1.632v26.92c0 1.073-.817 1.63-1.632 1.63M175.706 42.86c-.643 0-1.59 0-2.233-1.46l-9.359-21.166V41.23c0 1.073-.816 1.63-1.632 1.63-.815 0-1.632-.557-1.632-1.63V14.35c0-1.158.944-1.674 1.933-1.674.944 0 1.674.214 2.19 1.376l9.317 21.25V14.308c0-1.074.857-1.632 1.672-1.632.816 0 1.59.558 1.59 1.632v26.618c0 1.418-.902 1.932-1.846 1.932M196.657 42.86h-.43a8.155 8.155 0 0 1-8.158-8.158V20.835a8.128 8.128 0 0 1 8.158-8.158h.43c4.164 0 7.6 2.962 8.156 6.998v.26c0 1.03-.815 1.587-1.632 1.587-.73 0-1.458-.43-1.631-1.375-.473-2.36-2.105-4.206-4.893-4.206h-.43c-2.708 0-4.896 2.19-4.896 4.852v13.91a4.893 4.893 0 0 0 4.896 4.895h.43a4.895 4.895 0 0 0 4.893-4.896V29.68h-4.508c-1.075 0-1.63-.816-1.63-1.63 0-.818.555-1.634 1.63-1.634h6.139c.86 0 1.632.774 1.632 1.634v6.653a8.153 8.153 0 0 1-8.156 8.157"/></g></svg>