<?xml version="1.0" encoding="UTF-8"?>
<svg width="300px" height="100px" viewBox="0 0 300 100" version="1.1" xmlns="http://www.w3.org/2000/svg" xmlns:xlink="http://www.w3.org/1999/xlink">
    <!-- Generator: Sketch 52 (66869) - http://www.bohemiancoding.com/sketch -->
    <title>Artboard</title>
    <desc>Created with Sketch.</desc>
    <g id="Artboard" stroke="none" stroke-width="1" fill="none" fill-rule="evenodd">
        <g id="energie" transform="translate(1.000000, 40.000000)" fill="#293A7D">
            <path d="M295.916649,7.566 L284.446122,7.566 L284.446122,12.118275 L297.941474,12.118275 L297.941474,9.4603275 C297.941474,7.566 295.916649,7.566 295.916649,7.566" id="Path"></path>
            <path d="M295.916649,0.18385575 L284.446122,0.18385575 L284.446122,4.73564325 L297.941474,4.73564325 L297.941474,2.07808575 C297.941474,0.18385575 295.916649,0.18385575 295.916649,0.18385575" id="Path"></path>
            <path d="M260.022978,16.84215 L260.022978,19.5 L281.565443,19.5 L281.565443,14.947725 L262.047803,14.947725 C262.047803,14.947725 260.022978,14.947725 260.022978,16.84215" id="Path"></path>
            <path d="M260.022978,9.4603275 L260.022978,12.118275 L281.565443,12.118275 L281.565443,7.566 L262.047803,7.566 C262.047803,7.566 260.022978,7.566 260.022978,9.4603275" id="Path"></path>
            <path d="M260.022978,2.078115 L260.022978,4.7356725 L281.565443,4.7356725 L281.565443,0.18385575 L262.047803,0.18385575 C262.047803,0.18385575 260.022978,0.18385575 260.022978,2.07808575" id="Path"></path>
            <path d="M242.175297,11.28075 L229.765417,7.440615 C229.629733,7.4155575 229.494049,7.2345 229.494049,7.079865 L229.494049,3.98775 C229.494049,2.4931725 230.788267,1.2828075 232.385164,1.2828075 L242.039612,1.2828075 C242.206608,1.2828075 242.342293,1.1533275 242.342293,0.9986925 L242.342293,0.17410575 L232.385164,0.17410575 C229.984599,0.17410575 228.05371,1.97785575 228.05371,4.22035575 L228.05371,7.38910575 C228.05371,7.80133575 228.387702,8.24008575 228.794754,8.36829825 L241.215071,12.2079457 C241.382066,12.2596207 241.51775,12.4146457 241.51775,12.5686957 L241.51775,15.6877207 C241.51775,17.1804458 240.223532,18.3923708 238.616197,18.3923708 L228.105896,18.3923708 C227.949337,18.3923708 227.803216,18.5210707 227.803216,18.6751208 L227.803216,19.4999707 L238.616197,19.4999707 C240.995889,19.4999707 242.947652,17.6962207 242.947652,15.4566457 L242.947652,12.2596207 C242.947652,11.8471957 242.592786,11.4084457 242.175297,11.2807207" id="Path"></path>
            <path d="M212.73184,9.270885 C212.460472,9.270885 212.24129,9.0646725 212.24129,8.832135 L212.24129,1.5655575 C212.24129,1.4109225 212.376974,1.2828075 212.54397,1.2828075 L221.060759,1.2828075 C222.668094,1.2828075 223.962312,2.4931725 223.962312,3.98775 L223.962312,6.5645775 C223.962312,8.0590575 222.668094,9.270885 221.060759,9.270885 L212.73184,9.270885 Z M225.392214,6.4614225 L225.392214,4.220385 C225.392214,1.977885 223.440449,0.174135 221.060759,0.174135 L211.604618,0.17410575 C211.166254,0.17410575 210.800951,0.5097885 210.800951,0.92206725 L210.800951,19.4997172 L211.93861,19.4997172 C212.095169,19.4997172 212.24129,19.3719922 212.24129,19.2169672 L212.24129,9.96519225 C212.324788,10.1982172 212.627468,10.3776172 213.013646,10.3776172 L219.818727,10.3776172 L224.04581,19.2423172 C224.097996,19.3983172 224.296303,19.4997172 224.452862,19.4997172 L225.726205,19.4997172 L221.426062,10.4292922 C223.659632,10.4292922 225.392214,8.29140975 225.392214,6.46113975 L225.392214,6.4614225 Z" id="Shape" fill-rule="nonzero"></path>
            <path d="M194.790224,4.193865 L194.790224,15.457065 C194.790224,17.69664 196.721113,19.50039 199.111242,19.50039 L208.358637,19.50039 L208.358637,18.701865 C208.358637,18.52149 208.222953,18.39279 208.024645,18.39279 L199.111242,18.39279 C197.514343,18.39279 196.220126,17.180865 196.220126,15.68814 L196.220126,10.404615 L207.283601,10.404615 C207.450596,10.404615 207.586281,10.275915 207.586281,10.09554 L207.586281,9.244755 L196.992481,9.244755 C196.65849,9.244755 196.35581,9.39939 196.220126,9.605505 L196.220126,3.98814 C196.220126,2.4935625 197.514343,1.2831975 199.111242,1.2831975 L208.024645,1.2831975 C208.222953,1.2831975 208.358637,1.1537175 208.358637,0.97399575 L208.358637,0.1494285 L199.111242,0.1494285 C196.721113,0.1494285 194.790224,1.978236 194.790224,4.194216" id="Path"></path>
            <path d="M190.49008,0.45825 L190.49008,17.849325 L180.720823,1.231425 C180.418143,0.66439425 179.510103,0.1490775 178.821245,0.1490775 L177.005165,0.1490385 C176.83817,0.1490385 176.702486,0.27718275 176.702486,0.4317885 L176.702486,19.4998635 L177.829707,19.4998635 C177.996704,19.4998635 178.132388,19.3721385 178.132388,19.2171135 L178.132388,1.2829635 L178.382881,1.282671 C178.904743,1.282671 179.457917,1.591941 179.729285,2.0557485 L189.884721,19.2420735 C190.051716,19.4994735 190.239587,19.4994735 190.323085,19.4994735 L191.919982,19.4994735 L191.919982,0.1739985 L190.79276,0.17357925 C190.625765,0.17357925 190.49008,0.3017235 190.49008,0.4577235" id="Path"></path>
            <path d="M159.762844,0.4317885 L159.762844,1.2828075 L166.35918,1.2828075 L166.35918,19.4997075 L167.486402,19.4997075 C167.653398,19.4997075 167.799519,19.3719825 167.799519,19.2169575 L167.799519,1.2828075 L174.134924,1.282515 C174.30192,1.282515 174.437604,1.153035 174.437604,0.9984 L174.437604,0.17381325 L160.075961,0.17381325 C159.908965,0.17381325 159.762844,0.27689025 159.762844,0.431496" id="Path"></path>
            <path d="M145.745629,9.270885 C145.463824,9.270885 145.244642,9.0646725 145.244642,8.832135 L145.244642,1.5655575 C145.244642,1.4109225 145.380326,1.2828075 145.547322,1.2828075 L154.074548,1.2828075 C155.671446,1.2828075 156.965663,2.4931725 156.965663,3.98775 L156.965663,6.5645775 C156.965663,8.0590575 155.671446,9.270885 154.074548,9.270885 L145.745629,9.270885 Z M158.406002,6.4614225 L158.406002,4.220385 C158.406002,1.977885 156.443801,0.174135 154.074548,0.174135 L144.60797,0.17410575 C144.169606,0.17410575 143.81474,0.5097885 143.81474,0.92206725 L143.81474,19.4997172 L144.941962,19.4997172 C145.108958,19.4997172 145.244642,19.3719922 145.244642,19.2169672 L145.244642,9.96519225 C145.32814,10.1982172 145.63082,10.3776172 146.016998,10.3776172 L152.832516,10.3776172 L157.049161,19.2423172 C157.111785,19.3983172 157.299655,19.4997172 157.466651,19.4997172 L158.739994,19.4997172 L154.429414,10.4292922 C156.662983,10.4292922 158.406002,8.29140975 158.406002,6.46113975 L158.406002,6.4614225 Z" id="Shape" fill-rule="nonzero"></path>
            <path d="M126.290613,12.7491 L130.455072,1.5405 C130.507258,1.385865 130.674254,1.2828075 130.872562,1.2828075 L133.325313,1.2828075 L137.594144,12.7488075 L126.290613,12.7488075 L126.290613,12.7491 Z M130.507258,0.149175 C130.037582,0.149175 129.547032,0.48345375 129.380036,0.89574225 L122.376647,19.4997172 L123.451683,19.4997172 C123.639553,19.4997172 123.837861,19.3719922 123.890048,19.2169672 L125.873123,13.8573922 L138.011634,13.8573922 L139.99471,19.2169672 C140.057333,19.3719922 140.245203,19.4997172 140.443511,19.4997172 L141.518547,19.4997172 L134.202041,0.14889225 L130.507258,0.14875575 L130.507258,0.149175 Z" id="Shape" fill-rule="nonzero"></path>
            <path d="M121.416421,7.1314425 C121.416421,8.6259225 120.122203,9.83775 118.525306,9.83775 L110.217262,9.83775 C109.945894,9.83775 109.726712,9.631635 109.726712,9.3739425 L109.726712,1.5655575 C109.726712,1.4109225 109.862396,1.2828075 110.029392,1.2828075 L118.525306,1.2828075 C120.122203,1.2828075 121.416421,2.4931725 121.416421,3.98775 L121.416421,7.1314425 Z M122.856761,4.220385 C122.856761,1.977885 120.925871,0.174135 118.525306,0.174135 L109.09004,0.17410575 C108.651676,0.17410575 108.286373,0.5097885 108.286373,0.92206725 L108.286373,19.4997172 L109.424032,19.4997172 C109.591027,19.4997172 109.726712,19.3719922 109.726712,19.2169672 L109.726712,10.5326422 C109.81021,10.7646922 110.11289,10.9450672 110.499068,10.9450672 L118.525306,10.9450672 C120.925871,10.9450672 122.856761,9.14102475 122.856761,6.89988975 L122.856761,4.22010225 L122.856761,4.220385 Z" id="Shape" fill-rule="nonzero"></path>
            <path d="M91.9771404,4.5769425 L91.9771404,15.0250425 C91.9771404,17.4371925 94.0781565,19.3988925 96.6603301,19.3988925 L105.885807,19.3988925 L105.885807,17.4888675 C105.885807,17.2811925 105.697937,17.1056925 105.478755,17.1056925 L96.6603301,17.1056925 C95.5518953,17.1056925 94.649074,16.2642675 94.649074,15.2288175 L94.649074,10.9339425 L104.528966,10.9339425 C104.748148,10.9339425 104.936018,10.7584425 104.936018,10.5507675 L104.936018,8.64162 L95.9255484,8.64162 C95.4172549,8.64162 94.9517536,8.798985 94.649074,9.0691575 L94.649074,4.37385 C94.649074,3.33762 95.5518953,2.4949275 96.6603301,2.4949275 L105.478755,2.4949275 C105.697937,2.4949275 105.885807,2.3194275 105.885807,2.110485 L105.885807,0.20364825 L96.6603301,0.20364825 C94.0781565,0.20364825 91.9771404,2.16476325 91.9771404,4.57720575" id="Path"></path>
            <path d="M88.7134151,0.20335575 L86.4516648,0.20335575 L86.4516648,19.0130557 C86.4516648,19.2226807 86.6395356,19.3981807 86.8628921,19.3981807 L89.1225549,19.3981807 L89.1225549,0.58458075 C89.1225549,0.37704225 88.9357281,0.2029365 88.7134151,0.2029365" id="Path"></path>
            <path d="M83.1399286,8.4894225 L75.8202915,8.4894225 L75.8202915,10.3974 C75.8202915,10.605075 76.0071183,10.780575 76.2294314,10.780575 L81.1255411,10.780575 L81.1255411,15.329925 C81.1255411,16.40535 79.9346518,17.20875 78.8700533,17.20875 L73.2370745,17.20875 C72.1275957,17.20875 71.2247744,16.3644 71.2247744,15.329925 L71.2247744,4.271475 C71.2247744,3.235635 72.1275957,2.3929425 73.2370745,2.3929425 L82.189096,2.3929425 C82.4301962,2.3929425 82.6274601,2.2201725 82.6274601,2.0085 L82.6274601,0.1016925 L73.2370745,0.10168275 C70.6538574,0.10168275 68.5549283,2.06279775 68.5549283,4.47524025 L68.5549283,15.1261403 C68.5549283,17.5373153 70.6538574,19.4999903 73.2370745,19.4999903 L78.8700533,19.4999903 C81.7131577,19.4999903 83.5511555,17.8824653 83.5511555,15.3796403 L83.5511555,8.87249025 C83.5511555,8.66491275 83.3632857,8.48941275 83.1399286,8.48941275" id="Path"></path>
            <g id="Group" transform="translate(51.199805, 0.000000)" fill-rule="nonzero">
                <path d="M3.14648829,8.6413275 C2.89296772,8.6413275 2.6872497,8.4490575 2.6872497,8.2123275 L2.6872497,2.926365 C2.6872497,2.6881725 2.89296772,2.494635 3.14648829,2.494635 L10.1941307,2.494635 C11.3056968,2.494635 12.2064307,3.3373275 12.2064307,4.3735575 L12.2064307,6.7623075 C12.2064307,7.798635 11.3056968,8.6413275 10.1941307,8.6413275 L3.14648829,8.6413275 Z M14.8758594,6.813885 L14.8758594,4.3485 C14.8758594,1.8691725 12.9961124,0.203385 10.1937132,0.203385 L1.65051858,0.20335575 C0.74999345,0.20335575 0.016359801,0.88864425 0.016359801,1.72991325 L0.016359801,19.3988632 L2.27675302,19.3988632 C2.49896188,19.3988632 2.68683221,19.2233632 2.68683221,19.0137382 L2.68683221,10.3294132 C2.9134247,10.7252632 3.43528675,10.9339132 4.20910377,10.9339132 L8.4437011,10.9339132 L12.5650543,19.0654132 C12.6516834,19.2262882 12.8823465,19.3988632 13.1057034,19.3988632 L15.5615861,19.3988632 L11.200907,10.7896132 C13.5367614,10.1987632 14.8758594,8.75293575 14.8758594,6.81414825 L14.8758594,6.813885 Z" id="Shape"></path>
            </g>
            <path d="M34.9950244,4.5769425 L34.9950244,15.0250425 C34.9950244,17.4371925 37.0939536,19.3988925 39.676127,19.3988925 L48.9016038,19.3988925 L48.9016038,17.4888675 C48.9016038,17.2811925 48.7137337,17.1056925 48.4914204,17.1056925 L39.676127,17.1056925 C38.5666483,17.1056925 37.6648708,16.2642675 37.6648708,15.2288175 L37.6648708,10.9339425 L47.5385003,10.9339425 C47.7618573,10.9339425 47.9497275,10.7584425 47.9497275,10.5507675 L47.9497275,8.64162 L38.9413452,8.64162 C38.4340952,8.64162 37.9675506,8.798985 37.6648708,9.0691575 L37.6648708,4.37385 C37.6648708,3.33762 38.5666483,2.4949275 39.676127,2.4949275 L48.4914204,2.4949275 C48.7137337,2.4949275 48.9016038,2.3194275 48.9016038,2.110485 L48.9016038,0.20364825 L39.676127,0.20364825 C37.0939536,0.20364825 34.9950244,2.16476325 34.9950244,4.57720575" id="Path"></path>
            <path d="M29.6104519,0.585 L29.6104519,10.503675 C29.6553321,11.098425 29.6845563,11.681475 29.7148243,12.246 C29.7701417,13.299 29.8254591,14.388075 29.9788865,15.59415 L27.6492944,11.312925 L22.0966824,1.52685 C21.6791927,0.7967115 20.6177253,0.203385 19.733691,0.203385 L16.6327868,0.20335575 C16.4104736,0.20335575 16.2226032,0.3774615 16.2226032,0.585 L16.2226032,19.3986975 L18.4833096,19.3986 C18.7066665,19.3986 18.8924494,19.2231 18.8924494,19.013475 L18.8924494,2.495025 L19.2984581,2.494635 C19.5520831,2.494635 19.8589379,2.6659425 19.9841848,2.8734225 L29.2900287,19.0623225 C29.3818764,19.2397725 29.6522009,19.3986975 29.8567708,19.3986975 L32.2813419,19.3986975 L32.2813419,0.2038725 L30.018548,0.20345325 C29.7972786,0.20345325 29.6104519,0.377559 29.6104519,0.5850975" id="Path"></path>
            <path d="M0,4.5769425 L0,15.0250425 C0,17.4371925 2.10091219,19.3988925 4.68183308,19.3988925 L13.9097107,19.3988925 L13.9097107,17.4888675 C13.9097107,17.2811925 13.7207967,17.1056925 13.4984834,17.1056925 L4.68183308,17.1056925 C3.57402433,17.1056925 2.67193363,16.2642675 2.67193363,15.2288175 L2.67193363,10.9339425 L12.5466071,10.9339425 C12.7689203,10.9339425 12.9557469,10.7584425 12.9557469,10.5507675 L12.9557469,8.64162 L3.9483038,8.64162 C3.44126264,8.64162 2.97461361,8.798985 2.67193363,9.0691575 L2.67193363,4.37385 C2.67193363,3.33762 3.57402433,2.4949275 4.68183308,2.4949275 L13.4984834,2.4949275 C13.7207967,2.4949275 13.9097107,2.3194275 13.9097107,2.110485 L13.9097107,0.20364825 L4.68183308,0.20364825 C2.10091219,0.20364825 0,2.16476325 0,4.57720575" id="Path"></path>
        </g>
    </g>
</svg>