<?xml version="1.0" encoding="UTF-8"?>
<svg width="300px" height="100px" viewBox="0 0 300 100" version="1.1" xmlns="http://www.w3.org/2000/svg" xmlns:xlink="http://www.w3.org/1999/xlink">
    <!-- Generator: Sketch 52 (66869) - http://www.bohemiancoding.com/sketch -->
    <title>Artboard</title>
    <desc>Created with Sketch.</desc>
    <g id="Artboard" stroke="none" stroke-width="1" fill="none" fill-rule="evenodd">
        <g id="ilumy" transform="translate(50.000000, 30.000000)" fill="#293A7D">
            <polygon id="Shape" points="9.41176471 38.8235294 0 38.8235294 0 0 9.41176471 0"></polygon>
            <polygon id="Shape_1_" points="55.2941176 38.8235294 25.8823529 38.8235294 25.8823529 0 35.6470588 0 35.6470588 31.6470588 55.2941176 31.6470588"></polygon>
            <path d="M98.8235294,21.5294118 C98.8235294,23.0588235 98.7058824,24.7058824 98.5882353,25.8823529 C98.3529412,28.8235294 97.0588235,31.6470588 95.5294118,33.6470588 C93.4117647,36.2352941 89.5294118,38.5882353 85.8823529,39.4117647 C83.8823529,39.7647059 81.6470588,40 79.2941176,40 C74.3529412,40 70.8235294,39.1764706 67.5294118,37.0588235 C65.7647059,35.8823529 64.2352941,34.4705882 63.0588235,32.9411765 C60.9411765,30 60.1176471,26.7058824 60.1176471,21.7647059 L60.1176471,0 L69.8823529,0 L69.8823529,19.5294118 C69.8823529,23.4117647 70.2352941,25.4117647 71.1764706,27.1764706 C72.7058824,30.2352941 75.8823529,32 79.6470588,32 C84.2352941,32 88.1176471,29.0588235 88.9411765,24.8235294 C89.0588235,24 89.1764706,23.1764706 89.1764706,22.3529412 L89.1764706,19.5294118 L89.1764706,0 L98.8235294,0 L98.8235294,21.5294118 Z" id="Shape_2_"></path>
            <polygon id="Shape_3_" points="154.117647 38.8235294 144.235294 38.8235294 144.235294 15.0588235 144.117647 15.0588235 133.647059 27.6470588 132.235294 27.6470588 121.764706 15.0588235 121.647059 15.0588235 121.647059 38.8235294 111.764706 38.8235294 111.764706 0 120.470588 0 132.941176 14.7058824 145.529412 0 154.117647 0"></polygon>
            <polygon id="Shape_4_" points="184.823529 20.7058824 184.823529 38.8235294 175.176471 38.8235294 175.176471 20.7058824 160 0 171.529412 0 180 12.2352941 188.470588 0 200 0"></polygon>
        </g>
    </g>
</svg>