<svg xmlns="http://www.w3.org/2000/svg" width="150" height="150" viewBox="0 0 175 45" overflow="visible"><g clip-rule="evenodd" fill-rule="evenodd"><g fill="#293a7d"><path d="M-.036 12.46c1.332 0 2.26.28 2.837.857.645.644.934 1.708.934 3.45V38.52c0 3.01-.632 4.353-4.36 4.353h-.511v1.335h16.754V42.88l-.505-.006c-3.693-.044-4.316-1.38-4.316-4.353V16.766c0-1.736.288-2.796.933-3.44.582-.584 1.526-.868 2.886-.868h1.001v-1.354H-1.136v1.354h1.1zM53.55 33.111s-.29-1.358-.333-2.118v-9.936c-.065-5.794.726-8.679-4.345-8.657V11.1h11.666V12.4c-5.223-.02-4.566 2.864-4.596 8.657v23.2l-1.66-.017L29.09 17.905s.283 1.356.325 2.117v16.27c-.143 5.936.593 6.654 4.42 6.584v1.356h-12.16v-1.356c3.832.004 4.586-.505 4.581-7.067v.392-16.035l-.03-2.545c.142-3.294-1.076-5.205-4.794-5.174v-1.303H32.63l20.92 21.967zM95.78 10.467h-1.286l-.06.44c-.087.656-.346 1.755-1.095 1.755-.214 0-.746-.1-1.345-.374-2.604-1.127-5.979-1.821-8.82-1.821-5.528 0-10.542 1.978-14.125 5.572-3.29 3.302-5.09 7.796-5.064 12.653.023 4.652 1.854 8.48 5.602 11.705C73.363 43.624 77.593 45 83.741 45c5.12 0 8.053-.735 12.552-3.147l.787-.427v-8.68c0-3.7.454-4.276 3.468-4.398l.49-.019v-1.29H86.315v1.29l.49.02c3.357.13 3.99.73 3.99 3.79v8.044c-2.49 1.64-4.3 2.264-6.582 2.264-3.377 0-6.383-1.304-8.69-3.607-2.703-2.702-4.022-6.637-4.022-11.084 0-4.79 1.277-8.877 3.907-11.503 2.095-2.092 4.876-3.254 8.049-3.254 2.834 0 6.126 1.215 8.384 3.004 1.837 1.502 2.789 2.955 3.508 5.357l.11.363h1.256l-.936-11.256z"/></g><path d="M160.264 44.12c.818-.125 1.687-.106 2.34-.705 2.765.425 5.568-.258 7.742-1.78a16.178 16.178 0 0 0 3.013-3.164c.734-1.03 1.314-1.99 1.689-3.144.28-.712.501-1.452.668-2.212.789-3.585.374-7.595-.794-11.004a19.523 19.523 0 0 0-.724-1.831c-1.458-3.01-3.442-6.258-6.498-8.162-1.721-1.072-3.306-2.731-4.278-4.448-.529-.476-1.036-1.106-1.72-1.22.188.309.394.61.444.97l-.04.052c-.725.02-1.294-.363-1.79-.827l.547-.496c-.207-.105-.443-.145-.672-.198-2.09-.237-3.81.726-5.664 1.19l-.028.103c1.138.506 1.376 1.76 2.039 2.607.163-.197.443-.053.672-.07.331.018.642.257.963.173.01-.276-.146-.496-.196-.744.196-.093.434-.011.653 0 .6.35 1.56-.062 1.934.744-.683.043-1.325.187-1.967.342.043.259.301.465.28.724a6.495 6.495 0 0 0-1.74-.443l-.03.092c.776.91 1.842 1.449 2.93 1.768 1.564.361 2.94-.382 4.45-.124 3.709 1.697 6.876 5.577 8.253 9.259.068.177.133.356.194.538 1.154 3.363 1.373 7.496.217 11.003-.615 1.46-1.293 2.836-2.378 4.022-.41.505-.864.955-1.357 1.335-1.555 1.209-3.47 1.743-5.446 1.201-.124-.085-.373-.106-.331-.321.068-.289.133-.58.189-.88a21.79 21.79 0 0 0 .39-5.217l-.006-.227c-.11-2.567-.622-4.874-1.566-7.095-.606-1.274-1.325-2.663-2.23-3.91-1.083-1.486-2.425-2.77-4.148-3.41-1.057-.28-2.361-.334-3.158.545-.57.498-.806 1.17-.724 1.905-.89.564-1.892.868-2.982.96-.266.024-.54.122-.817.119-.264.012-.52 0-.772-.03-1.311-.161-2.638-.869-3.646-1.675-.02-.539-.052-1.045-.073-1.614-.577-.3-1.056-.868-1.096-1.541l.05-.051c.334.102.622.267.922.443-.135-.807-.29-1.603-.692-2.307-.374-.155-.747-.28-1.098-.466-.403-.266-.663-.755-.723-1.198.362.352.992.228 1.272.6-.488-1.439-.495-3.083-1.294-4.397-.404-.971-1.46-1.417-2.185-2.13-.28-.342-.393-.817-.9-.87-.414-.103-.445-.567-.517-.869.258.031.474.207.691.248-.6-1.59-1.128-3.361-2.752-4.374l-.279.176c-.632.093-1.305.135-1.936.156.28-.413.776-.59 1.17-.778-.456-.34-.831-.422-1.401-.515-.331.33-.93.496-1.354.59l-.053-.043c-.011-.372-.096-.826.465-.92-.538-.259-1.431-.154-1.98 0-.154.403-.598.766-.566 1.243-.32.33-.548.776-.88 1.013-.01-.796.329-1.53.474-2.202-.466.176-.94.424-1.396.64-.734-.423-1.508-.847-2.295-1.168-.07-.031-.228-.061-.197.073.674.485.413 1.396.485 2.087l-.425-.35c-.207-.527-.804-.91-.907-1.489-.705.135-1.155.32-1.808.6l-.09.052c.486 0 .9.382 1.138.766-.735.04-1.388-.249-2.112-.323-.072-.07-.135-.155-.249-.144-.362.134-.674.392-.992.64-.715.705-1.44 1.48-1.781 2.412.238.04.538.03.714.175-.393.237-.734.642-1.117.868-.135.538-.114 1.15-.146 1.739-.301.456-.704.857-.9 1.367-.642 2.075-.807 4.383-.714 6.74-.208.198-.478.323-.673.478l.021 2.109h.051c.093-.444.622-.691.943-.992h.104c-.052.476-.114.952-.124 1.438l-.6.496c-.602.529-.094 1.324-.145 1.987.042.174.07.433.196.475.073-.258.3-.444.446-.673.258-.06.485-.27.723-.298a11.18 11.18 0 0 1-.517 1.52c-.1.065-.216.152-.316.258a.752.752 0 0 0-.213.383c.468 2.45 1.2 4.87 2.038 7.176-.568.963-.891 2.095-1.365 3.089-.068.138-.129.28-.185.424-.476 1.203-.621 2.547-1.213 3.702a4.363 4.363 0 0 0-.765-.403c-1.12-.372-2.414-.135-3.23.725-.726-.135-1.472-.011-2.042.372-.408.304-.723.674-.905 1.105-.124.301-.18.628-.161.985-.465.32-.714.815-.869 1.313-.217 1.116.176 2.279.818 3.138h51.605z" fill="#fff"/><path d="M153.41 20.864c-.01.269-.207.57-.03.797.248-.28.663-.27.994-.392.92-.083 1.8.206 2.66.414-.217-.342-.363-.722-.6-1.034-.478-.124-1.202.207-1.284-.496-.29-.249-.748-.07-1.045-.053a2.347 2.347 0 0 0-.695.764zM121.768 11.935a.04.04 0 0 0-.015-.01c0 .001 0 .006.002.01h.013zM125.532 21.128l.622-.6c.053 0 .092.012.123.054l-.052 1.147c.3.28.673.372 1.066.393.032-.31.27-.527.405-.797.114-.216.042-.538.269-.694l.07.073c.074.34.055.724.23 1.024.021.164.051.372.071.517.456.022.869-.104 1.222-.269-.021-.392.115-.714.174-1.076.096-.125-.114-.352.146-.34.145.309.404.63.55.96.599-.61.848-1.406.993-2.232-.175-.24-.445-.24-.653-.394-1.76-.569-4.018-.684-5.716.196-.11.705.035 1.48.48 2.038zM109.08 40.535c-.064.798 0 1.545.049 2.331.167.259.468.56.766.58l.054-.528c.123-.736-.27-1.516.145-2.136.29.093.577.237.828.372.122-.683-.052-1.478-.704-1.892l-1.139 1.273zM111.635 39.42c-.404 1.21-.705 2.703-.216 3.975.278-.184.569-.361.815-.62-.05-.973-.184-2.012.394-2.819.507.156.85.642 1.046 1.119.343-.437.456-1.036.322-1.616.02-.453-.5-.35-.747-.537.084-.382.072-.826.477-1.042l-1.243.124c-.32.453-.671.9-.848 1.416zM114.192 42.99c.054.096 0 .26.104.28.156-.867.86-1.43 1.244-2.195.185-.259.174-.621.474-.818.405 0 .695.29 1.09.321.123.093-.065.175-.074.278-.082.705-.352 1.288-.3 2.011h.071c.549-.577.922-1.204 1.325-1.866l.071-.588c.093-.704-.672-1.158-1.17-1.448l.446-.57-.621-.217c-.726.073-1.378.373-1.885.943-.63 1.157-.733 2.464-.775 3.87zM116.978 36.853c.238.073.455-.124.691-.02.954.35 1.949.713 2.662 1.51l.85 2.16.425-1.332-.28-.725c-.238-.518-.89-.476-1.337-.497-.184-.206.011-.445.074-.64.216-.734-.684-.695-1.046-.992.022-.445-.518-.29-.819-.332l-.103-.124c-.06-.093-.215-.093-.3-.021-.022-.03-.061-.051-.04-.104l-.23.053c-.32.28-.537.64-.547 1.064zM117.578 34.476a.656.656 0 0 0 .216.35c.467-.123.91-.443 1.45-.248.694.61 1.418 1.25 2.259 1.583l.298-.053c.187.064.393.073.518.28.115.28-.174.445-.269.672.467.341.28.952.571 1.365l.746-.993c-.175-.435.01-1.179-.674-1.22a.654.654 0 0 1-.373-.601c-.443-.403-.992-.578-1.439-.991-.362-.29-.579-.736-1.045-.839-.32-.175-.67-.269-1.044-.35-.697-.103-.757.722-1.214 1.045zM118.571 32.438l.125.197c.517-.032.985-.259 1.492-.249.341.208.787.198 1.138.373.28.382.58.816.992 1.076.84.123 1.305 1.023 1.595 1.684v-.32c.124-.443-.01-.962-.177-1.364-.207-.208-.506-.344-.723-.53-.042-.133-.011-.196.03-.32-.321-.341-.797-.528-1.19-.795-.548-.797-1.605-.58-2.443-.797l-.839 1.045zM118.554 24.85c.092.322.205.726.266 1.066.29-.641.862-.928 1.368-1.457-.29-.197-.651-.29-.972-.352v-.019c-.228.227-.58.454-.662.763zM120.435 28.253l.466-.475c.467-.475.85-1.024.921-1.634-.33-.197-.765-.063-1.086.05-.116.675-.29 1.336-.3 2.06zM120.776 29.712c.716.042 1.408.185 1.989-.216l.579-1.863c-.185-.01-.373-.093-.548-.03-.382.848-1.15 1.685-2.02 2.109zM120.986 23.113c.466.684 1.242 1.45 2.04 1.665-.093-.868-.837-1.469-1.221-2.213l-.022-.248c-.3-.291-.663-.486-.974-.642-.05.498.085.974.177 1.438zM123.51 29.795c.55.095 1.139 0 1.646-.157.736-.174 1.14-.981 1.388-1.611h-.921l-.995.971c-.392.208-.767.52-1.117.797zM123.399 22.173c.156.807.496 1.54.963 2.234l.124-1.541-1.087-.693zM126.793 26.196c.062-.518-.154-1.117-.214-1.644-.312-.208-.747-.187-1.067-.392.02.817.66 1.508 1.281 2.036zM125.85 31.451c.653-.207 1.284-.435 1.883-.767.383-.545.964-1.045 1.046-1.685-.476.134-.89-.02-1.334.198-.27.485-.436 1.034-.953 1.385-.082.35-.466.59-.642.87zM126.864 32.723l.776 1.013c.415.134.933.092 1.295-.145l-.28-.92c-.548.208-1.2.144-1.791.052zM128.16 25.399l.299 1.366c.724-.59.87-1.45.853-2.359-.415.476-.657.766-1.153.993zM130.198 27.81a.992.992 0 0 0 .177.538c.807.289.89 1.271 1.636 1.644.486.216 1.044-.053 1.47-.25-.321-.36-.685-.611-.994-.993-.218-.092-.436-.227-.425-.496l-1.864-.443zM130.84 32.691c.353.404.828.61 1.325.723-.082-.114.053 0 .073-.072l-.623-1.362c-.31.007-.63.07-.92.05.02.226.073.452.145.661zM131.938 26.32c-.29-.673-.412-1.49-.494-2.233-.311.371-.632.61-.922.991-.135.766.96.954 1.416 1.241zM133.2 25.618c.373.485 1.19.319 1.649.174-.22-.372-.92-.589-1.044-.992a8.91 8.91 0 0 0-.446-2.058c-.363.879-.8 1.924-.158 2.876zM133.852 27.81c1.037.756 2.05 1.633 3.5 1.313.103-.073.28-.063.3-.197-.426-.27-.88-.476-1.315-.722l-.496-.725h-.228c-.56.186-1.161.257-1.76.331zM133.874 36.198h.071c.623-.496 1.357-.662 2.092-.87.198.072.073.29.249.374.446-.187.985-.145 1.44-.3.55.021.995.031 1.439.269.35.464 1.014.414 1.47.722l-.072-.722c-.963-1.129-2.465-1.211-3.85-1.19l-.032-.145c-.33 0-.703.073-1.013.219-.445.018-.87.237-1.296.37-.198.394-.353.868-.498 1.273zM134.705 23.487c.404.528 1.004.93 1.687.797-.35-.342-.755-.705-.776-1.19.104-.921-.91-.993-1.408-1.47.164.622.145 1.314.497 1.863zM134.6 38.029h.12c.55-.344 1.348-.084 1.887-.446.3-.156.32.258.529.372.506.31.568 1.24 1.283 1.024.858.445.642 1.491.673 2.256l.797-.496c-.073-.404.154-.892-.105-1.242-.196-.444-.733-.486-.992-.848.31-.528-.393-.775-.539-1.158l.042-.053 1.095.145c.375.227.508.642.623 1.024.86.145 1.067 1.116 1.367 1.737.176-.424.248-.88.425-1.292.01-.342-.446-.342-.672-.496-.065-.527-.301-1.025-.766-1.345-.954-.237-1.791-.766-2.836-.766l-.871.27c-.477.114-.984-.03-1.345.298-.541.041-.582.633-.715 1.016zM135.147 33.767l.198.092c.422-.197.848-.424 1.294-.59.692-.196 1.231.59 1.812.094.217-.156.402.072.569.197.249.455.828.424 1.263.548-.217-.589-.486-1.397-1.242-1.492-.3-.134-.653-.12-.943-.298-.796-.879-1.314.723-2.185.33-.31.344-.692.663-.766 1.119z" fill="#fff"/><path d="M135.345 38.804c.33.277.671.754 1.188.691.645.301.375 1.148.727 1.593l.371-.332-.03-.02.052-.051.022.03c.103-.311-.043-.86-.219-1.22-.237-.164-.517.01-.744-.145-.032-.33-.24-.497-.477-.703-.166-.124-.384.042-.57.03l-.32.127zM136.639 26.196c.342.57 1.003.921 1.532 1.313a2.463 2.463 0 0 0 1.47.145 9.433 9.433 0 0 1-1.221-1.21c-.145-.208-.177-.465-.373-.652-.489.094-1.035.084-1.408.404zM137.21 22.495c.478.587 1.212.351 1.885.37v-.07l-1.036-.87c-.29.093-.6.35-.85.57zM118.15 12.74l.6 1.863c-.01-1.055.476-1.934.373-3.01l.446-.662-.944.29c-.248.474-.453.952-.474 1.52zM118.554 9.514l.817-.476v-1.21c-.342.207-.53.559-.797.838l-.02.848z" fill="#fff"/><path d="M135.347 11.397c-.198.259-.497.32-.745.372.434-.796.642-1.905.299-2.804.229-.082.478-.122.695-.248l-.022-.02.57-.498c.756-.517.466-1.499.746-2.232-.373-.58-.486-1.283-1.026-1.77l.033-.02c-.426-.538-1.192-.477-1.774-.746-.765-.258-1.355.269-1.904.623-.238.04-.093.35-.352.34-.144.383-.321.797-.424 1.22-1.026-.146-2.132-.03-2.95.548-.437-.32-.964-.382-1.472-.527-.372-.072-.797.063-1.064-.146-.393-.443-.478-1.25-1.152-1.364-.237-.082-.288-.34-.288-.569-.445-.071-.84-.277-1.275-.372-.66-.3-1.188.177-1.686.496-.217.094-.466.124-.672.25-.372.578-.725 1.168-.963 1.808.073.527.3.993.57 1.438.238.673.983 1.2 1.615 1.47a6.089 6.089 0 0 0 0 3.278s-.018.012-.018.01c0 .002-.033.029-.033.029-.1 0-.205.02-.287-.029h-.013c.145.988.61 1.852 1.363 2.594.27.095.208.414.323.622.07.092.08.288.05.371a8.127 8.127 0 0 0-4.348 1.086c-.33.165-.185.622-.216.941.91-.599 1.894-1.044 2.98-1.24.466-.03.994-.145 1.44-.02l.052.889c-1.231.64-2.578 1.013-3.634 2.069.02.319-.04.692.053.962l.942-.767c.91-.69 1.862-1.282 2.909-1.664.28.331.57.683.943.888a7.027 7.027 0 0 1 2.04-.888c.383-.228.992-.021 1.24-.475l.178-.942c-.032-.02-.051-.06-.104-.05-.486-.28-.807-.764-.766-1.335-.165.082-.35.135-.549.145-.166-.042-.32-.082-.392-.248-.011-.208-.115-.518.091-.672.673-.415 1.544-.436 2.393-.372.63.082 1.544.05 1.76.797-.03.217-.01.454-.227.599-.228.124-.486-.011-.695-.103-.164.506-.444 1.077-1.015 1.24l.074.601c.071.27.092.713.518.62.984.238 1.852.745 2.712 1.293.29-.29.517-.622.723-.92 1.532.516 2.859 1.664 4.121 2.73l.053-.87c-1.201-1.065-2.538-1.82-3.925-2.41.053-.28.115-.549.124-.847 1.647.092 3.208.599 4.567 1.397l-.022-.745c-1.429-.765-2.992-1.272-4.701-1.293a.521.521 0 0 1-.07-.322c.828-.134 1.416-.992 1.616-1.738.422-.485 1.035-1.013.89-1.736l.06-.185c.056-.182.103-.371.04-.539z" fill="#fff"/><path d="M136.787 14.055l.849-.27.091-.475c.24-.693-.266-1.21-.517-1.76l-.423 2.505zM138.928 17.334c.404.443.797 1.158 1.513.939-.053-.298-.219-.546-.322-.816-.188-.218-.249-.838-.621-.62-.28-.186-.351-.498-.53-.745-.08.382-.03.858-.04 1.242zM139.074 20.362c.156.218.198.498.35.694.28.184.695.156 1.036.123.31-.071.508.269.798.071-.361-.226-.578-.64-.922-.94-.405-.32-.837-.04-1.262.052zM139.623 25.172c.713.425 1.622.839 2.575.694.103-.053.28-.042.3-.167-.59-.207-1.21-.796-1.829-.92-.343-.527-.788.135-1.222.093.01.124.133.218.176.3zM141.774 34.304l.156.332c.156 1.077.838 2.068.465 3.247.31.217.405.578.6.868h.053c.237-.899.073-1.83-.052-2.731.093-.817-.736-1.293-1.222-1.716zM141.952 23.713c.54.415 1.399.456 2.018.25-.393-.217-.826-.455-1.15-.746l-.868.496zM144.507 26.89c-.053.435.238.796.548 1.013.114-.259.3-.475.32-.765a1.89 1.89 0 0 0-.744-1.147c-.073.289-.155.566-.124.899zM144.539 31.604c-.073.485.464.55.692.818.187.226-.124.382-.124.599.393.506.621 1.086.621 1.759.156-.63.394-1.232.48-1.883-.043-.454-.766-.361-.654-.868.206-.517-.042-1.024-.177-1.488-.042-.074-.135-.219-.215-.177-.19.424-.655.723-.623 1.24zM145.957 29.143l.538 1.044c.239-.029.391-.258.578-.422.146-.435-.238-.715-.35-1.066-.095-.25 0-.58-.177-.797-.134-.082-.291-.217-.446-.177l-.143 1.418zM146.65 26.393c.424.258.91.63 1.137 1.084.364 1.056.944 2.007 1.367 3.03.156.715.28 1.351.477 2.055.073.183.031.546.322.516.082-.786.238-1.54.248-2.358-.258-.34-.602-.485-.922-.694v-.07c.042-.178.187-.384.405-.351.092-.106.372-.208.25-.394-.54-.537-.509-1.464-1.37-1.63-.298-.125-.372-.434-.401-.724-.405-.339-1.007-.456-1.513-.464zM147.145 31.998c.529.484.344 1.188.301 1.84-.082.394.415.166.571.373.32.476.134 1.17.019 1.686.28-.425.602-.798.818-1.262-.01-.177.216-.258.208-.475.092-.3-.258-.166-.403-.199-.124-.03-.26-.114-.22-.278.27-.519.023-1.139-.081-1.655-.124-.425.053-.992-.145-1.365-.331.456-1.316.56-1.068 1.335zM148.109 24.654c.922.932 1.595 1.866 2.589 2.767.022-.401-.031-.776-.052-1.17-.147-.276-.415-.484-.643-.69-.734-.074-1.118-1.062-1.894-.907zM150.522 29.584c.02.093.063.174.103.268.403.663.786 1.344 1.067 2.058-.083-.764.436-1.717-.249-2.305-.093-.249-.404-.166-.6-.146l-.321.125zM153.006 37.14c.291.13.663-.107.943-.27.259-.063.477.082.674.216.081.165 0 .32.028.476.623.175 1.233.403 1.783.764l.173-.174c.042-.446-.308-.764-.64-1.013-.217-.127-.54-.053-.693-.25.103-.164.103-.413.092-.6-.343 0-.56-.103-.84-.27-.173-.05-.33-.195-.475 0-.517.353-.548.87-1.045 1.12zM153.732 24.123c.258-.07.529-.145.746-.33.691-.631 1.697-.208 2.503-.218a5.582 5.582 0 0 0-.568-.796c-.29-.114-.56-.25-.891-.25-.705-.411-1.18.28-1.72.62-.143.283-.215.695-.07.974zM153.752 26.252c0-.029 0-.062.03-.07.094.082-.01.278.146.319.269-.133.518-.32.765-.494.695 0 1.109-.672 1.79-.672 1.139.205 2.27.433 3.262.99-.071-.671-.652-1.281-1.24-1.583-.333-.114-.592.064-.83.249-.695.436-.33-.63-.818-.652-.631.199-1.284.414-1.987.354-.414.153-.705.534-1.17.495-.021.341-.073.756.052 1.064zM154.229 28.56c.215.227.577.185.89.227l.9-.35c.01-.166-.27-.21-.208-.393.249-.28.592-.084.9-.199.437-.06.882-.495 1.315-.174-.01.05.022.125-.02.174-.136.322.094.518.341.641.508.095.984.56 1.492.352-.051-.423-.165-.816-.27-1.22-.424-.073-.724-.425-1.118-.57-.177.165-.403.29-.621.27-.798-.186-1.75-.683-2.557-.175-.29.35-.809.247-1.201.4.022.355.062.696.157 1.017zM154.57 34.707c-.064.176-.238.466.081.548.664.022 1.513-.32 2.032.197.174.136.091.413.081.59l.869.725c.084-.435.238-.829.249-1.295-.071-.33-.238-.652-.527-.869-.57 0-.903-.666-1.513-.581-.32-.074-.599.21-.922.21-.145.145-.227.321-.35.475zM154.818 29.832c.134.278.291.734.55.765.61-.268 1.5-.435 2.184-.145.228.041.228.3.177.467.35.206.777.37 1.148.599l-.103-.62c-.022-.673-.87-.736-.922-1.4-.694-.226-1.47-.298-2.205-.122-.24.218-.58.187-.87.25-.02.082.03.132.041.206zM154.995 33.183c.404-.114.66-.56 1.097-.599.662.011 1.253.278 1.666.848.25.164.198.59.518.59-.093-.508.073-.974.053-1.49-.437-.724-1.51-.167-1.915-1.014l-.766.05c-.549.135-.403.777-.478 1.212-.062.135-.186.237-.175.403zM158.792 37.706c.322.641 1.028 1.129 1.099 1.864.166-.198.28-.425.394-.641-.012-.208-.25-.208-.344-.373-.093-.268.053-.506.094-.746-.134-.383-.456-.745-.818-.971l-.425.867zM160.069 36.073l.744 1.013c.32-.507.32-1.25.196-1.863-.07-.114-.207-.3-.393-.216-.28.29-.32.733-.547 1.066zM157.033 7.763c.27.135.529.26.849.279.219-.113.499-.196.767-.124.383.249.849-.052 1.293-.03-.392-.372-.839-.6-1.293-.816-.58.122-1.045.535-1.616.691zM161.083 8.736c.547.05.94.536 1.313.943.467.07.82.4 1.098.743l-.176-.549c-.124-.55-.466-.973-.816-1.406-.497.031-.986.072-1.419.269z" fill="#fff"/><path d="M122.445 4.197l.3.031c.809.404 2.113.61 2.185 1.778-.815.322-1.603.757-2.255 1.417-.496-.507-1.502-.228-1.667-1.116.156-.838.455-1.89 1.437-2.11zM123.224 9.442c.94-.082 1.852.05 2.827-.03.238.102.485.31.6.547-.032 1.116-.374 2.183-.426 3.33-.423.178-.838.528-.941.993-.384.113-.726.343-1.099.517-.165-.35-.134-.879.158-1.167.402-.57 1.449-.436 1.364-1.335.27-.436.01-.994.022-1.45-.104-.34-.207.115-.373.104-.33.07-.673.092-.961-.071-.22-.23-.488-.415-.55-.725-.29-.145-.63-.372-.776-.673l.155-.04zM124.362 16.185c.443.061.91-.134 1.294.082-.083.145-.3.207-.476.249l-.694.321c-.258-.064-.114-.477-.124-.652zM126.175 7.548c.443-.145.921-.443 1.397-.298-.342.341-.61.785-.869 1.198l-1.418-.03c.153-.372.546-.682.89-.87zM130.326 7.208c.589-.103.558.662 1.097.694.094.123.229.236.176.422-.311.124-.766.063-1.12.145-.466-.26-.164-1.066-.9-1.014-.04-.06-.124-.186-.02-.228.229-.08.526-.05.767-.02zM129.954 9.98c.257-.363.652-.392 1.024-.466l2.682.052c.114.103-.103.196-.103.32-.166.155-.405.197-.55.343-.35.011-.322.422-.57.599-.384.382-.941.208-1.387.145-.156-.114-.33-.27-.404-.446l-.124.124c.156.58.114 1.222.227 1.81l.642.426c.01.951 1.13.693 1.616 1.22-.114.341-.342.63-.589.921a3.462 3.462 0 0 0-1.315-.796c-.04-.56-.652-.889-.994-1.17-.093-1.013-.114-2.047-.278-3.03l.123-.052zM130.926 16.36h1.244l-.156.652-1.244-.528c-.029-.103.083-.134.156-.124zM133.162 4.644l.921-.29c.53.247 1.026.558 1.512.909.383.705.32 1.654.144 2.44-.28.311-.89 0-1.117.496h-.042c-.343-.972-1.314-1.839-2.216-2.285.145-.496.301-.98.798-1.27z" fill="#293a7d"/><path d="M154.755 44.046h5.524c.818-.123 1.687-.104 2.339-.705 2.765.426 5.57-.257 7.744-1.777a16.196 16.196 0 0 0 3.011-3.164c.735-1.03 1.315-1.992 1.69-3.145.28-.713.5-1.452.667-2.213.79-3.584.375-7.592-.79-11.005a20.239 20.239 0 0 0-.726-1.829c-1.458-3.01-3.44-6.257-6.499-8.162-1.722-1.073-3.305-2.733-4.278-4.448-.528-.478-1.036-1.108-1.719-1.221.187.31.393.61.446.971l-.042.052c-.723.02-1.294-.361-1.791-.829l.55-.495c-.208-.103-.446-.146-.674-.196-2.092-.237-3.81.723-5.662 1.19l-.03.102c1.136.506 1.374 1.757 2.038 2.607.166-.198.446-.053.673-.074.33.021.641.259.961.176.011-.279-.143-.495-.196-.743.196-.095.436-.01.653 0 .6.35 1.563-.064 1.936.743-.684.043-1.325.186-1.967.341.04.259.3.467.28.725a6.497 6.497 0 0 0-1.74-.445l-.03.092c.778.91 1.842 1.448 2.93 1.77 1.562.361 2.939-.382 4.449-.124 3.71 1.697 6.875 5.577 8.254 9.259.067.177.131.356.193.536 1.154 3.363 1.372 7.5.217 11.004-.615 1.461-1.292 2.836-2.377 4.024a8.42 8.42 0 0 1-1.359 1.335c-1.554 1.21-3.47 1.74-5.444 1.198-.123-.08-.374-.103-.333-.32.07-.287.134-.58.19-.878.329-1.683.478-3.451.392-5.217-.004-.076-.005-.153-.009-.228-.108-2.566-.62-4.874-1.565-7.093-.604-1.275-1.324-2.664-2.23-3.911-1.081-1.488-2.424-2.773-4.148-3.414-1.056-.28-2.362-.33-3.157.55-.571.495-.808 1.167-.726 1.901-.89.566-1.892.87-2.981.963-.267.023-.541.119-.817.118-.264.012-.522 0-.77-.032-1.315-.162-2.64-.865-3.648-1.676-.021-.534-.053-1.044-.073-1.61-.579-.301-1.055-.872-1.097-1.542l.053-.052c.331.102.621.268.92.445-.135-.807-.289-1.603-.693-2.306-.373-.156-.748-.279-1.098-.467-.404-.268-.663-.754-.723-1.2.361.354.993.229 1.273.601-.486-1.437-.497-3.082-1.295-4.396-.404-.972-1.46-1.417-2.185-2.132-.28-.34-.392-.815-.9-.868-.414-.103-.446-.57-.518-.868.259.03.476.207.695.248-.602-1.594-1.13-3.36-2.755-4.374l-.28.175c-.63.095-1.304.134-1.936.155.28-.414.777-.589 1.17-.777-.456-.34-.83-.423-1.4-.517-.332.333-.93.496-1.354.59l-.05-.04c-.012-.372-.098-.83.462-.921-.538-.259-1.429-.156-1.978 0-.156.403-.598.765-.569 1.24-.319.332-.547.776-.88 1.014-.008-.796.329-1.531.475-2.202-.466.174-.94.422-1.394.64-.736-.424-1.51-.848-2.295-1.167-.073-.032-.23-.063-.198.07.672.487.412 1.396.484 2.09l-.425-.35c-.207-.528-.805-.91-.907-1.49-.705.134-1.155.32-1.807.6l-.091.051c.485 0 .9.382 1.138.765-.734.042-1.387-.249-2.11-.32-.074-.072-.134-.155-.25-.144-.364.135-.672.393-.994.642-.714.702-1.44 1.48-1.78 2.409.239.042.539.032.715.177-.392.237-.735.64-1.119.868-.134.539-.114 1.149-.145 1.739-.3.454-.703.857-.9 1.363-.642 2.08-.808 4.385-.714 6.744-.208.195-.478.322-.673.476l.022 2.11h.05c.096-.446.623-.693.943-.993h.104c-.05.475-.114.95-.124 1.438l-.6.496c-.6.527-.092 1.322-.146 1.984.044.177.072.435.2.477.07-.258.298-.445.442-.672.259-.064.486-.27.724-.3a10.79 10.79 0 0 1-.518 1.52 1.9 1.9 0 0 0-.315.258.746.746 0 0 0-.21.384c.465 2.452 1.197 4.87 2.037 7.177-.57.96-.893 2.094-1.367 3.088-.068.139-.129.28-.186.424-.476 1.204-.62 2.546-1.213 3.703a4.074 4.074 0 0 0-.764-.404c-1.12-.372-2.414-.134-3.23.724-.726-.135-1.472-.011-2.043.371-.407.307-.723.676-.903 1.108-.122.3-.18.626-.16.983-.468.32-.717.816-.87 1.313-.218 1.118.174 2.28.816 3.138h46.083z" fill="#fff"/><path d="M174.94 22.038a20.239 20.239 0 0 0-.726-1.829c-1.458-3.01-3.44-6.257-6.499-8.162-1.722-1.073-3.305-2.733-4.278-4.448-.528-.478-1.036-1.108-1.719-1.221.187.31.393.61.446.971l-.042.052c-.723.021-1.294-.361-1.791-.829l.55-.495c-.208-.103-.446-.146-.674-.196-2.092-.237-3.81.723-5.662 1.19l-.03.102c1.136.506 1.374 1.757 2.038 2.607.166-.198.446-.053.673-.074.33.021.641.259.961.176.011-.279-.143-.495-.196-.743.196-.095.436-.01.653 0 .6.35 1.563-.064 1.936.743-.684.043-1.325.186-1.967.341.04.259.3.467.28.725a6.497 6.497 0 0 0-1.74-.445l-.03.092c.778.91 1.842 1.449 2.93 1.77 1.562.362 2.939-.382 4.449-.124 3.71 1.697 6.875 5.577 8.254 9.259.067.177.131.356.193.536 1.154 3.363 1.372 7.5.217 11.005-.615 1.46-1.292 2.835-2.377 4.023a8.42 8.42 0 0 1-1.359 1.335c-1.554 1.21-3.47 1.74-5.444 1.198-.123-.08-.374-.103-.333-.32.07-.287.134-.58.19-.878.329-1.683.478-3.451.392-5.217-.004-.076-.005-.153-.009-.228-.108-2.566-.62-4.874-1.565-7.093-.604-1.275-1.324-2.664-2.23-3.911-1.081-1.488-2.424-2.773-4.148-3.414-1.056-.28-2.362-.33-3.157.55-.571.495-.808 1.167-.726 1.901-.89.566-1.892.871-2.981.963-.267.023-.541.12-.817.118-.264.012-.522 0-.77-.032-1.315-.161-2.64-.865-3.648-1.675-.021-.535-.053-1.045-.073-1.612-.579-.3-1.055-.87-1.097-1.541l.053-.052c.331.103.621.268.92.445-.135-.807-.289-1.603-.693-2.306-.373-.156-.748-.279-1.098-.467-.404-.268-.663-.754-.723-1.2.361.354.993.229 1.273.601-.486-1.437-.497-3.082-1.295-4.396-.404-.972-1.46-1.416-2.185-2.131-.28-.34-.392-.816-.9-.869-.414-.103-.446-.57-.518-.868.259.03.476.207.695.248-.602-1.594-1.13-3.36-2.755-4.374l-.28.175c-.63.095-1.304.134-1.936.155.28-.414.777-.589 1.17-.776-.456-.34-.83-.424-1.4-.518-.332.333-.93.497-1.354.59l-.05-.04c-.012-.372-.098-.83.462-.921-.538-.259-1.429-.156-1.978 0-.156.403-.598.765-.569 1.24-.319.333-.547.776-.88 1.014-.008-.796.329-1.531.475-2.202-.466.175-.94.422-1.394.64-.736-.423-1.51-.848-2.295-1.167-.073-.032-.23-.063-.198.07.672.487.412 1.396.484 2.09l-.425-.35c-.207-.528-.805-.91-.907-1.49-.705.134-1.155.32-1.807.6l-.091.051c.485 0 .9.383 1.138.765-.734.042-1.387-.249-2.11-.32-.074-.072-.134-.155-.25-.144-.364.135-.672.393-.994.642-.714.702-1.44 1.48-1.78 2.409.239.042.539.032.715.177-.392.237-.735.64-1.119.868-.134.539-.114 1.149-.145 1.739-.3.454-.703.857-.9 1.363-.642 2.08-.808 4.386-.714 6.744-.208.195-.478.323-.673.476l.022 2.11h.05c.096-.446.623-.693.943-.993h.104c-.05.476-.114.95-.124 1.438l-.6.496c-.6.527-.092 1.322-.146 1.984.044.177.072.435.2.477.07-.258.298-.445.442-.672.259-.064.486-.27.724-.3a10.79 10.79 0 0 1-.518 1.52 1.9 1.9 0 0 0-.315.258.746.746 0 0 0-.21.385c.465 2.45 1.197 4.87 2.037 7.176-.57.96-.893 2.094-1.367 3.088-.068.14-.129.28-.186.424-.476 1.204-.62 2.546-1.213 3.703a4.074 4.074 0 0 0-.764-.404c-1.12-.371-2.414-.134-3.23.724-.726-.135-1.472-.011-2.043.371-.407.307-.723.676-.903 1.108-.122.3-.18.626-.16.983-.468.32-.717.817-.87 1.313-.218 1.118.174 2.28.816 3.138h18.295c-.27-.32-.518-.764-.706-1.147-.392-.591-.123-1.428-.165-2.11.373-.752.751-1.508 1.177-2.243.086-.148.173-.293.261-.436l.84-.32c.445 0 .819-.321 1.242-.209.57.57.57-.568 1.12-.62 1.283-.165 2.556-.042 3.28 1.045 0 .145.23.145.177.28-.166.05-.322-.054-.497-.054-.786-.195-1.709-.694-2.485-.248-.03.185-.07.374-.107.56a5.694 5.694 0 0 0-.09.577c.506.145.93.507 1.314.9.259-.507.807-.734 1.294-.9.425.093.89.104 1.244.372.652.601.33 1.625.27 2.39.588.33 1.24.518 1.84.837-.28.251-.65.353-.992.478l-.993-.198c-.114-.082-.312-.082-.353-.227-.331.35-.735.817-.942 1.271h14.183c-.187-.424-.404-.755-.663-1.147-.29-.621-.175-1.47-.207-2.132l1.325-2.017c.724-.01 1.544-.28 2.33-.144a.865.865 0 0 0 .113-.061c.327-.226.426-.75.912-.684.868-.237 1.532.157 2.185.549a1.023 1.023 0 0 1-.067.135c-.273.436-.784-.051-1.157.08-.156.166.073.362.103.55.135.184-.135.163-.227.195a.71.71 0 0 1-.622-.195c-.04-.053-.01-.114-.091-.124-.188.308-.457.589-.53.94.238.23.558.456.673.746.238.342-.186.6-.268.9-.031.06-.126.06-.156 0-.22-.124-.404-.435-.643-.354-.208.922.072 1.843-.052 2.763.404.095.88-.02 1.314 0l.177-1.945c.185-1.26.933-2.316 1.812-3.28.95-.649 1.563.633 2.266 1.078.115.02.074.144.124.216-.01.208-.227.29-.372.353-.436.153-.757-.322-1.025-.601-.258.28-.373.65-.673.87l.103.03c.344.342.672.703.748 1.158-.042.413-.25.816-.623 1.025a10.241 10.241 0 0 1-.692-1.491c.01.022-.012.031-.032.053-.57.154-.722.795-.817 1.313.03.507-.352.714-.25 1.22h7.383c.818-.124 1.687-.104 2.339-.705 2.766.425 5.57-.258 7.744-1.777a16.196 16.196 0 0 0 3.011-3.164c.735-1.03 1.315-1.993 1.69-3.145.28-.713.5-1.452.668-2.214.787-3.58.373-7.588-.793-11z" fill="#293a7d"/><path d="M127.43 41.234c.403-.259 1.056-.322 1.147-.92-.163-.126-.31-.281-.496-.322l-.425.123c.03-.248.166-.527.251-.795l1.365-.444c-.188.62-.259 1.395-.322 2.11.124 1.055.28 2.182.819 3.06h-1.471c-.165-.971-1.182-1.676-.869-2.812zM130.609 39.992h.081l.993.9.145-.03a47.443 47.443 0 0 0-.145 3.184h-1.076c-.219-1.023-.58-2.1-.538-3.205.186-.28.31-.632.54-.85zM132.822 40.986c.198-.257.28-.694.673-.743.28.007.539.05.748.247.361.454.007 1.036-.124 1.49-.146.693-.396 1.415-.623 2.067h-1.045l.371-3.06zM148.528 40.665c.228.29.3.683.642.941.3-.413.373-1.055.228-1.582l-.3-.3c.384-.093.786-.125 1.17-.196-.166.548-.479 1.044-.425 1.685.01.931.165 1.863.248 2.833h-1.138c-.414-.91-.829-1.778-.798-2.833.124-.187.207-.405.373-.548z" fill="#293a7d"/><path d="M153.426 20.794c-.011.268-.207.567-.032.797.25-.28.663-.27.995-.394.922-.084 1.801.207 2.66.415-.217-.343-.362-.725-.601-1.035-.477-.125-1.201.207-1.283-.498-.29-.248-.745-.071-1.046-.051a2.314 2.314 0 0 0-.693.766zM121.783 11.862l-.016-.01.002.01h.014zM125.547 21.057l.622-.6c.053 0 .094.01.124.05l-.051 1.149c.3.28.67.371 1.064.393.032-.31.27-.528.405-.797.114-.216.042-.537.269-.69l.073.07c.07.343.05.725.228 1.024.02.166.05.371.07.517.457.02.871-.103 1.222-.27-.021-.392.115-.712.175-1.073.095-.125-.114-.353.145-.342.146.31.404.63.55.962.6-.61.85-1.405.992-2.234-.175-.237-.444-.237-.653-.393-1.759-.568-4.014-.681-5.713.197-.114.7.031 1.476.478 2.037zM109.092 40.465c-.063.796 0 1.543.051 2.33.166.259.468.56.768.578l.051-.528c.124-.734-.269-1.513.146-2.134a5 5 0 0 1 .829.371c.124-.681-.053-1.48-.706-1.894l-1.139 1.277zM111.65 39.346c-.404 1.211-.703 2.702-.217 3.978.28-.188.569-.364.817-.622-.051-.973-.186-2.01.394-2.819.506.156.85.642 1.044 1.117.344-.434.457-1.035.323-1.612.021-.456-.497-.351-.746-.538.082-.383.071-.825.476-1.044l-1.241.124c-.321.456-.673.898-.85 1.416zM114.208 42.92c.052.092 0 .259.105.28.154-.87.857-1.432 1.242-2.2.185-.255.176-.62.476-.815.403 0 .694.29 1.088.32.123.094-.065.177-.075.28-.081.705-.35 1.286-.3 2.011h.073c.548-.58.921-1.204 1.325-1.866l.07-.588c.096-.704-.67-1.158-1.17-1.449l.446-.57-.622-.217c-.724.072-1.377.373-1.884.943-.63 1.156-.733 2.464-.774 3.871zM116.994 36.782c.236.071.454-.123.691-.022.954.353 1.947.714 2.662 1.51l.85 2.163.424-1.336-.28-.722c-.239-.517-.89-.475-1.336-.496-.186-.208.01-.446.073-.641.217-.735-.684-.694-1.046-.994.021-.443-.517-.29-.818-.33l-.103-.124c-.062-.095-.217-.095-.301-.022-.019-.031-.06-.052-.04-.103l-.227.051c-.323.28-.54.641-.55 1.066zM117.592 34.403a.679.679 0 0 0 .217.352c.467-.124.914-.447 1.45-.25.695.61 1.418 1.252 2.258 1.582l.301-.05c.185.06.392.07.516.28.115.279-.175.442-.267.67.465.342.28.951.569 1.365l.744-.992c-.174-.435.011-1.179-.67-1.22a.648.648 0 0 1-.375-.6c-.444-.403-.993-.579-1.437-.993-.365-.289-.581-.733-1.046-.837-.322-.177-.674-.27-1.045-.35-.696-.106-.758.722-1.215 1.043zM118.588 32.365l.124.2c.517-.033.982-.26 1.49-.25.34.206.786.195 1.138.372.28.383.58.815.992 1.074.84.124 1.305 1.027 1.595 1.686v-.319c.124-.445-.011-.964-.174-1.367-.208-.207-.51-.34-.726-.525-.042-.135-.01-.199.031-.321-.322-.342-.797-.529-1.191-.798-.549-.797-1.603-.577-2.443-.797l-.836 1.045zM118.57 24.779c.092.321.204.724.267 1.066.288-.64.86-.931 1.367-1.457-.291-.197-.653-.291-.972-.352v-.02c-.23.225-.581.453-.662.763zM120.45 28.183l.465-.476c.467-.477.852-1.026.922-1.635-.33-.196-.766-.061-1.085.053-.114.67-.291 1.331-.301 2.058zM120.791 29.641c.715.04 1.41.185 1.99-.219l.58-1.86c-.188-.012-.375-.096-.55-.032-.382.847-1.148 1.686-2.02 2.111zM121.002 23.043c.465.682 1.243 1.445 2.038 1.664-.091-.87-.837-1.47-1.22-2.212l-.022-.25c-.3-.289-.663-.486-.973-.64-.05.496.085.97.177 1.438zM123.525 29.723c.549.093 1.14 0 1.646-.156.735-.177 1.14-.982 1.387-1.612h-.921l-.992.971c-.393.206-.766.516-1.12.797zM123.413 22.101c.156.808.5 1.542.965 2.235l.123-1.542-1.088-.693zM126.807 26.124c.063-.517-.153-1.119-.214-1.644-.311-.207-.745-.187-1.067-.392.021.815.66 1.509 1.281 2.036zM125.866 31.377c.652-.206 1.283-.434 1.885-.764.383-.55.961-1.045 1.045-1.686-.479.134-.89-.022-1.336.197-.269.485-.436 1.036-.952 1.386-.083.35-.466.588-.642.867zM126.88 32.65l.776 1.013c.415.133.932.094 1.294-.144l-.277-.92c-.55.205-1.203.145-1.794.05zM128.174 25.328l.3 1.364c.724-.588.873-1.447.852-2.356-.413.475-.653.764-1.152.992zM130.215 27.736a.98.98 0 0 0 .173.538c.808.29.891 1.271 1.638 1.644.484.218 1.045-.051 1.468-.25-.32-.36-.682-.61-.993-.99-.216-.093-.437-.228-.424-.497l-1.862-.445zM130.856 32.62c.351.4.827.61 1.323.721-.081-.113.054 0 .073-.07l-.621-1.366c-.311.01-.633.074-.922.053.023.227.073.454.147.662zM131.954 26.249c-.291-.672-.41-1.491-.496-2.234-.308.373-.63.611-.921.991-.135.765.961.952 1.417 1.243zM133.215 25.544c.375.488 1.191.322 1.647.176-.218-.372-.92-.59-1.043-.99a8.804 8.804 0 0 0-.446-2.059c-.362.878-.8 1.923-.158 2.873zM133.868 27.736c1.035.755 2.05 1.634 3.498 1.313.104-.07.28-.063.3-.196-.424-.268-.879-.477-1.314-.725l-.495-.722h-.228c-.56.184-1.16.26-1.761.33zM133.889 36.124h.074c.62-.496 1.355-.663 2.09-.869.198.073.073.29.25.373.444-.185.983-.145 1.438-.3.548.02.994.03 1.439.268.354.466 1.014.413 1.471.725l-.074-.725c-.961-1.128-2.462-1.21-3.85-1.188l-.03-.145c-.331 0-.704.07-1.015.216-.444.021-.87.238-1.294.372-.198.393-.354.872-.5 1.273zM134.72 23.414c.403.528 1.004.933 1.688.798-.351-.344-.757-.705-.777-1.19.104-.92-.91-.995-1.407-1.47.166.62.144 1.314.497 1.862zM134.614 37.954h.124c.548-.34 1.346-.08 1.884-.443.3-.156.321.258.528.372.508.308.57 1.24 1.284 1.023.858.445.642 1.489.673 2.254l.798-.495c-.073-.404.156-.89-.104-1.241-.197-.445-.736-.486-.995-.847.312-.528-.393-.778-.539-1.16l.043-.051 1.098.145c.373.226.508.64.622 1.024.857.145 1.064 1.116 1.365 1.736.177-.423.249-.88.425-1.293.01-.341-.445-.341-.673-.496-.06-.528-.3-1.023-.766-1.343-.952-.24-1.79-.765-2.835-.765l-.87.267c-.477.115-.984-.03-1.347.3-.54.041-.58.632-.715 1.013zM135.162 33.694l.198.094c.425-.197.849-.425 1.294-.59.692-.196 1.23.59 1.812.092.216-.153.404.073.568.198.252.454.83.423 1.266.546-.218-.588-.488-1.395-1.244-1.489-.3-.133-.653-.122-.941-.299-.798-.879-1.315.725-2.187.333-.31.339-.693.662-.766 1.115z" fill="#fff"/><path d="M135.36 38.73c.33.28.673.757 1.191.694.641.3.372 1.148.723 1.593l.373-.331-.031-.022.052-.051.022.028c.103-.308-.042-.856-.22-1.22-.236-.164-.515.011-.744-.144-.03-.333-.238-.497-.475-.702-.166-.126-.384.04-.571.029l-.32.127zM136.654 26.124c.341.568 1.004.92 1.533 1.313a2.455 2.455 0 0 0 1.47.143 9.488 9.488 0 0 1-1.222-1.209c-.146-.208-.177-.467-.372-.652-.487.094-1.037.083-1.409.405zM137.225 22.423c.476.589 1.212.351 1.884.372v-.073l-1.035-.868c-.29.091-.6.35-.849.569zM118.166 12.669l.6 1.862c-.011-1.055.478-1.936.374-3.01l.443-.663-.942.29c-.248.476-.455.952-.475 1.521zM118.57 9.442l.818-.475V7.756c-.345.206-.53.56-.798.836l-.02.85z" fill="#fff"/><path d="M135.362 11.324c-.197.258-.496.322-.745.371.435-.794.642-1.901.3-2.802.227-.082.476-.124.693-.248l-.021-.022.57-.496c.755-.517.464-1.498.744-2.233-.371-.578-.485-1.282-1.024-1.769l.03-.02c-.424-.539-1.19-.476-1.77-.744-.767-.259-1.357.268-1.906.62-.238.042-.092.351-.351.34-.145.382-.322.797-.426 1.221-1.024-.145-2.132-.03-2.95.548-.436-.321-.962-.382-1.47-.527-.372-.074-.796.061-1.065-.146-.393-.443-.478-1.25-1.152-1.363-.237-.084-.287-.343-.287-.57-.446-.075-.841-.28-1.274-.373-.662-.3-1.19.177-1.687.496-.219.092-.467.124-.673.248-.372.58-.723 1.169-.964 1.81.074.527.3.991.57 1.438.239.672.984 1.2 1.615 1.47a6.081 6.081 0 0 0 0 3.276s-.017.014-.017.011c0 .003-.033.031-.033.031-.097 0-.206.019-.286-.03h-.014c.149.987.613 1.853 1.366 2.595.27.093.206.414.32.62.072.094.083.29.052.372a8.138 8.138 0 0 0-4.35 1.087c-.33.165-.185.62-.216.941.911-.6 1.894-1.044 2.981-1.242.466-.029.992-.145 1.44-.02l.05.89c-1.23.643-2.577 1.014-3.632 2.07.02.32-.042.69.051.96l.944-.765c.91-.694 1.863-1.283 2.907-1.665.281.33.571.684.944.89a6.977 6.977 0 0 1 2.04-.89c.383-.228.994-.021 1.242-.475l.175-.942c-.029-.02-.051-.063-.103-.053-.486-.28-.808-.765-.766-1.333-.165.082-.35.135-.548.143-.164-.04-.321-.082-.393-.249-.01-.205-.115-.516.094-.67.672-.414 1.542-.435 2.39-.373.631.084 1.543.052 1.762.797-.031.218-.011.456-.23.6-.227.124-.485-.011-.693-.105-.165.508-.444 1.076-1.013 1.242l.07.599c.072.27.094.714.518.62.984.24 1.855.746 2.713 1.293.291-.288.518-.62.724-.92 1.534.519 2.857 1.666 4.123 2.732l.05-.87c-1.202-1.066-2.536-1.82-3.924-2.409.053-.28.115-.549.126-.85 1.645.095 3.208.602 4.563 1.396l-.021-.743c-1.428-.766-2.991-1.272-4.698-1.292a.504.504 0 0 1-.073-.32c.828-.134 1.417-.992 1.615-1.739.426-.485 1.036-1.013.891-1.736a3.65 3.65 0 0 1 .061-.187c.055-.178.101-.368.041-.536z" fill="#fff"/><path d="M136.8 13.983l.849-.27.095-.474c.238-.694-.27-1.21-.519-1.76l-.425 2.504zM138.943 17.26c.404.445.798 1.158 1.513.941-.054-.3-.22-.549-.321-.818-.186-.216-.25-.837-.622-.62-.28-.185-.35-.496-.529-.744-.08.383-.03.858-.04 1.24zM139.088 20.29c.156.216.2.497.352.694.28.184.695.153 1.038.124.308-.073.506.267.795.071-.362-.227-.578-.64-.92-.942-.404-.318-.839-.039-1.265.053zM139.638 25.1c.715.424 1.622.838 2.575.693.103-.05.28-.04.3-.164-.59-.208-1.21-.797-1.83-.92-.341-.528-.787.134-1.222.092.01.123.134.215.177.3zM141.788 34.232l.156.33c.157 1.077.837 2.068.465 3.247.311.219.404.58.602.87h.051c.238-.899.073-1.83-.05-2.73.092-.818-.738-1.293-1.224-1.717zM141.967 23.642c.537.414 1.397.454 2.018.248-.393-.216-.828-.456-1.15-.745l-.868.497zM144.522 26.815c-.05.436.238.797.549 1.016.114-.257.299-.477.32-.766a1.908 1.908 0 0 0-.746-1.15c-.07.29-.155.57-.123.9zM144.553 31.533c-.074.485.465.548.692.817.187.228-.124.383-.124.6.394.506.623 1.083.623 1.757.153-.63.391-1.23.475-1.88-.042-.457-.765-.362-.652-.87.208-.517-.041-1.023-.176-1.49-.04-.071-.135-.217-.216-.174-.188.422-.653.723-.622 1.24zM145.971 29.071l.538 1.044c.238-.03.393-.258.579-.424.145-.434-.24-.714-.351-1.066-.094-.25 0-.578-.177-.795-.135-.084-.289-.219-.444-.177l-.145 1.418zM146.663 26.32c.426.258.911.63 1.14 1.086.362 1.055.942 2.004 1.366 3.029.156.714.28 1.351.475 2.053.074.187.032.548.323.517.081-.786.237-1.541.248-2.358-.259-.342-.6-.485-.921-.692v-.073c.042-.174.188-.383.403-.35.092-.104.373-.207.25-.394-.54-.537-.508-1.462-1.366-1.629-.3-.123-.373-.435-.404-.722-.404-.344-1.004-.457-1.514-.468zM147.163 31.925c.527.486.342 1.19.3 1.842-.082.393.413.163.57.372.321.475.134 1.17.022 1.685.28-.425.6-.796.816-1.263-.009-.174.218-.258.208-.476.092-.3-.259-.165-.405-.196-.124-.03-.258-.114-.216-.28.267-.517.02-1.136-.084-1.654-.124-.424.053-.993-.146-1.366-.332.458-1.316.56-1.065 1.336zM148.124 24.583c.923.932 1.596 1.867 2.589 2.767.021-.404-.031-.775-.05-1.169-.146-.28-.416-.485-.645-.694-.734-.07-1.117-1.06-1.894-.904zM150.535 29.51c.022.096.064.178.106.27.403.662.787 1.345 1.067 2.058-.085-.766.433-1.716-.252-2.306-.091-.25-.4-.166-.6-.146l-.321.125zM153.02 37.065c.29.135.663-.102.943-.268.26-.062.476.084.674.218.082.164 0 .32.031.476.62.174 1.23.403 1.779.765l.175-.176c.042-.444-.309-.766-.642-1.015-.216-.123-.539-.05-.693-.247.104-.166.104-.415.093-.6-.341 0-.56-.105-.837-.269-.177-.052-.333-.198-.478 0-.517.35-.548.869-1.044 1.116zM153.748 24.052c.257-.074.527-.146.744-.333.695-.631 1.698-.207 2.507-.217a5.645 5.645 0 0 0-.57-.796c-.292-.114-.56-.248-.891-.248-.705-.414-1.18.28-1.72.62-.146.28-.216.693-.07.974zM153.765 26.181c0-.032 0-.064.031-.072.095.082-.01.281.146.32.27-.134.518-.32.766-.495.693 0 1.108-.673 1.79-.673 1.14.207 2.269.436 3.261.992-.07-.67-.653-1.282-1.241-1.581-.333-.114-.592.061-.829.248-.692.436-.33-.63-.816-.652-.633.196-1.286.415-1.99.35-.413.157-.704.539-1.17.497-.019.343-.07.758.052 1.066zM154.243 28.486c.217.23.579.188.89.23l.901-.353c.01-.163-.269-.207-.207-.393.25-.28.589-.081.9-.195.435-.063.88-.495 1.315-.177-.013.053.019.124-.022.177-.134.32.093.517.342.64.508.094.982.56 1.49.351-.05-.424-.164-.814-.268-1.22-.425-.072-.725-.423-1.118-.57-.175.167-.405.29-.622.27-.798-.187-1.751-.684-2.558-.176-.29.352-.807.248-1.201.403.023.351.064.694.158 1.013zM154.585 34.635c-.062.176-.238.464.084.548.662.02 1.511-.321 2.029.196.176.135.092.414.08.59l.87.724c.083-.437.24-.829.251-1.294-.073-.332-.239-.651-.528-.868-.571 0-.9-.666-1.514-.584-.32-.071-.6.213-.921.213-.143.144-.227.32-.351.475zM154.833 29.758c.134.28.29.735.549.765.61-.266 1.502-.433 2.184-.142.227.04.227.298.177.464.351.206.776.372 1.149.599l-.104-.621c-.021-.672-.869-.733-.922-1.396-.693-.227-1.47-.3-2.205-.124-.237.217-.58.188-.868.249-.021.083.029.136.04.206zM155.009 33.11c.403-.115.663-.558 1.098-.6.662.011 1.253.28 1.667.851.248.162.196.587.518.587-.095-.506.07-.97.05-1.49-.433-.723-1.51-.163-1.914-1.013l-.765.052c-.55.136-.404.777-.476 1.212-.063.133-.187.237-.178.401zM158.81 37.634c.32.641 1.025 1.128 1.096 1.861.165-.195.28-.423.393-.64-.011-.207-.249-.207-.34-.373-.096-.268.049-.506.091-.745-.135-.382-.457-.743-.818-.972l-.422.87zM160.083 36l.745 1.015c.32-.507.32-1.253.196-1.863-.071-.115-.207-.3-.392-.216-.28.288-.322.734-.549 1.064zM157.049 7.692c.269.134.527.258.85.28.216-.115.497-.199.766-.125.383.25.848-.051 1.294-.03-.394-.373-.84-.602-1.294-.818-.58.122-1.045.537-1.616.693zM161.097 8.662c.548.052.943.538 1.314.941.466.071.817.404 1.096.744l-.174-.547c-.123-.55-.467-.973-.818-1.408-.497.032-.985.075-1.418.27z" fill="#fff"/><path d="M122.462 4.127l.3.032c.806.403 2.11.61 2.186 1.778-.82.321-1.607.755-2.26 1.416-.495-.506-1.5-.227-1.666-1.116.157-.84.455-1.895 1.44-2.11zM123.24 9.371c.942-.084 1.853.05 2.826-.032.237.103.485.309.6.547-.032 1.118-.373 2.184-.424 3.331-.425.175-.84.528-.944.993-.382.113-.725.34-1.098.516-.163-.35-.134-.879.157-1.17.404-.568 1.45-.435 1.367-1.335.27-.433.011-.992.02-1.446-.104-.343-.208.114-.373.103-.33.07-.671.091-.962-.074-.218-.228-.485-.415-.549-.723-.29-.145-.63-.371-.776-.672l.156-.038zM124.378 16.111c.442.065.91-.134 1.293.084-.08.146-.3.207-.475.25l-.695.318c-.258-.06-.113-.475-.123-.652zM126.189 7.477c.444-.145.921-.443 1.397-.3-.34.342-.61.785-.868 1.2l-1.419-.031c.156-.374.55-.682.89-.869zM130.34 7.137c.59-.103.558.662 1.097.69.095.124.23.238.177.425-.312.124-.766.064-1.118.145-.467-.259-.165-1.066-.9-1.014-.042-.063-.124-.186-.022-.227.228-.082.53-.051.767-.02zM129.968 9.906c.259-.362.653-.392 1.026-.464l2.681.05c.114.105-.104.198-.104.321-.165.156-.404.198-.549.342-.351.01-.32.424-.568.601-.384.382-.944.206-1.389.145-.154-.115-.33-.27-.404-.445l-.124.123c.156.58.115 1.221.23 1.81l.641.425c.01.95 1.129.692 1.614 1.22-.113.342-.341.63-.59.92a3.514 3.514 0 0 0-1.313-.796c-.042-.556-.653-.889-.993-1.167-.095-1.015-.115-2.05-.28-3.032l.122-.053zM130.942 16.288h1.243l-.156.651-1.245-.527c-.028-.103.085-.134.158-.124zM133.177 4.572l.922-.29a9.31 9.31 0 0 1 1.511.91c.383.703.322 1.654.145 2.44-.28.31-.89 0-1.117.496h-.044c-.34-.971-1.314-1.842-2.214-2.284.145-.497.3-.984.797-1.272z" fill="#293a7d"/></g></svg>