<?xml version="1.0" encoding="UTF-8"?>
<svg width="300px" height="100px" viewBox="0 0 300 100" version="1.1" xmlns="http://www.w3.org/2000/svg" xmlns:xlink="http://www.w3.org/1999/xlink">
    <!-- Generator: Sketch 52 (66869) - http://www.bohemiancoding.com/sketch -->
    <title>Artboard</title>
    <desc>Created with Sketch.</desc>
    <g id="Artboard" stroke="none" stroke-width="1" fill="none" fill-rule="evenodd">
        <g id="ing" transform="translate(1.000000, 13.000000)">
            <g id="Group" transform="translate(0.000000, 16.444444)" fill="#293A7D" fill-rule="nonzero">
                <path d="M3.26967598,4.04533333 C5.48719553,4.04533333 7.03213408,4.50577778 7.99272626,5.45462222 C9.06652514,6.51364444 9.54765363,8.26333333 9.54765363,11.1279556 L9.54765363,46.8995556 C9.54765363,51.8493333 8.49549721,54.0578222 2.28910615,54.0578222 L1.43839106,54.0578222 L1.43839106,56.2531556 L29.3305251,56.2531556 L29.3305251,54.0693333 L28.4897989,54.0594667 C22.341676,53.9871111 21.3045028,51.7901333 21.3045028,46.9012 L21.3045028,11.1263111 C21.3045028,8.27155556 21.7839665,6.52844444 22.8577654,5.46942222 C23.8266816,4.50906667 25.398257,4.04204444 27.6623911,4.04204444 L29.3288603,4.04204444 L29.3288603,1.81546667 L1.43839106,1.81546667 L1.43839106,4.04204444 L3.26967598,4.04204444 L3.26967598,4.04533333 Z M92.4798883,38.0047556 C92.4798883,38.0047556 91.997095,35.7716 91.9255084,34.5218222 L91.9255084,18.1826222 C91.8172961,8.65471111 93.1341564,3.91048889 84.691933,3.94666667 L84.691933,1.80888889 L104.113542,1.80888889 L104.113542,3.94666667 C95.4182682,3.91377778 96.5120447,8.65635556 96.4621006,18.1826222 L96.4621006,56.3337333 L93.6985251,56.3057778 L51.7587709,12.9993333 C51.7587709,12.9993333 52.2299106,15.2292 52.2998324,16.4806222 L52.2998324,43.2357333 C52.0617654,52.9971556 53.2870615,54.1778667 59.6582682,54.0627556 L59.6582682,56.2926222 L39.4142458,56.2926222 L39.4142458,54.0627556 C45.7937765,54.0693333 47.0490391,53.2323111 47.0407151,42.4414667 L47.0407151,43.0860889 L47.0407151,16.7174222 L46.9907709,12.5323111 C47.2271732,7.11551111 45.1994413,3.97297778 39.0096983,4.02395556 L39.0096983,1.88124444 L57.6521788,1.88124444 L92.4798883,38.0047556 Z M162.784581,0.767955556 L160.643642,0.767955556 L160.543754,1.49151111 C160.398916,2.57026667 159.967732,4.37751111 158.720793,4.37751111 C158.364525,4.37751111 157.478849,4.21306667 156.481631,3.76248889 C152.14648,1.9092 146.527765,0.767955556 141.798056,0.767955556 C132.595017,0.767955556 124.247687,4.02066667 118.282693,9.9308 C112.805486,15.3607556 109.808838,22.7508889 109.852123,30.7379556 C109.890413,38.3879111 112.93867,44.6828444 119.178358,49.9861778 C125.464659,55.2928 132.506782,57.5555556 142.742,57.5555556 C151.265799,57.5555556 156.14867,56.3468889 163.638626,52.3804889 L164.948827,51.6783111 L164.948827,37.4045333 C164.948827,31.3200889 165.704648,30.3728889 170.722369,30.1722667 L171.538123,30.1410222 L171.538123,28.0196889 L147.027207,28.0196889 L147.027207,30.1410222 L147.842961,30.1739111 C153.431709,30.3876889 154.485531,31.3743556 154.485531,36.4063556 L154.485531,49.6342667 C150.340168,52.3311556 147.326872,53.3572889 143.527788,53.3572889 C137.905743,53.3572889 132.901341,51.2129333 129.060637,47.4257778 C124.56067,42.9824889 122.364793,36.5116 122.364793,29.1987556 C122.364793,21.3218667 124.490749,14.6010222 128.869184,10.2827111 C132.35695,6.84253333 136.986771,4.93168889 142.269196,4.93168889 C146.987251,4.93168889 152.467788,6.92968889 156.226916,9.8716 C159.285162,12.3415556 160.870056,14.7309333 162.06705,18.6808889 L162.250179,19.2778222 L164.341173,19.2778222 L162.782916,0.767955556 L162.784581,0.767955556 Z" id="Shape"></path>
            </g>
            <path d="M270.137832,72.5528889 C271.499642,72.3473333 272.946358,72.3785778 274.033475,71.3935556 C278.636659,72.0924444 283.303106,70.9692889 286.922391,68.4664444 C288.8249,66.9641237 290.512303,65.2138254 291.938447,63.2634222 C293.160413,61.5696444 294.126,59.9909778 294.750302,58.0932889 C295.216447,56.9224444 295.584369,55.7055556 295.862391,54.4557778 C297.175922,48.5604444 296.485028,41.9662222 294.540536,36.3603111 C294.190289,35.3372658 293.788005,34.3323289 293.335218,33.3493333 C290.907933,28.3995556 287.604961,23.0584 282.517318,19.9273778 C279.65219,18.1645333 277.013475,15.4364 275.395285,12.6128889 C274.514603,11.8301333 273.670547,10.7941333 272.531821,10.6066667 C272.844804,11.1148 273.187754,11.6097778 273.270994,12.2017778 L273.204402,12.2872889 C271.997419,12.3201778 271.050145,11.6903556 270.224402,10.9273333 L271.13505,10.1116889 C270.790436,9.93902222 270.397542,9.87324444 270.016302,9.78608889 C266.53686,9.39635556 263.673397,10.9799556 260.586849,11.7429778 L260.540235,11.9123556 C262.434782,12.7444444 262.831006,14.8065778 263.934771,16.1994222 C264.206134,15.8754667 264.672279,16.1122667 265.05352,16.0843111 C265.60457,16.1139111 266.122324,16.5069333 266.656726,16.3688 C266.673374,15.9149333 266.413665,15.5531556 266.330425,15.1453333 C266.656726,14.9924 267.05295,15.1272444 267.417542,15.1453333 C268.416425,15.7208889 270.014637,15.0433778 270.637274,16.3688 C269.500212,16.4395111 268.431408,16.6763111 267.362603,16.9312 C267.43419,17.3571111 267.863709,17.6958667 267.828749,18.1217778 C266.901962,17.74765 265.927063,17.5024783 264.931989,17.3932889 L264.882045,17.5445778 C266.173933,19.0410222 267.948615,19.9273778 269.759922,20.4519556 C272.363676,21.0456 274.654447,19.8237778 277.168302,20.2480444 C283.343061,23.0386667 288.615497,29.4191111 290.907933,35.4739556 C291.02114,35.7650222 291.129352,36.0593778 291.230905,36.3586667 C293.152089,41.8889333 293.516682,48.6854222 291.592168,54.4524889 C290.568313,56.8533778 289.439575,59.1161333 287.633263,61.0664444 C286.950693,61.8968889 286.194872,62.6368889 285.374123,63.2617778 C282.785352,65.2499111 279.597251,66.1280444 276.307598,65.2367556 C276.101162,65.0969778 275.686626,65.0624444 275.756547,64.7088889 C275.869754,64.2336444 275.977966,63.7551111 276.071196,63.2617778 C276.635637,60.4382224 276.853633,57.5577786 276.720469,54.6827111 L276.71048,54.3094222 C276.527352,50.0881333 275.674972,46.2944 274.103397,42.6420889 C273.094525,40.5470667 271.897531,38.2629333 270.390883,36.2123111 C268.587899,33.7686667 266.353732,31.6572 263.485274,30.6047556 C261.725575,30.1443111 259.55467,30.0555111 258.227821,31.5009778 C257.278883,32.3199111 256.885989,33.4249778 257.022503,34.6336444 C255.540827,35.5611111 253.872693,36.0610222 252.058056,36.2123111 C251.615218,36.2517778 251.159061,36.4129333 250.697911,36.408 C250.258402,36.4277333 249.832212,36.408 249.412682,36.3586667 C247.230123,36.0939111 245.020927,34.9296444 243.342804,33.6042222 C243.309508,32.7178667 243.256235,31.8857778 243.221274,30.9500889 C242.260682,30.4567556 241.46324,29.5227111 241.396648,28.416 L241.479888,28.3321333 C242.035933,28.4998667 242.515397,28.7712 243.014838,29.0606222 C242.790089,27.7335556 242.532045,26.4245778 241.862793,25.2668889 C241.240156,25.012 240.619184,24.8064444 240.034838,24.5005778 C239.363922,24.0631556 238.931073,23.2590222 238.831184,22.5305333 C239.433844,23.1093778 240.48267,22.9054667 240.948816,23.5172 C240.136391,21.1508444 240.124737,18.4473778 238.794559,16.2865778 C238.121978,14.6898222 236.363944,13.9564 235.156961,12.7839111 C234.690816,12.2215111 234.502693,11.4404 233.658637,11.3532444 C232.969408,11.1838667 232.917799,10.4208444 232.797933,9.92422222 C233.227453,9.9752 233.58705,10.2646222 233.948313,10.3320444 C232.94943,7.71737778 232.070413,4.80506667 229.366771,3.13924444 L228.902291,3.42866667 C227.850134,3.5816 226.729721,3.65066667 225.679229,3.6852 C226.145374,3.00604444 226.971117,2.71497778 227.62705,2.40582222 C226.867899,1.84671111 226.243598,1.71186667 225.294659,1.55893333 C224.743609,2.1016 223.746391,2.37457778 223.040514,2.52915556 L222.952279,2.45844444 C222.933966,1.84671111 222.792458,1.10013333 223.726413,0.945555556 C222.830749,0.519644444 221.344078,0.692311111 220.430101,0.945555556 C220.173721,1.60826667 219.434547,2.2052 219.487821,2.9896 C218.955084,3.53226667 218.575508,4.26568889 218.022793,4.65542222 C218.006145,3.34644444 218.570514,2.13942222 218.811911,1.03435556 C218.036112,1.32377778 217.246994,1.7316 216.487844,2.0868 C215.265877,1.3912 213.977318,0.693955556 212.667117,0.166088889 C212.550581,0.115111111 212.287542,0.0657777778 212.339151,0.286133333 C213.461229,1.08368889 213.026715,2.58177778 213.146581,3.71808889 L212.439039,3.14253333 C212.094425,2.27591111 211.100536,1.64608889 210.929061,0.693955556 C209.755374,0.915955556 209.006212,1.22017778 207.919095,1.68062222 L207.769263,1.76613333 C208.578358,1.76613333 209.267587,2.39431111 209.66381,3.02577778 C208.440179,3.09155556 207.353061,2.61631111 206.147743,2.49462222 C206.027877,2.37951111 205.922994,2.23973333 205.733207,2.25782222 C205.130547,2.47817778 204.611128,2.90244444 204.081721,3.31026667 C202.891385,4.4696 201.684402,5.74404444 201.116704,7.27666667 C201.512927,7.34244444 202.012369,7.326 202.305374,7.56444444 C201.651106,7.95417778 201.083408,8.62017778 200.445788,8.99182222 C200.221039,9.87653333 200.256,10.8829333 200.202726,11.8515111 C199.70162,12.6013778 199.030704,13.2608 198.704402,14.0994667 C197.635598,17.5116889 197.360905,21.3070667 197.515732,25.1830222 C197.169453,25.5086222 196.719955,25.7141778 196.395318,25.9690667 L196.430279,29.4372 L196.515184,29.4372 C196.670011,28.7070667 197.550693,28.3008889 198.085095,27.8059111 L198.258235,27.8059111 C198.171665,28.5886667 198.068447,29.3714222 198.051799,30.1706222 L197.052916,30.9862667 C196.050704,31.8561778 196.896425,33.1635111 196.81152,34.2537778 C196.881441,34.5399111 196.928056,34.9658222 197.137821,35.0348889 C197.259352,34.6106222 197.637263,34.3047556 197.880324,33.9281778 C198.309844,33.8295111 198.687754,33.4841778 199.083978,33.4381333 C198.858091,34.2906166 198.570449,35.1259552 198.223274,35.9376889 C198.056793,36.0445778 197.863676,36.1876444 197.697196,36.3619556 C197.518311,36.5324647 197.394867,36.7517177 197.342592,36.9917778 C198.121721,41.0206667 199.340358,45.0002222 200.735464,48.7923111 C199.789855,50.3759111 199.252123,52.2374222 198.463006,53.872 C198.349799,54.0989333 198.248246,54.3324444 198.155017,54.5692444 C197.36257,56.5475111 197.121173,58.7576444 196.135609,60.6569778 C195.734346,60.3949648 195.307726,60.1729712 194.862034,59.9942667 C192.997453,59.3825333 190.843196,59.7722667 189.484715,61.1864889 C188.276067,60.9644889 187.034123,61.1684 186.085184,61.7982222 C185.405944,62.2981333 184.881531,62.9065778 184.578536,63.6153333 C184.372101,64.1103111 184.278872,64.6480444 184.310503,65.2351111 C183.536369,65.7613333 183.121832,66.5753333 182.863788,67.3942667 C182.502525,69.2294667 183.156793,71.1419556 184.225598,72.5545333 L270.137832,72.5545333 L270.137832,72.5528889 Z" id="Path" fill="#FFFFFF"></path>
            <path d="M258.727263,34.3096889 C258.710615,34.7520444 258.382648,35.2470222 258.677318,35.6203111 C259.09019,35.1598667 259.781084,35.1763111 260.332134,34.9756889 C261.863754,34.8392 263.328782,35.3144444 264.760514,35.6564889 C264.399251,35.0940889 264.15619,34.4692 263.761631,33.9561333 C262.965855,33.7522222 261.760536,34.2965333 261.624022,33.1404889 C261.141229,32.7310222 260.378749,33.0253778 259.884302,33.0533333 C259.408963,33.3820601 259.013714,33.8112357 258.727263,34.3096889 Z M206.04952,19.6264444 C206.042571,19.6191574 206.03403,19.6135331 206.024547,19.61 C206.024547,19.6116444 206.024547,19.6198667 206.027877,19.6264444 L206.04952,19.6264444 Z M212.315844,34.7438222 L213.351352,33.7571556 C213.439587,33.7571556 213.504514,33.7768889 213.556123,33.8459556 L213.469553,35.7321333 C213.968994,36.1925778 214.589966,36.3438667 215.244235,36.3784 C215.297508,35.8686222 215.693732,35.5117778 215.91848,35.0677778 C216.108268,34.7125778 215.988402,34.1830667 216.366313,33.9265333 L216.482849,34.0465778 C216.606045,34.6056889 216.574413,35.2371556 216.865754,35.7304889 C216.900715,36.0001778 216.950659,36.3422222 216.983955,36.5806667 C217.743106,36.6168444 218.43067,36.4096444 219.018346,36.1383111 C218.983385,35.4936889 219.209799,34.9641778 219.308022,34.3688889 C219.467844,34.1633333 219.118235,33.7900444 219.551084,33.8097778 C219.79248,34.3179111 220.223665,34.8457778 220.466726,35.3884444 C221.463944,34.3853333 221.87848,33.0763556 222.119877,31.7180444 C221.828536,31.3233778 221.379039,31.3233778 221.03276,31.0701333 C218.102704,30.1344444 214.343575,29.9453333 211.516737,31.3924444 C211.333609,32.5517778 211.575006,33.8262222 212.315844,34.7438222 Z M184.92648,66.6575556 C184.819933,67.9698222 184.92648,69.1982222 185.008056,70.4907556 C185.286078,70.9166667 185.787184,71.4116444 186.283296,71.4445333 L186.373196,70.5762667 C186.577966,69.3659556 185.923698,68.0832889 186.614592,67.0637333 C187.097385,67.2166667 187.575184,67.4534667 187.99305,67.6754667 C188.196156,66.5523111 187.90648,65.2449778 186.821028,64.5641778 L184.924816,66.6575556 L184.92648,66.6575556 Z M189.180056,64.824 C188.507475,66.8137778 188.006369,69.2689333 188.820458,71.3606667 C189.283274,71.0580889 189.767732,70.7670222 190.177274,70.3411111 C190.094034,68.7410667 189.87095,67.0324889 190.833207,65.7054222 C191.677263,65.9619556 192.248291,66.7611556 192.574592,67.5455556 C193.14562,66.8269333 193.333743,65.8419111 193.110659,64.8881333 C193.143955,64.1432 192.278257,64.3125778 191.86705,64.0050667 C192.006894,63.3768889 191.986916,62.6467556 192.661162,62.2915556 L190.59181,62.4954667 C190.059073,63.2404 189.474726,63.9754667 189.180056,64.824 Z M193.436961,70.6946667 C193.52686,70.8525333 193.436961,71.1222222 193.610101,71.1551111 C193.86981,69.7293778 195.041832,68.8035556 195.681117,67.5455556 C195.989106,67.1196444 195.970793,66.5243556 196.470235,66.2004 C197.14448,66.2004 197.627274,66.6772889 198.284872,66.7282667 C198.489642,66.8812 198.176659,67.0160444 198.161676,67.1854222 C198.025162,68.3447556 197.575665,69.3034667 197.662235,70.4924 L197.780436,70.4924 C198.694413,69.5435556 199.315385,68.5124889 199.986302,67.4238667 L200.104503,66.4569333 C200.25933,65.2992444 198.985754,64.5526667 198.156682,64.0757778 L198.899184,63.1384444 L197.865341,62.7816 C196.656693,62.9016444 195.57124,63.3949778 194.727184,64.3323111 C193.678358,66.2349333 193.506883,68.3842222 193.436961,70.6963111 L193.436961,70.6946667 Z M198.075106,60.6027111 C198.47133,60.7227556 198.832592,60.3988 199.225486,60.5698222 C200.813709,61.1453778 202.47019,61.7423111 203.657196,63.0529333 L205.072279,66.6049333 L205.779821,64.4145333 L205.313676,63.2223111 C204.917453,62.3704889 203.832,62.4395556 203.087832,62.4050222 C202.781508,62.0662667 203.106145,61.6732444 203.211028,61.3525778 C203.570626,60.1455556 202.072302,60.2096889 201.469642,59.7212889 C201.506268,58.9895111 200.607274,59.2444 200.106168,59.1753333 L199.934693,58.9714222 C199.834804,58.8184889 199.57676,58.8184889 199.435251,58.9368889 C199.398626,58.8875556 199.333698,58.8530222 199.368659,58.7658667 L198.985754,58.8530222 C198.453017,59.3134667 198.091754,59.9054667 198.075106,60.6027111 Z M199.073989,56.6938667 C199.128295,56.918834 199.254359,57.1206062 199.433587,57.2694222 C200.21105,57.0671556 200.948559,56.5409333 201.847553,56.8616 C203.002927,57.8647111 204.208246,58.9171556 205.608346,59.4647556 L206.104458,59.3776 C206.415777,59.4828444 206.758726,59.4976444 206.966827,59.8380444 C207.158279,60.2984889 206.677151,60.5698222 206.518994,60.9431111 C207.296458,61.5038667 206.98514,62.5086222 207.469598,63.1877778 L208.711542,61.5548444 C208.420201,60.8395111 208.72819,59.6160444 207.589464,59.5486222 C207.204412,59.3677115 206.961707,58.9814339 206.968492,58.5603111 C206.230983,57.8976 205.317006,57.6098222 204.572838,56.9306667 C203.970179,56.4537778 203.608916,55.7203556 202.833117,55.5509778 C202.30038,55.2632 201.717698,55.1086222 201.095061,54.9754222 C199.934693,54.8060444 199.834804,56.1627111 199.073989,56.6938667 Z M200.72714,53.3424889 L200.93524,53.6664444 C201.795944,53.6138222 202.575073,53.2405333 203.419128,53.2569778 C203.986827,53.5990222 204.72933,53.5825778 205.313676,53.8703556 C205.779821,54.4985333 206.279263,55.2122222 206.965162,55.6397778 C208.363598,55.8420444 209.137732,57.3220444 209.620525,58.4090222 L209.620525,57.8828 C209.826961,57.1543111 209.603877,56.3008444 209.325855,55.6397778 C208.98124,55.2977333 208.483464,55.0740889 208.122201,54.7682222 C208.052279,54.5495111 208.103888,54.4459111 208.172145,54.242 C207.637743,53.6812444 206.845296,53.3737333 206.191028,52.9346667 C205.278715,51.6240444 203.519017,51.9808889 202.123911,51.6240444 L200.72714,53.3424889 Z M200.698838,40.8644444 C200.852,41.3939556 201.040123,42.0583111 201.141676,42.6174222 C201.624469,41.5633333 202.576737,41.0913778 203.419128,40.2214667 C202.936335,39.8975111 202.335341,39.7445778 201.800939,39.6426222 L201.800939,39.6113778 C201.421363,39.9846667 200.835352,40.3579556 200.698838,40.8660889 L200.698838,40.8644444 Z M203.830335,46.4604889 L204.606134,45.6793778 C205.383598,44.8982667 206.021218,43.9954667 206.139419,42.9923556 C205.590034,42.6684 204.865844,42.8887556 204.331441,43.0745778 C204.138324,44.1845778 203.848648,45.2715556 203.832,46.4621333 L203.830335,46.4604889 Z M204.398034,48.8597333 C205.590034,48.9288 206.742078,49.1639556 207.70933,48.5045333 L208.673251,45.4409333 C208.365263,45.4244889 208.052279,45.288 207.760939,45.3916 C207.124983,46.7860889 205.846413,48.1624889 204.398034,48.8597333 Z M204.747642,38.0080444 C205.523441,39.1328444 206.81533,40.3924889 208.143844,40.7460444 C207.989017,39.3186667 206.750402,38.3303556 206.111117,37.1068889 L206.074492,36.6990667 C205.57505,36.2205333 204.970726,35.8998667 204.452972,35.6433333 C204.369732,36.4622667 204.59448,37.2450222 204.747642,38.0080444 Z M208.949609,48.9962222 C209.865251,49.1524444 210.845821,48.9962222 211.689877,48.7380444 C212.915173,48.4519111 213.587754,47.1248444 214.000626,46.0888444 L212.467341,46.0888444 L210.81086,47.6856 C210.158257,48.0276444 209.533955,48.5407111 208.951274,48.9962222 L208.949609,48.9962222 Z M208.764816,36.4622667 C209.024525,37.7893333 209.590559,38.9947111 210.368022,40.1359556 L210.574458,37.6018667 L208.764816,36.4622667 Z M214.415162,43.0778667 C214.51838,42.2260444 214.158782,41.2410222 214.058894,40.3744 C213.539475,40.0323556 212.815285,40.0668889 212.282547,39.7297778 C212.315844,41.0732889 213.381318,42.2096 214.415162,43.0778667 Z M212.845251,51.7194222 C213.932369,51.3790222 214.98286,51.0040889 215.980078,50.4581333 C216.617698,49.5619111 217.58495,48.7396889 217.721464,47.6872444 C216.929017,47.9076 216.239788,47.6543556 215.500615,48.0128444 C215.051117,48.8104 214.77476,49.7132 213.914056,50.2904 C213.777542,50.8659556 213.138257,51.2606222 212.845251,51.7210667 L212.845251,51.7194222 Z M214.533363,53.8111556 L215.825251,55.4769778 C216.516145,55.6973333 217.378514,55.6282667 217.981173,55.2385333 L217.515028,53.7256444 C216.602715,54.0676889 215.517263,53.9624444 214.533363,53.8111556 Z M216.69095,41.7672444 L217.188726,44.0135556 C218.394045,43.0433333 218.637106,41.6291111 218.608804,40.1343111 C217.917911,40.9170667 217.515028,41.3939556 216.689285,41.7672444 L216.69095,41.7672444 Z M220.083821,45.732 C220.092919,46.0489228 220.195316,46.3563587 220.378492,46.6167111 C221.721989,47.0919556 221.860168,48.7068 223.102112,49.3201778 C223.911207,49.6753778 224.840168,49.2330222 225.549374,48.9090667 C225.014972,48.3170667 224.408983,47.9043111 223.894559,47.2761333 C223.531631,47.1248444 223.168704,46.9028444 223.187017,46.4604889 L220.083821,45.732 Z M221.152626,53.7585333 C221.740302,54.4228889 222.531084,54.7616444 223.358492,54.9474667 C223.221978,54.76 223.446726,54.9474667 223.480022,54.8290667 L222.442849,52.5893333 C221.92676,52.6008444 221.394022,52.7044444 220.911229,52.6715556 C220.944525,53.0432 221.03276,53.4148444 221.152626,53.7585333 Z M222.980581,43.2817778 C222.497788,42.1750667 222.294682,40.8315556 222.158168,39.6097333 C221.640413,40.2198222 221.106011,40.6128444 220.623218,41.2393778 C220.398469,42.4990222 222.22143,42.8081778 222.980581,43.2801333 L222.980581,43.2817778 Z M225.081564,42.1273778 C225.702536,42.9249333 227.062682,42.6519556 227.826827,42.4135111 C227.46057,41.8017778 226.295207,41.4449333 226.088771,40.7822222 C225.97757,39.6291084 225.728329,38.4930877 225.346268,37.3979556 C224.741944,38.8434222 224.014425,40.5618667 225.083229,42.1273778 L225.081564,42.1273778 Z M226.167017,45.732 C227.893419,46.9752 229.579866,48.4173778 231.993832,47.8911556 C232.165307,47.7711111 232.459978,47.7875556 232.493274,47.5672 C231.784067,47.1232 231.028246,46.7844444 230.304056,46.3799111 L229.478313,45.1876889 L229.098737,45.1876889 C228.166447,45.4935556 227.165899,45.6103111 226.168682,45.732 L226.167017,45.732 Z M226.203642,59.5256 L226.321844,59.5256 C227.359017,58.7099556 228.580983,58.4369778 229.804615,58.0949333 C230.134246,58.2133333 229.926145,58.5718222 230.219151,58.7099556 C230.961654,58.4024444 231.858983,58.4715111 232.616469,58.2166222 C233.532112,58.2511556 234.27295,58.2676 235.012123,58.6589778 C235.594804,59.422 236.700235,59.3397778 237.459385,59.8462667 L237.33952,58.6589778 C235.736313,56.8024 233.235777,56.6675556 230.930022,56.7020889 L230.876749,56.4636444 C230.327363,56.4636444 229.706391,56.5836889 229.190302,56.8237778 C228.449464,56.8533778 227.741922,57.2135111 227.032715,57.4322222 C226.703084,58.0801333 226.445039,58.8596 226.203642,59.5256 Z M227.587095,38.6230667 C228.259676,39.4913333 229.258559,40.1524 230.39562,39.9336889 C229.812939,39.3712889 229.138693,38.7743556 229.103732,37.9768 C229.276872,36.4622667 227.58876,36.3438667 226.759687,35.5594667 C227.032715,36.5823111 227.001084,37.7202667 227.587095,38.6230667 Z M227.412291,62.5365778 L227.612067,62.5365778 C228.527709,61.9708889 229.856223,62.3984444 230.753553,61.8031556 C231.252994,61.5466222 231.286291,62.2274222 231.634235,62.4148889 C232.476626,62.9246667 232.579844,64.454 233.770179,64.0988 C235.198581,64.8305778 234.838983,66.5506667 234.890592,67.8086667 L236.217441,66.9930222 C236.095911,66.3286667 236.473821,65.5261778 236.042637,64.9506222 C235.716335,64.2204889 234.822335,64.1514222 234.391151,63.5561333 C234.90724,62.6878667 233.736883,62.2816889 233.493821,61.6518667 L233.563743,61.5647111 L235.386704,61.8031556 C236.011006,62.1764444 236.232425,62.8588889 236.423877,63.4870667 C237.855609,63.7255111 238.200223,65.3222667 238.699665,66.3434667 C238.99267,65.6462222 239.112536,64.8963556 239.407207,64.2188444 C239.423855,63.6564444 238.664704,63.6564444 238.288458,63.4032 C238.180246,62.5365778 237.787352,61.7176444 237.013218,61.1914222 C235.424994,60.8016889 234.031553,59.9317778 232.291832,59.9317778 L230.841788,60.3757778 C230.047676,60.5632444 229.20362,60.3264444 228.602626,60.8658222 C227.701966,60.9332444 227.633709,61.9067556 227.412291,62.5365778 Z M228.322939,55.5279556 L228.65257,55.6792444 C229.355117,55.3552889 230.064324,54.982 230.806827,54.7090222 C231.958872,54.3867111 232.856201,55.6792444 233.823453,54.8636 C234.184715,54.6070667 234.492704,54.982 234.770726,55.1875556 C235.185263,55.9357778 236.149184,55.8848 236.873374,56.0887111 C236.512112,55.1201333 236.064279,53.7914222 234.805687,53.6352 C234.306246,53.4148444 233.71857,53.4378667 233.235777,53.1451556 C231.910592,51.6996889 231.048223,54.3340889 229.598179,53.6878222 C229.082089,54.2535111 228.446134,54.7780889 228.322939,55.5279556 Z" id="Shape" fill="#FFFFFF" fill-rule="nonzero"></path>
            <path d="M228.65257,63.8110222 C229.201955,64.2665333 229.769654,65.0509333 230.630358,64.9473333 C231.704156,65.4423111 231.254659,66.8351556 231.84067,67.5669333 L232.458313,67.0209778 L232.408369,66.9880889 L232.494939,66.9042222 L232.531564,66.9535556 C232.703039,66.4421333 232.459978,65.5393333 232.166972,64.9473333 C231.772413,64.6776444 231.306268,64.9637778 230.928358,64.7088889 C230.875084,64.1662222 230.528804,63.8916 230.134246,63.5528444 C229.857888,63.3489333 229.494961,63.6219111 229.185307,63.6021778 L228.65257,63.8110222 Z M230.806827,43.0778667 C231.37619,44.0152 232.476626,44.5924 233.357307,45.2370222 C234.129153,45.5619467 234.98333,45.645172 235.80457,45.4754667 C235.067097,44.8746998 234.386698,44.2086758 233.771844,43.4856889 C233.530447,43.1436444 233.477173,42.7210222 233.150872,42.4135111 C232.336782,42.5680889 231.427799,42.5516444 230.806827,43.0778667 Z M231.75743,36.9917778 C232.553207,37.9570667 233.775173,37.5689778 234.895587,37.6002222 L234.895587,37.4851111 L233.170849,36.0544444 C232.688056,36.2073778 232.171966,36.63 231.755765,36.9917778 L231.75743,36.9917778 Z M200.026257,20.9502222 L201.02514,24.0138222 C201.008492,22.2789333 201.817587,20.8334667 201.646112,19.0640444 L202.388615,17.9754222 L200.817039,18.4523111 C200.404168,19.2317778 200.062883,20.0178222 200.027922,20.9518667 L200.026257,20.9502222 Z M200.698838,15.6452444 L202.058983,14.8624889 L202.058983,12.8727111 C201.48962,13.2131111 201.176637,13.7919556 200.732134,14.2507556 L200.698838,15.6452444 Z" id="Shape" fill="#FFFFFF" fill-rule="nonzero"></path>
            <path d="M228.655899,18.7417333 C228.326268,19.1676444 227.828492,19.2679556 227.41562,19.3534667 C228.138145,18.0444889 228.484425,16.2208 227.913397,14.7424444 C228.294637,14.6076 228.709173,14.5418222 229.070436,14.3346222 L229.03381,14.3017333 L229.982749,13.4828 C231.241341,12.6326222 230.758547,11.0177778 231.224693,9.8124 C230.603721,8.85862222 230.415598,7.70257778 229.516603,6.90173333 L229.571542,6.86884444 C228.862335,5.98413333 227.587095,6.08444444 226.618179,5.64208889 C225.344603,5.21782222 224.362369,6.08444444 223.448391,6.66657778 C223.052168,6.73235556 223.293564,7.24213333 222.86238,7.22568889 C222.622648,7.85551111 222.327978,8.53631111 222.156503,9.23191111 C220.448413,8.99182222 218.60714,9.18257778 217.24533,10.1330667 C216.51781,9.60684444 215.640458,9.50488889 214.794737,9.26644444 C214.17543,9.14804444 213.467888,9.37004444 213.023385,9.02635556 C212.369117,8.29786667 212.227609,6.9708 211.105531,6.78333333 C210.710972,6.64848889 210.626067,6.22422222 210.626067,5.84764444 C209.885229,5.73088889 209.227631,5.39213333 208.503441,5.23591111 C207.40467,4.74257778 206.525654,5.52697778 205.696581,6.05155556 C205.335318,6.20613333 204.920782,6.25546667 204.577832,6.46266667 C203.958525,7.41315556 203.370849,8.38337778 202.974626,9.43582222 C203.096156,10.3024444 203.474067,11.0687556 203.923564,11.8005333 C204.319788,12.9072444 205.560067,13.7738667 206.612223,14.2178667 C206.11337,15.9809138 206.11337,17.8453084 206.612223,19.6083556 C206.612223,19.6083556 206.582257,19.6280889 206.582257,19.6248 C206.582257,19.6280889 206.527318,19.6724889 206.527318,19.6724889 C206.360838,19.6724889 206.186034,19.7053778 206.04952,19.6248 L206.027877,19.6248 C206.269274,21.2495111 207.043408,22.6703111 208.297006,23.8904889 C208.746503,24.0467111 208.643285,24.5712889 208.834737,24.9133333 C208.951274,25.0646222 208.967922,25.3869333 208.917978,25.5234222 C206.383359,25.4368181 203.875126,26.0556378 201.679408,27.3092889 C201.130022,27.5806222 201.371419,28.3321333 201.31981,28.8567111 C202.834782,27.8716889 204.47295,27.1399111 206.280927,26.8176 C207.056726,26.7682667 207.935743,26.5791556 208.678246,26.7847111 L208.764816,28.2466222 C206.715441,29.2990667 204.47295,29.9124444 202.714916,31.6489778 C202.748212,32.1735556 202.648324,32.7869333 202.803151,33.2309333 L204.371397,31.9696444 C205.886369,30.8349778 207.471263,29.8614667 209.214313,29.2332889 C209.680458,29.7776 210.163251,30.3564444 210.784223,30.6935556 C211.8306,30.0317393 212.977033,29.5388065 214.180425,29.2332889 C214.818045,28.8583556 215.831911,29.1987556 216.244782,28.4521778 L216.541117,26.9031111 C216.487844,26.8702222 216.456212,26.8044444 216.367978,26.8208889 C215.558883,26.3604444 215.02448,25.5645333 215.092737,24.6255556 C214.818045,24.7604 214.510056,24.8475556 214.17876,24.864 C213.902402,24.7949333 213.646022,24.7291556 213.526156,24.4561778 C213.507844,24.1141333 213.334704,23.6043556 213.677654,23.3511111 C214.798067,22.6686667 216.248112,22.6341333 217.661531,22.7393778 C218.710358,22.8742222 220.231989,22.8216 220.591587,24.05 C220.541642,24.4068444 220.574939,24.7965778 220.213676,25.0350222 C219.834101,25.2389333 219.404581,25.0169333 219.056637,24.8656444 C218.783609,25.6977333 218.317464,26.6367111 217.36686,26.9047556 L217.490056,27.8930667 C217.608257,28.3370667 217.643218,29.0655556 218.352425,28.9126222 C219.990592,29.304 221.435642,30.1377333 222.867374,31.0388889 C223.350168,30.562 223.728078,30.0160444 224.071028,29.526 C226.621508,30.3745333 228.830704,32.2623556 230.931687,34.0153333 L231.019922,32.5846667 C229.020492,30.8333333 226.794648,29.5917778 224.485564,28.6215556 C224.573799,28.1611111 224.677017,27.7187556 224.692,27.2287111 C227.433933,27.38 230.032693,28.2137333 232.295162,29.526 L232.258536,28.3008889 C229.879531,27.0428889 227.277441,26.2091556 224.432291,26.1746222 C224.336471,26.0152207 224.29558,25.8294202 224.315754,25.6451111 C225.694212,25.4247556 226.673117,24.0138222 227.006078,22.7870667 C227.708626,21.9895111 228.729151,21.1212444 228.487754,19.9323111 L228.587642,19.6280889 C228.680872,19.3288 228.759117,19.018 228.654235,18.7417333 L228.655899,18.7417333 Z" id="Path" fill="#FFFFFF"></path>
            <path d="M231.053218,23.1126667 L232.466637,22.6686667 L232.618134,21.8875556 C233.017687,20.7479556 232.175296,19.8977778 231.75743,18.9933333 L231.053218,23.1126667 Z M234.617564,28.5048 C235.290145,29.2332889 235.944413,30.4090667 237.136413,30.0489333 C237.048179,29.5588889 236.771821,29.1510667 236.600346,28.7070667 C236.287363,28.3485778 236.18581,27.3290222 235.566503,27.6875111 C235.100358,27.3816444 234.982156,26.8685778 234.684156,26.4624 C234.550972,27.0905778 234.634212,27.8733333 234.617564,28.5048 Z M234.860626,33.4841778 C235.120335,33.8426667 235.190257,34.3031111 235.443307,34.6254222 C235.909453,34.928 236.600346,34.8819556 237.168045,34.8276889 C237.684134,34.7109333 238.013765,35.2700444 238.496559,34.9444444 C237.895564,34.5728 237.534302,33.892 236.961609,33.3986667 C236.287363,32.8724444 235.568168,33.3328889 234.860626,33.4841778 Z M235.774603,41.3939556 C236.961609,42.0928444 238.474916,42.7736444 240.061475,42.5352 C240.23295,42.4480444 240.52762,42.4661333 240.560916,42.2605778 C239.578682,41.9201778 238.546503,40.9516 237.515989,40.7476889 C236.944961,39.8810667 236.204123,40.9696889 235.481598,40.9006222 C235.498246,41.1045333 235.703017,41.2591111 235.774603,41.3939556 Z M239.355598,56.4110222 L239.615307,56.9569778 C239.875017,58.7280444 241.010413,60.3576889 240.389441,62.2964889 C240.905531,62.6533333 241.063687,63.2469778 241.388324,63.7238667 L241.476559,63.7238667 C241.871117,62.2455111 241.598089,60.7145333 241.389989,59.2328889 C241.544816,57.8893778 240.164693,57.1066222 239.355598,56.4110222 Z M239.651933,38.9947111 C240.550927,39.6771556 241.980994,39.7445778 243.011508,39.4058222 C242.35724,39.0489778 241.63638,38.6576 241.096983,38.1790667 L239.651933,38.9947111 Z M243.905508,44.2191111 C243.817274,44.9344444 244.301732,45.5280889 244.817821,45.8849333 C245.007609,45.4590222 245.317263,45.1038222 245.350559,44.6269333 C245.190434,43.8675645 244.748632,43.1947829 244.111944,42.7407556 C243.990413,43.216 243.853899,43.6715111 243.905508,44.2191111 Z M243.958782,51.9710222 C243.837251,52.7685778 244.731251,52.8754667 245.110827,53.3161778 C245.422145,53.6878222 244.904391,53.9443556 244.904391,54.3012 C245.558659,55.1332889 245.938235,56.0870667 245.938235,57.1937778 C246.197944,56.1577778 246.594168,55.1678222 246.737341,54.0972889 C246.665754,53.3507111 245.462101,53.5036444 245.648559,52.6699111 C245.991508,51.8197333 245.578637,50.986 245.353888,50.2229778 C245.283966,50.1012889 245.12914,49.8628444 244.995955,49.9319111 C244.679642,50.6291556 243.905508,51.1208444 243.958782,51.9710222 Z M246.319475,47.9240444 L247.21514,49.6408444 C247.613028,49.5931556 247.866078,49.2165778 248.177397,48.9468889 C248.420458,48.2315556 247.781173,47.7711111 247.594715,47.1939111 C247.436559,46.7828 247.594715,46.2401333 247.300045,45.8832889 C247.076961,45.7484444 246.815587,45.5264444 246.557542,45.5922222 L246.319475,47.9240444 Z M247.473184,43.4018222 C248.179061,43.8260889 248.988156,44.4378222 249.366067,45.1844 C249.972056,46.9209333 250.937642,48.4848 251.641855,50.1670667 C251.901564,51.3428444 252.108,52.3887111 252.435966,53.5464 C252.557497,53.8473333 252.487575,54.4442667 252.972034,54.3949333 C253.108547,53.1024 253.368257,51.8624889 253.384905,50.5173333 C252.955385,49.9582222 252.382693,49.7197778 251.849955,49.3760889 L251.849955,49.2609778 C251.919877,48.9682667 252.161274,48.6295111 252.524201,48.6837778 C252.677363,48.5094667 253.143508,48.3417333 252.940402,48.0358667 C252.041408,47.1528 252.093017,45.6284 250.65962,45.3554222 C250.163508,45.1498667 250.040313,44.6417333 249.992034,44.1648444 C249.317788,43.6073778 248.315575,43.4149778 247.473184,43.4018222 Z M248.297263,52.6189333 C249.177944,53.4148444 248.869955,54.5725333 248.798369,55.6447111 C248.661855,56.2926222 249.489263,55.9176889 249.748972,56.2580889 C250.281709,57.0408444 249.972056,58.1820889 249.780603,59.0306222 C250.246749,58.3317333 250.782816,57.7183556 251.142413,56.9553333 C251.125765,56.6642667 251.502011,56.5310667 251.488693,56.1742222 C251.641855,55.6808889 251.059173,55.9012444 250.817777,55.8469778 C250.611341,55.7976444 250.384927,55.6595111 250.45152,55.3898222 C250.901017,54.5363556 250.48981,53.5168 250.31667,52.6682667 C250.110235,51.9693778 250.404905,51.0369778 250.075274,50.4236 C249.524223,51.1734667 247.884391,51.3444889 248.297263,52.6189333 Z M249.902134,40.5421333 C251.437084,42.0747556 252.557497,43.6106667 254.212313,45.0923111 C254.248939,44.4328889 254.160704,43.8162222 254.125743,43.1683111 C253.881017,42.7144444 253.434849,42.3724 253.055274,42.0336444 C251.833307,41.9119556 251.194022,40.2872444 249.902134,40.5421333 Z M253.919307,48.6492444 C253.952603,48.8021778 254.02419,48.9353778 254.090782,49.0899556 C254.761698,50.1802222 255.399318,51.3000889 255.867128,52.4742222 C255.72895,51.2178667 256.592983,49.6507111 255.452592,48.6837778 C255.297765,48.2743111 254.780011,48.4108 254.453709,48.4436889 L253.919307,48.6492444 Z M258.054682,61.0746667 C258.53914,61.2884444 259.158447,60.8987111 259.624592,60.6306667 C260.055777,60.5270667 260.418704,60.7655111 260.74667,60.9858667 C260.88152,61.2572 260.74667,61.5120889 260.793285,61.7686222 C261.830458,62.0564 262.845989,62.4313333 263.761631,63.0249778 L264.049642,62.7388444 C264.119564,62.0054222 263.536883,61.4824889 262.984168,61.0730222 C262.622905,60.8641778 262.085173,60.9858667 261.830458,60.6619111 C262.001933,60.3922222 262.001933,59.9827556 261.98362,59.6752444 C261.412592,59.6752444 261.05133,59.5058667 260.585184,59.2312444 C260.297173,59.1490222 260.035799,58.9105778 259.794402,59.2312444 C258.933698,59.8117333 258.882089,60.6619111 258.054682,61.0730222 L258.054682,61.0746667 Z M259.26333,39.6689333 C259.692849,39.5538222 260.144011,39.4304889 260.505274,39.1262667 C261.655654,38.0886222 263.330447,38.7842222 264.672279,38.7677778 C264.39645,38.3049679 264.080033,37.8669617 263.72667,37.4588 C263.243877,37.2713333 262.79438,37.0476889 262.24333,37.0476889 C261.069642,36.3718222 260.27886,37.5081333 259.379866,38.0672444 C259.141799,38.5326222 259.021933,39.2101333 259.26333,39.6689333 Z M259.296626,43.1699556 C259.296626,43.1222667 259.296626,43.068 259.34657,43.0548444 C259.503061,43.1896889 259.329922,43.512 259.589631,43.5794222 C260.037464,43.3607111 260.452,43.0532 260.863207,42.7670667 C262.020246,42.7670667 262.709475,41.662 263.843207,41.662 C265.739419,41.9991111 267.622313,42.3740444 269.273799,43.29 C269.155598,42.1865778 268.188346,41.1834667 267.209441,40.6868444 C266.655061,40.4993778 266.223877,40.7920889 265.827654,41.0963111 C264.670615,41.8132889 265.278268,40.0603111 264.465844,40.0241333 C263.415352,40.3513778 262.328235,40.7049333 261.157877,40.6062667 C260.468648,40.8578667 259.98419,41.4844 259.210056,41.4202667 C259.175095,41.9810222 259.088525,42.6634667 259.296626,43.1699556 Z M260.090737,46.9653333 C260.44867,47.3386222 261.05133,47.2695556 261.572413,47.3386222 L263.070737,46.7630667 C263.087385,46.4900889 262.62124,46.4177333 262.724458,46.1168 C263.138994,45.6563556 263.710022,45.9786667 264.222782,45.7895556 C264.950302,45.6908889 265.69114,44.9755556 266.412,45.5034222 C266.395352,45.5856444 266.448626,45.7089778 266.378704,45.7895556 C266.152291,46.3190667 266.535196,46.6413778 266.946402,46.8436444 C267.792123,46.9998667 268.58457,47.7645333 269.430291,47.4224889 C269.345385,46.7268889 269.155598,46.0806222 268.980793,45.4162667 C268.274916,45.2962222 267.775475,44.7173778 267.119542,44.4789333 C266.824872,44.7502667 266.448626,44.9558222 266.085698,44.9229333 C264.757184,44.6170667 263.172291,43.7997778 261.828793,44.6351556 C261.346,45.2107111 260.481966,45.0413333 259.829363,45.2929333 C259.865989,45.8767111 259.932581,46.4374667 260.090737,46.9653333 Z M260.658436,57.0737333 C260.551888,57.3631556 260.262212,57.8400444 260.793285,57.9748889 C261.898715,58.0110667 263.312134,57.4486667 264.176168,58.2988444 C264.465844,58.5224889 264.327665,58.978 264.311017,59.2690667 L265.757732,60.4612889 C265.897575,59.7459556 266.153955,59.0980444 266.172268,58.3317333 C266.054067,57.7890667 265.776045,57.2595556 265.294916,56.9027111 C264.345978,56.9027111 263.791598,55.8075111 262.776067,55.9472889 C262.24333,55.8256 261.778849,56.2926222 261.241117,56.2926222 C260.999721,56.5310667 260.863207,56.8204889 260.658436,57.0737333 Z M261.071307,49.0570667 C261.294391,49.5142222 261.555765,50.2640889 261.98695,50.3150667 C263.00248,49.8743556 264.484156,49.5997333 265.622883,50.0766222 C266.002458,50.1440444 266.002458,50.5699556 265.917553,50.8445778 C266.500235,51.1833333 267.211106,51.4530222 267.828749,51.8296 L267.657274,50.8100444 C267.620648,49.7033333 266.208894,49.5997333 266.122324,48.5078222 C264.96695,48.1361778 263.675061,48.0177778 262.45143,48.3072 C262.051877,48.6656889 261.485844,48.6147111 261.00305,48.7183111 C260.969754,48.8531556 261.052994,48.9353778 261.071307,49.0570667 Z M261.365978,54.5676 C262.038559,54.3801333 262.464749,53.6467111 263.192268,53.5825778 C264.294369,53.6006667 265.278268,54.0397333 265.965832,54.9770667 C266.382034,55.2467556 266.295464,55.9472889 266.828201,55.9472889 C266.673374,55.1119111 266.949732,54.3456 266.916436,53.4970667 C266.188916,52.3064889 264.402581,53.2224444 263.728335,51.8296 L262.453095,51.9118222 C261.539117,52.1338222 261.782179,53.1895556 261.657318,53.9048889 C261.554101,54.1268889 261.347665,54.2946222 261.365978,54.5676 Z M267.68724,62.0054222 C268.223307,63.0595111 269.398659,63.862 269.51686,65.0706667 C269.793218,64.7450667 269.983006,64.3717778 270.172793,64.0165778 C270.152816,63.6745333 269.756592,63.6745333 269.600101,63.4032 C269.445274,62.9624889 269.688335,62.5711111 269.756592,62.1764444 C269.533508,61.5466222 268.997441,60.9513333 268.394782,60.5796889 L267.68724,62.0054222 Z M269.813196,59.3200444 L271.05181,60.9858667 C271.584547,60.1521333 271.584547,58.9303111 271.378112,57.9222667 C271.261575,57.7348 271.033497,57.4289333 270.723844,57.5670667 C270.257698,58.0439556 270.191106,58.7724444 269.813196,59.3200444 Z M264.758849,12.7658222 C265.208346,12.9878222 265.639531,13.1933778 266.172268,13.2246222 C266.53686,13.0388 267.003006,12.9023111 267.449173,13.0207111 C268.086793,13.4301778 268.862592,12.9352 269.601765,12.9713778 C268.949162,12.3596444 268.204994,11.9847111 267.449173,11.6295111 C266.483587,11.8301333 265.709453,12.5092889 264.758849,12.7658222 Z M271.501307,14.3658667 C272.411955,14.4480889 273.066223,15.2472889 273.687196,15.9165778 C274.464659,16.0316889 275.052335,16.5743556 275.515151,17.1384 L275.222145,16.2356 C275.015709,15.3311556 274.446346,14.6355556 273.863665,13.9235111 C273.036257,13.9744889 272.222168,14.0419111 271.501307,14.3658667 Z" id="Shape" fill="#FFFFFF" fill-rule="nonzero"></path>
            <path d="M207.176592,6.90173333 L207.676034,6.95271111 C209.02286,7.61706667 211.193765,7.95582222 211.313631,9.87653333 C209.956816,10.4060444 208.64495,11.1213778 207.559497,12.2067111 C206.733754,11.3729778 205.058961,11.8317778 204.784268,10.3715111 C205.043978,8.99346667 205.541754,7.26351111 207.176592,6.90173333 Z M208.473475,15.5268444 C210.038391,15.392 211.556693,15.6090667 213.179877,15.4775111 C213.576101,15.6452444 213.987307,15.9872889 214.17876,16.3770222 C214.125486,18.2122222 213.556123,19.9668444 213.469553,21.8530222 C212.765341,22.1457333 212.074447,22.7212889 211.902972,23.4859556 C211.263687,23.6717778 210.694324,24.05 210.073352,24.3361333 C209.798659,23.7605778 209.850268,22.8906667 210.336391,22.4170667 C211.005642,21.4797333 212.748693,21.7000889 212.607184,20.2217333 C213.056682,19.5047556 212.623832,18.5871556 212.64381,17.8372889 C212.47067,17.2781778 212.299196,18.0264 212.022838,18.0083111 C211.473453,18.1234222 210.902425,18.1596 210.422961,17.8915556 C210.056704,17.5133333 209.610536,17.2091111 209.507318,16.6993333 C209.024525,16.4608889 208.458492,16.0876 208.21543,15.5926222 L208.473475,15.5268444 Z M210.368022,26.6153333 C211.105531,26.7156444 211.882994,26.3949778 212.522279,26.7501778 C212.384101,26.9886222 212.022838,27.0905778 211.729832,27.1596444 L210.574458,27.6875111 C210.144939,27.5822667 210.38467,26.9031111 210.368022,26.6153333 Z M213.386313,12.4122667 C214.123821,12.1738222 214.919598,11.6837778 215.712045,11.9222222 C215.142682,12.4829778 214.696514,13.2131111 214.26533,13.8922667 L211.904637,13.8429333 C212.159352,13.2312 212.81362,12.7214222 213.386313,12.4122667 Z M220.296916,11.8531556 C221.277486,11.6837778 221.225877,12.9417778 222.123207,12.9944 C222.279698,13.1966667 222.504447,13.3824889 222.416212,13.6883556 C221.898458,13.8922667 221.140972,13.7919556 220.551631,13.9268 C219.775832,13.4992444 220.278603,12.1738222 219.053307,12.2593333 C218.986715,12.1606667 218.846872,11.9534667 219.020011,11.8844 C219.401251,11.7528444 219.895698,11.8021778 220.296916,11.8515111 L220.296916,11.8531556 Z M219.677609,16.4115556 C220.105464,15.8146222 220.763061,15.7669333 221.382369,15.6452444 L225.847374,15.7307556 C226.037162,15.9001333 225.675899,16.0530667 225.675899,16.2569778 C225.399542,16.5118667 225.001654,16.5809333 224.760257,16.8210222 C224.177575,16.8391111 224.22419,17.5149778 223.811318,17.8060444 C223.172034,18.4342222 222.244737,18.1480889 221.502235,18.0444889 C221.242525,17.8570222 220.952849,17.6004889 220.829654,17.3110667 L220.623218,17.5149778 C220.882927,18.4687556 220.813006,19.5244889 221.001128,20.4914222 L222.069933,21.1919556 C222.086581,22.7558222 223.951162,22.3315556 224.760257,23.1981778 C224.570469,23.7589333 224.190894,24.2341778 223.779687,24.7127111 C223.158472,24.1198526 222.410293,23.672501 221.590469,23.4037333 C221.523877,22.4828444 220.505017,21.9418222 219.935654,21.4797333 C219.780827,19.8139111 219.745866,18.1135556 219.472838,16.4970667 L219.677609,16.4115556 Z M221.295799,26.9031111 L223.366816,26.9031111 L223.107106,27.9752889 L221.036089,27.1070222 C220.98781,26.9376444 221.174268,26.8866667 221.295799,26.9031111 Z M225.018302,7.6368 L226.551587,7.15991111 C227.433933,7.56608889 228.259676,8.07751111 229.068771,8.65471111 C229.706391,9.81404444 229.601508,11.3746222 229.308503,12.6671556 C228.842358,13.1785778 227.826827,12.6671556 227.448916,13.4828 L227.378994,13.4828 C226.807966,11.8844 225.191441,10.4586667 223.689788,9.72524444 C223.931184,8.9096 224.190894,8.11368889 225.018302,7.6368 Z" id="Shape" fill="#293A7D" fill-rule="nonzero"></path>
            <path d="M260.966425,72.4312 L270.162804,72.4312 C271.524615,72.2289333 272.97133,72.2601778 274.056782,71.2718667 C278.659966,71.9724 283.329743,70.8492444 286.949028,68.3496889 C288.850111,66.8468741 290.53635,65.0966217 291.961754,63.1466667 C293.185385,61.4528889 294.150972,59.8709333 294.775274,57.9748889 C295.241419,56.8024 295.607676,55.5871556 295.885698,54.3357333 C297.200894,48.4420444 296.51,41.8511111 294.570503,36.2386222 C294.21723,35.2172944 293.813871,34.2135454 293.361855,33.2309333 C290.93457,28.2811556 287.634927,22.9416444 282.542291,19.8089778 C279.675497,18.0444889 277.040112,15.3147111 275.420257,12.4944889 C274.54124,11.7084444 273.69552,10.6724444 272.558458,10.4866222 C272.869777,10.9964 273.212726,11.4897333 273.300961,12.0833778 L273.231039,12.1688889 C272.027385,12.2017778 271.076782,11.5752444 270.249374,10.8056444 L271.165017,9.99164444 C270.818737,9.82226667 270.422514,9.75155556 270.042939,9.66933333 C266.560168,9.2796 263.700034,10.8582667 260.616816,11.6262222 L260.566872,11.7939556 C262.458089,12.6260444 262.854313,14.6832444 263.959743,16.0810222 C264.236101,15.7554222 264.702246,15.9938667 265.080156,15.9593333 C265.629542,15.9938667 266.147296,16.3852444 266.680034,16.2487556 C266.698346,15.7899556 266.441966,15.4347556 266.353732,15.0269333 C266.680034,14.8707111 267.079587,15.0104889 267.440849,15.0269333 C268.439732,15.6024889 270.042939,14.9216889 270.663911,16.2487556 C269.525184,16.3194667 268.458045,16.5546222 267.38924,16.8095111 C267.455832,17.2354222 267.888682,17.5774667 267.855385,18.0017333 C266.928752,17.6265189 265.953853,17.3802404 264.958626,17.2699556 L264.908682,17.4212444 C266.203899,18.9176889 267.975251,19.8024 269.786559,20.3319111 C272.386983,20.9255556 274.679419,19.7037333 277.193274,20.128 C283.369698,22.9186222 288.638804,29.2990667 290.93457,35.3539111 C291.046112,35.6449778 291.152659,35.9393333 291.255877,36.2353333 C293.177061,41.7656 293.539989,48.5686667 291.61714,54.3308 C290.593285,56.7333333 289.466212,58.9944444 287.659899,60.9480444 C286.992248,61.7620077 286.233235,62.498498 285.39743,63.1433778 C282.810324,65.1331556 279.620559,66.0047111 276.334235,65.1134222 C276.129464,64.9818667 275.711598,64.9440444 275.779855,64.5872 C275.896391,64.1152444 276.002939,63.6334222 276.096168,63.1433778 C276.643888,60.3757778 276.891944,57.4684 276.748771,54.5643111 C276.742112,54.4393333 276.740447,54.3127111 276.733788,54.1893778 C276.553989,49.9697333 275.701609,46.1743556 274.128369,42.5253333 C273.122827,40.4286667 271.924168,38.1445333 270.415855,36.0939111 C268.616201,33.6469778 266.380369,31.5338667 263.510246,30.4797778 C261.752212,30.0193333 259.577978,29.9371111 258.254458,31.3842222 C257.303855,32.1982222 256.909296,33.3032889 257.04581,34.5103111 C255.564134,35.4410667 253.896,35.9409778 252.083028,36.0939111 C251.638525,36.1317333 251.182369,36.2896 250.722883,36.2879556 C250.283374,36.3076889 249.853855,36.2879556 249.440983,36.2353333 C247.251765,35.9689333 245.045899,34.8128889 243.367777,33.4792444 C243.332816,32.6011111 243.279542,31.7624444 243.246246,30.8316889 C242.282324,30.3367111 241.489877,29.3977333 241.419955,28.2959556 L241.50819,28.2104444 C242.05924,28.3781778 242.542034,28.6511556 243.03981,28.9422222 C242.815061,27.6151556 242.558682,26.3061778 241.886101,25.1501333 C241.265128,24.8936 240.640827,24.6913333 240.058145,24.3821778 C239.385564,23.9414667 238.95438,23.1422667 238.854492,22.4088444 C239.455486,22.9909778 240.507642,22.7854222 240.973788,23.3971556 C240.164693,21.0340889 240.14638,18.3289778 238.817866,16.1681778 C238.145285,14.5697778 236.387251,13.838 235.180268,12.6622222 C234.714123,12.1031111 234.527665,11.322 233.681944,11.2348444 C232.992715,11.0654667 232.939441,10.2975111 232.819575,9.80746667 C233.25076,9.8568 233.612022,10.1478667 233.976615,10.2152889 C232.974402,7.59404444 232.095385,4.68995556 229.390078,3.02248889 L228.923933,3.31026667 C227.875106,3.46648889 226.753028,3.53062222 225.700872,3.56515556 C226.167017,2.88435556 226.994425,2.59657778 227.648693,2.28742222 C226.889542,1.72831111 226.266905,1.59182222 225.317966,1.43724444 C224.765251,1.98484444 223.769698,2.25288889 223.063821,2.40746667 L222.980581,2.34168889 C222.960603,1.72995556 222.81743,0.9768 223.749721,0.827155556 C222.854056,0.401244444 221.370715,0.570622222 220.456737,0.827155556 C220.197028,1.48986667 219.461184,2.08515556 219.509464,2.86626667 C218.978391,3.41222222 218.598816,4.14235556 218.044436,4.53373333 C218.031117,3.22475556 218.592156,2.01608889 218.835218,0.912666667 C218.059419,1.1988 217.270302,1.60662222 216.51448,1.96511111 C215.289184,1.26786667 214.000626,0.570622222 212.693754,0.0460444444 C212.572223,-0.00657777778 212.310849,-0.0575555556 212.364123,0.161155556 C213.482872,0.962 213.050022,2.4568 213.169888,3.59804444 L212.462346,3.02248889 C212.117732,2.15422222 211.122179,1.52604444 210.952369,0.572266667 C209.778682,0.792622222 209.02952,1.09848889 207.944067,1.55893333 L207.79257,1.6428 C208.6,1.6428 209.290894,2.27097778 209.687117,2.9008 C208.465151,2.96986667 207.378034,2.49133333 206.17438,2.37457778 C206.051184,2.25617778 205.951296,2.11968889 205.758179,2.13777778 C205.15219,2.35977778 204.63943,2.78404444 204.103363,3.19351111 C202.914693,4.34791111 201.706045,5.62728889 201.140011,7.15497778 C201.537899,7.22404444 202.037341,7.2076 202.330346,7.44604444 C201.677743,7.83577778 201.106715,8.49848889 200.46743,8.87342222 C200.244346,9.75977778 200.277642,10.7628889 200.226034,11.7331111 C199.726592,12.4796889 199.055676,13.1424 198.727709,13.9744889 C197.658905,17.3949333 197.382547,21.1853778 197.539039,25.0646222 C197.19276,25.3852889 196.743263,25.5941333 196.418626,25.8473778 L196.455251,29.3171556 L196.538492,29.3171556 C196.698313,28.5837333 197.575665,28.1775556 198.108402,27.6842222 L198.281542,27.6842222 C198.198302,28.4653333 198.091754,29.2464444 198.075106,30.0489333 L197.076223,30.8645778 C196.077341,31.7312 196.923061,33.0385333 196.833162,34.1271556 C196.906413,34.4182222 196.953028,34.8424889 197.166123,34.9115556 C197.282659,34.4872889 197.662235,34.1797778 197.901966,33.8064889 C198.333151,33.7012444 198.711061,33.3624889 199.107285,33.3131556 C198.883083,34.1663424 198.594828,35.0018409 198.244916,35.8127111 C198.055231,35.9351703 197.879417,36.0774091 197.720503,36.2369778 C197.542671,36.4082057 197.420893,36.628163 197.370894,36.8684444 C198.145028,40.9006222 199.363665,44.8768889 200.762101,48.6706222 C199.813162,50.2492889 199.27543,52.1140889 198.486313,53.7486667 C198.373106,53.9772444 198.271553,54.2091111 198.176659,54.4459111 C197.384212,56.4258222 197.14448,58.6326667 196.157251,60.5352889 C195.758327,60.2699181 195.331959,60.0472135 194.885341,59.8709333 C193.02076,59.2592 190.866503,59.6505778 189.508022,61.0615111 C188.299374,60.8395111 187.05743,61.0434222 186.106827,61.6716 C185.429251,62.1764444 184.903173,62.7832444 184.603508,63.4936444 C184.400402,63.9869778 184.303844,64.5230667 184.33714,65.1101333 C183.558011,65.6363556 183.143475,66.452 182.88876,67.2692889 C182.525832,69.1077778 183.178436,71.0186222 184.24724,72.4295556 L260.966425,72.4295556 L260.966425,72.4312 Z" id="Path" fill="#FFFFFF"></path>
            <path d="M294.570503,36.2402667 C294.21723,35.2189389 293.813871,34.2151898 293.361855,33.2325778 C290.93457,28.2828 287.634927,22.9432889 282.542291,19.8106222 C279.675497,18.0461333 277.040112,15.3163556 275.420257,12.4961333 C274.54124,11.7100889 273.69552,10.6740889 272.558458,10.4882667 C272.869777,10.9980444 273.212726,11.4913778 273.300961,12.0850222 L273.231039,12.1705333 C272.027385,12.2050667 271.076782,11.5768889 270.249374,10.8072889 L271.165017,9.99328889 C270.818737,9.82391111 270.422514,9.7532 270.042939,9.67097778 C266.560168,9.28124444 263.700034,10.8599111 260.616816,11.6278667 L260.566872,11.7956 C262.458089,12.6276889 262.854313,14.6848889 263.959743,16.0826667 C264.236101,15.7570667 264.702246,15.9955111 265.080156,15.9609778 C265.629542,15.9955111 266.147296,16.3868889 266.680034,16.2504 C266.698346,15.7916 266.441966,15.4364 266.353732,15.0285778 C266.680034,14.8723556 267.079587,15.0121333 267.440849,15.0285778 C268.439732,15.6041333 270.042939,14.9233333 270.663911,16.2504 C269.525184,16.3211111 268.458045,16.5562667 267.38924,16.8111556 C267.455832,17.2370667 267.888682,17.5791111 267.855385,18.0033778 C266.928752,17.6281633 265.953853,17.3818849 264.958626,17.2716 L264.908682,17.4228889 C266.203899,18.9193333 267.975251,19.8056889 269.786559,20.3335556 C272.386983,20.9288444 274.679419,19.7053778 277.193274,20.1296444 C283.369698,22.9202667 288.638804,29.3007111 290.93457,35.3555556 C291.046112,35.6466222 291.152659,35.9409778 291.255877,36.2369778 C293.177061,41.7672444 293.539989,48.5703111 291.61714,54.3340889 C290.593285,56.7349778 289.466212,58.9960889 287.659899,60.9496889 C286.992248,61.7636521 286.233235,62.5001425 285.39743,63.1450222 C282.810324,65.1348 279.620559,66.0063556 276.334235,65.1150667 C276.129464,64.9835111 275.711598,64.9456889 275.779855,64.5888444 C275.896391,64.1168889 276.002939,63.6350667 276.096168,63.1450222 C276.643888,60.3774222 276.891944,57.4700444 276.748771,54.5659556 C276.742112,54.4409778 276.740447,54.3143556 276.733788,54.1910222 C276.553989,49.9713778 275.701609,46.176 274.128369,42.5269778 C273.122827,40.4303111 271.924168,38.1461778 270.415855,36.0955556 C268.616201,33.6486222 266.380369,31.5355111 263.510246,30.4814222 C261.752212,30.0209778 259.577978,29.9387556 258.254458,31.3858667 C257.303855,32.1998667 256.909296,33.3049333 257.04581,34.5119556 C255.564134,35.4427111 253.896,35.9442667 252.083028,36.0955556 C251.638525,36.1333778 251.182369,36.2928889 250.722883,36.2896 C250.283374,36.3093333 249.853855,36.2896 249.440983,36.2369778 C247.251765,35.9722222 245.045899,34.8145333 243.367777,33.4825333 C243.332816,32.6027556 243.279542,31.7640889 243.246246,30.8316889 C242.282324,30.3383556 241.489877,29.4010222 241.419955,28.2976 L241.50819,28.2120889 C242.05924,28.3814667 242.542034,28.6528 243.03981,28.9438667 C242.815061,27.6168 242.558682,26.3078222 241.886101,25.1517778 C241.265128,24.8952444 240.640827,24.6929778 240.058145,24.3838222 C239.385564,23.9431111 238.95438,23.1439111 238.854492,22.4104889 C239.455486,22.9926222 240.507642,22.7870667 240.973788,23.3988 C240.164693,21.0357333 240.14638,18.3306222 238.817866,16.1698222 C238.145285,14.5714222 236.387251,13.8412889 235.180268,12.6655111 C234.714123,12.1064 234.527665,11.3236444 233.681944,11.2364889 C232.992715,11.0671111 232.939441,10.2991556 232.819575,9.80911111 C233.25076,9.85844444 233.612022,10.1495111 233.976615,10.2169333 C232.974402,7.59568889 232.095385,4.6916 229.390078,3.02413333 L228.923933,3.31191111 C227.875106,3.46813333 226.753028,3.53226667 225.700872,3.5668 C226.167017,2.886 226.994425,2.59822222 227.648693,2.29071111 C226.889542,1.7316 226.266905,1.59346667 225.317966,1.43888889 C224.765251,1.98648889 223.769698,2.25617778 223.063821,2.40911111 L222.980581,2.34333333 C222.960603,1.7316 222.81743,0.978444444 223.749721,0.8288 C222.854056,0.402888889 221.370715,0.572266667 220.456737,0.8288 C220.197028,1.49151111 219.461184,2.0868 219.509464,2.86791111 C218.978391,3.41551111 218.598816,4.144 218.044436,4.53537778 C218.031117,3.2264 218.592156,2.01773333 218.835218,0.914311111 C218.059419,1.20208889 217.270302,1.60826667 216.51448,1.96675556 C215.289184,1.27115556 214.000626,0.572266667 212.693754,0.0476888889 C212.572223,-0.00493333333 212.310849,-0.0559111111 212.364123,0.1628 C213.482872,0.963644444 213.050022,2.45844444 213.169888,3.59968889 L212.462346,3.02413333 C212.117732,2.15586667 211.122179,1.52768889 210.952369,0.573911111 C209.778682,0.794266667 209.02952,1.10013333 207.944067,1.56057778 L207.79257,1.64444444 C208.6,1.64444444 209.290894,2.27426667 209.687117,2.90244444 C208.465151,2.97151111 207.378034,2.49297778 206.17438,2.37622222 C206.051184,2.25782222 205.951296,2.12133333 205.758179,2.13942222 C205.15219,2.36142222 204.63943,2.78568889 204.103363,3.19515556 C202.914693,4.34955556 201.706045,5.62893333 201.140011,7.15662222 C201.537899,7.22568889 202.037341,7.20924444 202.330346,7.44768889 C201.677743,7.83742222 201.106715,8.50013333 200.46743,8.87506667 C200.244346,9.76142222 200.277642,10.7645333 200.226034,11.7347556 C199.726592,12.4813333 199.055676,13.1440444 198.727709,13.9761333 C197.658905,17.3965778 197.382547,21.1886667 197.539039,25.0662667 C197.19276,25.3869333 196.743263,25.5974222 196.418626,25.8490222 L196.455251,29.3188 L196.538492,29.3188 C196.698313,28.5853778 197.575665,28.1792 198.108402,27.6858667 L198.281542,27.6858667 C198.198302,28.4686222 198.091754,29.2480889 198.075106,30.0505778 L197.076223,30.8662222 C196.077341,31.7328444 196.923061,33.0401778 196.833162,34.1288 C196.906413,34.4198667 196.953028,34.8441333 197.166123,34.9132 C197.282659,34.4889333 197.662235,34.1814222 197.901966,33.8081333 C198.333151,33.7028889 198.711061,33.3641333 199.107285,33.3148 C198.883083,34.1679869 198.594828,35.0034853 198.244916,35.8143556 C198.055231,35.9368148 197.879417,36.0790535 197.720503,36.2386222 C197.542381,36.4102936 197.420581,36.6308636 197.370894,36.8717333 C198.145028,40.9006222 199.363665,44.8801778 200.762101,48.6722667 C199.813162,50.2509333 199.27543,52.1157333 198.486313,53.7503111 C198.373106,53.9805333 198.271553,54.2107556 198.176659,54.4475556 C197.384212,56.4274667 197.14448,58.6343111 196.157251,60.5369333 C195.758327,60.2715626 195.331959,60.048858 194.885341,59.8725778 C193.02076,59.2624889 190.866503,59.6522222 189.508022,61.0631556 C188.299374,60.8411556 187.05743,61.0450667 186.106827,61.6732444 C185.429251,62.1780889 184.903173,62.7848889 184.603508,63.4952889 C184.400402,63.9886222 184.303844,64.5247111 184.33714,65.1117778 C183.558011,65.638 183.143475,66.4552889 182.88876,67.2709333 C182.525832,69.1094222 183.178436,71.0202667 184.24724,72.4312 L214.704838,72.4312 C214.255341,71.9049778 213.842469,71.1748444 213.529486,70.5450222 C212.876883,69.5731556 213.324715,68.1967556 213.254793,67.0752444 C213.875765,65.8386222 214.505061,64.5954222 215.214268,63.3867556 C215.357441,63.1433778 215.502279,62.9049333 215.648782,62.6697778 L217.047218,62.1435556 C217.788056,62.1435556 218.410693,61.6156889 219.114905,61.7998667 C220.063844,62.7372 220.063844,60.8658222 220.979486,60.7803111 C223.11543,60.5089778 225.234726,60.7112444 226.440045,62.4987556 C226.440045,62.7372 226.82295,62.7372 226.734715,62.9592 C226.458358,63.0414222 226.198648,62.8704 225.907307,62.8704 C224.598771,62.5497333 223.062156,61.7291556 221.770268,62.4625778 C221.720324,62.7668 221.653732,63.0776 221.592134,63.3834667 C221.525792,63.6970085 221.475782,64.0137064 221.442302,64.3323111 C222.284693,64.5707556 222.99057,65.1660444 223.629855,65.8123111 C224.061039,64.9785778 224.973352,64.6052889 225.784112,64.3323111 C226.491654,64.4852444 227.265788,64.5033333 227.855128,64.9440444 C228.940581,65.9323556 228.404514,67.6162667 228.304626,68.8742667 C229.283531,69.4169333 230.368983,69.7260889 231.367866,70.2506667 C230.901721,70.6634222 230.285743,70.8311556 229.71638,71.0367111 L228.063229,70.7111111 C227.873441,70.5762667 227.54381,70.5762667 227.475553,70.3378222 C226.924503,70.9133778 226.251922,71.6813333 225.907307,72.4279111 L249.519229,72.4279111 C249.207911,71.7306667 248.846648,71.1863556 248.415464,70.5417333 C247.93267,69.5205333 248.124123,68.1244 248.070849,67.0357778 L250.276715,63.7189333 C251.482034,63.7024889 252.847173,63.2584889 254.155709,63.4821333 C254.220847,63.4533465 254.283728,63.4198171 254.343832,63.3818222 C254.888223,63.0101778 255.053039,62.1484889 255.862134,62.2570222 C257.307184,61.8672889 258.412615,62.5152 259.499732,63.1598222 C259.468128,63.2364305 259.430846,63.3106318 259.38819,63.3818222 C258.933698,64.0988 258.082983,63.2979556 257.462011,63.5133778 C257.202302,63.7863556 257.583542,64.1086667 257.633486,64.4178222 C257.858235,64.7204 257.408737,64.6858667 257.255575,64.7384889 C256.878192,64.8036769 256.49223,64.6841555 256.220067,64.4178222 C256.153475,64.3306667 256.203419,64.2303556 256.06857,64.2139111 C255.755587,64.7204 255.307754,65.1824889 255.186223,65.7596889 C255.582447,66.1379111 256.115184,66.5095556 256.306637,66.9864444 C256.70286,67.5488444 255.996983,67.9731111 255.860469,68.4664444 C255.80886,68.5651111 255.650704,68.5651111 255.60076,68.4664444 C255.234503,68.2625333 254.928179,67.7511111 254.530291,67.8843111 C254.184011,69.4004889 254.650156,70.9150222 254.443721,72.4279111 C255.116302,72.5841333 255.908749,72.3950222 256.631274,72.4279111 L256.925944,69.2294667 C257.233933,67.1574667 258.479207,65.4209333 259.94257,63.8356889 C261.524134,62.7684444 262.544659,64.8766222 263.715017,65.6084 C263.906469,65.6412889 263.838212,65.8452 263.921453,65.9636 C263.904804,66.3056444 263.543542,66.4404889 263.302145,66.5440889 C262.576291,66.7956889 262.041888,66.0145778 261.595721,65.5557778 C261.166201,66.0162222 260.974749,66.6246667 260.475307,66.9864444 L260.646782,67.0357778 C261.219475,67.5981778 261.765531,68.1918222 261.892056,68.9400444 C261.822134,69.6192 261.475855,70.2819111 260.854883,70.6256 C260.404978,69.8401223 260.019723,69.0201929 259.702838,68.1737333 C259.719486,68.2099111 259.68286,68.2247111 259.649564,68.2608889 C258.700626,68.5141333 258.447575,69.5682222 258.289419,70.4200444 C258.339363,71.2537778 257.703408,71.5941778 257.873218,72.4262667 L270.164469,72.4262667 C271.526279,72.2223556 272.972994,72.2552444 274.058447,71.2669333 C278.663296,71.9658222 283.331408,70.8426667 286.950693,68.3447556 C288.851776,66.8419408 290.538014,65.0916884 291.963419,63.1417333 C293.18705,61.4479556 294.152637,59.8643556 294.776939,57.9699556 C295.243084,56.7974667 295.609341,55.5822222 295.889028,54.3291556 C297.199229,48.4420444 296.51,41.8511111 294.568838,36.2402667 L294.570503,36.2402667 Z" id="Path" fill="#293A7D"></path>
            <path d="M215.475642,67.8070222 C216.146559,67.3811111 217.233676,67.2775111 217.385173,66.2941333 C217.11381,66.0869333 216.869084,65.8320444 216.55943,65.7646222 L215.851888,65.9668889 C215.901832,65.5590667 216.128246,65.1002667 216.269754,64.6595556 L218.542212,63.9294222 C218.229229,64.9489778 218.111028,66.2234222 218.006145,67.3992 C218.212581,69.1340889 218.472291,70.9873778 219.36962,72.4312 L216.920693,72.4312 C216.646,70.8344444 214.952894,69.6751111 215.473978,67.8070222 L215.475642,67.8070222 Z M220.768056,65.7646222 L220.902905,65.7646222 L222.556056,67.2446222 L222.797453,67.1952889 C222.657641,68.9374294 222.57713,70.6837183 222.556056,72.4312 L220.764726,72.4312 C220.400134,70.7489333 219.79914,68.9778667 219.869061,67.1607556 C220.178715,66.7003111 220.385151,66.1214667 220.768056,65.7629778 L220.768056,65.7646222 Z M224.452268,67.3992 C224.781899,66.9765778 224.918413,66.2579556 225.572682,66.1773778 C226.038827,66.1888889 226.470011,66.2596 226.817955,66.5835556 C227.41895,67.3301333 226.829609,68.2872 226.61152,69.0337778 C226.368458,70.1733778 225.952257,71.3606667 225.574346,72.4328444 L223.834626,72.4328444 L224.452268,67.4008444 L224.452268,67.3992 Z M250.599687,66.8713333 C250.979263,67.3482222 251.099128,67.9944889 251.668492,68.4187556 C252.167933,67.7396 252.289464,66.6838667 252.048067,65.8172444 L251.548626,65.3239111 C252.187911,65.1709778 252.857162,65.1183556 253.496447,65.0016 C253.220089,65.9027556 252.699006,66.7184 252.788905,67.7724889 C252.805553,69.3034667 253.063598,70.8360889 253.201777,72.4312 L251.307229,72.4312 C250.618,70.9347556 249.927106,69.5073778 249.978715,67.7724889 C250.185151,67.4649778 250.32333,67.1064889 250.599687,66.8713333 Z" id="Shape" fill="#293A7D" fill-rule="nonzero"></path>
            <path d="M258.753899,34.1945778 C258.735587,34.6352889 258.409285,35.1269778 258.700626,35.5052 C259.116827,35.0447556 259.804391,35.0612 260.357106,34.8572889 C261.892056,34.7191556 263.355419,35.1976889 264.785486,35.5397333 C264.424223,34.9756889 264.182827,34.3475111 263.784939,33.8377333 C262.990827,33.6321778 261.785508,34.1781333 261.648994,33.0188 C261.166201,32.6109778 260.408715,32.9020444 259.907609,32.9349333 C259.431863,33.2635825 259.037468,33.6941916 258.753899,34.1945778 Z M206.074492,19.5064 L206.047855,19.4899556 L206.051184,19.5064 L206.074492,19.5064 Z M212.340816,34.6270667 L213.376324,33.6404 C213.464559,33.6404 213.532816,33.6568444 213.58276,33.7226222 L213.497855,35.6120889 C213.997296,36.0725333 214.613274,36.2221778 215.269207,36.2583556 C215.32248,35.7485778 215.718704,35.3900889 215.943453,34.9477333 C216.13324,34.5925333 216.013374,34.0646667 216.391285,33.8130667 L216.512816,33.9281778 C216.629352,34.4922222 216.596056,35.1204 216.892391,35.6120889 C216.925687,35.8850667 216.975631,36.2221778 217.008927,36.4622667 C217.769743,36.4951556 218.458972,36.2928889 219.043318,36.0182667 C219.008358,35.3736444 219.234771,34.8474222 219.334659,34.2537778 C219.492816,34.0482222 219.144872,33.6732889 219.576056,33.6913778 C219.819117,34.2011556 220.248637,34.7273778 220.491698,35.2733333 C221.490581,34.2702222 221.906782,32.9628889 222.143184,31.5996444 C221.851844,31.2099111 221.404011,31.2099111 221.056067,30.9533778 C218.127676,30.0193333 214.373542,29.8335111 211.545039,31.2773333 C211.355251,32.4284444 211.596648,33.7045333 212.340816,34.6270667 Z M184.946458,66.5424444 C184.841575,67.8514222 184.946458,69.0798222 185.031363,70.374 C185.307721,70.7999111 185.810492,71.2948889 186.309933,71.3244889 L186.394838,70.4562222 C186.601274,69.2492 185.947006,67.9681778 186.637899,66.9469778 C187.115725,67.1085628 187.577671,67.312768 188.018022,67.5570667 C188.224458,66.4372 187.929788,65.1232889 186.84267,64.4424889 L184.946458,66.5424444 Z M189.205028,64.7023111 C188.532447,66.6937333 188.03467,69.1456 188.843765,71.2439111 C189.309911,70.9347556 189.791039,70.6453333 190.203911,70.2210667 C190.119006,68.6210222 189.894257,66.9157333 190.859844,65.5853778 C191.702235,65.8419111 192.274927,66.6411111 192.597899,67.4222222 C193.170592,66.7085333 193.358715,65.7202222 193.135631,64.7713778 C193.170592,64.0215111 192.308223,64.1941778 191.893687,63.8866667 C192.030201,63.2568444 192.011888,62.53 192.686134,62.1698667 L190.620112,62.3737778 C190.085709,63.1236444 189.499698,63.8504889 189.205028,64.7023111 Z M193.463598,70.5795556 C193.550168,70.7308444 193.463598,71.0054667 193.638402,71.04 C193.894782,69.6093333 195.06514,68.6851556 195.706089,67.4222222 C196.014078,67.0028889 195.999095,66.4026667 196.498536,66.082 C197.169453,66.082 197.653911,66.5588889 198.309844,66.6082222 C198.514615,66.7628 198.201631,66.8992889 198.184983,67.0686667 C198.050134,68.228 197.602302,69.1834222 197.685542,70.3756444 L197.807073,70.3756444 C198.719385,69.4218667 199.340358,68.3957333 200.012939,67.3071111 L200.129475,66.3401778 C200.289296,65.1824889 199.014056,64.4359111 198.181654,63.9573778 L198.924156,63.0200444 L197.888648,62.6632 C196.68333,62.7816 195.596212,63.2765778 194.752156,64.2139111 C193.70333,66.1148889 193.531855,68.2658222 193.463598,70.5795556 Z M198.101743,60.4859556 C198.494637,60.6027111 198.857564,60.2836889 199.252123,60.4497778 C200.840346,61.0302667 202.493497,61.6239111 203.683832,62.9328889 L205.098916,66.4898222 L205.804793,64.2928444 L205.338648,63.1055556 C204.94076,62.2553778 203.856972,62.3244444 203.114469,62.2899111 C202.804816,61.9478667 203.131117,61.5564889 203.236,61.2358222 C203.597263,60.0271556 202.097274,60.0945778 201.494615,59.6012444 C201.529575,58.8727556 200.633911,59.1243556 200.132804,59.0585778 L199.96133,58.8546667 C199.858112,58.6984444 199.600067,58.6984444 199.460223,58.8184889 C199.428592,58.7675111 199.360335,58.7329778 199.393631,58.6491111 L199.015721,58.7329778 C198.477989,59.1934222 198.116726,59.7870667 198.100078,60.4859556 L198.101743,60.4859556 Z M199.097296,56.5738222 C199.153861,56.7991784 199.28014,57.0015121 199.458559,57.1526667 C200.236022,56.9487556 200.98019,56.4176 201.872525,56.7415556 C203.029564,57.7446667 204.233218,58.8004 205.631654,59.3430667 L206.13276,59.2608444 C206.440749,59.3595111 206.785363,59.3759556 206.991799,59.7212889 C207.183251,60.1800889 206.700458,60.4481333 206.547296,60.8230667 C207.32143,61.3854667 207.013441,62.3869333 207.49457,63.0677333 L208.733184,61.4364444 C208.443508,60.7211111 208.751497,59.4976444 207.617765,59.4302222 C207.230208,59.2524825 206.985379,58.8655471 206.993464,58.4435556 C206.254291,57.7808444 205.340313,57.4914222 204.60114,56.8106222 C203.993486,56.3353778 203.633888,55.6052444 202.859754,55.4342222 C202.323687,55.1431556 201.737676,54.9902222 201.120034,54.8586667 C199.96133,54.6843556 199.858112,56.0459556 199.097296,56.5738222 Z M200.755441,53.2224444 L200.961877,53.5513333 C201.822581,53.4970667 202.596715,53.1237778 203.442436,53.1402222 C204.008469,53.4789778 204.750972,53.4608889 205.336983,53.7519556 C205.803128,54.3817778 206.30257,55.0921778 206.988469,55.5180889 C208.386905,55.722 209.161039,57.2069333 209.643832,58.2906222 L209.643832,57.7660444 C209.850268,57.0342667 209.62552,56.1808 209.354156,55.5180889 C209.007877,55.1776889 208.505106,54.9589778 208.145508,54.6547556 C208.075587,54.4327556 208.12886,54.3275111 208.197117,54.1268889 C207.66105,53.5644889 206.870268,53.2569778 206.214335,52.8146222 C205.300358,51.504 203.545654,51.8657778 202.147218,51.504 L200.755441,53.2224444 Z M200.725475,40.7476889 C200.878637,41.2755556 201.065095,41.9382667 201.169978,42.5006667 C201.649441,41.4482222 202.601709,40.9696889 203.445765,40.1047111 C202.961307,39.7807556 202.358648,39.6261778 201.827575,39.5258667 L201.827575,39.4929778 C201.44467,39.8629778 200.860324,40.2379111 200.725475,40.7476889 Z M203.855307,46.3453778 L204.629441,45.5626222 C205.406905,44.7782222 206.047855,43.8754222 206.164391,42.8739556 C205.615006,42.5516444 204.889151,42.7736444 204.358078,42.9611111 C204.168291,44.0628889 203.87362,45.1498667 203.856972,46.3453778 L203.855307,46.3453778 Z M204.423006,48.7429778 C205.613341,48.8087556 206.77038,49.0472 207.735966,48.3828444 L208.701553,45.3241778 C208.38857,45.3044444 208.077251,45.1663111 207.785911,45.2715556 C207.149955,46.6644 205.874715,48.0440889 204.423006,48.7429778 Z M204.774279,37.8929333 C205.548413,39.0144444 206.843631,40.2691556 208.167151,40.6292889 C208.015654,39.1986222 206.773709,38.2119556 206.136089,36.9917778 L206.099464,36.5806667 C205.600022,36.1054222 204.995698,35.7814667 204.479609,35.5282222 C204.396369,36.3438667 204.621117,37.1233333 204.774279,37.8929333 Z M208.974581,48.8778222 C209.888559,49.0307556 210.872458,48.8778222 211.714849,48.6212889 C212.93848,48.3302222 213.612726,47.0064444 214.023933,45.9704444 L212.490648,45.9704444 L210.839162,47.5672 C210.184894,47.9059556 209.563922,48.4157333 208.974581,48.8778222 Z M208.788123,36.3438667 C209.047832,37.6725778 209.620525,38.8796 210.394659,40.0192 L210.59943,37.4834667 L208.788123,36.3438667 Z M214.438469,42.9594667 C214.543352,42.1092889 214.183754,41.1193333 214.082201,40.256 C213.564447,39.9156 212.841922,39.9484889 212.305855,39.6113778 C212.340816,40.9516 213.404626,42.0928444 214.438469,42.9594667 Z M212.871888,51.5977333 C213.957341,51.2589778 215.007832,50.8840444 216.010045,50.3413778 C216.647665,49.4369333 217.609922,48.6229333 217.749765,47.5688444 C216.952324,47.7892 216.268089,47.5326667 215.525587,47.8928 C215.077754,48.6903556 214.799732,49.5964444 213.940693,50.172 C213.802514,50.7475556 213.164894,51.1389333 212.871888,51.5977333 Z M214.56,53.6911111 L215.851888,55.3569333 C216.542782,55.5756444 217.403486,55.5115111 218.006145,55.1201333 L217.544994,53.6072444 C216.629352,53.9443556 215.542235,53.8456889 214.558335,53.6894667 L214.56,53.6911111 Z M216.714257,41.6504889 L217.213698,43.8935111 C218.419017,42.9265778 218.667073,41.514 218.632112,40.0192 C217.944547,40.8003111 217.544994,41.2755556 216.714257,41.6504889 Z M220.112123,45.6103111 C220.118093,45.9267524 220.218263,46.2344522 220.400134,46.4950222 C221.745296,46.9719111 221.883475,48.5851111 223.127084,49.1984889 C223.932849,49.5569778 224.866804,49.1146222 225.571017,48.7873778 C225.038279,48.1953778 224.43562,47.7842667 223.917866,47.1593778 C223.558268,47.0064444 223.190346,46.7844444 223.211989,46.3420889 L220.112123,45.6103111 Z M221.179263,53.6417778 C221.763609,54.2995556 222.556056,54.6448889 223.381799,54.8274222 C223.24695,54.6416 223.471698,54.8274222 223.50333,54.7123111 L222.469486,52.466 C221.951732,52.4824444 221.415665,52.5876889 220.934536,52.5531556 C220.972827,52.9264444 221.056067,53.2997333 221.179263,53.6417778 Z M223.007218,43.1650222 C222.52276,42.0599556 222.324648,40.7131556 222.181475,39.4913333 C221.668715,40.1047111 221.132648,40.4960889 220.64819,41.1209778 C220.423441,42.3789778 222.248067,42.6864889 223.007218,43.1650222 Z M225.106536,42.0056889 C225.730838,42.8081778 227.089318,42.5352 227.848469,42.2951111 C227.485542,41.6833778 226.316849,41.3248889 226.112078,40.6671111 C226.002673,39.5131864 225.753387,38.3764125 225.369575,37.2812 C224.766916,38.7250222 224.037732,40.4434667 225.106536,42.0056889 Z M226.193654,45.6103111 C227.916726,46.8518667 229.606503,48.2973333 232.01714,47.7694667 C232.190279,47.6543556 232.483285,47.6658667 232.516581,47.4471556 C231.810704,47.0064444 231.053218,46.6627556 230.329028,46.2549333 L229.50495,45.0676444 L229.125374,45.0676444 C228.193084,45.3702222 227.194201,45.4952 226.193654,45.6103111 Z M226.228615,59.4039111 L226.35181,59.4039111 C227.383989,58.5882667 228.60762,58.3136444 229.831251,57.9748889 C230.160883,58.0949333 229.952782,58.4517778 230.247453,58.5882667 C230.986626,58.2840444 231.883955,58.3498222 232.641441,58.0949333 C233.553754,58.1278222 234.296257,58.1442667 235.037095,58.5356444 C235.626436,59.3019556 236.725207,59.2148 237.486022,59.7278667 L237.362827,58.5356444 C235.76295,56.6807111 233.264078,56.5458667 230.95333,56.5820444 L230.903385,56.3436 C230.352335,56.3436 229.731363,56.4587111 229.213609,56.6988 C228.474436,56.7333333 227.765229,57.0901778 227.059352,57.3105333 C226.729721,57.9568 226.470011,58.7444889 226.22695,59.4039111 L226.228615,59.4039111 Z M227.612067,38.5030222 C228.282983,39.3712889 229.283531,40.0372889 230.422257,39.8152889 C229.837911,39.2496 229.162,38.6559556 229.128704,37.8584 C229.301844,36.3455111 227.613732,36.2221778 226.786324,35.4410667 C227.062682,36.4606222 227.026056,37.6018667 227.613732,38.5030222 L227.612067,38.5030222 Z M227.435598,62.4132444 L227.642034,62.4132444 C228.554346,61.8541333 229.88286,62.2816889 230.778525,61.6847556 C231.277966,61.4282222 231.312927,62.1090222 231.657542,62.2964889 C232.503263,62.8029778 232.60648,64.3356 233.795151,63.9787556 C235.223553,64.7105333 234.863955,66.4273333 234.915564,67.6853333 L236.244078,66.8713333 C236.122547,66.2069778 236.503788,65.4077778 236.070939,64.8305778 C235.742972,64.0988 234.845642,64.0313778 234.414458,63.4377333 C234.933877,62.5694667 233.76019,62.1583556 233.517128,61.5301778 L233.588715,61.4463111 L235.41667,61.6847556 C236.037642,62.0564 236.262391,62.7372 236.452179,63.3686667 C237.878916,63.6071111 238.223531,65.2038667 238.724637,66.2234222 C239.019307,65.5278222 239.139173,64.7763111 239.432179,64.0971556 C239.448827,63.5364 238.691341,63.5364 238.311765,63.2815111 C238.211877,62.4132444 237.812324,61.5992444 237.036525,61.0730222 C235.451631,60.6783556 234.056525,59.8150222 232.316804,59.8150222 L230.868425,60.2540889 C230.074313,60.4432 229.230257,60.2047556 228.625933,60.7474222 C227.726939,60.8148444 227.660346,61.7867111 227.435598,62.4132444 Z M228.347911,55.4079111 L228.677542,55.5624889 C229.385084,55.2385333 230.090961,54.8636 230.831799,54.5922667 C231.983844,54.2699556 232.879508,55.5624889 233.848425,54.7435556 C234.208022,54.4919556 234.521006,54.8636 234.794034,55.0691556 C235.213564,55.8157333 236.175821,55.7647556 236.901676,55.9670222 C236.538749,55.0000889 236.089251,53.6730222 234.830659,53.5184444 C234.331218,53.2997333 233.743542,53.3178222 233.264078,53.0267556 C231.935564,51.5812889 231.07486,54.2189778 229.623151,53.5743556 C229.107061,54.1318222 228.469441,54.6629778 228.347911,55.4079111 Z" id="Shape" fill="#FFFFFF" fill-rule="nonzero"></path>
            <path d="M228.677542,63.6893333 C229.226927,64.1497778 229.797955,64.9341778 230.660324,64.8305778 C231.727464,65.3239111 231.279631,66.7184 231.863978,67.4501778 L232.48495,66.9058667 L232.433341,66.8696889 L232.519911,66.7858222 L232.556536,66.8318667 C232.728011,66.3253778 232.486615,65.4242222 232.190279,64.8256444 C231.797385,64.5559556 231.332905,64.8437333 230.951665,64.5888444 C230.901721,64.0412444 230.555441,63.7715556 230.160883,63.4344444 C229.884525,63.2272444 229.521598,63.5002222 229.210279,63.4821333 L228.677542,63.6909778 L228.677542,63.6893333 Z M230.831799,42.9594667 C231.399497,43.8935111 232.503263,44.4723556 233.383944,45.1186222 C234.155924,45.4432748 235.010354,45.5253763 235.831207,45.3537778 C235.093571,44.7532362 234.412647,44.0877947 233.796816,43.3656444 C233.553754,43.0236 233.502145,42.5976889 233.177508,42.2934667 C232.366749,42.4480444 231.451106,42.4299556 230.831799,42.9594667 Z M231.782402,36.8733778 C232.574849,37.8419556 233.800145,37.4505778 234.918894,37.4851111 L234.918894,37.3650667 L233.195821,35.9376889 C232.713028,36.0873333 232.196939,36.5132444 231.782402,36.8733778 Z M200.052894,20.8334667 L201.051777,23.8954222 C201.033464,22.1605333 201.847553,20.7117778 201.674413,18.9456444 L202.411922,17.8553778 L200.843676,18.3322667 C200.430804,19.1150222 200.08619,19.8977778 200.052894,20.8334667 Z M200.725475,15.5268444 L202.087285,14.7457333 L202.087285,12.7543111 C201.512927,13.0930667 201.204939,13.6752 200.758771,14.1290667 L200.725475,15.5268444 Z" id="Shape" fill="#FFFFFF" fill-rule="nonzero"></path>
            <path d="M228.680872,18.6216889 C228.352905,19.0459556 227.855128,19.1512 227.440592,19.2317778 C228.164782,17.9260889 228.509397,16.1056889 227.940034,14.6240444 C228.317944,14.4892 228.73248,14.4201333 229.093743,14.2162222 L229.058782,14.1800444 L230.007721,13.3644 C231.264648,12.5142222 230.78019,10.9010222 231.246335,9.69235556 C230.628693,8.74186667 230.438905,7.58417778 229.541575,6.78333333 L229.59152,6.75044444 C228.885642,5.86408889 227.610402,5.96768889 226.644816,5.52697778 C225.367911,5.10106667 224.385676,5.96768889 223.471698,6.54653333 C223.075475,6.6156 223.318536,7.12373333 222.887352,7.10564444 C222.645955,7.73382222 222.351285,8.41626667 222.178145,9.11351111 C220.473385,8.87506667 218.628782,9.06417778 217.266972,10.0146667 C216.541117,9.4868 215.66543,9.38648889 214.819709,9.14804444 C214.200402,9.02635556 213.494525,9.24835556 213.046693,8.90795556 C212.392425,8.17946667 212.250916,6.8524 211.128838,6.66657778 C210.734279,6.52844444 210.651039,6.10253333 210.651039,5.72924444 C209.908536,5.60591111 209.250939,5.2688 208.530078,5.11586667 C207.427978,4.62253333 206.548961,5.40693333 205.721553,5.93151111 C205.356961,6.0828 204.944089,6.13542222 204.60114,6.33933333 C203.981832,7.29311111 203.397486,8.26168889 202.996268,9.31577778 C203.119464,10.1824 203.495709,10.9454222 203.945207,11.6804889 C204.343095,12.7855556 205.583374,13.6538222 206.633866,14.0978222 C206.134952,15.8597442 206.134952,17.7231002 206.633866,19.4850222 C206.633866,19.4850222 206.605564,19.5080444 206.605564,19.5031111 C206.605564,19.5080444 206.550626,19.5540889 206.550626,19.5540889 C206.38914,19.5540889 206.207676,19.5853333 206.074492,19.5047556 L206.051184,19.5047556 C206.29924,21.1278222 207.071709,22.5519111 208.325307,23.7720889 C208.774804,23.9250222 208.668257,24.4528889 208.858045,24.7916444 C208.977911,24.9462222 208.996223,25.2685333 208.944615,25.4033778 C206.408819,25.3176274 203.899604,25.9369745 201.702715,27.1908889 C201.15333,27.4622222 201.394726,28.2104444 201.343117,28.7383111 C202.859754,27.7516444 204.496257,27.0215111 206.305899,26.6959111 C207.081698,26.6482222 207.957385,26.4574667 208.703218,26.6630222 L208.786458,28.1265778 C206.738749,29.1839556 204.496257,29.7940444 202.739888,31.5305778 C202.773184,32.0568 202.669966,32.6652444 202.824793,33.1092444 L204.396369,31.8512444 C205.911341,30.71 207.497899,29.7414222 209.235955,29.1132444 C209.703765,29.6559111 210.186559,30.2380444 210.807531,30.5768 C211.85302,29.9125834 212.999674,29.4184456 214.203732,29.1132444 C214.841352,28.7383111 215.858547,29.0787111 216.271419,28.3321333 L216.56276,26.7830667 C216.51448,26.7501778 216.477855,26.6794667 216.391285,26.6959111 C215.58219,26.2354667 215.046123,25.4379111 215.116045,24.5038667 C214.841352,24.6387111 214.533363,24.7258667 214.203732,24.7390222 C213.930704,24.6732444 213.66933,24.6041778 213.549464,24.3295556 C213.532816,23.9924444 213.358011,23.4810222 213.705955,23.2277778 C214.824704,22.5469778 216.273084,22.5124444 217.684838,22.6144 C218.73533,22.7525333 220.253631,22.6999111 220.618223,23.9250222 C220.566615,24.2835111 220.599911,24.6748889 220.235318,24.9116889 C219.857408,25.1156 219.427888,24.8936 219.081609,24.7390222 C218.806916,25.5744 218.342436,26.5084444 217.395162,26.7814222 L217.511698,27.7664444 C217.631564,28.2104444 217.66819,28.9405778 218.374067,28.786 C220.012235,29.1806667 221.462279,30.0127556 222.890682,30.9122667 C223.37514,30.4386667 223.75305,29.8927111 224.096,29.3993778 C226.64981,30.2528444 228.852346,32.1390222 230.959989,33.892 L231.043229,32.4613333 C229.042134,30.7083556 226.821285,29.4684444 224.510536,28.4998667 C224.598771,28.0394222 224.701989,27.5970667 224.720302,27.1020889 C227.458905,27.2583111 230.060994,28.0920444 232.316804,29.3977333 L232.281844,28.1759111 C229.904503,26.9162667 227.302413,26.0841778 224.460592,26.0512889 C224.361774,25.8941895 224.318995,25.708955 224.339061,25.5250667 C225.71752,25.3047111 226.698089,23.8937778 227.027721,22.6653778 C227.736927,21.8678222 228.752458,20.9995556 228.511061,19.8106222 C228.54211,19.707236 228.575973,19.6046951 228.612615,19.5031111 C228.704179,19.2104 228.78076,18.8979556 228.680872,18.6216889 Z" id="Path" fill="#FFFFFF"></path>
            <path d="M231.07486,22.9942667 L232.488279,22.5502667 L232.646436,21.7708 C233.042659,20.6295556 232.196939,19.7810222 231.782402,18.8765778 L231.07486,22.9942667 Z M234.642536,28.3831111 C235.315117,29.1148889 235.97105,30.2873778 237.161385,29.9305333 C237.071486,29.4372 236.795128,29.0277333 236.626983,28.5853778 C236.31733,28.2301778 236.210782,27.2089778 235.591475,27.5658222 C235.12533,27.2616 235.008793,26.7501778 234.710793,26.3423556 C234.577609,26.9721778 234.660849,27.7532889 234.644201,28.3814667 L234.642536,28.3831111 Z M234.883933,33.3657778 C235.143642,33.7209778 235.216894,34.1830667 235.469944,34.5070222 C235.936089,34.8096 236.626983,34.7586222 237.198011,34.7109333 C237.710771,34.5908889 238.040402,35.15 238.521531,34.8276889 C237.918872,34.4544 237.559274,33.7752444 236.989911,33.2786222 C236.31733,32.7556889 235.59314,33.2144889 234.883933,33.3657778 Z M235.799575,41.2755556 C236.989911,41.9728 238.499888,42.6536 240.086447,42.4151556 C240.257922,42.3329333 240.552592,42.3493778 240.585888,42.1454667 C239.603654,41.8034222 238.571475,40.8348444 237.539296,40.6325778 C236.971598,39.7643111 236.229095,40.8529333 235.504905,40.7838667 C235.521553,40.9861333 235.727989,41.1374222 235.799575,41.2772 L235.799575,41.2755556 Z M239.378905,56.2926222 L239.638615,56.8352889 C239.899989,58.6063556 241.032056,60.236 240.412749,62.1748 C240.930503,62.5349333 241.08533,63.1285778 241.414961,63.6054667 L241.499866,63.6054667 C241.896089,62.1271111 241.621397,60.5961333 241.416626,59.1161333 C241.569788,57.7709778 240.188,56.9898667 239.378905,56.2926222 Z M239.676905,38.8779556 C240.570905,39.5587556 242.002637,39.6245333 243.03648,39.2857778 C242.382212,38.9305778 241.658022,38.5359111 241.121955,38.0606667 L239.676905,38.8779556 Z M243.93048,44.0957778 C243.84724,44.8127556 244.326704,45.4064 244.844458,45.7665333 C245.034246,45.3439111 245.342235,44.9821333 245.377196,44.5068889 C245.214665,43.7463203 244.772098,43.0724226 244.135251,42.6157778 C244.018715,43.0926667 243.877207,43.5531111 243.93048,44.0957778 Z M243.982089,51.8542667 C243.858894,52.6518222 244.756223,52.7554222 245.134134,53.1977778 C245.445453,53.5727111 244.927698,53.8276 244.927698,54.1844444 C245.583631,55.0165333 245.964872,55.9653778 245.964872,57.0737333 C246.219587,56.0377333 246.61581,55.0510667 246.755654,53.9821778 C246.685732,53.2306667 245.482078,53.3868889 245.670201,52.5515111 C246.01648,51.7013333 245.601944,50.8692444 245.377196,50.1012889 C245.310603,49.9845333 245.152447,49.7444444 245.017598,49.8151556 C244.704615,50.5091111 243.93048,51.0040889 243.982089,51.8542667 Z M246.342782,47.8056444 L247.238447,49.5224444 C247.63467,49.4731111 247.892715,49.0981778 248.202369,48.8252 C248.443765,48.1115111 247.802816,47.6510667 247.618022,47.0722222 C247.461531,46.6611111 247.618022,46.1217333 247.323352,45.7648889 C247.098603,45.6267556 246.842223,45.4047556 246.584179,45.4738222 L246.342782,47.8056444 Z M247.494827,43.2817778 C248.204034,43.7060444 249.011464,44.3177778 249.392704,45.0676444 C249.995363,46.8025333 250.96095,48.3631111 251.666827,50.0486667 C251.926536,51.2228 252.132972,52.2703111 252.457609,53.4247111 C252.580804,53.7322222 252.510883,54.3258667 252.995341,54.2748889 C253.13019,52.9823556 253.389899,51.7408 253.408212,50.3972889 C252.977028,49.8348889 252.40933,49.5997333 251.874927,49.2593333 L251.874927,49.1392889 C251.944849,48.8531556 252.187911,48.5094667 252.545844,48.5637333 C252.699006,48.3927111 253.166816,48.2233333 252.962045,47.9158222 C252.06305,47.0327556 252.116324,45.5116444 250.687922,45.2370222 C250.18848,45.0347556 250.06695,44.5216889 250.015341,44.0497333 C249.34276,43.4840444 248.343877,43.2982222 247.494827,43.2801333 L247.494827,43.2817778 Z M248.327229,52.4988889 C249.204581,53.2980889 248.896592,54.4557778 248.82667,55.5279556 C248.690156,56.1742222 249.514235,55.796 249.775609,56.1396889 C250.310011,56.9208 249.998693,58.0636889 249.812235,58.9105778 C250.27838,58.2116889 250.811117,57.6016 251.170715,56.8336444 C251.155732,56.5475111 251.533642,56.4093778 251.516994,56.0508889 C251.670156,55.5575556 251.08581,55.7795556 250.842749,55.7285778 C250.636313,55.6792444 250.413229,55.5411111 250.483151,55.2681333 C250.927654,54.4179556 250.516447,53.4000444 250.343307,52.5482222 C250.136872,51.8509778 250.431542,50.9152889 250.100246,50.3019111 C249.547531,51.0550667 247.909363,51.2228 248.327229,52.4988889 Z M249.927106,40.4253778 C251.463721,41.958 252.584134,43.4955556 254.237285,44.9755556 C254.272246,44.3112 254.185676,43.7011111 254.154045,43.0532 C253.910983,42.5927556 253.461486,42.2556444 253.080246,41.9119556 C251.858279,41.7968444 251.220659,40.1688444 249.927106,40.4253778 Z M253.94095,48.5275556 C253.977575,48.6854222 254.047497,48.8202667 254.117419,48.9715556 C254.788335,50.0601778 255.42762,51.1833333 255.893765,52.3558222 C255.752257,51.0961778 256.614626,49.5339556 255.474235,48.5637333 C255.322737,48.1526222 254.808313,48.2907556 254.475352,48.3236444 L253.94095,48.5292 L253.94095,48.5275556 Z M258.077989,60.9513333 C258.560782,61.1733333 259.181754,60.7836 259.647899,60.5106222 C260.080749,60.4086667 260.440346,60.6487556 260.769978,60.8691111 C260.906492,61.1388 260.769978,61.3953333 260.821587,61.6518667 C261.853765,61.938 262.869296,62.3145778 263.783274,62.9098667 L264.074615,62.6204444 C264.144536,61.8903111 263.56019,61.3608 263.00581,60.9513333 C262.646212,60.7490667 262.10848,60.8691111 261.852101,60.5451556 C262.02524,60.2721778 262.02524,59.8627111 262.006927,59.5584889 C261.439229,59.5584889 261.074637,59.3858222 260.613486,59.1161333 C260.318816,59.0306222 260.059106,58.7905333 259.817709,59.1161333 C258.957006,59.6916889 258.905397,60.5451556 258.079654,60.9513333 L258.077989,60.9513333 Z M259.289966,39.5521778 C259.717821,39.4304889 260.167318,39.3120889 260.528581,39.0045778 C261.68562,37.9669333 263.355419,38.6641778 264.702246,38.6477333 C264.424908,38.1850853 264.107401,37.7471126 263.753307,37.3387556 C263.267184,37.1512889 262.821017,36.9309333 262.269966,36.9309333 C261.096279,36.2501333 260.305497,37.3913778 259.406503,37.9504889 C259.163441,38.4109333 259.046905,39.0900889 259.289966,39.5521778 Z M259.318268,43.0532 C259.318268,43.0005778 259.318268,42.9479556 259.369877,42.9348 C259.528034,43.0696444 259.353229,43.3968889 259.612939,43.4610222 C260.062436,43.2406667 260.475307,42.9348 260.888179,42.6470222 C262.041888,42.6470222 262.732782,41.5403111 263.868179,41.5403111 C265.766056,41.8807111 267.64562,42.2572889 269.297106,43.1716 C269.18057,42.0698222 268.209989,41.0634222 267.231084,40.5717333 C266.676704,40.3842667 266.24552,40.6720444 265.850961,40.9795556 C264.698916,41.6965333 265.301575,39.9435556 264.49248,39.9073778 C263.438659,40.2296889 262.351542,40.5898222 261.17952,40.4829333 C260.491955,40.7411111 260.007497,41.3692889 259.231698,41.3002222 C259.200067,41.8642667 259.115162,42.5467111 259.318268,43.0532 Z M260.114045,46.8436444 C260.475307,47.2218667 261.077966,47.1528 261.595721,47.2218667 L263.095709,46.6413778 C263.112358,46.3733333 262.647877,46.3009778 262.751095,45.9951111 C263.167296,45.5346667 263.731665,45.8619111 264.249419,45.6744444 C264.973609,45.5708444 265.714447,44.8604444 266.438637,45.3833778 C266.416994,45.4705333 266.470268,45.5872889 266.402011,45.6744444 C266.178927,46.2006667 266.556838,46.5246222 266.971374,46.7268889 C267.817095,46.8814667 268.606212,47.6477778 269.451933,47.3040889 C269.368693,46.6068444 269.178905,45.9655111 269.005765,45.2978667 C268.298223,45.1794667 267.798782,44.6022667 267.144514,44.3605333 C266.853173,44.6351556 266.470268,44.8374222 266.109006,44.8045333 C264.780492,44.4970222 263.193933,43.6797333 261.850436,44.5151111 C261.367642,45.0939556 260.506939,44.9229333 259.851006,45.1778222 C259.889296,45.7550222 259.957553,46.3190667 260.114045,46.8436444 Z M260.683408,56.9553333 C260.58019,57.2447556 260.287184,57.7183556 260.823251,57.8564889 C261.925352,57.8893778 263.338771,57.3286222 264.20114,58.1788 C264.494145,58.4008 264.354302,58.8596 264.334324,59.1490222 L265.782704,60.3396 C265.920883,59.6209778 266.182257,58.9763556 266.20057,58.2116889 C266.079039,57.6657333 265.802682,57.1411556 265.321553,56.7843111 C264.37095,56.7843111 263.823229,55.6891111 262.801039,55.8239556 C262.268302,55.7072 261.802156,56.1742222 261.267754,56.1742222 C261.029687,56.4110222 260.889844,56.7004444 260.683408,56.9553333 Z M261.096279,48.9353778 C261.319363,49.3958222 261.579073,50.1440444 262.010257,50.1933778 C263.025788,49.7559556 264.510793,49.4813333 265.64619,49.9598667 C266.024101,50.0256444 266.024101,50.4499111 265.94086,50.7228889 C266.525207,51.0616444 267.232749,51.3346222 267.853721,51.7079111 L267.680581,50.6867111 C267.64562,49.5816444 266.233866,49.4813333 266.145631,48.3910667 C264.991922,48.0177778 263.698369,47.8977333 262.474737,48.1871556 C262.080179,48.544 261.509151,48.4963111 261.029687,48.5966222 C260.994726,48.7331111 261.077966,48.8202667 261.096279,48.9353778 Z M261.389285,54.4475556 C262.060201,54.2584444 262.49305,53.5299556 263.21724,53.4608889 C264.319341,53.4789778 265.30324,53.9213333 265.992469,54.8603111 C266.405341,55.1267111 266.318771,55.8256 266.854838,55.8256 C266.696682,54.9935111 266.971374,54.2304889 266.938078,53.3753778 C266.217218,52.1864444 264.424223,53.1073333 263.751642,51.7095556 L262.478067,51.7950667 C261.562425,52.0187111 261.805486,53.0728 261.68562,53.7881333 C261.580737,54.0068444 261.374302,54.1778667 261.389285,54.4475556 Z M267.717207,61.8870222 C268.249944,62.9411111 269.423631,63.7419556 269.541832,64.9473333 C269.816525,64.6266667 270.007978,64.2517333 270.196101,63.8948889 C270.177788,63.5544889 269.781564,63.5544889 269.630067,63.2815111 C269.470246,62.8408 269.711642,62.4494222 269.781564,62.0564 C269.556816,61.4282222 269.020749,60.8345778 268.419754,60.458 L267.717207,61.8886667 L267.717207,61.8870222 Z M269.836503,59.2 L271.076782,60.8691111 C271.60952,60.0353778 271.60952,58.8086222 271.403084,57.8055111 C271.284883,57.6164 271.058469,57.3121778 270.75048,57.4503111 C270.284335,57.9239111 270.214413,58.6573333 269.836503,59.2 Z M264.785486,12.6490667 C265.233318,12.8694222 265.662838,13.0733333 266.20057,13.1095111 C266.560168,12.9204 267.027978,12.7822667 267.47581,12.9039556 C268.11343,13.3150667 268.887564,12.8200889 269.630067,12.8546222 C268.974134,12.2412444 268.231631,11.8646667 267.47581,11.5094667 C266.510223,11.7100889 265.736089,12.3925333 264.785486,12.6490667 Z M271.524615,14.2441778 C272.436927,14.3296889 273.094525,15.1288889 273.712168,15.7916 C274.487966,15.9083556 275.072313,16.4559556 275.536793,17.0150667 L275.247117,16.1155556 C275.042346,15.2111111 274.469654,14.5155111 273.885307,13.8001778 C273.057899,13.8528 272.245475,13.9235111 271.524615,14.2441778 Z" id="Shape" fill="#FFFFFF" fill-rule="nonzero"></path>
            <path d="M207.204894,6.78662222 L207.704335,6.83924444 C209.046168,7.50195556 211.217073,7.84235556 211.343598,9.76306667 C209.978458,10.2909333 208.668257,11.0046222 207.58114,12.0916 C206.757061,11.2595111 205.083933,11.7183111 204.807575,10.2564 C205.06895,8.87506667 205.565061,7.14017778 207.204894,6.78662222 Z M208.500112,15.4100889 C210.068358,15.2719556 211.584994,15.4923111 213.204849,15.3574667 C213.599408,15.5268444 214.012279,15.8656 214.203732,16.2569778 C214.150458,18.0954667 213.58276,19.8484444 213.497855,21.7346222 C212.790313,22.0224 212.099419,22.6028889 211.926279,23.3675556 C211.290324,23.5533778 210.719296,23.9266667 210.098324,24.2160889 C209.826961,23.6405333 209.87524,22.7706222 210.359698,22.2920889 C211.032279,21.3580444 212.773665,21.5767556 212.635486,20.0967556 C213.084983,19.3847111 212.653799,18.4654667 212.668782,17.7188889 C212.495642,17.1548444 212.322503,17.9063556 212.04781,17.8882667 C211.498425,18.0033778 210.930726,18.0379111 210.446268,17.7665778 C210.083341,17.3916444 209.638838,17.0841333 209.532291,16.5776444 C209.049497,16.3392 208.483464,15.9675556 208.240402,15.4725778 L208.500112,15.4100889 Z M210.394659,26.4936444 C211.130503,26.6005333 211.909631,26.2732889 212.547251,26.6317778 C212.414067,26.8718667 212.04781,26.9721778 211.756469,27.0428889 L210.59943,27.5658222 C210.169911,27.4671556 210.411307,26.7847111 210.394659,26.4936444 Z M213.40962,12.2955111 C214.148793,12.0570667 214.942905,11.5670222 215.735352,11.8021778 C215.169318,12.3645778 214.719821,13.0930667 214.290302,13.7755111 L211.927944,13.7245333 C212.187654,13.1095111 212.843587,12.6030222 213.40962,12.2955111 Z M220.320223,11.7364 C221.302458,11.5670222 221.249184,12.8250222 222.146514,12.8710667 C222.30467,13.0749778 222.529419,13.2624444 222.441184,13.5699556 C221.921765,13.7738667 221.165944,13.6752 220.579933,13.8084 C219.802469,13.3824889 220.30524,12.0554222 219.081609,12.1409333 C219.011687,12.0373333 218.875173,11.8350667 219.044983,11.7676444 C219.424559,11.6328 219.92733,11.6837778 220.321888,11.7347556 L220.320223,11.7364 Z M219.700916,16.2898667 C220.132101,15.6945778 220.788034,15.6452444 221.409006,15.5268444 L225.872346,15.6090667 C226.062134,15.7817333 225.699207,15.9346667 225.699207,16.1369333 C225.424514,16.3934667 225.026626,16.4625333 224.785229,16.6993333 C224.200883,16.7157778 224.252492,17.3965778 223.83962,17.6876444 C223.200335,18.3158222 222.268045,18.0264 221.527207,17.9260889 C221.270827,17.7369778 220.977821,17.4820889 220.854626,17.1943111 L220.64819,17.3965778 C220.907899,18.3503556 220.839642,19.4044444 221.031095,20.3730222 L222.098235,21.0719111 C222.114883,22.6341333 223.977799,22.2098667 224.785229,23.0781333 C224.597106,23.6405333 224.217531,24.1141333 223.802994,24.5910222 C223.18096,24.0008679 222.434514,23.5538726 221.617106,23.2820444 C221.547184,22.3677333 220.529989,21.8201333 219.963955,21.3629778 C219.805799,19.6938667 219.772503,17.9918667 219.49781,16.3770222 L219.700916,16.2898667 Z M221.322436,26.7847111 L223.391788,26.7847111 L223.132078,27.8552444 L221.059397,26.9886222 C221.012782,26.8192444 221.200905,26.7682667 221.322436,26.7847111 Z M225.043274,7.5184 L226.578223,7.04151111 C227.462786,7.46056503 228.305071,7.96162805 229.093743,8.53795556 C229.731363,9.694 229.62981,11.2578667 229.33514,12.5504 C228.868994,13.0601778 227.853464,12.5504 227.475553,13.3660444 L227.402302,13.3660444 C226.836268,11.7692889 225.214749,10.3369778 223.716425,9.61013333 C223.957821,8.79284444 224.215866,7.992 225.043274,7.5184 Z" id="Shape" fill="#293A7D" fill-rule="nonzero"></path>
        </g>
    </g>
</svg>