<svg version="1.1" id="Laag_1" xmlns="http://www.w3.org/2000/svg" x="0" y="0" viewBox="0 0 100 100" xml:space="preserve"><style>.st0{fill:#293a7d}</style><switch><g><path class="st0" d="M48.9 35.9v1.4h-1.4v1.8h1.4v1.4h1.8v-1.4h1.4v-1.8h-1.4v-1.4zM42.1 40.8c.4.2.7.6 1 1 .2.4.4.9.4 1.3 0 .5-.1.9-.4 1.3-.2.4-.6.7-1 1-.4.2-.9.4-1.3.4s-.9-.1-1.3-.4c-.4-.2-.7-.6-1-1-.2-.4-.4-.9-.4-1.3 0-.5.1-.9.4-1.3.2-.4.6-.7 1-1 .4-.2.9-.4 1.3-.4s.9.2 1.3.4M48.1 40.8c.4.2.7.6 1 1 .2.4.4.9.4 1.3 0 .5-.1.9-.4 1.3-.2.4-.6.7-1 1-.4.2-.9.4-1.3.4s-.9-.1-1.3-.4c-.4-.2-.7-.6-1-1-.2-.4-.4-.9-.4-1.3 0-.5.1-.9.4-1.3.2-.4.6-.7 1-1 .4-.2.9-.4 1.3-.4s.9.2 1.3.4M54 40.8c.4.2.7.6 1 1 .2.4.4.9.4 1.3 0 .5-.1.9-.4 1.3-.2.4-.6.7-1 1-.4.2-.9.4-1.3.4s-.9-.1-1.3-.4c-.4-.2-.7-.6-1-1-.2-.4-.4-.9-.4-1.3 0-.5.1-.9.4-1.3.2-.4.6-.7 1-1 .4-.2.9-.4 1.3-.4s.9.2 1.3.4M60 40.8c.4.2.7.6 1 1 .2.4.4.9.4 1.3 0 .5-.1.9-.4 1.3-.2.4-.6.7-1 1-.4.2-.9.4-1.3.4s-.9-.1-1.3-.4c-.4-.2-.7-.6-1-1-.2-.4-.4-.9-.4-1.3 0-.5.1-.9.4-1.3.2-.4.6-.7 1-1 .4-.2.9-.4 1.3-.4s.9.2 1.3.4M40.9 46.2h17.9v3.1H40.9zM34.7 52.1l-3.9 4.1v-4.1h-4.6v12h4.6V60l3.8 4.1h6l-6.3-6.5 5.2-5.5zM41 52.1v12h11.7v-3.4h-7.2v-8.6zM66 52.1l-2.1 6.3-2.2-6.3H54v12h4.5v-8.7l3.1 8.7h4.6l3-8.7v8.7h4.6v-12z"/></g></switch></svg>