<?xml version="1.0" encoding="UTF-8"?>
<svg width="300px" height="100px" viewBox="0 0 300 100" version="1.1" xmlns="http://www.w3.org/2000/svg" xmlns:xlink="http://www.w3.org/1999/xlink">
    <!-- Generator: Sketch 52 (66869) - http://www.bohemiancoding.com/sketch -->
    <title>Artboard</title>
    <desc>Created with Sketch.</desc>
    <g id="Artboard" stroke="none" stroke-width="1" fill="none" fill-rule="evenodd">
        <g id="klm" transform="translate(71.000000, 3.000000)" fill="#293A7D" fill-rule="nonzero">
            <path d="M75.85625,0 L75.85625,4.66666667 L71.21875,4.66666667 L71.21875,10.6666667 L75.85625,10.6666667 L75.85625,15.3333333 L81.81875,15.3333333 L81.81875,10.6666667 L86.45625,10.6666667 L86.45625,4.66666667 L81.81875,4.66666667 L81.81875,0 L75.85625,0 Z M53.33125,16.3333333 C54.65625,17 55.65,18.3333333 56.64375,19.6666667 C57.30625,21 57.96875,22.6666667 57.96875,24 C57.96875,25.6666667 57.6375,27 56.64375,28.3333333 C55.98125,29.6666667 54.65625,30.6666667 53.33125,31.6666667 C52.00625,32.3333333 50.35,33 49.025,33 C47.7,33 46.04375,32.6666667 44.71875,31.6666667 C43.39375,31 42.4,29.6666667 41.40625,28.3333333 C40.74375,27 40.08125,25.3333333 40.08125,24 C40.08125,22.3333333 40.4125,21 41.40625,19.6666667 C42.06875,18.3333333 43.39375,17.3333333 44.71875,16.3333333 C46.04375,15.6666667 47.7,15 49.025,15 C50.35,15 52.00625,15.6666667 53.33125,16.3333333 Z M73.20625,16.3333333 C74.53125,17 75.525,18.3333333 76.51875,19.6666667 C77.18125,21 77.84375,22.6666667 77.84375,24 C77.84375,25.6666667 77.5125,27 76.51875,28.3333333 C75.85625,29.6666667 74.53125,30.6666667 73.20625,31.6666667 C71.88125,32.3333333 70.225,33 68.9,33 C67.575,33 65.91875,32.6666667 64.59375,31.6666667 C63.26875,31 62.275,29.6666667 61.28125,28.3333333 C60.61875,27 59.95625,25.3333333 59.95625,24 C59.95625,22.3333333 60.2875,21 61.28125,19.6666667 C61.94375,18.3333333 63.26875,17.3333333 64.59375,16.3333333 C65.91875,15.6666667 67.575,15 68.9,15 C70.225,15 71.88125,15.6666667 73.20625,16.3333333 Z M92.75,16.3333333 C94.075,17 95.06875,18.3333333 96.0625,19.6666667 C96.725,21 97.3875,22.6666667 97.3875,24 C97.3875,25.6666667 97.05625,27 96.0625,28.3333333 C95.4,29.6666667 94.075,30.6666667 92.75,31.6666667 C91.425,32.3333333 89.76875,33 88.44375,33 C87.11875,33 85.4625,32.6666667 84.1375,31.6666667 C82.8125,31 81.81875,29.6666667 80.825,28.3333333 C80.1625,27 79.5,25.3333333 79.5,24 C79.5,22.3333333 79.83125,21 80.825,19.6666667 C81.4875,18.3333333 82.8125,17.3333333 84.1375,16.3333333 C85.4625,15.6666667 87.11875,15 88.44375,15 C89.76875,15 91.425,15.6666667 92.75,16.3333333 Z M112.625,16.3333333 C113.95,17 114.94375,18.3333333 115.9375,19.6666667 C116.6,21 117.2625,22.6666667 117.2625,24 C117.2625,25.6666667 116.93125,27 115.9375,28.3333333 C115.275,29.6666667 113.95,30.6666667 112.625,31.6666667 C111.3,32.3333333 109.64375,33 108.31875,33 C106.99375,33 105.3375,32.6666667 104.0125,31.6666667 C102.6875,31 101.69375,29.6666667 100.7,28.3333333 C100.0375,27 99.375,25.3333333 99.375,24 C99.375,22.3333333 99.70625,21 100.7,19.6666667 C101.3625,18.3333333 102.6875,17.3333333 104.0125,16.3333333 C105.3375,15.6666667 106.99375,15 108.31875,15 C109.64375,15 111.3,15.6666667 112.625,16.3333333 Z M49.35625,34.3333333 L108.65,34.3333333 L108.65,44.6666667 L49.35625,44.6666667 L49.35625,34.3333333 Z M28.81875,54 L15.9,67.6666667 L15.9,54 L0.6625,54 L0.6625,94 L15.9,94 L15.9,80.3333333 L28.4875,94 L48.3625,94 L27.49375,72.3333333 L44.71875,54 L28.81875,54 Z M49.6875,54 L49.6875,94 L88.44375,94 L88.44375,82.6666667 L64.59375,82.6666667 L64.59375,54 L49.6875,54 Z M132.5,54 L125.54375,75 L118.25625,54 L92.75,54 L92.75,94 L107.65625,94 L107.65625,65 L117.925,94 L133.1625,94 L143.1,65 L143.1,94 L158.3375,94 L158.3375,54 L132.5,54 Z" id="Shape"></path>
        </g>
    </g>
</svg>