<?xml version="1.0" encoding="UTF-8"?>
<svg width="300px" height="100px" viewBox="0 0 300 100" version="1.1" xmlns="http://www.w3.org/2000/svg" xmlns:xlink="http://www.w3.org/1999/xlink">
    <!-- Generator: Sketch 52 (66869) - http://www.bohemiancoding.com/sketch -->
    <title>Artboard</title>
    <desc>Created with Sketch.</desc>
    <g id="Artboard" stroke="none" stroke-width="1" fill="none" fill-rule="evenodd">
        <g id="kpmg" transform="translate(26.000000, 1.000000)" fill="#003087" fill-rule="nonzero" stroke="#FFFFFF" stroke-width="0.519999981">
            <path d="M192.876692,0.115766499 L192.876692,49.3401929 L192.24957,49.863137 L191.622449,50.3799291 L191.019921,50.924406 L190.44506,51.4688834 L189.894791,52.0133602 L189.347597,52.5824469 L188.824996,53.1546091 L188.302395,53.7236953 L188.302395,0.115766499 L133.306315,0.115766499 L133.306315,44.9351573 L128.756612,44.9351573 L128.756612,0.112690353 L73.7605325,0.112690353 L73.7605325,45.0059086 L69.2108289,45.0059086 L69.2108289,0.115766499 L14.2147496,0.115766499 L14.2147496,51.2873907 L0.172150947,97.6848428 L12.5116849,97.6848428 L18.709119,77.1454414 L20.4890368,77.1454414 L30.7412406,97.6848428 L45.6476681,97.6848428 L35.7090251,77.1454414 L58.2515769,77.1454414 L52.0018825,97.6848428 L65.4696199,97.6848428 L71.6424609,77.1977361 L74.6243617,77.1977361 L74.6243617,77.1454414 L104.643183,77.1454414 L98.6793822,97.6325482 L112.279307,97.6325482 L118.05866,77.1454414 L124.176167,77.1454414 L124.336021,97.6325482 L135.737948,97.6325482 L148.839864,77.1454414 L157.416671,77.1454414 L152.971487,97.6325482 L166.359298,97.6325482 L170.724553,77.1454414 L178.468272,77.1454414 L178.416012,78.3112996 L178.443679,79.5048426 L178.495939,80.6430155 L178.60046,81.7873399 L178.677313,82.3318173 L178.75724,82.8762946 L178.86176,83.4207715 L178.96628,83.9652489 L179.095393,84.5097258 L179.227581,85.0295939 L179.381287,85.546386 L179.541141,86.0662541 L179.725589,86.5861216 L179.906962,87.0783044 L180.116003,87.5704872 L180.325043,88.0380607 L180.561751,88.5302434 L180.795384,88.9978174 L181.056685,89.4377056 L181.317985,89.9052791 L181.606953,90.3451677 L181.920513,90.7604466 L182.234074,91.2003353 L182.572228,91.5910048 L182.913455,92.0062842 L183.254683,92.3938782 L183.648171,92.7845483 L184.038585,93.1475331 L184.536593,93.5597359 L185.031527,93.9750153 L185.554128,94.3656854 L186.10747,94.7286701 L186.654664,95.0916549 L187.204933,95.4300304 L187.779794,95.7130357 L188.379248,96.0237258 L188.954109,96.2851979 L189.556638,96.5435939 L190.159166,96.7773806 L190.786287,97.0111674 L191.413408,97.2172688 L192.04053,97.4018375 L192.667651,97.5802536 L193.297847,97.7340609 L194.552089,98.0232183 L195.833999,98.2293197 L197.088242,98.4138883 L198.342484,98.5676956 L199.572134,98.6692083 L200.77719,98.7215024 L201.951506,98.7737971 L203.076635,98.7737971 L204.595252,98.7491878 L206.110795,98.7245785 L207.654006,98.6476751 L209.197216,98.5707717 L210.740426,98.4384976 L212.280563,98.3092996 L213.823773,98.1554923 L215.366983,97.9709236 L216.934787,97.7648222 L218.505664,97.5310355 L220.073467,97.2726395 L221.64127,97.0142434 L223.212148,96.7281626 L224.779951,96.4174719 L226.350828,96.1067818 L227.946299,95.743797 L232.600523,77.1454414 L247.872771,77.1454414 L247.872771,0.11884264 L192.876692,0.11884264 L192.876692,0.115766499 Z M19.3116473,75.2259289 L19.3915745,74.9398476 L19.576022,75.2259289 L19.3147214,75.2259289 L19.3116473,75.2259289 Z M67.2218709,47.6298579 L66.437969,50.2507311 L59.1154056,74.3676854 L58.8264379,75.2259289 L34.7683431,75.2259289 L32.9115722,71.2823147 L58.8264379,45.0120609 L42.1708338,45.0120609 L21.9031339,66.6681016 L28.4663888,45.0120609 L16.1760408,45.0120609 L16.1760408,2.05988833 L67.2218709,2.05988833 L67.2218709,47.6267817 L67.2218709,47.6298579 Z M81.4243239,68.0154519 L81.0308362,68.0400607 L80.6619413,68.06467 L80.2715275,68.0892792 L78.8328373,68.0892792 L78.3870895,68.1138885 L77.9690087,68.1138885 L74.7012146,68.0892792 L76.2167576,62.5399187 L76.9238061,59.7898479 L78.651464,53.3299492 L79.7735194,53.3299492 L80.3237872,53.3084164 L83.3825409,53.3084164 L84.925751,53.3330252 L86.339848,53.3822438 L86.9669698,53.4068526 L87.5664239,53.4591472 L88.1412849,53.5391271 L88.6638862,53.6160305 L89.1373011,53.6929339 L89.5799751,53.8221319 L89.9980559,53.954406 L90.3669509,54.1082133 L90.6805112,54.2620201 L90.966405,54.4711981 L91.2277057,54.6803755 L91.4367461,54.9387715 L91.5689331,55.147949 L91.6734535,55.3540509 L91.7779735,55.5878377 L91.8548269,55.8462337 L91.9070871,56.1323145 L91.937828,56.4183959 L91.937828,57.064386 L91.9070871,57.4304468 L91.8824939,57.7934315 L91.805641,58.2087109 L91.7257137,58.6209137 L91.4920802,59.5037666 L91.2031125,60.4881321 L90.9172192,61.3186904 L90.6005844,62.1246398 L90.2624304,62.8752181 L89.8935354,63.5765788 L89.7121626,63.8841929 L89.5277149,64.1979596 L89.3186744,64.5086498 L89.0850409,64.7947311 L88.8483334,65.080812 L88.6146998,65.339208 L88.3533997,65.597604 L88.0890247,65.8313908 L87.8031314,66.0405687 L87.5141637,66.2743555 L87.2006028,66.4558476 L86.8624493,66.661949 L86.5212214,66.8465177 L86.1523269,67.000325 L85.7895802,67.1541318 L85.3960921,67.2833298 L84.9780113,67.4402131 L84.5353373,67.5448019 L84.0619224,67.6463146 L83.5915813,67.7509038 L83.0689801,67.8278072 L82.5463793,67.9077866 L81.996111,67.9600812 L81.42125,68.0123758 L81.4243239,68.0154519 Z M118.608928,75.2259289 L123.970201,56.2922739 L124.179241,75.2259289 L118.608928,75.2259289 Z M126.767654,44.9320812 L114.006965,44.9320812 L105.218044,75.2259289 L91.6734535,75.2259289 L92.3005747,74.9644569 L92.927696,74.7060608 L93.5302245,74.4476648 L94.1327526,74.161584 L94.707614,73.8755026 L95.254808,73.5371271 L95.8050763,73.2295125 L96.3276776,72.8911371 L96.8502783,72.5281523 L97.3482864,72.1651675 L97.8186274,71.8021828 L98.2889685,71.3869034 L98.7347164,70.9993099 L99.1527972,70.5563452 L99.570878,70.1410658 L99.9643661,69.6765684 L100.35478,69.2336042 L100.723675,68.7414214 L101.061828,68.2738479 L101.399982,67.7570559 L101.713543,67.2371878 L102.00251,66.7173197 L102.291478,66.1728428 L102.552779,65.6037561 L102.814079,65.0315939 L103.047712,64.4625077 L103.256753,63.8657362 L103.468868,63.2443554 L103.622573,62.6198986 L103.807021,61.9985178 L103.939209,61.3217664 L104.068322,60.6757768 L104.252769,59.6391167 L104.406475,58.6547511 L104.51407,57.7196042 L104.590923,56.8367513 L104.621664,55.9569745 L104.590923,55.1510255 L104.56633,54.3481521 L104.461809,53.5944973 L104.35729,52.8962131 L104.172842,52.1948529 L103.991468,51.5488628 L103.730168,50.924406 L103.441201,50.3276345 L103.12764,49.7308629 L102.761819,49.1863858 L102.343738,48.6665177 L102.005584,48.303533 L101.664357,47.9405482 L101.295462,47.632934 L100.905048,47.3437766 L100.486967,47.0607716 L100.068886,46.7992995 L99.6231382,46.5685888 L99.1804642,46.3594112 L98.7101237,46.1533096 L98.2397827,45.9964264 L97.7417746,45.8426193 L97.2437665,45.685736 L96.7211652,45.5565381 L96.1985639,45.4519492 L95.6759632,45.3473604 L95.1256949,45.2704569 L94.0005655,45.1166498 L92.8785101,45.03667 L91.7257137,44.9597665 L90.5513981,44.9351573 L75.7218239,44.9351573 L75.7218239,2.06296447 L126.767654,2.06296447 L126.767654,44.9351573 L126.767654,44.9320812 Z M157.782491,75.2259289 L150.1187,75.2259289 L161.729667,57.070538 L157.782491,75.2259289 Z M186.310362,45.7872487 L186.28577,56.2922739 L185.630981,57.1997361 L185.031527,58.134883 L184.428999,59.0669545 L183.87873,60.0021014 L183.356129,60.9341723 L182.833528,61.8939291 L182.38778,62.8290761 L181.945107,63.761147 L181.527025,64.6686091 L181.158131,65.6037561 L180.79231,66.5112182 L180.478749,67.3940711 L180.192856,68.2738479 L179.931555,69.1290154 L179.694847,69.9595737 L179.485807,70.7901319 L179.35362,71.3346093 L179.224506,71.9067715 L179.092319,72.4512489 L178.987799,73.0203351 L178.883279,73.564812 L178.806426,74.1092893 L178.726498,74.6537667 L178.674239,75.2259289 L171.170302,75.2259289 L177.576776,45.0089848 L155.97798,44.9843756 L136.650962,75.2259289 L135.236865,75.2259289 L135.236865,2.06296447 L186.310362,2.06296447 L186.310362,45.7903249 L186.310362,45.7872487 Z M215.760471,87.5950965 L214.684527,87.7796651 L213.587065,87.9334719 L212.489603,88.0872792 L211.416734,88.2195533 L210.346939,88.321066 L209.270995,88.4010459 L208.225793,88.45334 L206.501209,88.45334 L205.821828,88.4287308 L205.167039,88.3764366 L204.515325,88.2964567 L203.88513,88.194944 L203.285676,88.0903553 L202.683147,87.9611573 L202.108286,87.8073505 L201.558018,87.6227818 L201.010824,87.4412892 L200.488223,87.2075024 L199.990215,86.9737157 L199.492207,86.6907109 L199.021866,86.4046295 L198.576118,86.0939389 L198.158037,85.7832487 L197.739956,85.420264 L197.374135,85.0295939 L197.008314,84.6419998 L196.670161,84.1990357 L196.353526,83.759147 L196.067632,83.2669642 L195.806332,82.774782 L195.545031,82.2549139 L195.335991,81.7104365 L195.151543,81.113665 L194.994763,80.5168935 L194.837983,79.8955127 L194.733463,79.2495226 L194.653535,78.5727717 L194.601275,77.871411 L194.573608,77.1454414 L218.373477,77.1454414 L215.757397,87.5981725 L215.760471,87.5950965 Z M245.936073,75.2259289 L233.070863,75.2259289 L235.188935,66.7696143 L209.403183,66.7696143 L207.285111,75.2259289 L194.81339,75.2259289 L194.81339,73.4879086 L194.967096,72.761939 L195.099283,72.0359695 L195.256063,71.2577054 L195.412844,70.4794418 L195.649551,69.6242742 L195.883185,68.7660307 L196.144485,67.9108632 L196.433453,67.0803044 L196.747014,66.2497462 L197.085167,65.4191879 L197.454062,64.6193911 L197.819883,63.8134416 L198.237964,63.0105687 L198.656045,62.2569139 L199.101793,61.4786497 L199.596727,60.7526802 L200.094735,60.0267107 L200.589669,59.3253505 L201.143011,58.6516751 L201.714798,58.0056855 L202.317327,57.3812282 L202.919855,56.812142 L203.571569,56.2399798 L204.226357,55.6955024 L204.905739,55.2033196 L205.63738,54.7357462 L206.369022,54.3204668 L207.128331,53.9328732 L207.912232,53.5698885 L208.723801,53.2591978 L209.559963,52.9977258 L210.423792,52.7916244 L211.315288,52.6070557 L212.228302,52.4809342 L213.168984,52.4009543 L214.137333,52.376345 L214.896642,52.4009543 L215.652877,52.4532489 L216.412185,52.5578376 L217.143827,52.7116444 L217.512722,52.8162337 L217.850875,52.9208224 L218.189029,53.0254111 L218.505664,53.1792184 L218.819225,53.3084164 L219.132785,53.4929846 L219.418679,53.6714012 L219.707646,53.8559693 L219.968947,54.0866801 L220.230247,54.3204668 L220.466955,54.554254 L220.700588,54.8403349 L220.909629,55.0987309 L221.094076,55.4094216 L221.250857,55.747797 L221.407637,56.0861725 L221.539824,56.4460812 L221.644345,56.8367513 L221.721198,57.2243453 L221.801125,57.6673095 L221.828792,58.1071982 L221.828792,59.0669545 L221.776532,59.5868225 L237.1533,59.5868225 L237.386934,58.5224771 L237.595974,57.3043248 L237.700494,56.6552587 L237.752754,55.9538984 L237.805015,55.2556143 L237.805015,54.5296447 L237.780422,53.7759899 L237.703569,52.9977258 L237.623641,52.634741 L237.571381,52.247147 L237.466861,51.8564774 L237.362341,51.4688834 L237.233228,51.053604 L237.10104,50.6629339 L236.947334,50.2753399 L236.762887,49.8846703 L236.578439,49.4970761 L236.341731,49.1064061 L236.108098,48.7188122 L235.846798,48.3312183 L235.533237,47.9159391 L235.195083,47.525269 L234.850781,47.1376751 L234.484961,46.7746904 L234.094547,46.4117056 L233.676466,46.0733299 L233.258385,45.7626396 L232.812637,45.4519492 L232.342296,45.1412589 L231.871955,44.8797868 L231.373947,44.6213909 L230.851346,44.3629949 L230.328745,44.1292081 L229.778477,43.8954213 L229.203616,43.6862436 L228.628754,43.4801421 L228.053893,43.2955736 L227.426772,43.1417665 L226.824243,42.9879594 L226.169455,42.8310762 L225.517741,42.7018782 L224.862952,42.5726802 L224.183571,42.4680914 L223.476523,42.3911878 L222.037832,42.2343046 L220.57455,42.1051066 L219.031339,42.0528122 L217.463536,42.0282031 L216.286146,42.0528122 L215.056497,42.0774213 L213.774587,42.1543249 L212.440417,42.2589137 L211.057061,42.4127208 L209.642964,42.5972893 L208.204274,42.828 L206.740991,43.1417665 L206.009349,43.2955736 L205.250041,43.4801421 L204.518399,43.6862436 L203.759091,43.8923452 L202.999782,44.126132 L202.243548,44.3845279 L201.484239,44.646 L200.752597,44.9290051 L199.993289,45.2427716 L199.23398,45.5811472 L198.502339,45.9164467 L197.74303,46.2794315 L197.011388,46.6670254 L196.279747,47.0823046 L195.548105,47.4975837 L194.816464,47.9651574 L194.816464,2.05988833 L245.939147,2.05988833 L245.939147,75.2228529 L245.936073,75.2259289 Z" id="Shape"></path>
        </g>
    </g>
</svg>