<svg version="1.1" id="Laag_1" xmlns="http://www.w3.org/2000/svg" xmlns:xlink="http://www.w3.org/1999/xlink" x="0" y="0" viewBox="0 0 100 100" xml:space="preserve"><style></style><switch><g><path fill="#fff" d="M23.2 35.9h27v28.2h-27z"/><defs><path id="SVGID_1_" d="M23.2 35.9h53.6v28.2H23.2z"/></defs><clipPath id="SVGID_2_"><use xlink:href="#SVGID_1_" overflow="visible"/></clipPath><path d="M50.2 35.9v6.5h-1.7v.9l1.6.7v5.3c0 1.5-.6 2.8-2.1 2.8-2.3 0-2.5-1.6-2.5-2.8V44l1.5-.6v-.9h-5.5v.9l1.6.6v5.4c0 1.1.3 2 .6 2.5.5.8 1.6 1.6 3.5 1.6 2 .1 3-.5 3.1-.5v11h26.6V35.9H50.2zm-23.9 6.6v.9l1.8.7v11.1l-1.8.8v.9h5.2V56l-1.8-.8v-9l8.2 11h1V44.1l1.7-.8v-.9h-5.1v.9l1.7.7v7.6l-7.1-9.2h-3.8z" clip-path="url(#SVGID_2_)" fill="#293a7d"/><g><defs><path id="SVGID_3_" d="M23.2 35.9h53.6v28.2H23.2z"/></defs><clipPath id="SVGID_4_"><use xlink:href="#SVGID_3_" overflow="visible"/></clipPath><path d="M55.2 42.2c-1.6 0-2.9.4-3.9 1.5s-1.4 2.1-1.4 4.2c0 1.7.1 2.9 1.4 4.2 1 1 2.4 1.5 3.9 1.5S58 53.1 59 52s1.4-2.4 1.4-4.1c0-1.6-.4-3-1.4-4.1-.9-1-2.3-1.6-3.8-1.6m14.2.3v.8l1.6.7v5.6l-5.4-7h-3.5v.8l1.5.6v8l-1.6.6v.8h4.6v-.8l-1.5-.6v-6.5l6.1 8h1.1v-9.4l1.6-.6v-.9h-4.5zm-14.3 1c.9 0 1.6.4 2.1 1.2.5.8.8 1.9.8 3.2 0 1.3-.3 2.4-.8 3.2-.5.8-1.2 1.2-2.1 1.2-.9 0-1.6-.4-2.1-1.2-.5-.8-.8-1.9-.8-3.2 0-1.3.3-2.4.8-3.2.6-.8 1.3-1.2 2.1-1.2" clip-path="url(#SVGID_4_)" fill="#fff"/></g></g></switch></svg>