<?xml version="1.0" encoding="UTF-8"?>
<svg width="300px" height="100px" viewBox="0 0 300 100" version="1.1" xmlns="http://www.w3.org/2000/svg" xmlns:xlink="http://www.w3.org/1999/xlink">
    <!-- Generator: Sketch 52 (66869) - http://www.bohemiancoding.com/sketch -->
    <title>Artboard</title>
    <desc>Created with Sketch.</desc>
    <defs>
        <polygon id="path-1" points="0.707407407 0.21 190.292593 0.21 190.292593 100.79 0.707407407 100.79"></polygon>
    </defs>
    <g id="Artboard" stroke="none" stroke-width="1" fill="none" fill-rule="evenodd">
        <g id="nuon" transform="translate(55.000000, -1.000000)">
            <polygon id="Path" fill="#FFFFFF" opacity="0" points="0.707407407 0.21 96.2074074 0.21 96.2074074 100.79 0.707407407 100.79"></polygon>
            <g id="Clipped">
                <mask id="mask-2" fill="white">
                    <use xlink:href="#path-1"></use>
                </mask>
                <g id="SVGID_1_"></g>
                <path d="M95.7135675,50.2976233 C95.2177152,48.0990571 95.1462963,45.7345715 95.1462963,43.01 C95.1462963,40.048259 95.3675192,37.6999773 95.8537037,35.7005245 L95.8537037,29.1 L90.1944444,26.6033333 L90.1944444,23.3933333 L96.2074074,23.3933333 L96.2074074,0.21 L190.646296,0.21 L190.646296,100.433333 L96.5611111,100.433333 L96.5611111,61.2 C96.2074074,61.2 92.6703704,63.34 85.5962963,62.9833333 C78.8759259,62.9833333 74.9851852,60.13 73.2166667,57.2766667 C72.1555556,55.4933333 71.0944444,52.2833333 71.0944444,48.36 L71.0944444,29.1 L65.4351852,26.96 L65.4351852,23.75 L84.8888889,23.75 L84.8888889,26.96 L79.5833333,29.1 L79.5833333,48.0033333 C79.5833333,52.2833333 80.2907407,57.99 88.4259259,57.99 C92.9537874,57.99 95.1631513,54.6130051 95.7135675,50.2976233 Z M95.7135675,50.2976233 C96.321198,52.9918044 97.5661875,55.4368292 100.098148,57.99 C103.635185,61.5566667 108.587037,63.34 113.892593,63.34 C119.198148,63.34 123.796296,61.5566667 127.333333,57.6333333 C130.87037,53.71 132.285185,49.0733333 132.285185,43.01 C132.285185,37.3033333 130.87037,32.31 127.333333,28.3866667 C124.15,24.82 119.198148,22.68 113.892593,22.68 C108.233333,22.68 103.635185,24.1066667 100.098148,28.03 C97.9597476,30.4019452 96.5970399,32.6435253 95.8537037,35.7005245 L95.8537037,48.0033333 C95.8537037,48.7875421 95.8081056,49.5564242 95.7135675,50.2976233 Z M113.538889,27.3166667 C116.722222,27.3166667 119.198148,28.7433333 120.966667,31.5966667 C122.735185,34.45 123.796296,38.3733333 123.796296,43.01 C123.796296,47.6466667 122.735185,51.57 120.966667,54.4233333 C119.198148,57.2766667 116.722222,58.7033333 113.538889,58.7033333 C110.355556,58.7033333 107.87963,57.2766667 106.111111,54.4233333 C104.342593,51.57 103.281481,47.6466667 103.281481,43.01 C103.281481,38.3733333 104.342593,34.45 106.111111,31.5966667 C108.233333,28.7433333 110.709259,27.3166667 113.538889,27.3166667 Z M164.118519,23.75 L164.118519,26.6033333 L169.777778,29.1 L169.777778,49.0733333 L150.677778,24.1066667 L138.298148,24.1066667 L138.298148,26.96 L143.603704,29.1 L143.603704,57.6333333 L137.944444,59.7733333 L137.944444,62.6266667 L154.214815,62.6266667 L154.214815,59.7733333 L148.909259,57.6333333 L148.909259,34.45 L170.485185,62.9833333 L174.375926,62.9833333 L174.375926,29.4566667 L180.035185,27.3166667 L180.035185,24.1066667 L164.118519,24.1066667 L164.118519,23.75 Z M11.6722222,23.75 L11.6722222,23.3933333 L25.112963,23.3933333 L50.2259259,56.2066667 L50.2259259,29.1 L44.212963,26.6033333 L44.212963,23.3933333 L62.2518519,23.3933333 L62.2518519,26.6033333 L56.2388889,29.4566667 L56.2388889,76.18 L52.7018519,76.18 L23.6981481,36.9466667 L23.6981481,69.0466667 L30.0648148,71.9 L30.0648148,75.11 L11.6722222,75.11 L11.6722222,71.9 L18.0388889,69.0466667 L18.0388889,29.4566667 L11.6722222,26.96 L11.6722222,23.75 Z" id="Shape" fill="#293A7D" fill-rule="nonzero" mask="url(#mask-2)"></path>
            </g>
            <g id="Clipped"></g>
        </g>
    </g>
</svg>