<svg version="1.1" id="Laag_1" xmlns="http://www.w3.org/2000/svg" x="0" y="0" viewBox="0 0 100 100" xml:space="preserve"><style>.st0{fill:#293a7d}</style><switch><g><path class="st0" d="M16.1 47.4c-.4 1.7-.7 3.4-.9 5h-.9-1L12.1 50h-.2c-.1.8-.3 1.6-.4 2.4h-1c.3-1.3.6-2.7.8-4.1-.5 1.2-1.8 2.1-3.6 2.1h-.9c-.2 1.5-.4 2.7-.7 4.1H4.9c.7-3 1.2-6.1 1.6-9.1H8.6c1.2 0 2.8.1 2.8 1.9v.1h.7c.8 0 2.3-.2 2.3 1 0 1-.9 1.5-1.5 1.6.3.7.9 1.6 1.3 2.3.4-1.6.7-3.3.8-4.9h.5c.2.1.6 0 .6 0m-5.7.1c0-1-.7-1.5-1.7-1.5H7.6c-.3 1.5-.4 2.3-.7 3.8h.8c1.6.1 2.7-1 2.7-2.3m1.7 2.1c.9 0 1.4-.4 1.5-1.1 0-.4-.3-.7-.9-.7h-.4c-.2.8-.2 1-.3 1.7 0 .1 0 .1.1.1M16.9 50.7c0 .9.2 1.5 1 1.5s1.3-.6 1.3-.6h.1l-.2.6s-.6.4-1.4.4c-.9 0-1.8-.6-1.8-2.1 0-1.6 1.1-3.2 2.7-3.2.7 0 1.3.3 1.3.3-.1.2-.2.5-.2.7h-.1s-.3-.6-1-.6c-1 .2-1.7 1.8-1.7 3M30.6 46.9c-1.1 2-1.8 3.5-3.3 6.3h-.7c-.1-2.1-.1-3.6-.3-5.1L24 53.2h-.7c-.2-1.9-.3-3.5-.5-5.1h-1.6c-.2.8-.2.9-.3 1.7h.5c.5 0 .8 0 1.2-.1 0 .2-.1.4-.1.5-.4 0-.9-.1-1.2-.1h-.5c-.1.7-.2 1.2-.3 2h1.2c.4 0 .8-.1.8-.1-.1.2-.1.4-.1.6h-2.9c.4-1.6.6-3.3.8-5h2.3c0-.2-.1-.4-.1-.6h.9c.1 1.8.3 3.4.5 5.1.4-.9 1.7-3.8 2.2-5.1h.8c.1 1.7.2 3.3.3 5.1.4-.9 2-3.9 2.5-5.1h.4c.2-.1.5-.1.5-.1M31.7 47.5c.3 1.9.4 3 .8 5h-.9c-.1-.7-.2-1.7-.2-1.9h-1.6c-.4.6-.7 1.2-1 1.9H28c.9-1.3 1.7-2.7 3-5h.7zm-.4 2.7l-.2-1.8-1 1.8h1.2M34.3 46.9c-.4 1.6-.6 2.9-.8 4.5h-1c.4-1.7.6-2.9.8-4.5-.6 0-1.5.1-1.5.1.1-.2.1-.3.1-.5h3.8c-.1.1-.1.3-.1.5.2 0-.7-.1-1.3-.1"/><path class="st0" d="M36.9 50.6c0 .2-.1.4-.1.5-.4 0-.9-.1-1.2-.1h-.5c-.1.8-.2 1.2-.3 2 0 0 .1-.1.2-.1h1c.4 0 .8-.1.8-.1-.1.2-.1.4-.1.6h-2.9c.4-1.6.6-3.3.8-5h2.9c-.1.2-.1.3-.1.5-.6 0-1-.1-1.6-.1h-.4c-.2.8-.2.9-.3 1.7h.5c.5.2.8.2 1.3.1"/><path class="st0" d="M45.2 48c-.4 1.7-.7 3.4-.9 5h-1c.2-.9.3-1.6.5-2.5h-2.1c-.1.9-.3 1.6-.4 2.5h-1c0-.2.1-.4.1-.6h-.9L38.3 50h-.1c-.1.8-.3 1.6-.4 2.4h-1c.4-1.7.7-3.4.9-5h1.4c.7 0 1.5.2 1.5 1 0 1-.9 1.5-1.5 1.6.3.7.8 1.6 1.3 2.3.3-1.4.5-2.9.7-4.3h1c-.2.8-.3 1.4-.4 2.1h2.1c.1-.7.2-1.3.3-2.1h1.1m-6.7 1.6c.9 0 1.4-.4 1.5-1.1 0-.4-.3-.6-.9-.6h-.4c-.1.8-.1 1-.2 1.7zM49.9 49.5c0 1.4-1 3.2-2.8 3.2-1.2 0-1.9-.8-1.9-2.1 0-1.4 1-3.2 2.9-3.2 1 0 1.8.8 1.8 2.1m-.9-.1c0-.7-.2-1.5-1.1-1.5-1.3 0-1.9 1.8-1.9 2.8 0 .7.2 1.5 1.1 1.5 1.3 0 1.9-1.7 1.9-2.8M57.5 48.7c-.1.2-.2.5-.2.7h-.1s-.2-.6-.9-.6c-.6 0-1 .4-1 .8 0 .5.5.7.9 1 .2.1.5.2.7.4.2.2.3.4.3.9 0 .8-.8 1.7-2.1 1.7-.7 0-1.3-.4-1.3-.4.1-.2.2-.5.2-.7h.1s.3.7 1 .7 1.2-.6 1.2-1.1c0-.3-.2-.5-.5-.7-.6-.3-1.3-.6-1.3-1.4 0-1 .7-1.7 1.9-1.7.7 0 1.1.4 1.1.4M53.9 50.7c-.2 1.1-.7 2-2.2 2-1.3 0-1.7-.6-1.7-1.5 0-.1 0-.4.1-.7 0-.3.1-.6.2-1 .1-.7.3-1.5.4-2.1h1c-.1.5-.3 1.3-.4 2-.1.7-.3 1.4-.3 1.8 0 .7.4.9.9.9 1 0 1.3-.7 1.5-1.7.2-.9.5-2.5.5-3h.8c-.4 1.1-.6 2.6-.8 3.3M66 53.1h.1l-.2.9s-1 .7-2.5.7-2.9-1-3.1-3.1H57.5c.4-1.6.6-3.3.8-5h2.9c-.1.1-.1.3-.1.5-.6 0-1-.1-1.6-.1h-.4c-.2.8-.2.9-.3 1.7h.4c.3 0 .6 0 1-.1 0 .2-.1.4-.1.5-.4 0-.8-.1-1.1-.1h-.4c-.1.8-.2 1.2-.3 2h1.2c.2 0 .5 0 .6-.1 0-3 2.1-5.7 4.9-5.7 1.3 0 2.2.6 2.2.6-.2.3-.3.7-.4 1h-.1s-.6-1.1-1.8-1.1c-1.8 0-3.6 2.4-3.6 5.5 0 1.7 1 2.8 2.3 2.8 1.3.1 2.4-.9 2.4-.9"/><path class="st0" d="M72.5 49.5c0 1.4-1 3.2-2.8 3.2-1.2 0-1.6-.8-1.7-1.1-.2.3-.8 1.1-2.1 1.1-1.2 0-1.9-.8-1.9-2.1 0-1.4 1-3.2 2.9-3.2 1.2 0 1.6.8 1.7 1.1.2-.3.8-1.1 2-1.1s1.9.8 1.9 2.1m-4.6-.1c0-.7-.2-1.5-1.1-1.5-1.3 0-1.9 1.8-1.9 2.8 0 .7.2 1.5 1.1 1.5 1.3 0 1.9-1.7 1.9-2.8m3.7 0c0-.7-.1-1.5-1-1.5-1.3 0-1.8 1.7-1.8 2.8 0 .7.2 1.5 1.1 1.5 1.1 0 1.7-1.8 1.7-2.8M79.3 49.6c0 .2-.1.4-.1.5-.4 0-.9-.1-1.2-.1h-.5c-.1.8-.2 1.2-.3 2 0 0 .1-.1.2-.1h1c.4 0 .8-.1.8-.1-.1.2-.1.4-.1.6h-2.9c.4-1.6.6-3.3.8-5h2.9c-.1.1-.1.3-.1.5-.6 0-1-.1-1.6-.1h-.4c-.2.8-.2.9-.3 1.7h.5c.6.1.9.1 1.3.1M76.6 48.5c0 1.1-1.2 1.8-2.1 1.8h-.7c-.1.8-.2 1.5-.4 2.3h-1c.4-1.7.7-3.3.9-5h1.6c.8-.2 1.7 0 1.7.9m-1 .1c0-.4-.3-.7-.9-.7h-.5c-.2.8-.2 1-.3 1.9h.3c.8 0 1.4-.5 1.4-1.2M86.9 47.8c-.1.2-.2.5-.2.7h-.1s-.2-.6-.9-.6c-.6 0-1 .4-1 .8 0 .5.5.7.9.9.2.1.5.2.7.4.2.2.3.5.3.9 0 .8-.8 1.7-2.2 1.7-1.3 0-1.9-.5-2.5-1.5 0 0-.5-.8-.7-1.1h-.3c-.1.8-.3 1.6-.4 2.4h-1c.4-1.7.7-3.3.9-5h.7c.8 0 2.3-.2 2.3 1 0 1-.9 1.5-1.5 1.6l.7 1c.5.8.9 1.2 1.7 1.2.8 0 1.3-.6 1.3-1.1 0-.3-.2-.5-.5-.7-.6-.3-1.3-.6-1.3-1.4 0-1 .7-1.7 1.9-1.7.7.1 1.2.5 1.2.5m-4.3.7c0-.4-.3-.6-.9-.6h-.4c-.2.8-.2 1-.3 1.7h.2c.8 0 1.4-.4 1.4-1.1M95 48c0-.5 0-.9-.4-1.3s-.8-.3-1.4-.3h-1.8c-.6 0-1 0-1.4.3-.4.4-.4.8-.4 1.3v3.4c0 .5 0 .9.4 1.3s.8.3 1.4.3h1.8c.6 0 1 0 1.4-.3.4-.4.4-.8.4-1.3V48zm-1.2 3.5c-.4.2-.7.2-1.1.2-.9 0-1.5-.5-1.5-1.4v-.2h.5v.2c0 .8.4 1.2 1 1.2.4 0 .7-.1 1.1-.4v.4zm-.3-.5h-.2l-.2-1.4-.6 1.4h-.2l-.1-1.1c.1 0 .1-.1.3-.1l.1.8.6-1.4h.2l.2 1.4.6-1.4h.2l-.9 1.8zm.7-2.5c-.2-.3-.5-.5-.9-.5-.8 0-1.4.7-1.6 1.6.5-.1.7-.4.7-.9v-.2c.1-.1.2-.2.4-.3.1.1.1.2.1.4 0 .8-.7 1.3-1.9 1.3h-.1l-.3 1.7h-.4l.7-3.8h.9c.4 0 .6 0 .8.1.3-.1.5-.2.8-.2.4 0 .6.1 1 .3l-.2.5z"/><path class="st0" d="M91.3 48.1l-.3 1.6h.2c.1-.7.4-1.1 1-1.5-.2-.1-.3-.1-.7-.1h-.2z"/></g></switch></svg>