<?xml version="1.0" encoding="UTF-8"?>
<svg width="300px" height="100px" viewBox="0 0 300 100" version="1.1" xmlns="http://www.w3.org/2000/svg" xmlns:xlink="http://www.w3.org/1999/xlink">
    <!-- Generator: Sketch 52 (66869) - http://www.bohemiancoding.com/sketch -->
    <title>Artboard</title>
    <desc>Created with Sketch.</desc>
    <g id="Artboard" stroke="none" stroke-width="1" fill="none" fill-rule="evenodd">
        <g id="vruchtvlees" transform="translate(2.000000, 29.000000)" fill="#293A7D">
            <path d="M25.1328337,41.9320261 L18.664825,41.9320261 L13.1208176,16.075817 C12.9360174,15.5586928 12.9360174,15.0415687 12.7512171,14.5244445 L12.7512171,13.7487582 L12.5664169,14.5244445 L12.3816166,15.0415687 C12.3816166,15.3001307 12.1968163,15.5586928 12.1968163,15.8172549 L6.46800869,41.9320261 L0,41.9320261 L9.6096129,1.33777778 L15.7080211,1.33777778 L25.1328337,41.9320261 Z" id="Path"></path>
            <path d="M52.4832704,1.33777778 L44.72166,18.4028758 C46.5696624,19.1785621 48.2328647,20.4713725 49.3416661,22.5398693 C50.635268,24.608366 51.1896684,26.9354248 51.1896684,30.0381699 C51.1896684,31.8481046 51.0048686,33.3994771 50.4504678,34.9508496 C50.0808672,36.5022222 49.3416661,37.7950327 48.4176649,38.8292811 C47.4936637,39.8635294 46.5696624,40.6392157 45.2760609,41.4149019 C43.9824589,41.9320261 42.6888574,42.4491504 41.2104553,42.4491504 L30.6768412,42.4491504 L30.6768412,1.33777778 L37.1448497,1.33777778 L37.1448497,20.7299347 L45.2760609,1.33777778 L52.4832704,1.33777778 Z M43.7976587,26.1597386 C43.0584577,25.1254902 42.3192567,24.8669281 41.2104553,24.8669281 L37.1448497,24.8669281 L37.1448497,34.6922876 L41.2104553,34.6922876 C42.1344565,34.6922876 43.0584577,34.1751634 43.7976587,33.3994771 C44.5368598,32.6237908 44.9064602,31.3309804 44.9064602,30.0381699 C44.9064602,28.2282353 44.5368598,26.9354248 43.7976587,26.1597386 Z" id="Shape" fill-rule="nonzero"></path>
            <path d="M83.7145126,17.8857517 L83.7145126,41.9320261 L77.4313038,41.9320261 L77.4313038,17.8857517 C77.4313038,16.5929412 77.2465035,15.3001307 76.8769035,14.0073202 C76.5073024,12.7145098 76.1377023,11.9388235 75.5833015,10.9045752 C75.0289006,10.1288889 74.2896999,9.35320257 73.5504988,8.8360784 C72.6264973,8.57751636 71.8872962,8.31895423 70.9632952,8.31895423 C70.0392938,8.31895423 69.3000931,8.57751636 68.560892,9.09464053 C67.8216913,9.61176471 67.2672905,10.1288889 66.7128896,11.1631372 C66.1584887,11.9388235 65.7888882,12.9730719 65.4192881,14.2658824 C65.049687,15.5586928 65.049687,16.5929412 65.049687,18.1443137 L65.049687,41.9320261 L58.5816784,41.9320261 L58.5816784,17.8857517 C58.5816784,15.0415687 58.951279,12.7145098 59.5056799,10.387451 C60.244881,8.31895423 60.9840822,6.50901957 62.2776837,4.95764706 C63.3864849,3.40627454 64.6800869,2.37202614 66.343289,1.59633987 C67.6368905,0.820653594 69.3000931,0.562091508 70.9632952,0.562091508 C72.6264973,0.562091508 74.2896999,0.820653594 75.7681017,1.59633987 C77.2465035,2.37202614 78.7249059,3.40627454 79.8337071,4.95764706 C80.9425083,6.50901957 81.8665103,8.31895423 82.6057109,10.387451 C83.3449116,12.4559477 83.7145126,15.0415687 83.7145126,17.8857517" id="Path"></path>
            <path d="M116.054556,7.28470588 L112.358551,13.231634 C111.80415,12.7145098 111.434549,11.9388235 110.880149,11.4216994 C110.325748,10.9045752 109.956148,10.387451 109.216946,9.87032684 C108.662546,9.35320257 107.923345,9.09464053 107.368944,8.8360784 C106.814543,8.57751636 105.890542,8.31895423 104.966541,8.31895423 C102.194537,8.31895423 100.161734,9.61176471 98.6833325,11.9388235 C97.2049302,14.2658824 96.6505293,17.6271895 96.6505293,21.764183 C96.6505293,23.5741176 96.8353301,25.3840523 97.2049302,26.9354248 C97.5745313,28.4867974 98.1289316,30.0381699 98.8681328,31.0724183 C99.6073339,32.1066666 100.346535,33.1409151 101.455336,33.6580392 C102.379337,34.4337255 103.672939,34.6922876 104.781741,34.6922876 C107.368944,34.6922876 109.771347,33.3994771 111.61935,30.5552941 L115.130555,36.5022222 C113.652152,38.5707189 111.98895,40.1220915 110.325748,41.1563399 C108.662546,42.1905882 106.814543,42.4491504 104.596941,42.4491504 C102.564138,42.4491504 100.531335,41.9320261 98.8681328,40.8977778 C97.0201304,39.8635294 95.5417281,38.3121569 94.2481266,36.5022222 C92.9545246,34.6922876 91.8457233,32.3652288 91.1065222,29.7796078 C90.367321,27.193987 89.997721,24.349804 89.997721,21.2470588 C89.997721,17.8857517 90.367321,15.0415687 91.1065222,12.4559477 C91.8457233,9.87032684 92.7697243,7.54326802 94.0633263,5.73333337 C95.3569278,3.92339872 97.0201304,2.37202614 98.8681328,1.59633987 C100.716135,0.562091508 102.748938,0.0449673158 104.966541,0.0449673158 C107.553744,0.0449673158 109.586547,0.562091508 111.434549,1.85490196 C113.097751,3.40627454 114.760954,5.2162092 116.054556,7.28470588" id="Path"></path>
            <polygon id="Path" points="145.252995 1.33777778 145.252995 41.9320261 138.784987 41.9320261 138.784987 25.1254902 128.620973 25.1254902 128.620973 41.9320261 122.337764 41.9320261 122.337764 1.33777778 128.620973 1.33777778 128.620973 17.6271895 138.784987 17.6271895 138.784987 1.33777778"></polygon>
            <polygon id="Path" points="169.461827 34.4337255 169.461827 41.9320261 151.721003 41.9320261 151.721003 34.4337255 157.449811 34.4337255 157.449811 1.33777778 163.73302 1.33777778 163.73302 34.4337255"></polygon>
            <path d="M198.660267,41.9320261 L192.192258,41.9320261 L186.64825,16.075817 C186.46345,15.5586928 186.46345,15.0415687 186.27865,14.5244445 L186.09385,13.7487582 L185.909049,14.5244445 L185.724249,15.3001307 C185.724249,15.5586928 185.539449,15.8172549 185.539449,16.075817 L179.995442,41.9320261 L173.527433,41.9320261 L182.952246,1.33777778 L189.050654,1.33777778 L198.660267,41.9320261 Z" id="Path"></path>
            <polygon id="Path" points="221.021097 1.33777778 221.021097 8.8360784 210.672283 8.8360784 210.672283 41.9320261 204.204274 41.9320261 204.204274 1.33777778"></polygon>
            <polygon id="Path" points="245.045129 1.33777778 245.045129 8.8360784 233.772314 8.8360784 233.772314 17.3686275 243.566727 17.3686275 243.566727 24.8669281 233.772314 24.8669281 233.772314 34.4337255 244.305928 34.4337255 244.305928 41.9320261 227.489106 41.9320261 227.489106 1.33777778"></polygon>
            <polygon id="Path" points="269.808362 1.33777778 269.808362 8.8360784 258.720347 8.8360784 258.720347 17.3686275 268.514761 17.3686275 268.514761 24.8669281 258.720347 24.8669281 258.720347 34.4337255 269.253962 34.4337255 269.253962 41.9320261 252.252339 41.9320261 252.252339 1.33777778"></polygon>
            <path d="M295.125996,17.1100653 C294.756395,18.4028758 294.386795,19.4371242 293.832395,20.2128105 C293.277994,20.9884967 292.723593,21.764183 291.984392,22.5398693 C291.245191,23.0569935 290.50599,23.5741176 289.951589,24.0912418 C289.027588,24.608366 288.288387,25.1254902 287.364385,25.6426143 C286.440385,26.1597386 285.701183,26.4183006 285.146783,26.9354248 C284.407582,27.452549 283.853181,27.9696732 283.48358,28.7453595 C283.11398,29.2624836 282.92918,30.0381699 282.92918,31.0724183 C282.92918,31.5895425 282.92918,31.8481046 283.11398,32.3652288 C283.29878,32.8823529 283.48358,33.1409151 283.853181,33.6580392 C284.222782,34.1751634 284.592382,34.4337255 285.146783,34.6922876 C285.701183,34.9508496 286.255584,35.2094118 286.994785,35.2094118 C288.103587,35.2094118 289.027588,34.9508496 290.13639,34.4337255 C291.060391,33.9166013 291.984392,33.3994771 292.538793,32.6237908 L295.495597,39.3464052 C294.386795,40.6392157 292.908393,41.4149019 291.429991,41.9320261 C289.951589,42.4491504 288.473187,42.7077124 286.994785,42.7077124 C285.701183,42.7077124 284.407582,42.4491504 283.11398,41.9320261 C281.820378,41.4149019 280.711577,40.8977778 279.787576,39.8635294 C278.863574,38.8292811 278.124374,37.7950327 277.385172,36.2436601 C276.830772,34.6922876 276.461171,32.8823529 276.461171,30.8138563 C276.461171,29.2624836 276.645971,27.7111111 276.830772,26.6768628 C277.015572,25.6426143 277.385172,24.608366 277.939573,23.5741176 C278.493974,22.7984313 279.048374,22.0227451 279.602775,21.2470588 C280.157176,20.7299347 280.896377,19.9542483 281.635578,19.4371242 C282.189978,18.92 282.92918,18.4028758 283.853181,18.1443137 C284.777182,17.6271895 285.516383,17.1100653 286.440385,16.5929412 C287.179585,16.075817 287.918786,15.3001307 288.473187,14.7830065 C289.027588,14.0073202 289.397189,13.231634 289.397189,12.1973857 C289.397189,10.9045752 289.212388,10.1288889 288.657987,9.35320257 C288.103587,8.57751636 287.179585,8.31895423 285.701183,8.31895423 C284.592382,8.31895423 283.29878,8.57751636 282.189978,9.35320257 C281.081177,10.1288889 279.972376,10.9045752 279.233175,11.9388235 L275.72197,5.73333337 C277.200372,4.18196075 278.678774,2.88915035 280.157176,2.11346405 C281.635578,1.07921569 283.48358,0.820653594 285.516383,0.820653594 C288.657987,0.820653594 291.245191,1.85490196 293.093193,3.92339872 C294.941196,5.9918954 295.865197,9.09464053 295.865197,12.9730719 C295.680397,14.5244445 295.495597,15.8172549 295.125996,17.1100653" id="Path"></path>
        </g>
    </g>
</svg>